<svg width="32" height="32" viewBox="0 0 32 32" fill="none" xmlns="http://www.w3.org/2000/svg">
<g id="device/ic_device ">
<g id="icon">
<path d="M4.66663 7.33333V18.6667C4.66663 19.7733 5.55996 20.6667 6.66663 20.6667H18V22.6667H12.44L12.1333 24.2933H18V26.2933H6.66663V24.2933H10.0933L10.4 22.6667H6.66663C4.45329 22.6667 2.66663 20.88 2.66663 18.6667V7.19999C2.66663 6.17333 3.50663 5.33333 4.53329 5.33333H24.8C25.8266 5.33333 26.6666 6.17333 26.6666 7.19999V11.3333H24.6666V7.33333H4.66663Z" fill="#555555"/>
<path fill-rule="evenodd" clip-rule="evenodd" d="M20 15.3333C20 14.2267 20.8933 13.3333 22 13.3333H27.3333C28.44 13.3333 29.3333 14.2267 29.3333 15.3333V26C29.3333 27.1067 28.44 28 27.3333 28H22C20.8933 28 20 27.1067 20 26V15.3333ZM22 26H27.3333V15.3333H22V26Z" fill="#555555"/>
</g>
</g>
</svg>
