<svg width="32" height="32" viewBox="0 0 32 32" fill="none" xmlns="http://www.w3.org/2000/svg">
<g id="device/ic_device ">
<g id="icon">
<path d="M4.66699 7.33337V18.6667C4.66699 19.7734 5.56033 20.6667 6.66699 20.6667H18.0003V22.6667H12.4403L12.1337 24.2934H18.0003V26.2934H6.66699V24.2934H10.0937L10.4003 22.6667H6.66699C4.45366 22.6667 2.66699 20.88 2.66699 18.6667V7.20004C2.66699 6.17337 3.50699 5.33337 4.53366 5.33337H24.8003C25.827 5.33337 26.667 6.17337 26.667 7.20004V11.3334H24.667V7.33337H4.66699Z" fill="#333333"/>
<path fill-rule="evenodd" clip-rule="evenodd" d="M20.0003 15.3334C20.0003 14.2267 20.8937 13.3334 22.0003 13.3334H27.3337C28.4403 13.3334 29.3337 14.2267 29.3337 15.3334V26C29.3337 27.1067 28.4403 28 27.3337 28H22.0003C20.8937 28 20.0003 27.1067 20.0003 26V15.3334ZM22.0003 26H27.3337V15.3334H22.0003V26Z" fill="#333333"/>
</g>
</g>
</svg>
