<svg width="32" height="32" viewBox="0 0 32 32" fill="none" xmlns="http://www.w3.org/2000/svg">
<g id="file/ic_group">
<path id="icon" fill-rule="evenodd" clip-rule="evenodd" d="M2.66651 23.3301C2.66651 25.5393 4.45747 27.3303 6.66668 27.3302L25.3335 27.3293C27.5426 27.3293 29.3333 25.5384 29.3333 23.3293L29.3333 11.3368C29.3334 9.12753 27.5424 7.33663 25.3332 7.33672L16.0001 7.33713L15.2193 5.77544C14.8805 5.09787 14.188 4.66986 13.4304 4.66986H4.6665C3.56193 4.66986 2.6665 5.5653 2.6665 6.66988L2.66651 23.3301ZM4.66651 23.3301C4.66651 24.4347 5.56199 25.3302 6.6666 25.3301L25.3334 25.3293C26.4379 25.3293 27.3333 24.4339 27.3333 23.3293L27.3333 11.3368C27.3333 10.2321 26.4379 9.33669 25.3333 9.33674L14.7641 9.3372L13.4304 6.66988L4.6665 6.66988L4.66651 23.3301Z" fill="#333333"/>
</g>
</svg>
