<svg width="32" height="32" viewBox="0 0 32 32" fill="none" xmlns="http://www.w3.org/2000/svg">
<g id="common/ic_message">
<g id="icon">
<path fill-rule="evenodd" clip-rule="evenodd" d="M13.3558 23.3317L16.0002 25.976L18.6445 23.3318L24.6668 23.3318C25.7714 23.3318 26.6668 22.4364 26.6668 21.3318V7.33209L5.3335 7.33191V21.3316C5.3335 22.4362 6.22891 23.3316 7.33347 23.3316L13.3558 23.3317ZM5.33352 5.33191C4.22894 5.3319 3.3335 6.22733 3.3335 7.33191V21.3316C3.3335 23.5407 5.12433 25.3316 7.33345 25.3316L12.5274 25.3317L14.5859 27.3902C15.367 28.1713 16.6333 28.1713 17.4144 27.3902L19.4729 25.3318L24.6668 25.3318C26.8759 25.3318 28.6668 23.541 28.6668 21.3318V7.33209C28.6668 6.22752 27.7714 5.33209 26.6668 5.33209L5.33352 5.33191Z" fill="#333333"/>
<path fill-rule="evenodd" clip-rule="evenodd" d="M8.66683 10.6665H23.3335V12.6665H8.66683V10.6665ZM8.66683 15.6678H17.1112V17.6678H8.66683V15.6678Z" fill="#333333"/>
</g>
</g>
</svg>
