<svg width="32" height="32" viewBox="0 0 32 32" fill="none" xmlns="http://www.w3.org/2000/svg">
<g id="file/ic_report">
<g id="icon">
<path d="M26.1362 8.83734L20.5187 3.17871C20.1681 2.82537 19.6921 2.62671 19.1934 2.62671H7.20654C6.17586 2.62671 5.33984 3.4627 5.33984 4.49336V25.2972C5.33984 27.5066 7.13054 29.2972 9.3399 29.2972H22.6761C24.8841 29.2972 26.6762 27.5066 26.6762 25.2972V10.152C26.6775 9.66 26.4815 9.188 26.1362 8.83734ZM19.3027 4.79203L24.5495 10.0773H19.3681C19.3321 10.0773 19.3027 10.0493 19.3027 10.0107V4.79203ZM24.6775 25.2972C24.6775 26.4026 23.7815 27.2972 22.6774 27.2972H9.3399C8.23455 27.2972 7.33987 26.4012 7.33987 25.2972V4.6267H17.3014V10.012C17.3014 11.152 18.2227 12.0787 19.3667 12.0787H24.6761L24.6775 25.2972Z" fill="#333333"/>
<path d="M21.3427 22.0066H10.6239V24.0066H21.3427V22.0066Z" fill="#333333"/>
<path d="M21.3427 17.9799H10.6239V19.9799H21.3427V17.9799Z" fill="#333333"/>
</g>
</g>
</svg>
