<svg width="32" height="32" viewBox="0 0 32 32" fill="none" xmlns="http://www.w3.org/2000/svg">
<g id="file/ic_report">
<g id="icon">
<path d="M26.1364 8.83731L20.519 3.17868C20.1683 2.82534 19.6923 2.62668 19.1936 2.62668H7.20678C6.1761 2.62668 5.34009 3.46267 5.34009 4.49333V25.2972C5.34009 27.5065 7.13078 29.2972 9.34015 29.2972H22.6763C24.8844 29.2972 26.6764 27.5065 26.6764 25.2972V10.152C26.6777 9.65997 26.4817 9.18797 26.1364 8.83731ZM19.303 4.792L24.5497 10.0773H19.3683C19.3323 10.0773 19.303 10.0493 19.303 10.0106V4.792ZM24.6777 25.2972C24.6777 26.4025 23.7817 27.2972 22.6777 27.2972H9.34015C8.2348 27.2972 7.34012 26.4012 7.34012 25.2972V4.62667H17.3016V10.012C17.3016 11.152 18.2229 12.0786 19.367 12.0786H24.6764L24.6777 25.2972Z" fill="#555555"/>
<path d="M21.343 22.0066H10.6242V24.0066H21.343V22.0066Z" fill="#555555"/>
<path d="M21.343 17.9799H10.6242V19.9799H21.343V17.9799Z" fill="#555555"/>
</g>
</g>
</svg>
