<svg width="32" height="32" viewBox="0 0 32 32" fill="none" xmlns="http://www.w3.org/2000/svg">
<g id="audio &#38; video/ic_streaming">
<g id="icon">
<path fill-rule="evenodd" clip-rule="evenodd" d="M6.55234 6.54936C4.13871 8.96458 2.646 12.3002 2.646 15.9845C2.646 19.6841 4.15112 23.0321 6.58244 25.4497L7.99486 24.0337C5.92653 21.9782 4.646 19.1309 4.646 15.9845C4.646 12.8498 5.91708 10.0119 7.97196 7.95817L6.55234 6.54936ZM24.023 24.0033C26.0735 21.9502 27.3414 19.1154 27.3414 15.9845C27.3414 12.8462 26.0675 10.0054 24.0085 7.95115L25.42 6.53427C27.8425 8.95067 29.3414 12.2925 29.3414 15.9845C29.3414 19.6685 27.849 23.0039 25.4357 25.4191L24.023 24.0033Z" fill="#333333"/>
<path fill-rule="evenodd" clip-rule="evenodd" d="M10.3132 10.3129C8.87388 11.7701 7.98531 13.7725 7.98531 15.9826C7.98531 18.2106 8.88841 20.2277 10.3485 21.6877L11.7499 20.2607C10.6593 19.1636 9.98531 17.6518 9.98531 15.9826C9.98531 14.3248 10.6501 12.8223 11.7275 11.7271L10.3132 10.3129ZM20.2991 20.3184C21.4239 19.2169 22.1218 17.6812 22.1218 15.9826C22.1218 14.2951 21.433 12.7685 20.3213 11.6686L21.7347 10.2535C23.2089 11.7154 24.1218 13.7424 24.1218 15.9826C24.1218 18.2381 23.1963 20.2775 21.7043 21.7416L20.2991 20.3184Z" fill="#333333"/>
<path d="M18.6318 15.9664C18.6318 17.4174 17.4555 18.5936 16.0045 18.5936C14.5535 18.5936 13.3772 17.4174 13.3772 15.9664C13.3772 14.5154 14.5535 13.3391 16.0045 13.3391C17.4555 13.3391 18.6318 14.5154 18.6318 15.9664Z" fill="#333333"/>
</g>
</g>
</svg>
