<svg width="32" height="32" viewBox="0 0 32 32" fill="none" xmlns="http://www.w3.org/2000/svg">
<g id="common/ic_settings">
<g id="icon">
<path fill-rule="evenodd" clip-rule="evenodd" d="M11.8486 3.56203C11.9022 3.0531 12.3314 2.66675 12.8431 2.66675H19.1557C19.667 2.66675 20.0959 3.05243 20.1501 3.56084L20.4649 6.51615C20.9958 6.76686 21.5033 7.06097 21.9837 7.39508L24.6973 6.18617C25.1649 5.97786 25.7143 6.1563 25.9703 6.5996L29.1266 12.0662C29.3825 12.5094 29.2624 13.0743 28.8484 13.3751L26.4452 15.1216C26.475 15.4256 26.4907 15.715 26.4907 16.0011C26.4907 16.2844 26.4749 16.5723 26.445 16.8764L28.8484 18.623C29.2625 18.9239 29.3825 19.489 29.1264 19.9322L25.9681 25.3988C25.7123 25.8415 25.1638 26.02 24.6965 25.8125L21.9808 24.6069C21.502 24.9399 20.9932 25.2337 20.4593 25.4848L20.1482 28.4342C20.0945 28.9429 19.6658 29.329 19.1543 29.3293L12.8438 29.3334C12.3319 29.3337 11.9023 28.9474 11.8486 28.4383L11.5374 25.4877C11.005 25.2364 10.4972 24.9424 10.0173 24.6089L7.30532 25.8161C6.83786 26.0242 6.28874 25.8459 6.03277 25.4028L2.87445 19.9363C2.61836 19.493 2.73835 18.928 3.15245 18.627L5.55798 16.879C5.53002 16.5776 5.51631 16.2908 5.51631 16.0052C5.51631 15.7178 5.52994 15.4299 5.55784 15.1286L3.15171 13.3766C2.73817 13.0755 2.61854 12.5109 2.87445 12.068L6.03277 6.60139C6.2888 6.15825 6.83809 5.97994 7.30558 6.1882L10.0187 7.39688C10.5001 7.06141 11.0076 6.76706 11.5374 6.51743L11.8486 3.56203ZM13.7434 4.66675L13.4023 7.9058L12.8424 8.12978C12.0992 8.42705 11.4009 8.8321 10.7622 9.33393L10.2882 9.7064L7.31412 8.38149L5.05631 12.2894L7.69571 14.2112L7.60982 14.8075C7.54437 15.2619 7.51631 15.6409 7.51631 16.0052C7.51631 16.3648 7.54427 16.742 7.60998 17.2019L7.69516 17.7982L5.05672 19.7155L7.31425 23.623L10.2856 22.3003L10.7593 22.6716C11.3917 23.1673 12.091 23.5734 12.8451 23.8776L13.4024 24.1024L13.7431 27.3328L18.2535 27.3299L18.5945 24.0972L19.1533 23.8729C19.9116 23.5685 20.6115 23.1627 21.2356 22.6711L21.7092 22.298L24.6862 23.6197L26.9442 19.7115L24.3051 17.7937L24.3911 17.1967C24.4598 16.7195 24.4907 16.3422 24.4907 16.0011C24.4907 15.6533 24.4597 15.274 24.3912 14.8025L24.3045 14.2049L26.9444 12.2865L24.6886 8.37956L21.7152 9.70416L21.2413 9.33237C20.6068 8.8346 19.9076 8.42876 19.1582 8.12682L18.6012 7.90237L18.2566 4.66675H13.7434Z" fill="#333333"/>
<path fill-rule="evenodd" clip-rule="evenodd" d="M16.0004 13.3458C14.5345 13.3458 13.346 14.5342 13.346 16.0002C13.346 17.4662 14.5345 18.6546 16.0004 18.6546C17.4664 18.6546 18.6548 17.4662 18.6548 16.0002C18.6548 14.5342 17.4664 13.3458 16.0004 13.3458ZM11.346 16.0002C11.346 13.4296 13.4299 11.3458 16.0004 11.3458C18.571 11.3458 20.6548 13.4296 20.6548 16.0002C20.6548 18.5707 18.571 20.6546 16.0004 20.6546C13.4299 20.6546 11.346 18.5707 11.346 16.0002Z" fill="#333333"/>
</g>
</g>
</svg>
