<svg width="32" height="32" viewBox="0 0 32 32" fill="none" xmlns="http://www.w3.org/2000/svg">
<g id="common/ic_time">
<g id="icon">
<path fill-rule="evenodd" clip-rule="evenodd" d="M16 27.3333C22.2592 27.3333 27.3333 22.2592 27.3333 16C27.3333 9.74076 22.2592 4.66666 16 4.66666C9.74073 4.66666 4.66663 9.74076 4.66663 16C4.66663 22.2592 9.74073 27.3333 16 27.3333ZM16 29.3333C23.3638 29.3333 29.3333 23.3638 29.3333 16C29.3333 8.63619 23.3638 2.66666 16 2.66666C8.63616 2.66666 2.66663 8.63619 2.66663 16C2.66663 23.3638 8.63616 29.3333 16 29.3333Z" fill="#555555"/>
<path fill-rule="evenodd" clip-rule="evenodd" d="M16.782 15.1473V7.18968H14.9154V15.1473C14.9154 16.1782 15.7511 17.014 16.782 17.014H23.8366V15.1473L16.782 15.1473Z" fill="#555555"/>
</g>
</g>
</svg>
