<svg xmlns="http://www.w3.org/2000/svg" width="22" height="14">
    <path fill="#FFF" fill-rule="evenodd" d="M16.585 10.477c-.431.123-2.878.556-3.685.672V2.936c.71.099 2.569.424 3.341.568 1.186.22 1.633.851 1.633 2.61v1.522c0 1.86-.41 2.59-1.289 2.841zm.187-4.195c0-1.084-.3-1.562-1.036-1.65-.373-.043-1.229-.136-1.229-.136l-.157-.019V9.506l.156-.02c.009-.002.88-.109 1.386-.189.775-.125.88-.894.88-1.631V6.282zm-5.341 5.127c-.355.418-.922.704-1.73.857l-2.571.507c-.814.153-1.457.226-1.907.211-.463-.014-.848-.114-1.147-.306-.339-.215-.591-.566-.753-1.054-.163-.491-.245-1.151-.245-1.974 0-.182.009-.453.03-.813v-.051l2.4-.153c-.004.044-.009.093-.009.153-.003.059-.004.142-.004.246 0 .217.005.497.025.756l.001.013.005.048c.015.171.038.332.071.466.025.091.056.162.094.199.169.156.505.206 1.003.151l2.402-.343c.246-.026.423-.108.534-.245.109-.137.163-.637.163-.916 0-.327-.064-.942-.194-1.077-.133-.138-.352-.201-.664-.186l-2.134.078V6.04l2.41.07c.189.006.333-.059.434-.197.099-.137.148-.776.148-1.036 0-.328-.065-.857-.197-1.004-.134-.146-.371-.237-.718-.27l-2.417-.297c-.387-.036-.652.026-.797.191-.025.028-.046.081-.065.147-.039.17-.063.402-.077.645-.012.253-.015.517-.015.714v.148l-2.374-.16c-.017-.226-.026-.398-.032-.515-.004-.115-.007-.217-.007-.302 0-1.299.317-2.183.933-2.641.308-.23.711-.367 1.198-.415.454-.045.985-.013 1.585.094l2.801.497c.898.159 1.499.419 1.835.776l.01.008.012.016c.319.354.476.886.477 1.606V5.227l-.003.032c-.003.524-.067.901-.193 1.115-.128.218-.368.459-.734.554l.008.049c.272.069.548.31.69.515.143.206.225.551.228.992.001.01.004.019.004.031v1.208c0 .273-.024.514-.072.733-.079.381-.226.698-.442.953z"/>
</svg>
