<svg xmlns="http://www.w3.org/2000/svg" width="39" height="18">
    <path fill="#FFF" fill-rule="evenodd" d="M25.476 6.884c-.001.309-.095.597-.271.822-.085.113-.193.219-.319.301-.129.079-.276.134-.437.137H21.148c-.347-.003-.655-.16-.87-.403-.217-.246-.345-.579-.346-.94V3.206c0-.322.102-.618.29-.845.188-.224.46-.365.761-.381l.051-.001c.072 0 .141.006.208.02l3.284.523h.008c.299.061.532.257.689.491.16.238.253.533.253.84v3.006l.003.014-.003.011zm-7.619 8.897l-3.302 1.365s-.834.326-1.45-.039c-.675-.401-.578-1.248-.578-1.248v-5.056c0-.507.227-.962.574-1.279.343-.322.811-.555 1.319-.566h3.304s1.324.011 1.324 1.356l.007 3.784v.003c-.002.377-.131.742-.343 1.039-.211.296-.508.53-.855.641zm-.016-7.627H14.32c-.937.012-1.782-.637-1.792-1.593l-.001-4.974c0-.368.137-.697.373-.925.236-.227.546-.354.888-.375.195-.013.397.01.603.066h.004l3.523 1.181c.652.195 1.122.85 1.13 1.555v3.71c0 .707-.522 1.342-1.207 1.355zm.714-5.042c.007-.455-.365-.977-.791-1.086l-.008-.001L14.247.836c-.165-.044-.317-.061-.459-.05-.251.014-.453.104-.586.234-.134.135-.213.302-.215.542v4.99c0 .301.142.583.383.795.245.213.588.344.95.337h3.521c.392-.008.711-.426.714-.872v-3.7zm2.527 5.85h3.284c.305-.004.591.105.791.313.203.206.318.494.318.814v3.012c-.004.616-.317 1.133-.821 1.284l-.01.003-3.49.697c-.095.027-.188.041-.281.038h-.003c-.267-.009-.514-.133-.675-.333-.167-.199-.258-.465-.258-.764v-3.722c0-.695.484-1.323 1.145-1.342zm-.667 5.112c.012.407.207.574.426.581l.142-.02.01-.001 3.595-.721c.199-.061.436-.35.433-.794v-3.068c-.012-.401-.255-.609-.578-.613h-3.389c-.157 0-.313.095-.438.242-.123.142-.206.348-.206.583l.005 3.811z"/>
</svg>
