<svg xmlns="http://www.w3.org/2000/svg" width="22" height="24">
    <defs>
        <style>
            .cls-2{fill:#fff}
        </style>
    </defs>
    <g id="remote_power_ic" transform="translate(-1506 -398)">
        <g id="Shape_234" data-name="Shape 234" class="cls-2">
            <path d="M1516.93 419.731c-5.329 0-9.663-4.334-9.663-9.662a9.667 9.667 0 0 1 4.98-8.443l.113-.064.044-.025.012.022c.115-.043.235-.065.357-.065.592 0 1.073.481 1.073 1.072 0 .437-.262.826-.667.992a7.533 7.533 0 0 0-3.775 6.51c0 4.15 3.376 7.526 7.525 7.526 4.15 0 7.525-3.376 7.525-7.525 0-2.799-1.553-5.35-4.053-6.657a1.06 1.06 0 0 1-.647-.984 1.074 1.074 0 0 1 1.316-1.044l.01-.025.048.022.124.059c3.294 1.652 5.34 4.958 5.34 8.629 0 5.328-4.335 9.662-9.663 9.662z" style="stroke:none"/>
            <path d="M1520.827 401.405c-.564 0-1.023.46-1.023 1.023 0 .414.248.784.62.94 2.517 1.316 4.08 3.883 4.08 6.7 0 4.178-3.398 7.576-7.575 7.576s-7.575-3.398-7.575-7.575a7.59 7.59 0 0 1 3.803-6.556c.388-.157.64-.53.64-.947 0-.564-.46-1.022-1.024-1.022a.975.975 0 0 0-.38.077l-.008-.016-.115.065a9.616 9.616 0 0 0-4.953 8.399c0 5.3 4.312 9.612 9.612 9.612s9.613-4.311 9.613-9.612c0-3.651-2.036-6.941-5.31-8.584l-.125-.058-.007.016a1.018 1.018 0 0 0-.273-.038m.227-.114.22.103c3.312 1.662 5.368 4.985 5.368 8.675 0 5.355-4.357 9.712-9.713 9.712-5.355 0-9.712-4.357-9.712-9.712a9.717 9.717 0 0 1 5.005-8.487l.201-.113.016.028a1.124 1.124 0 0 1 1.457 1.069c0 .457-.272.863-.695 1.037a7.483 7.483 0 0 0-3.747 6.466c0 4.122 3.353 7.475 7.475 7.475s7.475-3.353 7.475-7.475a7.452 7.452 0 0 0-4.022-6.611 1.112 1.112 0 0 1-.678-1.03 1.124 1.124 0 0 1 1.336-1.102l.014-.035z" style="fill:#fff;stroke:none"/>
        </g>
        <path id="Shape_234_copy" data-name="Shape 234 copy" class="cls-2" d="M1516.976 406.511a1.012 1.012 0 0 0 1-1.019V399.5a1 1 0 1 0-2.007 0v5.989a1.012 1.012 0 0 0 1.007 1.022z"/>
    </g>
</svg>
