<svg width="17" height="10" viewBox="0 0 17 10" fill="none" xmlns="http://www.w3.org/2000/svg">
<path d="M8.01172 4.75781C8.01172 5.64062 7.84766 6.41211 7.51953 7.07227C7.19141 7.72852 6.73633 8.23438 6.1543 8.58984C5.57617 8.94141 4.92188 9.11719 4.19141 9.11719C3.45312 9.11719 2.79297 8.94141 2.21094 8.58984C1.63281 8.23438 1.17969 7.72852 0.851562 7.07227C0.523438 6.41211 0.359375 5.64062 0.359375 4.75781C0.359375 3.87109 0.523438 3.09961 0.851562 2.44336C1.17969 1.7832 1.63281 1.27734 2.21094 0.925781C2.79297 0.574219 3.45312 0.398438 4.19141 0.398438C4.92188 0.398438 5.57617 0.574219 6.1543 0.925781C6.73633 1.27734 7.19141 1.7832 7.51953 2.44336C7.84766 3.09961 8.01172 3.87109 8.01172 4.75781ZM6.73438 4.75781C6.73438 4.08594 6.625 3.51172 6.40625 3.03516C6.1875 2.55859 5.88477 2.19727 5.49805 1.95117C5.11523 1.70508 4.67969 1.58203 4.19141 1.58203C3.69922 1.58203 3.25977 1.70508 2.87305 1.95117C2.48633 2.19727 2.18359 2.55859 1.96484 3.03516C1.74609 3.51172 1.63672 4.08594 1.63672 4.75781C1.63672 5.42969 1.74609 6.00391 1.96484 6.48047C2.18359 6.95703 2.48633 7.31836 2.87305 7.56445C3.25977 7.81055 3.69922 7.93359 4.19141 7.93359C4.67969 7.93359 5.11523 7.81055 5.49805 7.56445C5.88477 7.31836 6.1875 6.95703 6.40625 6.48047C6.625 6 6.73438 5.42578 6.73438 4.75781ZM9.46484 0.515625H10.7539V4.55859H10.8594L14.4102 0.515625H16.0273L12.6055 4.33594L16.0391 9H14.4805L11.75 5.21484L10.7539 6.36328V9H9.46484V0.515625Z" fill="white"/>
</svg>
