<svg xmlns="http://www.w3.org/2000/svg" width="39" height="16">
    <path data-name="Rectangle 1" d="M1506.01 935.92a4.258 4.258 0 0 1 .149-1.119l.743.643a3.437 3.437 0 0 0-.032.476 3.662 3.662 0 0 0 3.73 3.58 3.847 3.847 0 0 0 1.921-.51h1.368a4.652 4.652 0 0 1-3.289 1.33 4.5 4.5 0 0 1-4.59-4.4zm31.666 2.038v-3.3h-2.391l-.012 3.29h-.921v-3.319a.778.778 0 0 1 .764-.79h2.723a.778.778 0 0 1 .764.79v3.332zm-17.4 0v-3.3h-1.2v3.295h-.927v-3.3h-1.19l-.013 3.29h-.92v-3.319a.778.778 0 0 1 .763-.79h3.654a.778.778 0 0 1 .764.79v3.332zm-11.424 0v-.832h3.586v-.82h-2.825a.777.777 0 0 1-.764-.79v-1.031a.777.777 0 0 1 .764-.79h3.618v.959h-3.591v.688h2.826a.777.777 0 0 1 .763.79v1.032a.777.777 0 0 1-.763.79zm19.623 0a.777.777 0 0 1-.764-.789v-3.319h.921l.013 3.29h3.188v.818zm14.114 0-1.38-1.652h-.885v1.647h-.927V933.7h.927v1.726l2.264-1.719h1.193l-2.179 1.654 2.179 2.6zm-10.1-4.258h.928v4.253h-.928zm-18.33 0h.928v4.253h-.928zm7.973 4.239v-4.1h4.018a.778.778 0 0 1 .764.79v1.153a.777.777 0 0 1-.764.79h-2.425v-.819h1.951s.307.009.307-.266v-.562a.283.283 0 0 0-.3-.266h-2.624l-.013 3.29zm-15.942-4.7a1.141 1.141 0 1 1 1.14 1.18 1.16 1.16 0 0 1-1.14-1.179zm7.633-.45h-1.411a3.851 3.851 0 0 0-1.812-.45 3.914 3.914 0 0 0-1 .13l-.726-.628a4.748 4.748 0 0 1 1.728-.322 4.663 4.663 0 0 1 3.224 1.268z" transform="translate(-1505.51 -927.52)" style="fill:#fff"/>
</svg>
