<svg xmlns="http://www.w3.org/2000/svg" width="39" height="16">
    <path fill="#FFF" fill-rule="evenodd" d="M25.385 7.515c0 .308-.031.608-.075.904.643.381 1.478.649 1.683.712-.197.915-.559 1.766-1.051 2.528-.192-.103-.97-.501-1.692-.685-.358.488-.787.919-1.276 1.276.184.722.583 1.5.685 1.693-.761.492-1.613.853-2.528 1.05-.063-.205-.331-1.042-.713-1.686-.295.046-.596.078-.903.078-.307 0-.607-.031-.902-.078-.381.644-.65 1.481-.712 1.686-.916-.197-1.768-.558-2.528-1.05.101-.193.5-.971.685-1.692-.49-.357-.919-.789-1.277-1.277-.723.184-1.5.584-1.693.685-.491-.762-.853-1.613-1.05-2.528.205-.063 1.041-.331 1.684-.713-.046-.295-.077-.595-.077-.903 0-.307.031-.607.077-.902-.643-.382-1.479-.651-1.684-.713.197-.915.559-1.767 1.05-2.529.194.103.97.502 1.693.686.358-.489.787-.919 1.277-1.277-.185-.723-.584-1.499-.685-1.693.759-.491 1.612-.853 2.528-1.05.061.205.33 1.041.712 1.684.295-.045.594-.075.902-.075.307 0 .608.03.903.075.383-.643.651-1.479.713-1.684.916.197 1.768.559 2.528 1.05-.102.193-.5.97-.685 1.693.489.358.919.789 1.276 1.277.722-.184 1.5-.582 1.692-.686.493.762.855 1.614 1.051 2.529-.204.062-1.04.331-1.683.713.044.295.075.595.075.902zm-5.87-3.305c-1.825 0-3.305 1.479-3.305 3.306 0 1.825 1.48 3.305 3.305 3.305 1.825 0 3.306-1.48 3.306-3.305 0-1.827-1.481-3.306-3.306-3.306zm0 4.315c-.557 0-1.009-.452-1.009-1.01 0-.557.452-1.009 1.009-1.009.558 0 1.01.452 1.01 1.009 0 .558-.452 1.01-1.01 1.01z"/>
</svg>
