<svg xmlns="http://www.w3.org/2000/svg" width="18" height="18">
    <path data-name="input icon" d="M1642.811 420a4.791 4.791 0 0 1-1.76-9.256 3.267 3.267 0 0 1 3.238-2.706l5.569.007c1.112 0 2.027 1.208 2.227 2.7h1.513a.526.526 0 0 1 .579.522.57.57 0 0 1-.577.581h-1.511c-.188 1.5-1.121 2.515-2.237 2.519l-5.537.007a3.28 3.28 0 0 1-3.025-1.845 3.074 3.074 0 0 0 1.52 5.755h5.558a.859.859 0 1 1 0 1.717zm5.764-8.7c.005 1.251.707 2.186 1.285 2.186a1.056 1.056 0 0 0 .745-.5 2.72 2.72 0 0 0 .422-1.11h-.743a.592.592 0 0 1-.6-.582.549.549 0 0 1 .588-.544l.75.005c-.166-.943-.693-1.65-1.175-1.65-.583.004-1.278.943-1.273 2.195z" style="fill:#fff" transform="translate(-1637 -405)"/>
</svg>
