<svg xmlns="http://www.w3.org/2000/svg" width="39.25" height="16.25">
    <path fill="#FFF" fill-rule="evenodd" stroke="#EEE" stroke-width=".5" d="M22.904 5.501h-8.85l2.044-2.05c.231-.233.231-.609-.002-.842-.233-.231-.609-.23-.841.002l-3.01 3.021c-.232.232-.232.607 0 .839l3.015 3.016c.117.117.269.175.422.175.151 0 .303-.058.42-.175.232-.232.232-.608 0-.84L14.146 6.69h8.758c1.828 0 3.316 1.488 3.316 3.317 0 1.829-1.488 3.317-3.319 3.317l-3.27.001c-.328.001-.593.269-.592.598.002.327.268.591.595.591h.003l3.267-.001c2.484 0 4.505-2.022 4.505-4.506 0-2.484-2.021-4.506-4.505-4.506z"/>
</svg>
