<svg width="24" height="24" viewBox="0 0 24 24" fill="none" xmlns="http://www.w3.org/2000/svg">
<g id="device/ic_battery">
<path id="icon" d="M19 8.306V6.5C19 5.671 18.328 5 17.5 5H9.99997C8.07997 5 6.47897 6.354 6.09197 8.158V8.066C3.75697 8.716 2.04297 10.859 2.04297 13.402C2.04297 16.461 4.52197 18.939 7.58097 18.939H18.941V17.439H7.58197C5.35197 17.439 3.54397 15.631 3.54397 13.401C3.54397 11.707 4.58797 10.258 6.06697 9.659C6.38297 11.553 8.01697 13 9.99997 13H17.5C18.328 13 19 12.328 19 11.5V9.806H22.03V8.306H19ZM17.5 11.5H9.99997C8.61897 11.5 7.49997 10.381 7.49997 9C7.49997 7.62 8.61897 6.5 9.99997 6.5H17.5V11.5Z" fill="#333333"/>
</g>
</svg>
