<svg width="32" height="32" viewBox="0 0 32 32" fill="none" xmlns="http://www.w3.org/2000/svg">
<g id="common/ic_home">
<path id="icon" d="M29.6854 14.6558L17.2374 4.27044C16.5214 3.67311 15.4814 3.67178 14.7641 4.26911L2.26807 14.6558L3.54673 16.1931L5.32807 14.7131V23.9998C5.32807 26.2091 7.11873 27.9998 9.32807 27.9998H22.6774C24.8867 28.0011 26.6774 26.2118 26.6774 24.0038V14.7518L28.4041 16.1931L29.6854 14.6558ZM18.0067 26.1331H13.9774V17.8278H18.0067V26.1331ZM24.8107 24.0024C24.8107 25.1784 23.8574 26.1331 22.6761 26.1331H19.8721V17.8278C19.8721 16.7971 19.0361 15.9611 18.0054 15.9611H13.9761C12.9454 15.9611 12.1094 16.7971 12.1094 17.8278V26.1331H9.32807C8.15073 26.1331 7.19473 25.1771 7.19473 23.9984V13.1598L16.0001 5.84244L24.8121 13.1944L24.8107 24.0024Z" fill="#333333"/>
</g>
</svg>
