<svg width="32" height="32" viewBox="0 0 32 32" fill="none" xmlns="http://www.w3.org/2000/svg">
<g id="ic_light">
<g id="icon">
<path fill-rule="evenodd" clip-rule="evenodd" d="M15.9996 21.3332C18.9451 21.3332 21.3329 18.9454 21.3329 15.9998C21.3329 13.0543 18.9451 10.6665 15.9996 10.6665C13.0541 10.6665 10.6662 13.0543 10.6662 15.9998C10.6662 18.9454 13.0541 21.3332 15.9996 21.3332ZM15.9996 23.3332C20.0497 23.3332 23.3329 20.0499 23.3329 15.9998C23.3329 11.9497 20.0497 8.6665 15.9996 8.6665C11.9495 8.6665 8.66624 11.9497 8.66624 15.9998C8.66624 20.0499 11.9495 23.3332 15.9996 23.3332Z" fill="#333333"/>
<path d="M14.9996 2.6665H16.9996V6.3185H14.9996V2.6665Z" fill="#333333"/>
<path d="M14.9996 25.6808H16.9996V29.3328H14.9996V25.6808Z" fill="#333333"/>
<path d="M26.1351 7.27863L24.7209 5.86442L22.1386 8.44677L23.5528 9.86099L26.1351 7.27863Z" fill="#333333"/>
<path d="M8.44749 22.1379L9.86171 23.5521L7.27935 26.1344L5.86514 24.7202L8.44749 22.1379Z" fill="#333333"/>
<path d="M24.7208 26.1341L26.135 24.7199L23.5526 22.1375L22.1384 23.5518L24.7208 26.1341Z" fill="#333333"/>
<path d="M9.86155 8.44645L8.44734 9.86067L5.86499 7.27831L7.2792 5.8641L9.86155 8.44645Z" fill="#333333"/>
<path d="M29.3329 16.9998V14.9998H25.6809V16.9998H29.3329Z" fill="#333333"/>
<path d="M6.31728 14.9998V16.9998H2.66528V14.9998H6.31728Z" fill="#333333"/>
</g>
</g>
</svg>
