<svg width="33" height="34" viewBox="0 0 33 34" fill="none" xmlns="http://www.w3.org/2000/svg">
<g id="common/ic_more">
<g id="icon">
<path d="M17.9119 16.877C17.9119 17.6256 17.305 18.2325 16.5564 18.2325C15.8077 18.2325 15.2009 17.6256 15.2009 16.877C15.2009 16.1284 15.8077 15.5215 16.5564 15.5215C17.305 15.5215 17.9119 16.1284 17.9119 16.877Z" fill="#333333"/>
<path d="M11.1811 16.877C11.1811 17.6256 10.5742 18.2325 9.8256 18.2325C9.07697 18.2325 8.47009 17.6256 8.47009 16.877C8.47009 16.1284 9.07697 15.5215 9.8256 15.5215C10.5742 15.5215 11.1811 16.1284 11.1811 16.877Z" fill="#333333"/>
<path d="M24.6613 16.877C24.6613 17.6256 24.0544 18.2325 23.3058 18.2325C22.5571 18.2325 21.9502 17.6256 21.9502 16.877C21.9502 16.1284 22.5571 15.5215 23.3058 15.5215C24.0544 15.5215 24.6613 16.1284 24.6613 16.877Z" fill="#333333"/>
</g>
</g>
</svg>
