<svg width="32" height="32" viewBox="0 0 32 32" fill="none" xmlns="http://www.w3.org/2000/svg">
<g id="common/ic_remote">
<g id="icon">
<path fill-rule="evenodd" clip-rule="evenodd" d="M27.3085 16.0034L23.7804 12.4754L25.1946 11.0611L28.7227 14.5892C29.5038 15.3703 29.5038 16.6366 28.7227 17.4176L25.1946 20.9457L23.7804 19.5315L27.3085 16.0034Z" fill="#333333"/>
<path fill-rule="evenodd" clip-rule="evenodd" d="M4.67371 16.0034L8.20179 12.4754L6.78758 11.0611L3.25949 14.5892C2.47844 15.3703 2.47844 16.6366 3.25949 17.4176L6.78758 20.9457L8.20179 19.5315L4.67371 16.0034Z" fill="#333333"/>
<path fill-rule="evenodd" clip-rule="evenodd" d="M15.9909 27.321L19.519 23.7929L20.9332 25.2071L17.4052 28.7352C16.6241 29.5163 15.3578 29.5163 14.5767 28.7352L11.0486 25.2071L12.4629 23.7929L15.9909 27.321Z" fill="#333333"/>
<path fill-rule="evenodd" clip-rule="evenodd" d="M15.9909 4.68555L19.519 8.21363L20.9332 6.79942L17.4052 3.27133C16.6241 2.49029 15.3578 2.49028 14.5767 3.27133L11.0486 6.79942L12.4629 8.21363L15.9909 4.68555Z" fill="#333333"/>
<path d="M17.4444 16.0079C17.4444 16.7904 16.8101 17.4247 16.0276 17.4247C15.2452 17.4247 14.6109 16.7904 14.6109 16.0079C14.6109 15.2255 15.2452 14.5912 16.0276 14.5912C16.8101 14.5912 17.4444 15.2255 17.4444 16.0079Z" fill="#333333"/>
</g>
</g>
</svg>
