<svg width="32" height="32" viewBox="0 0 32 32" fill="none" xmlns="http://www.w3.org/2000/svg">
<g id="common/ic_settings">
<g id="icon">
<path fill-rule="evenodd" clip-rule="evenodd" d="M11.8481 3.56179C11.9017 3.05286 12.3309 2.6665 12.8426 2.6665H19.1552C19.6665 2.6665 20.0955 3.05218 20.1496 3.5606L20.4644 6.51591C20.9953 6.76662 21.5028 7.06073 21.9832 7.39484L24.6968 6.18592C25.1644 5.97761 25.7138 6.15605 25.9698 6.59936L29.1261 12.0659C29.382 12.5091 29.262 13.074 28.8479 13.3749L26.4447 15.1213C26.4745 15.4253 26.4902 15.7148 26.4902 16.0009C26.4902 16.2841 26.4744 16.5721 26.4445 16.8762L28.8479 18.6227C29.262 18.9237 29.382 19.4887 29.1259 19.932L25.9676 25.3985C25.7118 25.8412 25.1633 26.0197 24.696 25.8122L21.9803 24.6066C21.5015 24.9397 20.9928 25.2335 20.4588 25.4845L20.1477 28.434C20.094 28.9426 19.6653 29.3288 19.1538 29.3291L12.8433 29.3332C12.3314 29.3335 11.9019 28.9472 11.8482 28.4381L11.5369 25.4875C11.0045 25.2362 10.4967 24.9421 10.0169 24.6087L7.30483 25.8159C6.83737 26.024 6.28826 25.8456 6.03228 25.4026L2.87396 19.936C2.61788 19.4928 2.73786 18.9277 3.15197 18.6268L5.55749 16.8787C5.52953 16.5773 5.51582 16.2906 5.51582 16.0049C5.51582 15.7176 5.52945 15.4296 5.55735 15.1283L3.15122 13.3764C2.73768 13.0753 2.61805 12.5107 2.87396 12.0677L6.03228 6.60115C6.28831 6.15801 6.8376 5.97969 7.30509 6.18796L10.0182 7.39663C10.4996 7.06116 11.0071 6.76682 11.537 6.51718L11.8481 3.56179ZM13.7429 4.6665L13.4018 7.90556L12.8419 8.12954C12.0987 8.4268 11.4005 8.83185 10.7618 9.33369L10.2877 9.70616L7.31363 8.38124L5.05582 12.2892L7.69522 14.2109L7.60933 14.8073C7.54388 15.2617 7.51582 15.6407 7.51582 16.0049C7.51582 16.3646 7.54379 16.7417 7.60949 17.2017L7.69468 17.798L5.05624 19.7153L7.31377 23.6227L10.2851 22.3001L10.7588 22.6714C11.3912 23.1671 12.0905 23.5731 12.8446 23.8773L13.4019 24.1021L13.7427 27.3326L18.2531 27.3297L18.594 24.097L19.1528 23.8726C19.9111 23.5682 20.611 23.1625 21.2351 22.6709L21.7087 22.2978L24.6857 23.6194L26.9437 19.7112L24.3046 17.7934L24.3906 17.1965C24.4593 16.7192 24.4902 16.342 24.4902 16.0009C24.4902 15.6531 24.4592 15.2738 24.3907 14.8023L24.304 14.2047L26.9439 12.2863L24.6881 8.37931L21.7147 9.70391L21.2408 9.33212C20.6063 8.83436 19.9072 8.42852 19.1577 8.12657L18.6007 7.90213L18.2561 4.6665H13.7429Z" fill="#333333"/>
<path fill-rule="evenodd" clip-rule="evenodd" d="M16 13.3455C14.534 13.3455 13.3456 14.534 13.3456 15.9999C13.3456 17.4659 14.534 18.6543 16 18.6543C17.4659 18.6543 18.6544 17.4659 18.6544 15.9999C18.6544 14.534 17.4659 13.3455 16 13.3455ZM11.3456 15.9999C11.3456 13.4294 13.4294 11.3455 16 11.3455C18.5705 11.3455 20.6544 13.4294 20.6544 15.9999C20.6544 18.5705 18.5705 20.6543 16 20.6543C13.4294 20.6543 11.3456 18.5705 11.3456 15.9999Z" fill="#333333"/>
</g>
</g>
</svg>
