<svg width="32" height="32" viewBox="0 0 32 32" fill="none" xmlns="http://www.w3.org/2000/svg">
<g id="audio &#38; video/ic_volume">
<g id="icon">
<path fill-rule="evenodd" clip-rule="evenodd" d="M21.3587 25.414C25.9216 24.608 29.3875 20.6235 29.3875 15.8294C29.3875 11.0353 25.9216 7.05077 21.3587 6.24481V8.28453C24.8096 9.06082 27.3875 12.1441 27.3875 15.8294C27.3875 19.5147 24.8096 22.598 21.3587 23.3743V25.414Z" fill="#333333"/>
<path fill-rule="evenodd" clip-rule="evenodd" d="M21.3587 20.8849C23.4682 20.1737 24.9873 18.1792 24.9873 15.8298C24.9873 13.4805 23.4682 11.4859 21.3587 10.7748V12.9648C22.334 13.5464 22.9873 14.6118 22.9873 15.8298C22.9873 17.0478 22.334 18.1132 21.3587 18.6948V20.8849Z" fill="#333333"/>
<path fill-rule="evenodd" clip-rule="evenodd" d="M10.0233 11.3722H6.68567C5.5811 11.3722 4.68567 12.2676 4.68567 13.3722V18.6113C4.68567 19.7159 5.5811 20.6113 6.68567 20.6113H10.0124L17.5151 25.5515V6.33071L10.0233 11.3722ZM9.41307 22.6113L16.6219 27.358C17.8631 28.1753 19.5151 27.285 19.5151 25.799V6.08028C19.5151 4.58572 17.8463 3.69721 16.6063 4.53161L9.41307 9.37218H6.68567C4.47653 9.37218 2.68567 11.163 2.68567 13.3722V18.6113C2.68567 20.8204 4.47653 22.6113 6.68567 22.6113H9.41307Z" fill="#333333"/>
</g>
</g>
</svg>
