<svg width="32" height="32" viewBox="0 0 32 32" fill="none" xmlns="http://www.w3.org/2000/svg">
<g id="audio &#38; video/ic_volumeoff">
<g id="Vector">
<path d="M7.10856 20.6128H6.64856C5.54323 20.6128 4.64856 19.7168 4.64856 18.6128V13.3741C4.64856 12.2701 5.54323 11.3741 6.64856 11.3741H9.98723L17.4792 6.33414V10.2461L19.4792 8.24614V6.08214C19.4792 4.58747 17.8099 3.69947 16.5699 4.53281L9.37656 9.37414H6.64856C4.43923 9.37414 2.64856 11.1648 2.64856 13.3741V18.6128C2.64856 20.3608 3.76856 21.8475 5.33123 22.3915L7.10856 20.6128Z" fill="#333333"/>
<path d="M25.3192 7.97147L27.9166 5.37414L26.5019 3.95947L3.83389 26.6261L5.24856 28.0408L10.1606 23.1288L16.5846 27.3595C17.8246 28.1768 19.4779 27.2861 19.4779 25.7995V13.8115L21.3219 11.9675V12.9675C22.2952 13.5488 22.9499 14.6141 22.9499 15.8315C22.9499 17.0501 22.2966 18.1155 21.3219 18.6955V20.8861C23.4312 20.1755 24.9499 18.1808 24.9499 15.8315C24.9499 13.8035 23.8139 12.0435 22.1472 11.1421L23.8846 9.40481C25.9686 10.7901 27.3512 13.1435 27.3512 15.8315C27.3512 19.5168 24.7726 22.5995 21.3232 23.3755V25.4155C25.8859 24.6101 29.3512 20.6248 29.3512 15.8315C29.3512 12.5915 27.7539 9.74081 25.3192 7.97147ZM17.4792 25.5528L11.6046 21.6861L17.4792 15.8115V25.5528Z" fill="#333333"/>
</g>
</g>
</svg>
