<svg width="24" height="10" viewBox="0 0 24 10" fill="none" xmlns="http://www.w3.org/2000/svg">
<path d="M0.451172 9.5L3.36717 0.667999H4.98717L7.90317 9.5H6.42717L5.01117 4.712C4.71117 3.752 4.44717 2.756 4.17117 1.772H4.12317C3.85917 2.768 3.59517 3.752 3.29517 4.712L1.86717 9.5H0.451172ZM2.09517 6.992V5.9H6.22317V6.992H2.09517ZM9.06802 9.5V0.667999H11.96C13.784 0.667999 15.152 1.316 15.152 3.236C15.152 5.084 13.784 5.936 11.96 5.936H10.472V9.5H9.06802ZM10.472 4.82H11.804C13.076 4.82 13.772 4.292 13.772 3.236C13.772 2.168 13.076 1.796 11.804 1.796H10.472V4.82ZM13.904 9.5L11.696 5.576L12.728 4.76L15.464 9.5H13.904ZM20.387 9.668C18.179 9.668 16.463 8.012 16.463 5.108C16.463 2.228 18.227 0.512 20.459 0.512C21.563 0.512 22.415 1.04 22.955 1.616L22.211 2.516C21.755 2.048 21.203 1.724 20.483 1.724C18.959 1.724 17.903 2.996 17.903 5.06C17.903 7.16 18.887 8.444 20.447 8.444C21.251 8.444 21.875 8.084 22.391 7.508L23.147 8.384C22.439 9.212 21.539 9.668 20.387 9.668Z" fill="white"/>
</svg>
