<svg width="17" height="10" viewBox="0 0 17 10" fill="none" xmlns="http://www.w3.org/2000/svg">
<path d="M4.59431 9.668C2.31431 9.668 0.742313 7.904 0.742313 5.048C0.742313 2.204 2.31431 0.512 4.59431 0.512C6.86231 0.512 8.43431 2.204 8.43431 5.048C8.43431 7.904 6.86231 9.668 4.59431 9.668ZM4.59431 8.444C6.05831 8.444 7.00631 7.112 7.00631 5.048C7.00631 2.984 6.05831 1.724 4.59431 1.724C3.11831 1.724 2.18231 2.984 2.18231 5.048C2.18231 7.112 3.11831 8.444 4.59431 8.444ZM10.2692 9.5V0.667999H11.6972L14.6372 5.864L15.5612 7.724H15.6212C15.5372 6.824 15.4292 5.744 15.4292 4.796V0.667999H16.7612V9.5H15.3212L12.4052 4.304L11.4812 2.444H11.4212C11.4812 3.368 11.6012 4.376 11.6012 5.348V9.5H10.2692Z" fill="white"/>
</svg>
