<svg width="39" height="14" viewBox="0 0 39 14" fill="none" xmlns="http://www.w3.org/2000/svg">
<path d="M3.90395 13.738C2.45895 13.738 1.42195 13.143 0.707949 12.395L1.76195 11.188C2.27195 11.749 3.03695 12.123 3.81895 12.123C5.39995 12.123 6.74295 10.797 6.74295 6.819C6.74295 3.691 5.77395 2.263 4.24395 2.263C3.15595 2.263 2.30595 3.232 2.30595 4.881C2.30595 6.462 3.03695 7.38 4.34595 7.38C5.12795 7.38 6.01195 6.938 6.74295 5.799L6.84495 7.227C6.11395 8.196 4.99195 8.808 3.98895 8.808C1.89795 8.808 0.486949 7.499 0.486949 4.881C0.486949 2.382 2.18695 0.767 4.22695 0.767C6.62395 0.767 8.56195 2.688 8.56195 6.819C8.56195 11.749 6.31795 13.738 3.90395 13.738ZM14.1082 13.5L12.6082 6.14H13.8082L14.4882 9.97C14.6282 10.75 14.7582 11.54 14.8882 12.34H14.9282C15.0882 11.54 15.2582 10.75 15.4282 9.97L16.3682 6.14H17.3982L18.3482 9.97C18.5282 10.74 18.6782 11.54 18.8582 12.34H18.9082C19.0282 11.54 19.1582 10.75 19.2782 9.97L19.9782 6.14H21.0882L19.6382 13.5H18.1982L17.2182 9.41C17.0882 8.84 16.9782 8.29 16.8782 7.73H16.8382C16.7282 8.29 16.5982 8.84 16.4882 9.41L15.5182 13.5H14.1082ZM21.4837 13.5L23.5937 9.71L21.6037 6.14H22.9037L23.7837 7.87C23.9737 8.21 24.1237 8.54 24.3537 8.98H24.3937C24.5837 8.54 24.7337 8.21 24.9037 7.87L25.7637 6.14H26.9937L25.0137 9.76L27.1337 13.5H25.8437L24.8737 11.67C24.6837 11.3 24.4837 10.92 24.2537 10.47H24.2137C24.0137 10.92 23.8337 11.3 23.6537 11.67L22.7137 13.5H21.4837ZM29.4608 13.5V10.72L27.2408 6.14H28.4808L29.3408 8.1C29.5708 8.64 29.7808 9.16 30.0208 9.72H30.0608C30.3108 9.16 30.5408 8.64 30.7708 8.1L31.6208 6.14H32.8308L30.6208 10.72V13.5H29.4608ZM32.9458 13.5V12.8L36.6358 7.12H33.2958V6.14H38.0758V6.84L34.3858 12.52H38.1158V13.5H32.9458Z" fill="white"/>
</svg>
