<svg width="21" height="16" viewBox="0 0 21 16" fill="none" xmlns="http://www.w3.org/2000/svg">
<path d="M0.445 13.5V11.885H3.199V3.181H0.938V1.94C2.128 1.736 2.944 1.43 3.675 0.987999H5.154V11.885H7.602V13.5H0.445ZM13.1052 13.64C12.6652 13.64 12.3352 13.3 12.3352 12.83C12.3352 12.35 12.6652 12.02 13.1052 12.02C13.5352 12.02 13.8752 12.35 13.8752 12.83C13.8752 13.3 13.5352 13.64 13.1052 13.64ZM15.3738 15.51L15.1238 14.86C15.8138 14.57 16.2138 14.06 16.2138 13.46L16.1338 12.54L16.6138 13.29C16.4738 13.44 16.2938 13.5 16.1038 13.5C15.6938 13.5 15.3238 13.23 15.3238 12.76C15.3238 12.3 15.6938 12.02 16.1338 12.02C16.6938 12.02 17.0238 12.48 17.0238 13.25C17.0238 14.31 16.4138 15.12 15.3738 15.51ZM18.9023 11.16L18.7323 7.16L18.7023 5.96H19.8623L19.8323 7.16L19.6723 11.16H18.9023ZM19.2823 13.64C18.8523 13.64 18.5123 13.3 18.5123 12.83C18.5123 12.35 18.8523 12.02 19.2823 12.02C19.7223 12.02 20.0523 12.35 20.0523 12.83C20.0523 13.3 19.7223 13.64 19.2823 13.64Z" fill="white"/>
</svg>
