<svg width="39" height="11" viewBox="0 0 39 11" fill="none" xmlns="http://www.w3.org/2000/svg">
<path d="M3.09246 8.14C2.07246 8.14 1.14246 7.74 0.472461 7.06L1.15246 6.25C1.67246 6.78 2.40246 7.12 3.11246 7.12C3.99246 7.12 4.49246 6.71 4.49246 6.08C4.49246 5.41 3.99246 5.2 3.31246 4.91L2.29246 4.46C1.58246 4.17 0.802461 3.61 0.802461 2.54C0.802461 1.38 1.81246 0.51 3.21246 0.51C4.08246 0.51 4.89246 0.869999 5.44246 1.44L4.84246 2.17C4.38246 1.77 3.86246 1.52 3.21246 1.52C2.46246 1.52 1.98246 1.88 1.98246 2.46C1.98246 3.09 2.57246 3.33 3.17246 3.58L4.18246 4C5.05246 4.37 5.68246 4.91 5.68246 5.99C5.68246 7.17 4.70246 8.14 3.09246 8.14ZM9.26645 8.14C7.76645 8.14 6.58645 7.07 6.58645 5.26C6.58645 3.47 7.81645 2.36 9.09645 2.36C10.5464 2.36 11.3364 3.41 11.3364 4.97C11.3364 5.2 11.3164 5.42 11.2864 5.56H7.71645C7.80645 6.61 8.46645 7.23 9.41645 7.23C9.90645 7.23 10.3164 7.08 10.7264 6.82L11.1264 7.56C10.6164 7.9 9.98645 8.14 9.26645 8.14ZM7.69645 4.76H10.3364C10.3364 3.81 9.91645 3.27 9.11645 3.27C8.42645 3.27 7.81645 3.8 7.69645 4.76ZM14.3243 8.14C13.0943 8.14 12.6543 7.36 12.6543 6.21V3.42H11.8543V2.56L12.7143 2.5L12.8443 0.98H13.8043V2.5H15.2443V3.42H13.8043V6.22C13.8043 6.87 14.0443 7.22 14.6143 7.22C14.8043 7.22 15.0343 7.15 15.2043 7.08L15.4143 7.93C15.1043 8.03 14.7343 8.14 14.3243 8.14ZM18.0157 8.14C16.7857 8.14 16.3457 7.36 16.3457 6.21V3.42H15.5457V2.56L16.4057 2.5L16.5357 0.98H17.4957V2.5H18.9357V3.42H17.4957V6.22C17.4957 6.87 17.7357 7.22 18.3057 7.22C18.4957 7.22 18.7257 7.15 18.8957 7.08L19.1057 7.93C18.7957 8.03 18.4257 8.14 18.0157 8.14ZM20.1305 8V2.5H21.2905V8H20.1305ZM20.7105 1.47C20.2805 1.47 20.0005 1.2 20.0005 0.779999C20.0005 0.37 20.2805 0.0999998 20.7105 0.0999998C21.1305 0.0999998 21.4305 0.37 21.4305 0.779999C21.4305 1.2 21.1305 1.47 20.7105 1.47ZM23.0114 8V2.5H23.9514L24.0514 3.27H24.0814C24.5814 2.77 25.1514 2.36 25.9014 2.36C27.0714 2.36 27.5914 3.15 27.5914 4.54V8H26.4314V4.69C26.4314 3.73 26.1514 3.36 25.5114 3.36C25.0014 3.36 24.6514 3.62 24.1714 4.1V8H23.0114ZM31.1416 10.47C29.8216 10.47 28.8616 9.98 28.8616 9.03C28.8616 8.56 29.1516 8.13 29.6616 7.83V7.78C29.3716 7.6 29.1616 7.31 29.1616 6.86C29.1616 6.43 29.4616 6.06 29.7716 5.84V5.8C29.4016 5.52 29.0416 4.99 29.0416 4.34C29.0416 3.09 30.0416 2.36 31.1716 2.36C31.4916 2.36 31.7716 2.42 31.9816 2.5H33.9216V3.37H32.8816C33.0916 3.59 33.2416 3.95 33.2416 4.37C33.2416 5.58 32.3316 6.26 31.1716 6.26C30.9316 6.26 30.6516 6.21 30.4016 6.1C30.2316 6.25 30.1016 6.41 30.1016 6.68C30.1016 7 30.3316 7.21 31.0216 7.21H32.0416C33.3416 7.21 34.0216 7.61 34.0216 8.55C34.0216 9.61 32.9016 10.47 31.1416 10.47ZM31.1716 5.52C31.7416 5.52 32.2116 5.07 32.2116 4.34C32.2116 3.6 31.7516 3.18 31.1716 3.18C30.6016 3.18 30.1416 3.6 30.1416 4.34C30.1416 5.07 30.6116 5.52 31.1716 5.52ZM31.3116 9.71C32.2716 9.71 32.9016 9.24 32.9016 8.74C32.9016 8.28 32.5416 8.13 31.8716 8.13H31.0416C30.7816 8.13 30.5416 8.11 30.3116 8.05C29.9816 8.3 29.8416 8.58 29.8416 8.86C29.8416 9.39 30.4016 9.71 31.3116 9.71ZM36.5329 8.14C35.7729 8.14 34.9929 7.82 34.4629 7.38L35.0029 6.63C35.4929 7.01 35.9629 7.26 36.5629 7.26C37.2129 7.26 37.5229 6.94 37.5229 6.52C37.5229 6.03 36.9029 5.8 36.3129 5.58C35.5729 5.3 34.7629 4.91 34.7629 3.97C34.7629 3.05 35.5029 2.36 36.7329 2.36C37.4629 2.36 38.0729 2.66 38.5129 3.01L37.9729 3.72C37.5929 3.45 37.2029 3.24 36.7529 3.24C36.1429 3.24 35.8629 3.54 35.8629 3.92C35.8629 4.39 36.3929 4.57 37.0029 4.79C37.7729 5.08 38.6129 5.43 38.6129 6.46C38.6129 7.39 37.8829 8.14 36.5329 8.14Z" fill="white"/>
</svg>
