<svg width="14" height="12" viewBox="0 0 14 12" fill="none" xmlns="http://www.w3.org/2000/svg">
<path fill-rule="evenodd" clip-rule="evenodd" d="M6.42396 0.676324C6.76535 0.440863 7.21664 0.440549 7.55836 0.675535L13.0636 4.46133C13.8727 5.01774 13.479 6.28531 12.497 6.28531H12.4779C12.493 6.35449 12.501 6.42636 12.501 6.50009V10.5001C12.501 11.0524 12.0533 11.5001 11.501 11.5001H2.50098C1.94869 11.5001 1.50098 11.0524 1.50098 10.5001V6.50009C1.50098 6.42636 1.50896 6.35449 1.5241 6.28531H1.50285C0.521581 6.28531 0.127312 5.01925 0.935082 4.46212L6.42396 0.676324ZM9.49121 7.50888H4.49121V9.50888H9.49121V7.50888Z" fill="white"/>
</svg>
