<svg width="43" height="18" viewBox="0 0 43 18" fill="none" xmlns="http://www.w3.org/2000/svg">
<path d="M20.4415 6.09513L20.4387 6.34162C20.416 6.341 20.3932 6.34069 20.3703 6.34069C19.8097 6.34069 19.338 6.56192 18.9992 6.9991C18.999 6.99936 18.9988 6.99962 18.9986 6.99988L19.1194 7.09346L19.3939 7.30595M20.4415 6.09513L20.4392 6.34164C21.0003 6.35715 21.4878 6.564 21.8218 7.00983C21.8456 7.04103 21.8684 7.07286 21.89 7.10529L22.2189 6.82767M20.4415 6.09513C21.2176 6.10399 21.8061 6.34626 22.2189 6.82767M20.4415 6.09513C19.6378 6.08784 19.0152 6.37752 18.5785 6.96L22.7926 8.69564M22.2189 6.82767L21.8919 7.10806C22.0249 7.30847 22.1155 7.532 22.1695 7.77295M22.2189 6.82767C22.5998 7.27886 22.7926 7.89729 22.7926 8.68193V8.69564M22.1695 7.77295C22.0912 7.52298 21.9783 7.31819 21.8381 7.15165C21.8118 7.12112 21.7845 7.09171 21.756 7.06346L21.4231 7.31168M22.1695 7.77295C22.249 8.02689 22.2926 8.32746 22.2926 8.68193V8.69564M22.1695 7.77295C22.2198 7.99763 22.2383 8.23745 22.2299 8.48779L22.2229 8.69564M21.4231 7.31168L21.7516 7.05912C21.457 6.76902 21.0409 6.60211 20.4363 6.59511C20.4141 6.59491 20.3921 6.59498 20.3703 6.59531C19.8303 6.60354 19.4261 6.77395 19.1204 7.09246L19.3939 7.30595M21.4231 7.31168C21.1889 6.99752 20.8383 6.84069 20.3703 6.84069C19.9565 6.84069 19.6335 6.99647 19.3939 7.30595M21.4231 7.31168C21.5616 7.49177 21.6539 7.71129 21.6993 7.97092H21.7302V8.27574C21.7324 8.33888 21.7324 8.40393 21.7302 8.47092H19.5327H19.0327V7.97092H19.0849C19.1414 7.71974 19.2439 7.49813 19.3939 7.30595M22.2926 8.69564H22.2229M22.2926 8.69564H22.7926M22.2926 8.69564V9.19564H19.0327C18.9881 9.72967 19.0736 10.1756 19.285 10.5367L18.9085 10.7564C18.7491 10.5397 18.6265 10.2605 18.5522 9.90795M22.2229 8.69564H21.7302H19.0327H18.5727L18.5497 8.97092M22.2229 8.69564L22.2136 8.97092H21.7302H19.0327H18.5497M18.5497 8.97092H18.5327V8.47092C18.5327 8.40893 18.5345 8.34758 18.5381 8.28692C18.4942 8.51521 18.4714 8.76726 18.4714 9.04507C18.4714 9.37206 18.4997 9.6584 18.5522 9.90795M18.5497 8.97092L18.5345 9.154C18.5125 9.41627 18.5175 9.66836 18.5522 9.90795M24.0759 13.7833L24.0969 13.7666L24.1125 13.8721L24.824 13.0737C25.4119 12.414 25.8596 11.6257 26.1195 10.7559L26.2425 10.7819C25.981 11.6625 25.5305 12.4623 24.9375 13.1342L24.4868 13.6447L24.4523 13.6342L24.2452 13.8066C23.1618 14.7082 21.7698 15.25 20.25 15.25C18.3572 15.25 16.6609 14.409 15.5141 13.0787L15.6155 13.0047C16.738 14.3026 18.398 15.125 20.25 15.125C21.6969 15.125 23.0278 14.6227 24.0759 13.7833ZM14.1391 8.59005L14.0137 8.59173C14.0162 8.55393 14.0191 8.51608 14.0222 8.47817C14.0254 8.44026 14.0289 8.40247 14.0328 8.36479L14.1561 8.38732C14.1527 8.42099 14.1496 8.45476 14.1468 8.48862C14.144 8.52248 14.1414 8.55629 14.1391 8.59005ZM20.7621 2.8968C20.7283 2.89396 20.6945 2.8914 20.6607 2.88912L20.659 2.76373C20.6968 2.76622 20.7347 2.76906 20.7726 2.77223C20.8105 2.77541 20.8483 2.77892 20.886 2.78276L20.8634 2.90612C20.8298 2.90274 20.796 2.89964 20.7621 2.8968Z" fill="#231815" stroke="white"/>
</svg>
