<svg width="27" height="10" viewBox="0 0 27 10" fill="none" xmlns="http://www.w3.org/2000/svg">
<path d="M0.0660625 9.5V0.667999H1.47006V9.5H0.0660625ZM3.76919 9.5V0.667999H5.19719L8.13719 5.864L9.06119 7.724H9.12119C9.03719 6.824 8.92919 5.744 8.92919 4.796V0.667999H10.2612V9.5H8.82119L5.90519 4.304L4.98119 2.444H4.92119C4.98119 3.368 5.10119 4.376 5.10119 5.348V9.5H3.76919ZM12.5817 9.5V0.667999H17.8257V1.844H13.9857V4.532H17.2497V5.708H13.9857V9.5H12.5817ZM22.5631 9.668C20.2831 9.668 18.7111 7.904 18.7111 5.048C18.7111 2.204 20.2831 0.512 22.5631 0.512C24.8311 0.512 26.4031 2.204 26.4031 5.048C26.4031 7.904 24.8311 9.668 22.5631 9.668ZM22.5631 8.444C24.0271 8.444 24.9751 7.112 24.9751 5.048C24.9751 2.984 24.0271 1.724 22.5631 1.724C21.0871 1.724 20.1511 2.984 20.1511 5.048C20.1511 7.112 21.0871 8.444 22.5631 8.444Z" fill="white"/>
</svg>
