<svg width="30" height="13" viewBox="0 0 30 13" fill="none" xmlns="http://www.w3.org/2000/svg">
<path d="M0.891582 10.5V9.36H2.83558V3.468H1.23958V2.592C2.07958 2.436 2.65558 2.22 3.17158 1.908H4.21558V9.36H5.94358V10.5H0.891582ZM6.85933 12.66L10.1953 0.912H11.1433L7.81933 12.66H6.85933ZM13.5964 10.668C12.4684 10.668 11.6644 9.912 11.6644 8.748C11.6644 7.332 12.8644 6.6 15.6004 6.3C15.5884 5.532 15.3124 4.86 14.3524 4.86C13.6564 4.86 12.9964 5.184 12.4444 5.544L11.9284 4.596C12.6004 4.176 13.5364 3.732 14.5924 3.732C16.2364 3.732 16.9924 4.776 16.9924 6.54V10.5H15.8524L15.7444 9.756H15.6964C15.0964 10.272 14.3884 10.668 13.5964 10.668ZM14.0284 9.564C14.6044 9.564 15.0604 9.3 15.6004 8.796V7.188C13.6444 7.416 12.9964 7.908 12.9964 8.652C12.9964 9.3 13.4404 9.564 14.0284 9.564ZM18.0507 12.66L21.3867 0.912H22.3347L19.0107 12.66H18.0507ZM21.9966 10.5L24.9126 1.668H26.5326L29.4486 10.5H27.9726L26.5566 5.712C26.2566 4.752 25.9926 3.756 25.7166 2.772H25.6686C25.4046 3.768 25.1406 4.752 24.8406 5.712L23.4126 10.5H21.9966ZM23.6406 7.992V6.9H27.7686V7.992H23.6406Z" fill="white"/>
</svg>
