<svg width="37" height="10" viewBox="0 0 37 10" fill="none" xmlns="http://www.w3.org/2000/svg">
<path d="M4.43682 9.668C2.22882 9.668 0.51282 8.012 0.51282 5.108C0.51282 2.228 2.27682 0.512 4.50882 0.512C5.61282 0.512 6.46482 1.04 7.00482 1.616L6.26082 2.516C5.80482 2.048 5.25282 1.724 4.53282 1.724C3.00882 1.724 1.95282 2.996 1.95282 5.06C1.95282 7.16 2.93682 8.444 4.49682 8.444C5.30082 8.444 5.92482 8.084 6.44082 7.508L7.19682 8.384C6.48882 9.212 5.58882 9.668 4.43682 9.668ZM8.75063 9.5V0.667999H10.1546V8.324H13.8986V9.5H8.75063ZM15.442 9.5V0.667999H20.674V1.844H16.846V4.292H20.074V5.48H16.846V8.324H20.806V9.5H15.442ZM21.4854 9.5L24.4014 0.667999H26.0214L28.9374 9.5H27.4614L26.0454 4.712C25.7454 3.752 25.4814 2.756 25.2054 1.772H25.1574C24.8934 2.768 24.6294 3.752 24.3294 4.712L22.9014 9.5H21.4854ZM23.1294 6.992V5.9H27.2574V6.992H23.1294ZM30.1022 9.5V0.667999H32.9942C34.8182 0.667999 36.1862 1.316 36.1862 3.236C36.1862 5.084 34.8182 5.936 32.9942 5.936H31.5062V9.5H30.1022ZM31.5062 4.82H32.8382C34.1102 4.82 34.8062 4.292 34.8062 3.236C34.8062 2.168 34.1102 1.796 32.8382 1.796H31.5062V4.82ZM34.9382 9.5L32.7302 5.576L33.7622 4.76L36.4982 9.5H34.9382Z" fill="white"/>
</svg>
