<svg width="30" height="14" viewBox="0 0 30 14" fill="none" xmlns="http://www.w3.org/2000/svg">
<path d="M4.22934 13.738C2.25734 13.738 1.01634 12.939 0.11534 12.055L1.06734 10.78C1.76434 11.494 2.68234 12.123 3.99134 12.123C5.40234 12.123 6.45634 11.12 6.45634 9.454C6.45634 7.805 5.50434 6.853 4.07634 6.853C3.29434 6.853 2.81834 7.074 2.08734 7.55L1.11834 6.938L1.49234 0.987999H7.85034V2.654H3.20934L2.92034 5.85C3.44734 5.578 3.95734 5.425 4.63734 5.425C6.72834 5.425 8.44534 6.649 8.44534 9.403C8.44534 12.157 6.40534 13.738 4.22934 13.738ZM14.7186 13.64C13.7286 13.64 13.0386 13.23 12.5786 12.42L13.3986 11.82C13.6986 12.39 14.1086 12.62 14.5886 12.62C15.3186 12.62 15.6886 12.22 15.6886 11.15V6.14H16.8586V11.25C16.8586 12.57 16.2186 13.64 14.7186 13.64ZM18.7369 13.5V6.14H19.9069V9.62H19.9269L22.7269 6.14H24.0269L21.7469 8.98L24.3969 13.5H23.1169L21.0369 9.9L19.9069 11.29V13.5H18.7369ZM25.3775 13.5V6.14H26.5475V12.52H29.6675V13.5H25.3775Z" fill="white"/>
</svg>
