<svg width="39" height="16" viewBox="0 0 39 16" fill="none" xmlns="http://www.w3.org/2000/svg">
<path d="M2.71908 13.5C2.94008 8.944 3.73908 6.02 6.17008 2.654H0.288078V0.987999H8.32908V2.178C5.40508 5.85 4.94608 8.621 4.72508 13.5H2.71908ZM13.0303 13.5V6.14H15.2703C16.9103 6.14 18.0803 6.7 18.0803 8.37C18.0803 9.98 16.9103 10.71 15.3103 10.71H14.2003V13.5H13.0303ZM14.2003 9.78H15.2003C16.3703 9.78 16.9303 9.33 16.9303 8.37C16.9303 7.39 16.3303 7.08 15.1503 7.08H14.2003V9.78ZM22.3247 13.64C20.4247 13.64 19.1147 12.17 19.1147 9.79C19.1147 7.42 20.4247 6.01 22.3247 6.01C24.2147 6.01 25.5247 7.42 25.5247 9.79C25.5247 12.17 24.2147 13.64 22.3247 13.64ZM22.3247 12.68C23.5447 12.68 24.3347 11.58 24.3347 9.79C24.3347 8.07 23.5447 7.02 22.3247 7.02C21.0947 7.02 20.3147 8.07 20.3147 9.79C20.3147 11.58 21.0947 12.68 22.3247 12.68ZM24.6347 15.42C23.1547 15.42 22.1447 14.59 21.7247 13.47L22.9147 13.36C23.2047 14.12 23.9447 14.47 24.7547 14.47C25.0847 14.47 25.3447 14.42 25.5447 14.35L25.7647 15.23C25.5247 15.34 25.1147 15.42 24.6347 15.42ZM27.0538 13.5V6.14H29.4638C30.9838 6.14 32.1238 6.68 32.1238 8.28C32.1238 9.82 30.9838 10.53 29.4638 10.53H28.2238V13.5H27.0538ZM28.2238 9.6H29.3338C30.3938 9.6 30.9738 9.16 30.9738 8.28C30.9738 7.39 30.3938 7.08 29.3338 7.08H28.2238V9.6ZM31.0838 13.5L29.2438 10.23L30.1038 9.55L32.3838 13.5H31.0838ZM35.5309 13.64C34.5109 13.64 33.5809 13.24 32.9109 12.56L33.5909 11.75C34.1109 12.28 34.8409 12.62 35.5509 12.62C36.4309 12.62 36.9309 12.21 36.9309 11.58C36.9309 10.91 36.4309 10.7 35.7509 10.41L34.7309 9.96C34.0209 9.67 33.2409 9.11 33.2409 8.04C33.2409 6.88 34.2509 6.01 35.6509 6.01C36.5209 6.01 37.3309 6.37 37.8809 6.94L37.2809 7.67C36.8209 7.27 36.3009 7.02 35.6509 7.02C34.9009 7.02 34.4209 7.38 34.4209 7.96C34.4209 8.59 35.0109 8.83 35.6109 9.08L36.6209 9.5C37.4909 9.87 38.1209 10.41 38.1209 11.49C38.1209 12.67 37.1409 13.64 35.5309 13.64Z" fill="white"/>
</svg>
