<svg width="32" height="10" viewBox="0 0 32 10" fill="none" xmlns="http://www.w3.org/2000/svg">
<path d="M-0.0078125 9.5L2.90819 0.667999H4.52819L7.44419 9.5H5.96819L4.55219 4.712C4.25219 3.752 3.98819 2.756 3.71219 1.772H3.66419C3.40019 2.768 3.13619 3.752 2.83619 4.712L1.40819 9.5H-0.0078125ZM1.63619 6.992V5.9H5.76419V6.992H1.63619ZM11.6149 9.668C9.64694 9.668 8.32694 8.588 8.32694 5.72V0.667999H9.71894V5.804C9.71894 7.796 10.5109 8.444 11.6149 8.444C12.7189 8.444 13.5469 7.796 13.5469 5.804V0.667999H14.8909V5.72C14.8909 8.588 13.5709 9.668 11.6149 9.668ZM18.9637 9.5V1.844H16.3717V0.667999H22.9597V1.844H20.3677V9.5H18.9637ZM27.4849 9.668C25.2049 9.668 23.6329 7.904 23.6329 5.048C23.6329 2.204 25.2049 0.512 27.4849 0.512C29.7529 0.512 31.3249 2.204 31.3249 5.048C31.3249 7.904 29.7529 9.668 27.4849 9.668ZM27.4849 8.444C28.9489 8.444 29.8969 7.112 29.8969 5.048C29.8969 2.984 28.9489 1.724 27.4849 1.724C26.0089 1.724 25.0729 2.984 25.0729 5.048C25.0729 7.112 26.0089 8.444 27.4849 8.444Z" fill="white"/>
</svg>
