<svg width="25" height="10" viewBox="0 0 25 10" fill="none" xmlns="http://www.w3.org/2000/svg">
<path d="M0.960594 9.5V0.667999H6.19259V1.844H2.36459V4.292H5.59259V5.48H2.36459V8.324H6.32459V9.5H0.960594ZM7.19591 9.5L9.72791 4.952L7.33991 0.667999H8.89991L9.95591 2.744C10.1839 3.152 10.3639 3.548 10.6399 4.076H10.6879C10.9159 3.548 11.0959 3.152 11.2999 2.744L12.3319 0.667999H13.8079L11.4319 5.012L13.9759 9.5H12.4279L11.2639 7.304C11.0359 6.86 10.7959 6.404 10.5199 5.864H10.4719C10.2319 6.404 10.0159 6.86 9.79991 7.304L8.67191 9.5H7.19591ZM15.3043 9.5V0.667999H16.7083V9.5H15.3043ZM20.8075 9.5V1.844H18.2155V0.667999H24.8035V1.844H22.2115V9.5H20.8075Z" fill="white"/>
</svg>
