<svg width="22" height="10" viewBox="0 0 22 10" fill="none" xmlns="http://www.w3.org/2000/svg">
<path d="M3.95369 9.668C1.67369 9.668 0.101688 7.904 0.101688 5.048C0.101688 2.204 1.67369 0.512 3.95369 0.512C6.22169 0.512 7.79369 2.204 7.79369 5.048C7.79369 7.904 6.22169 9.668 3.95369 9.668ZM3.95369 8.444C5.41769 8.444 6.36569 7.112 6.36569 5.048C6.36569 2.984 5.41769 1.724 3.95369 1.724C2.47769 1.724 1.54169 2.984 1.54169 5.048C1.54169 7.112 2.47769 8.444 3.95369 8.444ZM9.62856 9.5V0.667999H14.8726V1.844H11.0326V4.532H14.2966V5.708H11.0326V9.5H9.62856ZM16.4254 9.5V0.667999H21.6694V1.844H17.8294V4.532H21.0934V5.708H17.8294V9.5H16.4254Z" fill="white"/>
</svg>
