<svg width="22" height="10" viewBox="0 0 22 10" fill="none" xmlns="http://www.w3.org/2000/svg">
<path d="M4.20369 9.668C1.92369 9.668 0.351688 7.904 0.351688 5.048C0.351688 2.204 1.92369 0.512 4.20369 0.512C6.47169 0.512 8.04369 2.204 8.04369 5.048C8.04369 7.904 6.47169 9.668 4.20369 9.668ZM4.20369 8.444C5.66769 8.444 6.61569 7.112 6.61569 5.048C6.61569 2.984 5.66769 1.724 4.20369 1.724C2.72769 1.724 1.79169 2.984 1.79169 5.048C1.79169 7.112 2.72769 8.444 4.20369 8.444ZM9.87856 9.5V0.667999H15.1226V1.844H11.2826V4.532H14.5466V5.708H11.2826V9.5H9.87856ZM16.6754 9.5V0.667999H21.9194V1.844H18.0794V4.532H21.3434V5.708H18.0794V9.5H16.6754Z" fill="white"/>
</svg>
