<svg width="17" height="10" viewBox="0 0 17 10" fill="none" xmlns="http://www.w3.org/2000/svg">
<path d="M3.84431 9.668C1.56431 9.668 -0.00768748 7.904 -0.00768748 5.048C-0.00768748 2.204 1.56431 0.512 3.84431 0.512C6.11231 0.512 7.68431 2.204 7.68431 5.048C7.68431 7.904 6.11231 9.668 3.84431 9.668ZM3.84431 8.444C5.30831 8.444 6.25631 7.112 6.25631 5.048C6.25631 2.984 5.30831 1.724 3.84431 1.724C2.36831 1.724 1.43231 2.984 1.43231 5.048C1.43231 7.112 2.36831 8.444 3.84431 8.444ZM9.51919 9.5V0.667999H10.9472L13.8872 5.864L14.8112 7.724H14.8712C14.7872 6.824 14.6792 5.744 14.6792 4.796V0.667999H16.0112V9.5H14.5712L11.6552 4.304L10.7312 2.444H10.6712C10.7312 3.368 10.8512 4.376 10.8512 5.348V9.5H9.51919Z" fill="white"/>
</svg>
