<svg width="36" height="10" viewBox="0 0 36 10" fill="none" xmlns="http://www.w3.org/2000/svg">
<path d="M2.4263 9.5L0.626305 0.667999H2.0663L2.8823 5.264C3.0503 6.2 3.2063 7.148 3.3623 8.108H3.4103C3.6023 7.148 3.8063 6.2 4.0103 5.264L5.13831 0.667999H6.37431L7.5143 5.264C7.7303 6.188 7.9103 7.148 8.1263 8.108H8.1863C8.33031 7.148 8.48631 6.2 8.6303 5.264L9.47031 0.667999H10.8023L9.0623 9.5H7.33431L6.1583 4.592C6.00231 3.908 5.8703 3.248 5.75031 2.576H5.7023C5.5703 3.248 5.41431 3.908 5.28231 4.592L4.1183 9.5H2.4263ZM12.3573 9.668C11.8293 9.668 11.4333 9.26 11.4333 8.696C11.4333 8.12 11.8293 7.724 12.3573 7.724C12.8733 7.724 13.2813 8.12 13.2813 8.696C13.2813 9.26 12.8733 9.668 12.3573 9.668ZM15.2956 9.5V0.667999H18.0436C19.8436 0.667999 21.1516 1.244 21.1516 2.84C21.1516 3.692 20.6956 4.484 19.9036 4.76V4.808C20.9116 5.024 21.6316 5.72 21.6316 6.908C21.6316 8.66 20.2156 9.5 18.2596 9.5H15.2956ZM16.6996 4.352H17.8876C19.2316 4.352 19.7836 3.848 19.7836 3.032C19.7836 2.108 19.1596 1.76 17.9236 1.76H16.6996V4.352ZM16.6996 8.408H18.1036C19.4716 8.408 20.2636 7.916 20.2636 6.848C20.2636 5.852 19.5076 5.408 18.1036 5.408H16.6996V8.408ZM22.1475 9.5L25.0635 0.667999H26.6835L29.5995 9.5H28.1235L26.7075 4.712C26.4075 3.752 26.1435 2.756 25.8675 1.772H25.8195C25.5555 2.768 25.2915 3.752 24.9915 4.712L23.5635 9.5H22.1475ZM23.7915 6.992V5.9H27.9195V6.992H23.7915ZM30.7643 9.5V0.667999H32.1683V8.324H35.9123V9.5H30.7643Z" fill="white"/>
</svg>
