<svg width="31" height="14" viewBox="0 0 31 14" fill="none" xmlns="http://www.w3.org/2000/svg">
<path d="M4.57172 13.738C2.61672 13.738 1.34171 12.956 0.491715 12.004L1.46071 10.746C2.19171 11.494 3.10971 12.123 4.41872 12.123C5.81271 12.123 6.78172 11.341 6.78172 10.049C6.78172 8.655 5.89772 7.771 3.09271 7.771V6.309C5.54071 6.309 6.35671 5.391 6.35671 4.133C6.35671 3.028 5.64272 2.331 4.43571 2.331C3.48371 2.331 2.66771 2.79 1.95371 3.504L0.916715 2.263C1.91971 1.379 3.07571 0.767 4.52071 0.767C6.76472 0.767 8.34572 1.923 8.34572 3.98C8.34572 5.425 7.51272 6.428 6.18672 6.921V7.006C7.63172 7.38 8.77071 8.451 8.77071 10.151C8.77071 12.412 6.88372 13.738 4.57172 13.738ZM13.6079 13.5V6.14H15.5279C17.7879 6.14 19.0679 7.39 19.0679 9.79C19.0679 12.19 17.7879 13.5 15.5879 13.5H13.6079ZM14.7779 12.55H15.4379C17.0179 12.55 17.8779 11.62 17.8779 9.79C17.8779 7.96 17.0179 7.08 15.4379 7.08H14.7779V12.55ZM20.6001 13.5V6.14H24.9601V7.12H21.7701V9.16H24.4601V10.15H21.7701V12.52H25.0701V13.5H20.6001ZM26.5962 13.5V6.14H30.9662V7.12H27.7662V9.36H30.4862V10.34H27.7662V13.5H26.5962Z" fill="white"/>
</svg>
