<svg width="28" height="15" viewBox="0 0 28 15" fill="none" xmlns="http://www.w3.org/2000/svg">
<path d="M4.28982 13.738C1.82482 13.738 0.243824 11.545 0.243824 7.193C0.243824 2.875 1.82482 0.767 4.28982 0.767C6.73782 0.767 8.33582 2.875 8.33582 7.193C8.33582 11.545 6.73782 13.738 4.28982 13.738ZM4.28982 12.174C5.56482 12.174 6.44882 10.814 6.44882 7.193C6.44882 3.623 5.56482 2.297 4.28982 2.297C3.01482 2.297 2.11382 3.623 2.11382 7.193C2.11382 10.814 3.01482 12.174 4.28982 12.174ZM12.1901 14.97V14.26H17.5401V14.97H12.1901ZM19.2553 9.03L18.7353 8.65L19.3753 7.56L18.2553 7.07L18.4553 6.46L19.6453 6.75L19.7653 5.49H20.4153L20.5253 6.74L21.7253 6.46L21.9253 7.07L20.7853 7.56L21.4453 8.65L20.9253 9.03L20.0953 8.05L19.2553 9.03ZM23.519 13.5L23.779 11.27H22.909V10.49H23.879L24.069 8.96H23.139V8.19H24.159L24.409 6.19H25.119L24.869 8.19H26.259L26.519 6.19H27.229L26.979 8.19H27.879V8.96H26.889L26.699 10.49H27.659V11.27H26.599L26.339 13.5H25.619L25.879 11.27H24.499L24.229 13.5H23.519ZM24.589 10.49H25.979L26.169 8.96H24.779L24.589 10.49Z" fill="white"/>
</svg>
