<svg width="19" height="18" viewBox="0 0 19 18" fill="none" xmlns="http://www.w3.org/2000/svg">
<mask id="mask0_779_4956" style="mask-type:luminance" maskUnits="userSpaceOnUse" x="2" y="1" width="15" height="16">
<path d="M13.8979 5.93684C14.34 6.57061 14.6391 7.29299 14.7746 8.05394H16.4334V9.94622H14.7746C14.6391 10.7072 14.34 11.4296 13.8979 12.0633L15.0713 13.2378L13.7343 14.5759L12.5608 13.4015C11.9276 13.844 11.2058 14.1434 10.4455 14.279V15.9391H8.55478V14.279C7.79447 14.1434 7.07269 13.844 6.43945 13.4015L5.266 14.5759L3.92893 13.2378L5.10238 12.0633C4.66029 11.4296 4.36115 10.7072 4.22567 9.94622H2.56689V8.05394H4.22567C4.36115 7.29299 4.66029 6.57061 5.10238 5.93684L3.92893 4.76241L5.266 3.42421L6.43945 4.59864C7.07269 4.15619 7.79447 3.8568 8.55478 3.7212V2.06104H10.4455V3.7212C11.2058 3.8568 11.9276 4.15619 12.5608 4.59864L13.7343 3.42421L15.0713 4.76241L13.8979 5.93684Z" fill="white" stroke="white" stroke-linejoin="round"/>
<path d="M9.49991 10.7347C9.95961 10.7347 10.4005 10.5519 10.7255 10.2266C11.0506 9.90123 11.2332 9.45999 11.2332 8.9999C11.2332 8.53981 11.0506 8.09857 10.7255 7.77324C10.4005 7.44791 9.95961 7.26514 9.49991 7.26514C9.04021 7.26514 8.59933 7.44791 8.27428 7.77324C7.94922 8.09857 7.7666 8.53981 7.7666 8.9999C7.7666 9.45999 7.94922 9.90123 8.27428 10.2266C8.59933 10.5519 9.04021 10.7347 9.49991 10.7347Z" fill="black" stroke="black" stroke-linejoin="round"/>
</mask>
<g mask="url(#mask0_779_4956)">
<path d="M1.30615 0.799316H17.6938V17.2007H1.30615V0.799316Z" fill="white"/>
</g>
</svg>
