<svg width="23" height="10" viewBox="0 0 23 10" fill="none" xmlns="http://www.w3.org/2000/svg">
<path d="M0.39077 9.5V0.667999H3.07877C5.04677 0.667999 6.45077 1.34 6.45077 3.344C6.45077 5.276 5.04677 6.152 3.12677 6.152H1.79477V9.5H0.39077ZM1.79477 5.036H2.99477C4.39877 5.036 5.07077 4.496 5.07077 3.344C5.07077 2.168 4.35077 1.796 2.93477 1.796H1.79477V5.036ZM10.5165 9.668C9.29252 9.668 8.17652 9.188 7.37252 8.372L8.18852 7.4C8.81252 8.036 9.68852 8.444 10.5405 8.444C11.5965 8.444 12.1965 7.952 12.1965 7.196C12.1965 6.392 11.5965 6.14 10.7805 5.792L9.55652 5.252C8.70452 4.904 7.76852 4.232 7.76852 2.948C7.76852 1.556 8.98052 0.512 10.6605 0.512C11.7045 0.512 12.6765 0.943999 13.3365 1.628L12.6165 2.504C12.0645 2.024 11.4405 1.724 10.6605 1.724C9.76052 1.724 9.18452 2.156 9.18452 2.852C9.18452 3.608 9.89252 3.896 10.6125 4.196L11.8245 4.7C12.8685 5.144 13.6245 5.792 13.6245 7.088C13.6245 8.504 12.4485 9.668 10.5165 9.668ZM15.2853 9.5V0.667999H16.8933L18.5013 5.144C18.7173 5.72 18.8973 6.32 19.1013 6.92H19.1493C19.3653 6.32 19.5333 5.72 19.7253 5.144L21.3213 0.667999H22.9293V9.5H21.6453V5.144C21.6453 4.34 21.7533 3.212 21.8253 2.408H21.7773L21.0573 4.448L19.5213 8.66H18.6573L17.1213 4.448L16.4133 2.408H16.3653C16.4373 3.212 16.5453 4.34 16.5453 5.144V9.5H15.2853Z" fill="white"/>
</svg>
