<svg width="32" height="14" viewBox="0 0 32 14" fill="none" xmlns="http://www.w3.org/2000/svg">
<path d="M1.07914 13.5V12.361C4.78514 9.097 6.67214 6.666 6.67214 4.609C6.67214 3.266 5.95814 2.331 4.56414 2.331C3.57814 2.331 2.76214 2.943 2.09914 3.708L0.977145 2.637C2.06514 1.464 3.17014 0.767 4.80214 0.767C7.09714 0.767 8.57614 2.246 8.57614 4.524C8.57614 6.921 6.63814 9.42 3.98614 11.97C4.63214 11.902 5.43114 11.834 6.04314 11.834H9.17115V13.5H1.07914ZM12.9634 13.5L15.3934 6.14H16.7434L19.1734 13.5H17.9434L16.7634 9.51C16.5134 8.71 16.2934 7.88 16.0634 7.06H16.0234C15.8034 7.89 15.5834 8.71 15.3334 9.51L14.1434 13.5H12.9634ZM14.3334 11.41V10.5H17.7734V11.41H14.3334ZM20.1441 13.5V6.14H22.4341C23.9341 6.14 25.0241 6.62 25.0241 7.95C25.0241 8.66 24.6441 9.32 23.9841 9.55V9.59C24.8241 9.77 25.4241 10.35 25.4241 11.34C25.4241 12.8 24.2441 13.5 22.6141 13.5H20.1441ZM21.3141 9.21H22.3041C23.4241 9.21 23.8841 8.79 23.8841 8.11C23.8841 7.34 23.3641 7.05 22.3341 7.05H21.3141V9.21ZM21.3141 12.59H22.4841C23.6241 12.59 24.2841 12.18 24.2841 11.29C24.2841 10.46 23.6541 10.09 22.4841 10.09H21.3141V12.59ZM29.684 13.64C27.844 13.64 26.414 12.26 26.414 9.84C26.414 7.44 27.884 6.01 29.744 6.01C30.664 6.01 31.374 6.45 31.824 6.93L31.204 7.68C30.824 7.29 30.364 7.02 29.764 7.02C28.494 7.02 27.614 8.08 27.614 9.8C27.614 11.55 28.434 12.62 29.734 12.62C30.404 12.62 30.924 12.32 31.354 11.84L31.984 12.57C31.394 13.26 30.644 13.64 29.684 13.64Z" fill="white"/>
</svg>
