<svg width="35" height="14" viewBox="0 0 35 14" fill="none" xmlns="http://www.w3.org/2000/svg">
<path d="M4.98609 13.738C2.60609 13.738 0.66809 11.732 0.66809 7.482C0.66809 2.688 2.91209 0.767 5.39409 0.767C6.78809 0.767 7.80809 1.345 8.52209 2.11L7.45109 3.3C6.99209 2.756 6.22709 2.365 5.49609 2.365C3.83009 2.365 2.48709 3.657 2.48709 7.482C2.48709 10.712 3.43909 12.225 4.96909 12.225C6.05709 12.225 6.90709 11.239 6.90709 9.624C6.90709 8.009 6.17609 7.108 4.85009 7.108C4.10209 7.108 3.20109 7.55 2.45309 8.689L2.36809 7.261C3.09909 6.275 4.25509 5.697 5.19009 5.697C7.29809 5.697 8.72609 6.972 8.72609 9.624C8.72609 12.106 7.00909 13.738 4.98609 13.738ZM13.3423 13.5V6.14H14.6823L16.0223 9.87C16.2023 10.35 16.3523 10.85 16.5223 11.35H16.5623C16.7423 10.85 16.8823 10.35 17.0423 9.87L18.3723 6.14H19.7123V13.5H18.6423V9.87C18.6423 9.2 18.7323 8.26 18.7923 7.59H18.7523L18.1523 9.29L16.8723 12.8H16.1523L14.8723 9.29L14.2823 7.59H14.2423C14.3023 8.26 14.3923 9.2 14.3923 9.87V13.5H13.3423ZM21.6431 13.5V6.14H22.8331L25.2831 10.47L26.0531 12.02H26.1031C26.0331 11.27 25.9431 10.37 25.9431 9.58V6.14H27.0531V13.5H25.8531L23.4231 9.17L22.6531 7.62H22.6031C22.6531 8.39 22.7531 9.23 22.7531 10.04V13.5H21.6431ZM31.7969 13.64C29.8969 13.64 28.5869 12.17 28.5869 9.79C28.5869 7.42 29.8969 6.01 31.7969 6.01C33.6869 6.01 34.9969 7.42 34.9969 9.79C34.9969 12.17 33.6869 13.64 31.7969 13.64ZM31.7969 12.62C33.0169 12.62 33.8069 11.51 33.8069 9.79C33.8069 8.07 33.0169 7.02 31.7969 7.02C30.5669 7.02 29.7869 8.07 29.7869 9.79C29.7869 11.51 30.5669 12.62 31.7969 12.62Z" fill="white"/>
</svg>
