<svg width="15" height="10" viewBox="0 0 15 10" fill="none" xmlns="http://www.w3.org/2000/svg">
<path d="M3.08681 9.668C1.70681 9.668 0.806813 9.116 0.206813 8.444L0.890813 7.556C1.40681 8.084 2.05481 8.528 2.97881 8.528C3.96281 8.528 4.64681 8 4.64681 7.124C4.64681 6.188 4.02281 5.576 2.04281 5.576V4.544C3.77081 4.544 4.34681 3.908 4.34681 3.08C4.34681 2.324 3.84281 1.856 2.99081 1.856C2.31881 1.856 1.74281 2.192 1.23881 2.696L0.506813 1.832C1.21481 1.196 2.03081 0.752 3.05081 0.752C4.63481 0.752 5.75081 1.556 5.75081 2.984C5.75081 3.968 5.16281 4.628 4.22681 4.988V5.036C5.24681 5.3 6.05081 6.044 6.05081 7.196C6.05081 8.756 4.71881 9.668 3.08681 9.668ZM7.87856 9.5V0.667999H10.1826C12.8946 0.667999 14.4306 2.168 14.4306 5.048C14.4306 7.928 12.8946 9.5 10.2546 9.5H7.87856ZM9.28256 8.36H10.0746C11.9706 8.36 13.0026 7.244 13.0026 5.048C13.0026 2.852 11.9706 1.796 10.0746 1.796H9.28256V8.36Z" fill="white"/>
</svg>
