<svg width="31" height="14" viewBox="0 0 31 14" fill="none" xmlns="http://www.w3.org/2000/svg">
<path d="M6.23428 13.5V5.34C6.23428 4.677 6.28528 3.606 6.33628 2.926H6.25128C5.94528 3.555 5.60528 4.218 5.24828 4.864L2.80028 8.621H9.66828V10.151H0.828281V8.825L5.79228 0.987999H8.07028V13.5H6.23428ZM17.972 13.64C16.012 13.64 14.562 12.26 14.562 9.84C14.562 7.44 16.052 6.01 18.002 6.01C19.042 6.01 19.742 6.47 20.192 6.93L19.562 7.68C19.192 7.31 18.742 7.02 18.042 7.02C16.662 7.02 15.762 8.08 15.762 9.8C15.762 11.55 16.572 12.62 18.092 12.62C18.542 12.62 18.992 12.49 19.242 12.26V10.54H17.792V9.58H20.302V12.77C19.812 13.27 18.972 13.64 17.972 13.64ZM21.9737 13.5V6.14H23.1437V9.15H26.2937V6.14H27.4537V13.5H26.2937V10.16H23.1437V13.5H21.9737ZM29.3858 13.5V6.14H30.5558V13.5H29.3858Z" fill="white"/>
</svg>
