<svg width="32" height="14" viewBox="0 0 32 14" fill="none" xmlns="http://www.w3.org/2000/svg">
<path d="M4.24432 13.738C1.88132 13.738 0.164324 12.344 0.164324 10.406C0.164324 8.757 1.23532 7.635 2.39132 7.023V6.955C1.45632 6.292 0.708324 5.34 0.708324 4.031C0.708324 2.076 2.23832 0.800999 4.29532 0.800999C6.47132 0.800999 7.81432 2.144 7.81432 4.099C7.81432 5.391 6.94732 6.462 6.18232 7.057V7.142C7.30432 7.771 8.29033 8.74 8.29033 10.457C8.29033 12.31 6.65832 13.738 4.24432 13.738ZM5.06032 6.564C5.80832 5.867 6.18232 5.068 6.18232 4.218C6.18232 3.079 5.46832 2.212 4.26132 2.212C3.24132 2.212 2.47632 2.909 2.47632 4.031C2.47632 5.374 3.66632 6.003 5.06032 6.564ZM4.27832 12.31C5.55332 12.31 6.43732 11.562 6.43732 10.389C6.43732 8.876 5.06032 8.298 3.36032 7.584C2.49332 8.196 1.88132 9.114 1.88132 10.202C1.88132 11.443 2.91832 12.31 4.27832 12.31ZM14.4576 13.5V7.12H12.2976V6.14H17.7876V7.12H15.6276V13.5H14.4576ZM21.7808 13.64C20.1408 13.64 19.0408 12.74 19.0408 10.35V6.14H20.2008V10.42C20.2008 12.08 20.8608 12.62 21.7808 12.62C22.7008 12.62 23.3908 12.08 23.3908 10.42V6.14H24.5108V10.35C24.5108 12.74 23.4108 13.64 21.7808 13.64ZM27.6272 13.5L25.3272 6.14H26.5572L27.6472 9.95C27.8872 10.8 28.0672 11.51 28.3172 12.36H28.3672C28.6272 11.51 28.7972 10.8 29.0372 9.95L30.1172 6.14H31.3072L29.0072 13.5H27.6272Z" fill="white"/>
</svg>
