<svg width="32" height="32" viewBox="0 0 32 32" fill="none" xmlns="http://www.w3.org/2000/svg">
<g id="file/ic_group_fill">
<g id="icon">
<path fill-rule="evenodd" clip-rule="evenodd" d="M2.66663 23.3302C2.66663 25.5394 4.45759 27.3303 6.6668 27.3302L25.3336 27.3294C27.5427 27.3293 29.3334 25.5385 29.3334 23.3294L29.3335 11.3368C29.3335 9.12759 27.5425 7.33669 25.3333 7.33678L16.0003 7.33719L15.2194 5.7755C14.8806 5.09793 14.1881 4.66992 13.4306 4.66992H4.66663C3.56206 4.66992 2.66663 5.56536 2.66663 6.66994L2.66663 23.3302Z" fill="white"/>
<path d="M1.91663 23.3302C1.91663 25.9536 4.04339 28.0803 6.66684 28.0802L25.3337 28.0794C27.9569 28.0793 30.0834 25.9527 30.0834 23.3294L30.0835 11.3368C30.0835 8.71337 27.9567 6.58667 25.3333 6.58678L16.4638 6.58717L15.8902 5.44009C15.4244 4.50844 14.4722 3.91992 13.4306 3.91992H4.66663C3.14784 3.91992 1.91663 5.15115 1.91663 6.66994L1.91663 23.3302Z" stroke="black" stroke-opacity="0.3" stroke-width="1.5"/>
</g>
</g>
</svg>
