<svg width="32" height="32" viewBox="0 0 32 32" fill="none" xmlns="http://www.w3.org/2000/svg">
<path fill-rule="evenodd" clip-rule="evenodd" d="M26.1331 7.28003L24.7198 5.8667L15.9998 14.5867L7.27979 5.8667L5.86646 7.28003L14.5865 16L5.86646 24.72L7.27979 26.1334L15.9998 17.4134L24.7198 26.1334L26.1331 24.72L17.4131 16L26.1331 7.28003Z" fill="white"/>
<path d="M26.6635 7.81036L27.1938 7.28003L26.6635 6.7497L25.2501 5.33637L24.7198 4.80604L24.1895 5.33637L15.9998 13.526L7.81012 5.33637L7.27979 4.80604L6.74946 5.33637L5.33613 6.7497L4.80579 7.28003L5.33613 7.81036L13.5258 16L5.33612 24.1897L4.80579 24.72L5.33613 25.2504L6.74946 26.6637L7.27979 27.194L7.81012 26.6637L15.9998 18.474L24.1895 26.6637L24.7198 27.194L25.2501 26.6637L26.6635 25.2504L27.1938 24.72L26.6635 24.1897L18.4738 16L26.6635 7.81036Z" stroke="black" stroke-opacity="0.3" stroke-width="1.5"/>
</svg>
