<svg width="32" height="32" viewBox="0 0 32 32" fill="none" xmlns="http://www.w3.org/2000/svg">
<g id="common/ic_message_fill">
<g id="icon">
<path fill-rule="evenodd" clip-rule="evenodd" d="M5.3334 5.33203C4.22882 5.33202 3.33337 6.22745 3.33337 7.33203V21.3317C3.33337 23.5409 5.1242 25.3317 7.33333 25.3317L12.5273 25.3318L14.5858 27.3904C15.3669 28.1714 16.6332 28.1714 17.4143 27.3904L19.4727 25.3319L24.6667 25.3319C26.8758 25.332 28.6667 23.5411 28.6667 21.3319V7.33221C28.6667 6.22764 27.7713 5.33221 26.6667 5.33221L5.3334 5.33203ZM23.3334 10.6667H8.66671V12.6667H23.3334V10.6667ZM17.1111 15.668H8.66671V17.668H17.1111V15.668Z" fill="white"/>
<path d="M5.3334 4.58203C3.81461 4.58201 2.58337 5.81323 2.58337 7.33203V21.3317C2.58337 23.9551 4.70999 26.0817 7.33332 26.0817L12.2166 26.0818L14.0555 27.9207C15.1294 28.9946 16.8706 28.9946 17.9446 27.9207L19.7834 26.0819L24.6666 26.0819C27.29 26.082 29.4167 23.9553 29.4167 21.3319V7.33221C29.4167 5.81343 28.1855 4.58221 26.6667 4.58221L5.3334 4.58203ZM9.41671 11.4167H22.5834V11.9167H9.41671V11.4167ZM9.41671 16.418H16.3611V16.918H9.41671V16.418Z" stroke="black" stroke-opacity="0.3" stroke-width="1.5"/>
</g>
</g>
</svg>
