<svg width="32" height="32" viewBox="0 0 32 32" fill="none" xmlns="http://www.w3.org/2000/svg">
<g id="user/ic_profile_fill">
<g id="icon">
<path d="M16 3.33333C12.5022 3.33333 9.66671 6.16886 9.66671 9.66667C9.66671 13.1645 12.5022 16 16 16C19.4978 16 22.3334 13.1645 22.3334 9.66667C22.3334 6.16886 19.4978 3.33333 16 3.33333Z" fill="white"/>
<path d="M14.7334 17.3337C9.54192 17.3336 5.33337 21.5422 5.33337 26.7337C5.33337 27.8014 6.19894 28.667 7.26667 28.667H24.7334C25.8011 28.667 26.6667 27.8014 26.6667 26.7337C26.6667 21.5422 22.4582 17.3337 17.2667 17.3337L14.7334 17.3337Z" fill="white"/>
<path d="M16 2.58333C12.088 2.58333 8.91671 5.75465 8.91671 9.66667C8.91671 13.0573 11.299 15.8915 14.481 16.5867C8.99194 16.7207 4.58337 21.2123 4.58337 26.7337C4.58337 28.2156 5.78473 29.417 7.26667 29.417H24.7334C26.2154 29.417 27.4167 28.2156 27.4167 26.7337C27.4167 21.2123 23.0081 16.7207 17.519 16.5867C20.7011 15.8915 23.0834 13.0573 23.0834 9.66667C23.0834 5.75465 19.9121 2.58333 16 2.58333Z" stroke="black" stroke-opacity="0.3" stroke-width="1.5"/>
</g>
</g>
</svg>
