<svg width="32" height="32" viewBox="0 0 32 32" fill="none" xmlns="http://www.w3.org/2000/svg">
<g id="audio &#38; video/ic_streaming">
<g id="icon">
<path fill-rule="evenodd" clip-rule="evenodd" d="M6.55234 6.54935C4.13871 8.96457 2.646 12.3002 2.646 15.9845C2.646 19.6841 4.15112 23.0321 6.58244 25.4497L7.99486 24.0337C5.92653 21.9782 4.646 19.1309 4.646 15.9845C4.646 12.8497 5.91708 10.0119 7.97196 7.95816L6.55234 6.54935ZM24.023 24.0033C26.0735 21.9502 27.3414 19.1154 27.3414 15.9845C27.3414 12.8462 26.0675 10.0054 24.0085 7.95114L25.42 6.53426C27.8425 8.95066 29.3414 12.2925 29.3414 15.9845C29.3414 19.6685 27.849 23.0039 25.4357 25.4191L24.023 24.0033Z" fill="white"/>
<path fill-rule="evenodd" clip-rule="evenodd" d="M10.3132 10.3129C8.87388 11.77 7.98531 13.7725 7.98531 15.9825C7.98531 18.2106 8.88841 20.2277 10.3485 21.6877L11.7499 20.2607C10.6593 19.1636 9.98531 17.6518 9.98531 15.9825C9.98531 14.3248 10.6501 12.8223 11.7275 11.727L10.3132 10.3129ZM20.2991 20.3184C21.4239 19.2169 22.1218 17.6812 22.1218 15.9825C22.1218 14.2951 21.433 12.7685 20.3213 11.6685L21.7347 10.2535C23.2089 11.7154 24.1218 13.7424 24.1218 15.9825C24.1218 18.2381 23.1963 20.2774 21.7043 21.7416L20.2991 20.3184Z" fill="white"/>
<path d="M18.6318 15.9663C18.6318 17.4174 17.4555 18.5936 16.0045 18.5936C14.5535 18.5936 13.3772 17.4174 13.3772 15.9663C13.3772 14.5153 14.5535 13.3391 16.0045 13.3391C17.4555 13.3391 18.6318 14.5153 18.6318 15.9663Z" fill="white"/>
<path d="M7.08063 6.017L6.55014 5.49055L6.02183 6.0192C3.4734 8.5693 1.896 12.0934 1.896 15.9845C1.896 19.8918 3.48653 23.4289 6.05361 25.9815L6.58461 26.5095L7.11344 25.9793L8.52586 24.5633L9.0565 24.0313L8.52354 23.5017C6.59106 21.5812 5.396 18.9231 5.396 15.9845C5.396 13.0567 6.58225 10.4074 8.50214 8.48864L9.0348 7.95627L8.50026 7.4258L7.08063 6.017ZM23.4923 23.4733L22.9633 24.0031L23.4921 24.5331L24.9048 25.9488L25.4353 26.4805L25.9662 25.9492C28.5143 23.3991 30.0914 19.8753 30.0914 15.9845C30.0914 12.0853 28.5075 8.55461 25.9497 6.00326L25.4183 5.47327L24.8887 6.00493L23.4771 7.42181L22.9482 7.95275L23.4787 8.48208C25.4025 10.4014 26.5914 13.0534 26.5914 15.9845C26.5914 18.9087 25.4081 21.5551 23.4923 23.4733ZM10.8435 9.78251L10.3099 9.24895L9.77966 9.7858C8.20728 11.3776 7.23531 13.5673 7.23531 15.9825C7.23531 18.4175 8.22318 20.6231 9.81818 22.2181L10.3533 22.7532L10.8836 22.2132L12.285 20.7862L12.8043 20.2575L12.2818 19.7319C11.3252 18.7696 10.7353 17.4457 10.7353 15.9825C10.7353 14.5294 11.3171 13.2137 12.2622 12.253L12.7839 11.7227L12.2579 11.1967L10.8435 9.78251ZM19.7743 19.7825L19.2363 20.3095L19.7654 20.8453L21.1706 22.2685L21.6959 22.8006L22.2296 22.2769C23.8594 20.6775 24.8718 18.4476 24.8718 15.9825C24.8718 13.5343 23.8731 11.3179 22.2628 9.72095L21.7322 9.19474L21.204 9.72347L19.7906 11.1385L19.2581 11.6717L19.7938 12.2017C20.769 13.1665 21.3718 14.5034 21.3718 15.9825C21.3718 17.4714 20.761 18.8163 19.7743 19.7825ZM16.0045 19.3436C17.8697 19.3436 19.3818 17.8316 19.3818 15.9663C19.3818 14.1011 17.8697 12.5891 16.0045 12.5891C14.1393 12.5891 12.6272 14.1011 12.6272 15.9663C12.6272 17.8316 14.1393 19.3436 16.0045 19.3436Z" stroke="black" stroke-opacity="0.3" stroke-width="1.5"/>
</g>
</g>
</svg>
