<svg width="16" height="16" viewBox="0 0 16 16" fill="none" xmlns="http://www.w3.org/2000/svg">
<g id="arrow/ic_open">
<g id="icon">
<path d="M12 13.0001C12.5533 13.0001 13 12.5534 13 12.0001V7.00004H14V12.0001C14 13.1068 13.1067 14.0001 12 14.0001H4C2.89333 14.0001 2 13.1068 2 12.0001V4.00002C2 2.89334 2.89333 2 4 2H9V3.00001H4C3.44667 3.00001 3 3.44668 3 4.00002V12.0001C3 12.5534 3.44667 13.0001 4 13.0001H12Z" fill="#333"/>
<path d="M9.99999 2H13C13.5533 2 14 2.44667 14 3.00001V6.00004H13V3.70668L8.69332 8.01339L7.98666 7.30671L12.2933 3.00001H9.99999V2Z" fill="#333"/>
</g>
</g>
</svg>
