<svg xmlns="http://www.w3.org/2000/svg" width="88" height="75">
    <path fill-rule="evenodd" fill="#F8F8F9" d="M65.308 65c-6.432 0-11.646-5.171-11.646-11.55 0-5.73 5.214-11.549 11.646-11.549 6.431 0 11.645 5.819 11.645 11.549 0 6.379-5.214 11.55-11.645 11.55zm0-19.605c-4.479 0-8.122 4.505-8.122 8.055 0 1.494.419 2.89 1.137 4.091l10.99-11.09a8.127 8.127 0 0 0-4.005-1.056zm6.618 3.403L60.729 60.98c1.611.004 2.881.525 4.579.525 4.478 0 8.122-3.613 8.122-8.055 0-1.733-.56-3.336-1.504-4.652zM50.225 53.45c0 3.394 1.153 6.513 3.073 9.023-3.878 1.967-9.619 2.071-13.99 2.071-8.704 0-21.341-1.979-21.341-9.674 0-9.262 8.787-17.134 10.461-17.134 1.409 0 8.159 5.954 10.256 7.835.676.316.895.316 1.247 0 2.359-1.881 8.847-7.835 10.257-7.835.775 0 3.075 1.701 5.322 5.184-3.231 1.915-5.285 5.982-5.285 10.53zm-10.75-17.487c-8.065 0-14.604-6.484-14.604-14.483 0-7.999 6.539-14.484 14.604-14.484 8.066 0 15.315 6.485 15.315 14.484s-7.249 14.483-15.315 14.483z"/>
</svg>
