<svg xmlns="http://www.w3.org/2000/svg" width="88" height="75">
    <path fill-rule="evenodd" fill="#FFF" d="M66.697 64.999H21.243a5.268 5.268 0 0 1-5.262-5.273V15.268a5.268 5.268 0 0 1 5.262-5.273h45.454a5.267 5.267 0 0 1 5.261 5.273v44.458a5.267 5.267 0 0 1-5.261 5.273zm-.1-44.059c0-3.646-2.265-5.7-5.059-5.7H26.401c-2.794 0-5.059 2.054-5.059 5.7v21.313c0 3.277 2.265 5.07 5.059 5.07h35.137c2.794 0 5.059-1.793 5.059-5.07V20.94zm-6.32 22.376H27.662c-1.499 0-2.715-.336-2.715-2.721V21.388a2.718 2.718 0 0 1 2.715-2.721h32.615c1.5 0 2.715 1.218 2.715 2.721v19.207c0 2.385-1.215 2.721-2.715 2.721zm-.859-3.416-6.293-7.603c-.262-.127-.706-.127-.968 0l-3.569 3.806-8.273-9.563c.145-.31-.749-.31-1.018 0L28.505 39.15c-.378.301-.068.981.635.981H58.934c.582 0 .883-.697.484-.231z"/>
</svg>
