<svg xmlns="http://www.w3.org/2000/svg" width="22" height="14">
    <path fill="#FFF" fill-rule="evenodd" d="M21.002 2.143c0-.403-.327-.73-.73-.73-.403 0-.729.326-.73.729v.187c0 .512-.522.828-1.005.828h-3.181c-3.151 0-4.886 1.702-4.886 4.792v2.621H5.306c-1.486 0-2.492-1.031-2.822-2.417h7.094c.038-.238.063-.481.063-.729 0-.249-.025-.491-.063-.73-.349-2.177-1.996-3.842-4.272-3.842-2.275 0-3.921 1.665-4.272 3.842-.038.239-.063.481-.063.73 0 .248.025.491.063.729.15.929.577 1.765 1.198 2.417.757.796 1.604 1.317 2.73 1.407v.018h10.875c3.377 0 5.163-1.811 5.163-5.27v-4.56l.002-.022zM5.306 4.277c1.487 0 2.493 1.032 2.822 2.417H2.484c.33-1.385 1.336-2.417 2.822-2.417zm14.236 2.448c0 2.648-1.143 3.83-3.705 3.83h-.385c1.369-1.218 2.078-3.107 2.114-3.204.139-.378-.056-.797-.433-.935-.379-.138-.797.054-.936.433-.237.647-1.126 2.461-2.365 3.067-.674.329-1.351.493-1.905.573v-2.54c0-2.274 1.089-3.334 3.429-3.334h3.181c.338 0 .683-.071 1.005-.205v2.315z"/>
</svg>
