<svg width="24" height="24" viewBox="0 0 24 24" fill="none" xmlns="http://www.w3.org/2000/svg">
<g id="map/ic_location_fill">
<path id="icon" fill-rule="evenodd" clip-rule="evenodd" d="M20.029 10.038C20.029 12.6324 19.4078 13.9859 17.4854 16.447C16.763 17.2627 14.5108 19.8681 13.1273 21.4706C12.5315 22.1607 11.4655 22.1648 10.8656 21.4782C9.4687 19.8796 7.18822 17.2647 6.42612 16.3613C4.58357 13.9835 3.97266 12.545 3.97266 10.038C3.97266 5.60411 7.567 2.00977 12.0009 2.00977C16.4347 2.00977 20.029 5.60411 20.029 10.038ZM14.8149 10.0693C14.8149 11.6248 13.554 12.8857 11.9985 12.8857C10.4431 12.8857 9.18213 11.6248 9.18213 10.0693C9.18213 8.51388 10.4431 7.25293 11.9985 7.25293C13.554 7.25293 14.8149 8.51388 14.8149 10.0693Z" fill="#f85149"/>
</g>
</svg>
