<svg width="24" height="24" viewBox="0 0 24 24" fill="none" xmlns="http://www.w3.org/2000/svg">
<g id="common/ic_refresh">
<path id="icon" d="M20.4992 3.17H19.9992V3.67V5.19794C18.0749 2.93543 15.2035 1.5 12.005 1.5C6.20633 1.5 1.5 6.20362 1.5 12C1.5 17.7964 6.20633 22.5 12.005 22.5C16.1232 22.5 19.6842 20.1368 21.4066 16.6937L21.568 16.3712L21.3129 16.1164L20.1824 14.9864L19.6598 14.4641L19.3692 15.1433C18.1447 18.0055 15.31 20 12.005 20C7.58856 20 4.00075 16.4136 4.00075 12C4.00075 7.586 7.57894 4 12.005 4C14.6272 4 16.9449 5.26671 18.3996 7.22H16.4472H15.9472V7.72V9.22V9.72H16.4472H20.4992C21.6056 9.72 22.5 8.82638 22.5 7.72V3.67V3.17H22H20.4992Z" fill="#172033" stroke="white"/>
</g>
</svg>
