<svg xmlns="http://www.w3.org/2000/svg" width="169" height="19">
    <path fill="#FFF" fill-rule="evenodd" d="M167.507 5.814V2.842h-.046l-.808 2.972h-.73l.047-2.972h-.43v2.972h-1.029V2.415h.977l.796 2.977h.043l.774-2.977h1.339v3.399h-.933zm-3.527 0h-1.422V2.85h-1.041v-.435h2.624v.435h-.161v2.964zm-2.076 6.436h-7.428c.169 1.055 1.182 1.853 2.406 1.853h4.389l-.971 2.007h-3.481c-3.039 0-4.706-2.365-4.706-5.198 0-2.769 1.751-5.119 5.687-5.119 2.353 0 4.104 2.098 4.104 5.204v1.253zM157.8 7.723c-2.29 0-3.324 1.049-3.366 2.413h5.128c-.127-1.552-.971-2.413-1.762-2.413zm-7.857.657c-.803 0-1.499.246-1.499 1.169v6.561h-2.278V9.486c0-1.93 1.266-2.826 3.503-2.826h2.785l-.992 1.72h-1.519zm-14.746 4.73c0-1.798 1.118-3.01 3.185-3.01h4.368v-.74c0-.902-1.118-1.385-2.067-1.385h-4.727l.95-1.315h3.777c2.987 0 3.629.581 3.629 2.7v6.75h-5.93c-2.067 0-3.185-1.442-3.185-3zm7.553 1.013v-2.287h-4.177c-.739 0-1.076.545-1.076 1.154 0 .63.358 1.133 1.054 1.133h4.199zm-12.597-.189h3.967l-.47 2.176h-3.961c-3.545-.14-6.394-2.553-6.394-6.897 0-4.343 2.849-6.756 6.394-6.798h4.431l-.47 2.077h-3.497c-2.912 0-4.431 1.721-4.431 4.721 0 3.001 1.519 4.721 4.431 4.721zm-17.677-2.554c0-3.531 2.11-4.72 4.853-4.72h1.941V2.415h2.279V16.11h-4.22c-2.743 0-4.853-1.882-4.853-4.73zm6.794 3.42V7.996h-1.667c-1.878 0-2.806 1.196-2.806 3.384 0 1.484.97 3.42 2.806 3.42h1.667zm-12.982-.698h4.389l-.97 2.008h-3.482c-3.039 0-4.706-2.365-4.706-5.198 0-2.769 1.751-5.119 4.896-5.119 3.144 0 4.895 2.098 4.895 5.204v1.253h-7.428c.628 1.055 1.758 1.852 2.406 1.852zm2.68-3.966c-.127-1.552-.971-2.413-2.553-2.413-1.499 0-2.533 1.049-2.575 2.413h5.128zM98.349 14.8h3.571l-1.82 1.31h-1.941c-2.237 0-3.355-1.211-3.355-3.393V3.44h3.016v3.22h3.88l-1.33 1.72h-2.55v4.337c0 .902-.273 2.083.529 2.083zm-8.017-.41h3.228l-.992 1.72H90.99c-3.697 0-5.807-1.84-5.807-4.51 0-3.751 2.131-4.94 5.807-4.94h2.527l-.991 1.72h-2.194c-1.815 0-2.786.896-2.786 3.22 0 1.243.971 2.79 2.786 2.79zm-11.436-.288h4.389l-.971 2.008h-3.482c-3.038 0-4.705-2.365-4.705-5.198 0-2.769 1.751-5.119 5.093-5.119 2.946 0 4.698 2.098 4.698 5.204v1.253H76.49c.169 1.055 1.182 1.852 2.406 1.852zm2.679-3.966c-.126-1.552-.97-2.413-2.355-2.413-1.696 0-2.73 1.049-2.772 2.413h5.127zm-11.074-.713c0-.924-.38-1.253-1.287-1.253H66.26v7.94h-2.279V6.66h5.676c2.047 0 3.144.455 3.144 2.7v6.75h-2.3V9.423zm-9.661 0c0-.924-1.136-1.253-2.043-1.253h-2.954v7.94h-2.279V6.66h5.676c2.047 0 3.144.455 3.144 2.7v6.75H60.84V9.423zm-13.36 6.861c-3.745 0-5.623-2.14-5.623-4.904 0-3.447 1.878-5.587 5.623-5.587 2.881 0 4.759 2.14 4.759 5.587 0 2.764-1.878 4.904-4.759 4.904zm0-8.477c-2.352 0-3.344 1.433-3.344 3.573 0 2.15.992 2.911 3.344 2.911 1.488 0 2.48-.761 2.48-2.911 0-2.14-.992-3.573-2.48-3.573zm-10.342 6.127h3.967L40.5 16.11h-3.827c-3.544-.141-6.393-2.554-6.393-6.897s2.849-6.756 6.393-6.798h4.432L40.5 4.492h-3.362c-2.912 0-4.432 1.721-4.432 4.721s1.52 4.721 4.432 4.721zm-20.33 2.26c-4.624 0-5.968-2.468-5.968-7.022 0-4.576 1.567-6.978 5.991-6.978 1.962 0 4.061.517 6.039 2.221l-2.747 1.792c-.743-.941-1.647-1.433-3.224-1.433-2.369 0-3.746 1.64-3.746 4.421 0 2.916.948 4.351 3.79 4.351.882 0 1.807-.179 2.278-.358v-2.375h-2.572v-2.54h5.483v6.597c-.532.785-3.205 1.324-5.324 1.324zM0 2.397h3.158v10.949h6.545v2.647H0V2.397z"/>
</svg>
