<svg width="208" height="25" viewBox="0 0 208 25" fill="none" xmlns="http://www.w3.org/2000/svg">
<g id="logo_connectedcare" filter="url(#filter0_d_2020_2647)">
<g id="logo">
<path d="M44.5487 3.02113H50.013L48.7215 5.60425H45.125C41.5285 5.60425 39.6607 7.73035 39.6607 11.4659C39.6607 15.2015 41.5285 17.3276 45.125 17.3276H50.013L48.7215 19.9107H44.5686C40.1972 19.8511 36.6802 16.8706 36.6802 11.4858C36.6802 6.101 40.1773 3.08074 44.5487 3.02113Z" fill="#333333"/>
<path d="M56.9476 7.21406C61.0409 7.21406 63.3458 9.87666 63.3458 13.7116C63.3458 17.5465 61.0409 20.2091 56.9476 20.2091C52.8544 20.2091 50.5494 17.5465 50.5494 13.7116C50.5494 9.87666 52.8743 7.21406 56.9476 7.21406ZM56.9476 17.7452C59.3122 17.7452 60.5441 16.2152 60.5441 13.7116C60.5441 11.208 59.3122 9.69783 56.9476 9.69783C54.5831 9.69783 53.3511 11.208 53.3511 13.7116C53.3511 16.2152 54.5831 17.7452 56.9476 17.7452Z" fill="#333333"/>
<path d="M73.1217 11.7044C73.1217 10.552 72.6448 9.95587 71.5321 9.95587H67.8959V19.8711H65.0942V7.55158H72.0885C74.612 7.55158 75.9632 8.84314 75.9632 11.6448V19.8909H73.1217V11.7044Z" fill="#333333"/>
<path d="M85.9189 11.7044C85.9189 10.552 85.442 9.95587 84.3293 9.95587H80.693V19.8711H77.8913V7.55158H84.8856C87.4091 7.55158 88.7603 8.84314 88.7603 11.6448V19.8909H85.9189V11.7044Z" fill="#333333"/>
<path d="M96.31 19.8713C92.5546 19.8713 90.5079 17.0696 90.5079 13.5526C90.5079 10.0356 92.6738 7.21406 96.5484 7.21406C100.423 7.21406 102.589 9.81705 102.589 13.6719V14.9435H93.4288C93.6474 16.5332 94.8793 17.5267 96.3895 17.5267H101.794L100.602 19.8912H96.31V19.8713ZM99.6879 12.579C99.529 10.6516 98.4957 9.57861 96.5484 9.57861C94.7005 9.57861 93.4288 10.8702 93.3692 12.579H99.6879Z" fill="#333333"/>
<path d="M110.061 19.8711C106.603 19.8711 104 17.7053 104 13.7313C104 9.75725 106.623 7.53179 110.061 7.53179H114.273L113.041 9.97582H110.339C108.093 9.97582 106.901 11.5058 106.901 13.7313C106.901 15.9567 108.093 17.4271 110.339 17.4271H114.313L113.081 19.8711H110.041H110.061Z" fill="#333333"/>
<path d="M119.996 19.8709C117.234 19.8709 115.863 18.4999 115.863 15.7777V3.79599H118.665V7.55145H123.493L122.301 9.99548H118.665V15.7976C118.665 16.9103 119.241 17.4865 120.234 17.4865H123.612L122.38 19.8709H119.996Z" fill="#333333"/>
<path d="M129.812 19.8713C126.056 19.8713 124.01 17.0696 124.01 13.5526C124.01 10.0356 126.175 7.21406 130.05 7.21406C133.925 7.21406 136.091 9.81705 136.091 13.6719V14.9435H126.93C127.129 16.5332 128.381 17.5267 129.891 17.5267H135.296L134.104 19.8912H129.812V19.8713ZM133.19 12.579C133.031 10.6516 131.997 9.57861 130.05 9.57861C128.202 9.57861 126.93 10.8702 126.871 12.579H133.19Z" fill="#333333"/>
<path d="M143.363 19.871C139.985 19.871 137.382 17.6654 137.382 13.7113C137.382 9.75711 139.985 7.55152 143.363 7.55152H145.747V3.02113H148.549V19.871H143.343H143.363ZM145.747 9.93594H143.701C141.376 9.93594 140.243 11.4262 140.243 13.7113C140.243 15.9963 141.436 17.4866 143.701 17.4866H145.747V9.93594Z" fill="#333333"/>
<path d="M158.465 3.02113H163.929L162.637 5.60425H159.041C155.444 5.60425 153.576 7.73035 153.576 11.4659C153.576 15.2015 155.444 17.3276 159.041 17.3276H163.929L162.637 19.9107H158.484C154.113 19.8511 150.596 16.8706 150.596 11.4858C150.596 6.101 154.113 3.10061 158.484 3.06087L158.465 3.02113Z" fill="#333333"/>
<path d="M168.915 19.8711C166.372 19.8711 164.981 18.202 164.981 16.1553C164.981 14.1087 166.352 12.4396 168.915 12.4396H173.466V11.625C173.466 10.5122 172.929 9.91613 171.757 9.91613H165.935L167.107 7.55158H171.757C174.698 7.55158 176.228 9.0021 176.228 11.6448V19.8909H168.915V19.8711ZM169.154 14.685C168.24 14.685 167.822 15.3605 167.822 16.1156C167.822 16.8707 168.26 17.5264 169.114 17.5264H173.466V14.685H169.154Z" fill="#333333"/>
<path d="M178.672 19.8711V11.7839C178.672 9.3995 180.242 7.55158 182.984 7.55158H186.421L185.189 9.99561H183.322C182.169 9.99561 181.474 10.7308 181.474 11.8634V19.8711H178.672Z" fill="#333333"/>
<path d="M192.223 19.8713C188.488 19.8713 186.421 17.0696 186.421 13.5526C186.421 10.0356 188.587 7.21406 192.462 7.21406C196.336 7.21406 198.502 9.81705 198.502 13.6719V14.9435H189.342C189.541 16.5332 190.793 17.5267 192.303 17.5267H197.707L196.515 19.8912H192.223V19.8713ZM195.601 12.579C195.442 10.6516 194.409 9.57861 192.462 9.57861C190.614 9.57861 189.342 10.8702 189.282 12.579H195.601Z" fill="#333333"/>
<path d="M201.841 3.00134V3.67693H200.589V7.23368H199.735V3.67693H198.483V3.00134H201.841Z" fill="#333333"/>
<path d="M203.828 3.00134L204.623 6.57797H204.663L205.418 3.00134H206.868V7.23368H206.014V3.65706H205.954L205.14 7.23368H204.027L203.212 3.65706H203.153V7.23368H202.298V3.00134H203.828Z" fill="#333333"/>
</g>
<g id="LG">
<path d="M20.5856 13.4332H23.7648V16.3938C23.1886 16.6124 22.0361 16.8508 20.9433 16.8508C17.4263 16.8508 16.2539 15.0625 16.2539 11.4462C16.2539 7.82979 17.3667 5.94213 20.8837 5.94213C22.8309 5.94213 23.9635 6.55811 24.8776 7.73044L27.3017 5.50499C25.8313 3.37889 23.2482 2.74304 20.8042 2.74304C15.3399 2.74304 12.4587 5.72356 12.4587 11.4263C12.4587 17.129 15.0418 20.1493 20.7644 20.1493C23.3873 20.1493 25.9506 19.4737 27.3415 18.5001V10.2937H20.5657V13.453L20.5856 13.4332Z" fill="#333333"/>
<path d="M3.91442 2.98162H0V19.8712H12.0016V16.5927H3.91442V2.98162Z" fill="#333333"/>
</g>
</g>
<defs>
<filter id="filter0_d_2020_2647" x="-0.85" y="0.800049" width="209.1" height="26.35" filterUnits="userSpaceOnUse" color-interpolation-filters="sRGB">
<feFlood flood-opacity="0" result="BackgroundImageFix"/>
<feColorMatrix in="SourceAlpha" type="matrix" values="0 0 0 0 0 0 0 0 0 0 0 0 0 0 0 0 0 0 127 0" result="hardAlpha"/>
<feOffset dy="1.7"/>
<feGaussianBlur stdDeviation="0.425"/>
<feComposite in2="hardAlpha" operator="out"/>
<feColorMatrix type="matrix" values="0 0 0 0 0 0 0 0 0 0 0 0 0 0 0 0 0 0 0.15 0"/>
<feBlend mode="normal" in2="BackgroundImageFix" result="effect1_dropShadow_2020_2647"/>
<feBlend mode="normal" in="SourceGraphic" in2="effect1_dropShadow_2020_2647" result="shape"/>
</filter>
</defs>
</svg>
