<svg xmlns="http://www.w3.org/2000/svg" width="80" height="56">
    <path fill="#949494" fill-rule="evenodd" d="M64.567 15.7H15.74c-4.599 0-7.788 2.547-7.788 6.542v5.706c0 3.995 3.189 7.234 7.788 7.234h1.11v1.732c0 2.072 1.668 3.767 3.708 3.767s3.709-1.695 3.709-3.767v-1.732h31.107v1.732c0 2.072 2.046 3.767 4.446 3.767 1.302 0 2.971-1.695 2.971-3.767v-1.732h1.776c3.933 0 7.122-3.239 7.122-7.234v-5.706c0-3.995-3.189-6.542-7.122-6.542zM53.964 28.327c-1.751 0-3.183-1.454-3.183-2.377 0-2.633 1.432-4.088 3.183-4.088 1.75 0 3.182 1.455 3.182 4.088 0 .923-1.432 2.377-3.182 2.377zm10.933 0c-1.75 0-3.182-1.454-3.182-2.377 0-2.633 1.432-4.088 3.182-4.088s3.893 1.455 3.893 4.088c0 .923-2.143 2.377-3.893 2.377z"/>
</svg>
