<svg xmlns="http://www.w3.org/2000/svg" width="80" height="56">
    <path fill-rule="evenodd" fill="#14A1A9" d="M47.709 54.306H32.597c-10.267 0-17.997-8.327-17.997-18.598V20.591c0-10.272 7.73-18.598 17.997-18.598h15.112c10.267 0 18.591 8.326 18.591 18.598v15.117c0 10.271-8.324 18.598-18.591 18.598zM31.75 44.55c1.573 1.36 3.484 1.36 4.98-.007 2.847-1.036 4.771-3.043 5.051-6.568.37-3.575-2.289-7.54-6.098-8.279-.093-.119-1.807-.165-2.386-.093-3.815.502-6.663 3.77-6.663 7.659 0 3.281 2.081 6.238 5.116 7.288zm5.199-29.064h-.598l-1.101 4.272c-.953 2.357-1.584 4.364-1.623 4.469-.065.172-.182.523-1.267-3.664-.663-2.119-.57-4.133-1.385-3.623l-.189-1.454h-1.287l-.318 1.004c.319.95-.793 3.02-1.385 4.456-.585 1.895-1.085 3.427-1.105 3.4-.019-.026-.281-2.027-1.397-4.45l-1.359-4.41h-.598c-.423 0-.605.027-.605.08 0 .039.722 2.396 1.6 5.228.884 2.839 1.631 5.706 1.664 5.374l.544.218.171-.02.656-.02 1.365-4.41c.754-2.422 1.385-4.403 1.405-4.403.019 0 .656 1.981 1.404 4.403l1.371 4.41.65.02.65.02 1.671-5.4c.923-2.836 1.671-5.42 1.671-5.453 0-.027-.273-.047-.605-.047zm5.565-.18c-3.223 0-4.578 2.552-4.578 5.349 0 3.022 1.355 5.877 4.578 5.877 3.166 0 3.89-1.345 4.421-3.751h-1.238c-.393 1.604-1.376 2.661-3.183 2.661-2.378 0-3.321-2.546-3.341-4.042h7.801c.746-3.17-1.199-6.094-4.46-6.094zM47.7 29.61c-2.89.211-4.255 1.175-3.89 2.766-.84.462-.84 1.38 0 1.849-.482 1.082.35 1.927 1.819 2.581.676.297 1.371.535 3.055 1.017 2.08.607 2.763.917 3.237 1.459.566.653.728 1.696.416 2.621-.123.369-.637.97-1.033 1.201-.878.528-2.587.799-3.966.627-2.184-.264-3.386-1.399-3.581-3.367l-.046-.462h-1.17l.046.568c.143 1.769.981 3.116 2.385 3.816 1.138.568 2.483 1.364 4.508.647 1.798-.191 3.176-.713 3.806-2.218.312-.035.423-1.281.364-2.093-.091-1.386-.45-2.231-1.846-2.879.156-.383-1.508-.043-3.432-1.234-1.788-.528-2.158-.66-2.75-.957-.988-.122-1.456-1.182-1.456-2.073 0-.949 1.334-2.298 2.522-2.628.254-.046.878-.086 2.172-.086.747 0 1.709.795 2.366.964.526.535.728 1.023 1.614 2.113l-.717.317h1.163l-.039-.515c.273-2.45-1.527-3.75-4.134-4.041-.702-.072-1.32-.072-1.413.007zm9.654-10.79c-.572-2.244-1.892-3.386-4.037-3.505-.917-.073-2.437.31-3.211 1.102l-.397.403v-5.493h-1.17v9.639h1.151l.039-.614c.143-2.112 1.124-3.519 2.671-3.803 1.522-.284 2.809.35 3.472 1.704.403 1.397.5 1.347.5 2.713-.006 1.327-.084 1.743-.487 2.614-.455.964-1.157 2.41-2.21 1.724-.725.316-3.049-.542-3.005-2.113l-.753-.41h-1.223s.045 1.149.209.747c.494 1.802 1.561 3.292 2.939 2.898.585.145 1.846.145 2.431 0 1.057-.192 1.261-.482 1.839-1.07.8-.805 1.203-1.729 1.398-3.182.13-.95.052-2.528-.156-3.354zm-14.84-2.424c2.004 0 3.163 1.565 3.222 3.519h-6.563c.197-1.933 1.317-3.519 3.341-3.519zM31.711 31.28c1.248-.535 2.542-.666 3.796-.396 2.425.528 4.317 2.37 4.948 4.826.24.944.24 2.152 0 3.103-.67 2.641-2.828 4.568-5.493 4.918-2.802.37-5.675-1.393-6.702-4.113-.339-.884-.416-1.307-.416-2.356 0-1.05.077-1.473.416-2.357.591-1.565 1.937-2.978 3.451-3.625z"/>
</svg>
