<svg xmlns="http://www.w3.org/2000/svg" width="80" height="56">
    <path fill="#949494" fill-rule="evenodd" d="M59.483 39.69h-.135c-1.756 0-3.197-2.066-3.197-3.841v-14.01c0-1.129 1.438-3.218 3.197-3.218h.132c1.759 0 3.195 2.089 3.195 3.218v14.01c0 1.77-1.432 3.841-3.192 3.841zM24.996 17.796c-.025-.288-.044-.579-.044-.874 0-4.799 3.03-8.983 7.523-11.202l-2.492-3.875c-.16-.244-.089-.579.156-.738.244-.161.578.023.736.157l2.577 4.009c1.941-.8 4.1-1.043 6.386-1.043 2.285 0 4.448.243 6.385 1.043l2.581-4.009c.158-.134.49-.318.732-.157.245.159.316.494.155.738l-2.49 3.875c4.491 2.219 7.523 6.403 7.523 11.202 0 .295-.016.586-.041.874H24.996zm7.96-8.013c-.789 0-1.43.639-1.43 1.437 0 .95.641 1.438 1.43 1.438.789 0 1.429-.488 1.429-1.438 0-.798-.636-1.437-1.429-1.437zm13.763 0c-.789 0-1.429.639-1.429 1.437 0 .95.64 1.438 1.429 1.438.791 0 1.427-.488 1.427-1.438 0-.798-.636-1.437-1.427-1.437zM20.331 39.69h-.139c-1.759 0-3.192-2.066-3.192-3.841v-14.01c0-1.129 1.433-3.218 3.192-3.218h.137c2.521 0 3.192 2.089 3.194 3.218v14.01c0 1.77-.623 3.841-3.192 3.841zm34.291 1.567c0 1.627-1.32 2.952-2.932 2.952h-3.137v7.568c0 1.775-1.434 3.222-3.195 3.222h-.135c-1.753 0-2.953-1.445-2.953-3.222v-7.568h-4.624v7.568c0 1.775-1.436 3.222-3.197 3.222h-.137c-1.754 0-3.193-1.445-3.193-3.222v-7.568h-3.135c-1.614 0-2.474-1.325-2.474-2.952V19.135h29.112v22.122z"/>
    <path fill="#FFF" fill-rule="evenodd" d="M60.816 32.49l-10.82 17.891 1.546 1.491h21.639s.387-2.48 0-2.982c-.385-.502-9.927-17.251-12.365-16.4z"/>
    <path fill="#F98A08" fill-rule="evenodd" d="M74.91 51.994c-.804 1.318-2.232 2.986-3.03 2.986H52.881c-1.59 0-3.018-1.668-3.281-2.985-1.344-1.317-1.359-2.035-.42-4.231l8.942-15.594c.794-1.359 2.238-2.172 3.862-2.172s3.536.812 3.863 2.172l9.104 15.594c.777 2.186.762 2.913-.041 4.23zm-2.921-2.635l-9.103-15.593c-.268-.457-.72-.506-.902-.506-.182 0-.633.049-.144.506l-9.86 15.593c-.262.448-.08.839.009.987.811.148.358.491.892.491H71.88c-.257 0 .01-.344.1-.491.72-.148.271-.539.009-.987zm-9.729-.158c-.615 0-.939.519-.74-.387-.737-.259-.872-.571-.872-.936 0-.366.135-.679.872-.937-.199-.258.125-.388.74-.388.147 0 .472.13.84.388.17.258.305.571.305.937 0 .365-.135.677-.305.936-.368.906-.693.387-.84.387zm-.275-3.773c-.625 0-1.132-.487-1.132-1.087v-6.362c0-.6.507-1.087 1.132-1.087.625 0 1.132.487 1.132 1.087v6.362c0 .6-.507 1.087-1.132 1.087z"/>
</svg>
