<svg xmlns="http://www.w3.org/2000/svg" width="53" height="37">
    <path fill="#949494" fill-rule="evenodd" d="M36.93 7.272c2.878 2.493 5.39 6.718 5.97 11.236 0 .7-1.451 1.268-2.142 1.268H13.243c-.69 0-1.25-.568-1.25-1.268-.023-4.518 2.201-8.743 5.915-11.236l-3.046-3.094c-.468-.491-.468-1.271 0-1.762.48-.504 1.271-.518 1.768-.031l3.552 3.605c4.35-1.26 9.29-1.26 13.64 0l3.552-3.603.031-.031c.497-.487 1.288-.473 1.768.031s.466 1.307-.03 1.794L36.93 7.272zm-16.183 4.166c-.177 0-1.25 1.162-1.25 1.269 0 .701 1.073 1.269 1.25 1.269.691 0 1.251-.568 1.251-1.269 0-.107-.56-1.269-1.251-1.269zm12.507 0c-.691 0-.854 1.162-.854 1.269 0 .701.163 1.269.854 1.269s1.251-.568 1.251-1.269c0-.107-.56-1.269-1.251-1.269zM16.4 32.306h4.971v1.538H14.64V22.39h1.76v9.916zm8.2-10.763c-.28 0-.052.078.144.232.196.154.626.413.626.777 0 .353-.43.609-.626.769-.196.16-.424.239-.144.239-.812 0-1.046-.079-1.241-.239-.196-.16.291-.416.291-.769 0-.364-.487-.623-.291-.777.195-.154.429-.232 1.241-.232zm.307 12.301h-1.728v-8.911h1.728v8.911zm3.536-10.912h1.059v2.001h2.618v1.339h-2.618v4.893c0 .485.117 1.635.351 1.075 1.007.231.54.347.921.347.489 0 .929-.072 2.166-.215v1.323c-1.031.088-1.281.162-1.596.223-.054.06-.63.982-.945.982-.478 0-.916-.974-.529-1.139-1.18-.165-1.498-.452-1.736-.86-.24-.407-.359-.975-.359-1.703v-4.926h-1.222v-.794l1.287-.661.603-1.885zm6.788 2.389c.592-.369 1.285-.554 2.078-.554 1.151 0 2.058.361 2.991 1.083.393.722.94 1.706.94 2.951v.959h-6.115c.022.915.258 1.615.709 2.1.45.485 1.084.727 1.898.727.565 0 1.068-.052 1.508-.157.44-.105.893-.262 1.361-.471v1.455c-.446.209-.891.361-1.337.454-.445.094-.977 1.032-1.597 1.032-.847 0-.967-1.062-2.249-1.404-.652-.341-1.16-.848-1.524-1.521-.364-.672-.546-1.509-.546-2.513 0-1.002.166-1.851.498-2.546.331-.694.792-1.226 1.385-1.595zm4.066 3.149c-.011-.694-.177-1.259-.497-1.694-.321-.435-.818-.653-1.491-.653-.62 0-1.117.204-1.491.612-.375.407-.595.986-.66 1.735h4.139z"/>
    <path fill="#FFF" fill-rule="evenodd" d="M39.999 21l-7 11.999 1.001 1h13.999s.25-1.663 0-1.999c-.249-.337-6.423-11.572-8-11z"/>
    <path fill="#F98A08" fill-rule="evenodd" d="M49.117 34.753c-.519.883-1.443 1.411-2.472 1.411H34.866c-1.029 0-1.953-.528-2.473-1.411-.519-.884-.529-1.944-.026-2.838l5.89-10.459c.514-.912 1.448-1.457 2.498-1.457 1.051-.001 1.985.544 2.499 1.457l5.89 10.459c.503.893.493 1.954-.027 2.838zm-1.889-1.768l-5.89-10.459c-.172-.307-.465-.34-.583-.34-.117 0-.41.033-.582.34l-5.89 10.459c-.169.3-.052.563.006.662.058.099.231.329.577.329h11.779c.346 0 .519-.23.577-.329.058-.099.175-.362.006-.662zm-6.446-.106c-.246 0-.456-.087-.63-.26-.174-.173-.261-.382-.261-.628 0-.245.087-.455.261-.628.174-.173.384-.26.63-.26.508 0 .457.087.631.26.174.173.261.383.261.628 0 .246-.087.455-.261.628-.174.173-.123.26-.631.26zm-.027-2.531c-.404 0-.525-.128-.525-.729v-4.267c0-.403.121-.73.525-.73.405 0 .733.327.733.73v4.267c0 .601-.328.729-.733.729z"/>
</svg>
