<svg xmlns="http://www.w3.org/2000/svg" width="42" height="30">
    <path fill="#949494" fill-rule="evenodd" d="M33.537 23.91H22.778v1.45h4.555c.277 0 .502.228.502.51v.376c0 .282-.225.51-.502.51H14.126c-.277 0-.502-.228-.502-.51v-.376c0-.282.225-.51.502-.51h4.555v-1.45H7.922c-1.059 0-1.722-1.694-1.722-2.769V4.949c0-1.075.663-1.95 1.722-1.95h25.615c1.058 0 1.92.875 1.92 1.95v16.192c0 1.075-.862 2.769-1.92 2.769zm.591-18.961c0-.331-.265-.6-.591-.6H7.922c-.326 0-.591.269-.591.6v16.192c0 .331.265.601.591.601h25.615c.326 0 .591-.27.591-.601V4.949zm-25.278 1h23.759v14.193H8.85V5.949z"/>
</svg>
