<svg xmlns="http://www.w3.org/2000/svg" width="80" height="56">
    <path fill="#949494" fill-rule="evenodd" d="M63.464 44.543H43.358v4.24h8.512c.518 0 .939.427.939.953v.703c0 .526-.421.953-.939.953H27.191c-.519 0-.939-.427-.939-.953v-.703c0-.526.42-.953.939-.953h8.511v-4.24H15.596c-1.978 0-2.796-1.635-2.796-3.644V10.64c0-2.009.818-3.644 2.796-3.644h47.868c1.979 0 4.056 1.635 4.056 3.644v30.259c0 2.009-2.077 3.644-4.056 3.644zm1.105-33.903c0-.43.171-1.122-1.105-1.122H15.596c-.609 0-1.105.692-1.105 1.122v30.259c0 .619.496 1.311 1.105 1.311h47.868c1.276 0 1.105-.692 1.105-1.311V10.64zM17.33 12.507h44.401V39.31H17.33V12.507z"/>
    <path fill="#FFF" fill-rule="evenodd" d="M60.816 32.49l-10.82 17.891 1.546 1.491h21.639s.387-2.48 0-2.982c-.385-.502-9.927-17.251-12.365-16.4z"/>
    <path fill="#F98A08" fill-rule="evenodd" d="M74.91 51.994c-.804 1.318-2.232 2.986-3.03 2.986H52.881c-1.59 0-3.018-1.668-3.281-2.985-1.344-1.317-1.359-2.035-.42-4.231l8.942-15.594c.794-1.359 2.238-2.172 3.862-2.172s3.536.812 3.863 2.172l9.104 15.594c.777 2.186.762 2.913-.041 4.23zm-2.921-2.635l-9.104-15.593c-.267-.457-.719-.506-.901-.506-.182 0-.633.049-.144.506l-9.86 15.593c-.262.448-.08.839.009.987.801.148.357.491.892.491H71.88c-.257 0 .01-.344.1-.491.72-.148.27-.539.009-.987zm-9.729-.158c-.615 0-.939.519-.74-.387-.737-.259-.872-.571-.872-.936 0-.366.135-.679.872-.937-.199-.258.125-.388.74-.388.147 0 .472.13.84.388.17.258.304.571.304.937 0 .365-.134.677-.304.936-.368.906-.693.387-.84.387zm-.275-3.773c-.625 0-1.132-.487-1.132-1.087v-6.362c0-.6.507-1.087 1.132-1.087.625 0 1.132.487 1.132 1.087v6.362c0 .6-.507 1.087-1.132 1.087z"/>
</svg>
