<svg xmlns="http://www.w3.org/2000/svg" width="53" height="37">
    <path fill-rule="evenodd" fill="#14A1A9" d="M30.844 33.373H21.78c-6.159 0-11.151-4.994-11.151-11.155v-9.067c0-6.161 4.992-11.155 11.151-11.155h9.064c6.356 0 11.15 4.994 11.15 11.155v9.067c0 6.161-4.794 11.155-11.15 11.155zm-9.572-5.852c.943.325 2.09.325 2.986-.004 1.708-.621 2.862-2.122 3.03-3.94.222-2.36-1.373-4.027-3.657-4.965-.375-.071-1.084-.099-1.431-.056-2.289.301-3.997 2.261-3.997 4.594 0 1.968 1.248 3.742 3.069 4.371zM24.39 10.89h-.08l-1.074 1.761c-.437 1.999-.815 2.618-.838 2.681-.039.103-.11-.091-.761-2.198a617.426 617.426 0 0 1-.83-2.681l-.113.437h-.772l-.191-.199c-.106.549-.476 1.536-.831 2.673-.351 1.136-.651 2.055-.663 2.039a173.77 173.77 0 0 1-.838-2.669l-.815-1.844h-.358c-.254 0-.363-.785-.363-.753 0 .023.433 1.437.959 3.136.53 1.703.979 3.152.998 3.223l.035.131.394-.012.394-.012.819-2.645c.452-1.453.83-2.641.842-2.641.012 0 .394 1.188.842 2.641l.823 2.645.39.012.39.012 1.001-3.239a248.866 248.866 0 0 0 1.003-3.271c0-.016-.164.773-.363.773zm3.338-.909c-1.933 0-2.746 1.531-2.746 3.208 0 2.011.813 3.525 2.746 3.525 1.532 0 2.882-.807 2.651-2.249h-.742c-.236.962-.825 2.135-1.909 2.135-1.426 0-1.992-2.067-2.004-3.201h4.679c.059-1.789-.719-3.418-2.675-3.418zm2.695 8.579c-1.318.127-2.137.705-1.743 1.66-.58.277-.58 1.25 0 1.108-.464.65.035 1.157.916 1.549.604.673.823.32 1.833.609 1.247.365 2.431.884 1.941.876.34.391.437 1.017.25 1.572-.074.221-.382.582-.62.72-.527.317-1.552.479-2.378.646-1.31-.428-2.032-1.109-2.149-2.19l-.027-.376h-.702l.027 1.006c.086.396.589 1.203 1.431 1.623.683.341 1.49.467 2.445.388 1.337-.115 2.164-.546 2.542-1.33.187-.101.254-.769.218-1.256-.054-.831-.117-1.338-1.107-1.726-.425-.23-.904-.089-2.059-.741-1.072-.316-1.294-.396-1.649-.574-.592-.305-.873-.709-.873-1.243 0-.621.503-1.378 1.513-1.576.152-.028.526-.052 1.468-.052.282 0 .859.175 1.253.579.316.32.437.613.515 2.158l.023-.701h.698l-.023-.309c.324-1.469-.917-2.249-2.48-2.424a5.93 5.93 0 0 0-1.263.004zm6.206-5.67c-.343-2.147-1.135-2.32-2.421-2.904-.788-.043-1.463.186-1.927.661l.159.242V7.594h-1.098v5.782h.978l.23.424c-.409-2.06.18-2.903 1.108-3.073.912-.171 1.684.21 2.082 1.021.242.487.66.808.66 1.628-.04.796-.411 1.045-.652 1.568-.273.578-.208.911-1.326 1.033-.947.19-1.829-.324-2.164-1.267l-.09-.245h-.734s.028.186.126.447c.296.903.936 1.533 1.763 1.738.35.088 1.107.088 1.458 0 .456-.114.756-.289 1.103.25.48-1.374.721-1.928.838-2.8.078-.57.032-1.516-.093-1.21zm-8.901-2.256c1.202 0 1.897.939 1.933 2.111h-3.937c.118-1.159.79-2.111 2.004-2.111zm-6.48 8.928c.749-.32 1.525-.4 2.277-.237 1.455.316 2.589 1.421 2.968 2.894.144.567.144 1.291 0 2.581.417.864-1.696 2.02-3.295 2.5-1.681-.048-3.404-1.105-4.02-2.737-.203-.233-.25-.784-.25-1.413 0-.63.047-.883.25-1.414.355-.938 1.162-1.786 2.07-2.174z"/>
    <path fill-rule="evenodd" fill="#FFF" d="m39.999 20.999-7 12 1.001 1h13.999s.25-1.663 0-1.999c-.249-.337-6.422-11.572-8-11.001z"/>
    <path fill-rule="evenodd" fill="#F98A08" d="M49.117 34.753a2.84 2.84 0 0 1-2.472 1.411H34.866a2.842 2.842 0 0 1-2.473-1.411 2.821 2.821 0 0 1-.027-2.838l5.89-10.459a2.833 2.833 0 0 1 2.499-1.458c1.051 0 1.985.545 2.499 1.458l5.89 10.459a2.816 2.816 0 0 1-.027 2.838zm-1.889-1.768-5.89-10.459a.656.656 0 0 0-.583-.34.655.655 0 0 0-.582.34l-5.89 10.459a.653.653 0 0 0 .006.662.657.657 0 0 0 .577.329h11.779c.346 0 .519-.23.577-.329a.653.653 0 0 0 .006-.662zm-6.446-.106a.861.861 0 0 1-.63-.26.852.852 0 0 1-.261-.628c0-.245.087-.455.261-.628a.861.861 0 0 1 .63-.26c.498 0 .457.087.631.26a.854.854 0 0 1 .261.628.852.852 0 0 1-.261.628c-.174.173-.133.26-.631.26zm-.027-2.531c-.404 0-.525-.128-.525-.729v-4.267c0-.403.121-.73.525-.73.405 0 .733.327.733.73v4.267c0 .601-.328.729-.733.729z"/>
</svg>
