<svg xmlns="http://www.w3.org/2000/svg" width="52" height="36">
    <path fill-rule="evenodd" fill="#14A1A9" d="M36.93 7.272c2.878 2.493 5.39 6.718 5.97 11.236 0 .7-1.451 1.268-2.142 1.268H13.243a1.26 1.26 0 0 1-1.25-1.268c-.023-4.518 2.201-8.743 5.915-11.236l-3.046-3.094a1.281 1.281 0 0 1 0-1.762 1.237 1.237 0 0 1 1.768-.031l3.552 3.605c4.35-1.26 9.29-1.26 13.64 0l3.552-3.603.031-.031a1.237 1.237 0 0 1 1.768.031c.48.504.466 1.307-.03 1.794L36.93 7.272zm-16.183 4.166c-.177 0-1.25 1.162-1.25 1.269 0 .701 1.073 1.269 1.25 1.269a1.26 1.26 0 0 0 1.251-1.269c0-.107-.56-1.269-1.251-1.269zm12.507 0c-.691 0-.854 1.162-.854 1.269 0 .701.163 1.269.854 1.269a1.26 1.26 0 0 0 1.251-1.269c0-.107-.56-1.269-1.251-1.269zM16.4 32.306h4.971v1.538H14.64V22.39h1.76v9.916zm8.19-10.763c-.27 0-.042.078.154.232.196.154.626.413.626.777 0 .353-.43.609-.626.769-.196.16-.424.239-.154.239-.802 0-1.036-.079-1.231-.239-.196-.16.291-.416.291-.769 0-.364-.487-.623-.291-.777.195-.154.429-.232 1.231-.232zm.317 12.301H23.18v-8.912h1.727v8.912zm3.536-10.912h1.059v2h2.618v1.34h-2.618v4.893c0 .485.117 1.635.351 1.075 1.007.231.54.347.921.347.489 0 .929-.072 2.166-.215v1.323c-1.031.088-1.281.162-1.596.223-.054.06-.63.982-.945.982-.478 0-.916-.974-.529-1.139-1.18-.166-1.498-.452-1.736-.86-.24-.407-.359-.975-.359-1.703v-4.926h-1.222v-.794l1.287-.661.603-1.885zm6.788 2.389c.592-.369 1.285-.554 2.078-.554 1.151 0 2.059.361 2.991 1.083.393.722.94 1.706.94 2.951v.959h-6.115c.021.915.258 1.615.709 2.1.45.485 1.084.727 1.898.727a6.53 6.53 0 0 0 1.508-.157c.44-.105.893-.262 1.361-.471v1.455a6.068 6.068 0 0 1-1.337.454c-.445.094-.977 1.032-1.597 1.032-.847 0-.967-1.062-2.249-1.404a3.606 3.606 0 0 1-1.524-1.521c-.364-.672-.545-1.51-.545-2.513 0-1.002.165-1.851.497-2.545.331-.695.792-1.227 1.385-1.596zm4.066 3.15c-.011-.695-.177-1.26-.497-1.695-.321-.435-.818-.653-1.491-.653-.62 0-1.117.204-1.492.612-.374.407-.594.986-.659 1.736h4.139z"/>
    <path fill-rule="evenodd" fill="#FFF" d="M40 21.999a6 6 0 1 1-.002 12.002A6 6 0 0 1 40 21.999z"/>
    <path fill-rule="evenodd" fill="#DE1231" d="M45.45 22.354c-.016-.018-.028-.038-.045-.055-.017-.016-.036-.029-.054-.044a7.823 7.823 0 0 0-5.5-2.256c-4.331 0-7.854 3.523-7.854 7.854 0 2.14.862 4.08 2.255 5.498.016.018.028.039.045.056.017.017.038.03.056.045a7.823 7.823 0 0 0 5.498 2.255c4.331 0 7.855-3.523 7.855-7.854 0-2.14-.863-4.081-2.256-5.499zm-5.599.496c1.799 0 2.34-.386 3.271.257l-8.017 8.016c-.643-.93-.275-1.453-.275-3.27 0-3.18 1.841-5.003 5.021-5.003zm0 10.771a5.731 5.731 0 0 1-3.27-1.022l8.016-8.016a5.731 5.731 0 0 1 1.022 3.27c0 3.487-2.299 5.768-5.768 5.768z"/>
</svg>
