<svg xmlns="http://www.w3.org/2000/svg" width="80" height="56">
    <path fill="#949494" fill-rule="evenodd" d="M36.822 47.698V29.58l26.067.409v22.809l-26.067-5.1zm0-38.948l26.067-5.766v22.778l-26.067.453V8.75zM16.996 29.299l16.133.216v17.449l-16.133-3.17V29.299zm0-17.32l16.133-3.127V26.28l-16.133.215V11.979z"/>
    <path fill="#FFF" fill-rule="evenodd" d="M60.816 32.49l-10.82 17.891 1.546 1.49h21.639s.387-2.479 0-2.981c-.385-.502-9.927-17.251-12.365-16.4z"/>
    <path fill="#F98A08" fill-rule="evenodd" d="M74.91 51.994c-.804 1.318-2.232 2.996-3.03 2.996H52.881c-1.59 0-3.018-1.678-3.281-2.995-1.344-1.317-1.359-2.035-.42-4.231l8.942-15.594c.794-1.359 2.238-2.172 3.862-2.172s3.546.812 3.863 2.172l9.104 15.594c.777 2.186.762 2.913-.041 4.23zm-2.921-2.635l-9.104-15.593c-.267-.457-.719-.506-.901-.506-.182 0-.633.049-.144.506l-9.86 15.593c-.262.448-.08.839.009.987.811.148.358.491.892.491H71.88c-.257 0 .01-.344.1-.491.72-.148.271-.539.009-.987zm-9.729-.158c-.615 0-.939.519-.74-.387-.737-.258-.872-.57-.872-.936 0-.366.135-.679.872-.936-.199-.259.125-.388.74-.388.147 0 .472.129.84.388.17.257.305.57.305.936 0 .366-.135.678-.305.936-.368.906-.693.387-.84.387zm-.275-3.773c-.625 0-1.132-.487-1.132-1.087v-6.362c0-.6.507-1.087 1.132-1.087.625 0 1.132.487 1.132 1.087v6.362c0 .6-.507 1.087-1.132 1.087z"/>
</svg>
