<svg xmlns="http://www.w3.org/2000/svg" width="80" height="56">
    <path fill-rule="evenodd" fill="#14A1A9" d="M36.822 47.698V29.58l26.067.409v22.809l-26.067-5.1zm0-38.948 26.067-5.766v22.778l-26.067.453V8.75zM16.996 29.299l16.133.216v17.449l-16.133-3.17V29.299zm0-17.32 16.133-3.127v17.427l-16.133.216V11.979z"/>
    <path fill-rule="evenodd" fill="#FFF" d="M61.676 33.169a9.508 9.508 0 1 1 0 19.014 9.508 9.508 0 0 1 0-19.014z"/>
    <path fill-rule="evenodd" fill="#DE1231" d="M70.313 33.73c-.025-.028-.044-.059-.07-.087-.027-.026-.058-.045-.086-.069a12.4 12.4 0 0 0-8.716-3.576c-6.862 0-12.446 5.583-12.446 12.446 0 3.391 1.367 6.466 3.573 8.713.025.028.045.06.073.088.027.027.059.047.087.072 2.247 2.207 5.772 3.573 8.713 3.573 6.863 0 12.446-5.583 12.446-12.446 0-2.914-1.366-6.467-3.574-8.714zm-8.872-.426c1.924 0 3.709.601 5.183 1.62L53.921 47.627a9.088 9.088 0 0 1-1.62-5.183c0-5.039 4.101-9.14 9.14-9.14zm0 18.28c-1.923 0-3.708-.6-5.182-1.619l12.703-12.703a9.082 9.082 0 0 1 1.62 5.182c0 5.04-4.101 9.14-9.141 9.14z"/>
</svg>
