<svg xmlns="http://www.w3.org/2000/svg" width="51" height="36">
    <path fill="#949494" fill-rule="evenodd" d="M35.93 7.272c2.878 2.493 5.39 6.718 5.97 11.236 0 .7-1.451 1.268-2.142 1.268H12.243c-.69 0-1.25-.568-1.25-1.268-.023-4.518 2.201-8.743 5.915-11.236l-3.046-3.094c-.468-.491-.468-1.271 0-1.762.48-.504 1.271-.518 1.768-.031l3.552 3.605c4.35-1.26 9.29-1.26 13.64 0l3.552-3.603.031-.031c.497-.487 1.288-.473 1.768.031s.466 1.307-.03 1.794L35.93 7.272zm-16.183 4.166c-.177 0-1.25 1.162-1.25 1.269 0 .701 1.073 1.269 1.25 1.269.691 0 1.251-.568 1.251-1.269 0-.107-.56-1.269-1.251-1.269zm12.507 0c-.691 0-.854 1.162-.854 1.269 0 .701.163 1.269.854 1.269s1.251-.568 1.251-1.269c0-.107-.56-1.269-1.251-1.269zM15.4 32.306h4.971v1.538H13.64V22.39h1.76v9.916zm8.2-10.763c-.28 0-.052.078.144.232.196.154.626.413.626.777 0 .353-.43.609-.626.769-.196.16-.424.239-.144.239-.812 0-1.046-.079-1.241-.239-.196-.16.291-.416.291-.769 0-.364-.487-.623-.291-.777.195-.154.429-.232 1.241-.232zm.307 12.301h-1.728v-8.911h1.728v8.911zm3.536-10.912h1.059v2.001h2.618v1.339h-2.618v4.893c0 .485.117 1.635.351 1.075 1.007.231.54.347.921.347.489 0 .929-.072 2.166-.215v1.323c-1.031.088-1.281.162-1.596.223-.054.06-.63.982-.945.982-.478 0-.916-.974-.529-1.139-1.18-.165-1.498-.452-1.736-.86-.24-.407-.359-.975-.359-1.703v-4.926h-1.222v-.794l1.287-.661.603-1.885zm6.788 2.389c.592-.369 1.285-.554 2.078-.554 1.151 0 2.058.361 2.991 1.083.393.722.94 1.706.94 2.951v.959h-6.115c.022.915.258 1.615.709 2.1.45.485 1.084.727 1.898.727.565 0 1.068-.052 1.508-.157.44-.105.893-.262 1.361-.471v1.455c-.446.209-.891.361-1.337.454-.445.094-.977 1.032-1.597 1.032-.847 0-.967-1.062-2.249-1.404-.652-.341-1.16-.848-1.524-1.521-.364-.672-.546-1.509-.546-2.513 0-1.002.166-1.851.498-2.546.331-.694.792-1.226 1.385-1.595zm4.066 3.149c-.011-.694-.177-1.259-.497-1.694-.321-.435-.818-.653-1.491-.653-.62 0-1.117.204-1.491.612-.375.407-.595.986-.66 1.735h4.139z"/>
</svg>
