<svg xmlns="http://www.w3.org/2000/svg" width="80" height="56">
    <path fill-rule="evenodd" fill="#14A1A9" d="M59.483 39.69h-.135c-1.756 0-3.197-2.066-3.197-3.841v-14.01c0-1.129 1.438-3.218 3.197-3.218h.133c1.758 0 3.194 2.089 3.194 3.218v14.01c0 1.77-1.431 3.841-3.192 3.841zM24.996 17.796a10.086 10.086 0 0 1-.044-.874c0-4.799 3.03-8.982 7.523-11.202l-2.492-3.875a.536.536 0 0 1 .156-.738c.244-.161.578.023.736.157l2.577 4.009c1.941-.8 4.1-1.043 6.386-1.043 2.285 0 4.448.243 6.385 1.043l2.581-4.009c.158-.134.49-.318.732-.157a.536.536 0 0 1 .156.738L47.201 5.72c4.491 2.22 7.523 6.403 7.523 11.202 0 .295-.016.586-.041.874H24.996zm7.96-8.013c-.789 0-1.43.639-1.43 1.437 0 .95.641 1.438 1.43 1.438.789 0 1.429-.488 1.429-1.438 0-.798-.636-1.437-1.429-1.437zm13.763 0a1.43 1.43 0 0 0-1.429 1.437c0 .95.64 1.438 1.429 1.438.791 0 1.427-.488 1.427-1.438 0-.798-.636-1.437-1.427-1.437zM20.331 39.69h-.139c-1.759 0-3.192-2.066-3.192-3.841v-14.01c0-1.129 1.433-3.218 3.192-3.218h.137c2.521 0 3.192 2.089 3.194 3.218v14.01c0 1.77-.623 3.841-3.192 3.841zm34.291 1.567c0 1.627-1.32 2.952-2.932 2.952h-3.137v7.568c0 1.775-1.434 3.222-3.195 3.222h-.135c-1.753 0-2.953-1.445-2.953-3.222v-7.568h-4.624v7.568c0 1.775-1.436 3.222-3.197 3.222h-.137c-1.754 0-3.192-1.445-3.192-3.222v-7.568h-3.136c-1.614 0-2.474-1.325-2.474-2.952V19.135h29.112v22.122z"/>
    <path fill-rule="evenodd" fill="#FFF" d="M61.676 33.169a9.508 9.508 0 1 1 0 19.014 9.508 9.508 0 0 1 0-19.014z"/>
    <path fill-rule="evenodd" fill="#DE1231" d="M70.313 33.73c-.025-.028-.044-.059-.07-.087-.027-.026-.058-.045-.086-.069a12.405 12.405 0 0 0-8.716-3.576c-6.862 0-12.446 5.583-12.446 12.447 0 3.39 1.367 6.465 3.573 8.712.025.029.045.06.073.088.027.028.059.047.087.072 2.247 2.207 5.772 3.573 8.713 3.573 6.863 0 12.446-5.583 12.446-12.445 0-2.915-1.366-6.468-3.574-8.715zm-8.872-.426c1.924 0 3.709.601 5.183 1.62L53.921 47.627a9.087 9.087 0 0 1-1.62-5.182c0-5.04 4.101-9.141 9.14-9.141zm0 18.28c-1.923 0-3.708-.6-5.182-1.619l12.703-12.703a9.088 9.088 0 0 1 1.62 5.183c0 5.039-4.101 9.139-9.141 9.139z"/>
</svg>
