<svg xmlns="http://www.w3.org/2000/svg" width="80" height="56">
    <path fill-rule="evenodd" fill="#14A1A9" d="M64.567 15.7H15.74c-4.599 0-7.788 2.547-7.788 6.542v5.705c0 3.996 3.189 7.235 7.788 7.235h1.109v1.732c0 2.072 1.669 3.767 3.709 3.767s3.709-1.695 3.709-3.767v-1.732h31.107v1.732c0 2.072 2.056 3.767 4.456 3.767 1.292 0 2.961-1.695 2.961-3.767v-1.732h1.776c3.933 0 7.122-3.239 7.122-7.235v-5.705c0-3.995-3.189-6.542-7.122-6.542zM53.964 28.327h-.001c-1.75 0-3.182-1.454-3.182-2.377 0-2.633 1.432-4.088 3.182-4.088h.001c1.75 0 3.182 1.455 3.182 4.088 0 .923-1.432 2.377-3.182 2.377zm10.933 0c-1.75 0-3.182-1.454-3.182-2.377 0-2.633 1.432-4.088 3.182-4.088s3.893 1.455 3.893 4.088c0 .923-2.143 2.377-3.893 2.377z"/>
    <path fill-rule="evenodd" fill="#FFF" d="M67.676 23.168a9.508 9.508 0 1 1 0 19.016 9.508 9.508 0 0 1 0-19.016z"/>
    <path fill-rule="evenodd" fill="#DE1231" d="M76.313 23.73c-.025-.028-.044-.06-.07-.086-.027-.027-.059-.046-.087-.07a12.397 12.397 0 0 0-8.715-3.576c-6.863 0-12.446 5.583-12.446 12.446 0 3.39 1.367 6.466 3.573 8.712.025.029.045.061.073.089.027.027.059.047.087.072 2.247 2.207 5.772 3.573 8.713 3.573 6.863 0 12.446-5.583 12.446-12.446 0-2.914-1.367-6.467-3.574-8.714zm-8.872-.426c1.924 0 3.709.601 5.183 1.62L59.921 37.626a9.082 9.082 0 0 1-1.62-5.182c0-5.04 4.101-9.14 9.14-9.14zm0 18.28c-1.923 0-3.708-.6-5.182-1.619l12.703-12.703a9.082 9.082 0 0 1 1.62 5.182c0 5.04-4.101 9.14-9.141 9.14z"/>
</svg>
