<svg xmlns="http://www.w3.org/2000/svg" width="80" height="56">
    <path fill-rule="evenodd" fill="#14A1A9" d="M63.464 44.543H43.358v4.24h8.512c.518 0 .939.427.939.953v.703a.947.947 0 0 1-.939.953H27.191a.946.946 0 0 1-.939-.953v-.703c0-.526.42-.953.939-.953h8.511v-4.24H15.596c-1.979 0-2.796-1.635-2.796-3.644V10.64c0-2.009.817-3.644 2.796-3.644h47.868c1.979 0 4.056 1.635 4.056 3.644v30.259c0 2.009-2.077 3.644-4.056 3.644zm1.105-33.903c0-.43.161-1.122-1.105-1.122H15.596c-.609 0-1.105.692-1.105 1.122v30.259c0 .619.496 1.311 1.105 1.311h47.868c1.266 0 1.105-.692 1.105-1.311V10.64zM17.33 12.507h44.4V39.31h-44.4V12.507z"/>
    <path fill-rule="evenodd" fill="#FFF" d="M61.676 33.169a9.508 9.508 0 1 1 0 19.014 9.508 9.508 0 0 1 0-19.014z"/>
    <path fill-rule="evenodd" fill="#DE1231" d="M70.313 33.73c-.025-.028-.044-.06-.071-.087-.027-.026-.058-.045-.086-.069a12.397 12.397 0 0 0-8.715-3.576c-6.863 0-12.446 5.583-12.446 12.446 0 3.391 1.367 6.466 3.573 8.713.025.028.045.06.072.088.028.027.06.047.088.072 2.247 2.207 5.772 3.573 8.713 3.573 6.863 0 12.446-5.583 12.446-12.446 0-2.914-1.367-6.467-3.574-8.714zm-8.872-.426c1.924 0 3.709.601 5.183 1.62L53.921 47.627a9.088 9.088 0 0 1-1.62-5.183c0-5.039 4.1-9.14 9.14-9.14zm0 18.28c-1.923 0-3.708-.6-5.182-1.619l12.703-12.703a9.081 9.081 0 0 1 1.619 5.182c0 5.04-4.1 9.14-9.14 9.14z"/>
</svg>
