<svg xmlns="http://www.w3.org/2000/svg" width="80" height="56">
    <path fill-rule="evenodd" fill="#14A1A9" d="M63.464 44.543H43.359v4.24h8.511c.518 0 .938.427.938.953v.703c0 .526-.42.953-.938.953H27.191a.946.946 0 0 1-.939-.953v-.703c0-.526.42-.953.939-.953h8.511v-4.24H15.596c-1.979 0-2.796-1.635-2.796-3.644V10.64c0-2.009.817-3.644 2.796-3.644h47.868c1.979 0 4.056 1.635 4.056 3.644v30.259c0 2.009-2.077 3.644-4.056 3.644zm1.105-33.903c0-.43.171-1.122-1.105-1.122H15.596c-.609 0-1.105.692-1.105 1.122v30.259c0 .619.496 1.311 1.105 1.311h47.868c1.276 0 1.105-.692 1.105-1.311V10.64zM17.33 12.507h44.401V39.31H17.33V12.507z"/>
</svg>
