<svg xmlns="http://www.w3.org/2000/svg" width="52" height="36">
    <path fill-rule="evenodd" fill="#8A8A8A" d="M42.479 28.423h-13.08v2.758h5.537c.337 0 .611.277.611.62v.457c0 .342-.274.62-.611.62H18.882a.615.615 0 0 1-.611-.62v-.457c0-.343.273-.62.611-.62h5.537v-2.758h-13.08c-.819 0-1.839-1.064-1.839-1.903V6.368c0-.758 1.02-2.371 1.839-2.371h31.14c1.287 0 2.334 1.613 2.334 2.371V26.52c0 .839-1.047 1.903-2.334 1.903zm.719-22.055a.725.725 0 0 0-.719-.73h-31.14a.725.725 0 0 0-.718.73V26.52c0-.065.322.262.718.262h31.14c.396 0 .719-.327.719-.262V6.368zM12.467 7.583h28.884v17.254H12.467V7.583z"/>
    <path fill-rule="evenodd" fill="#FFF" d="M39.999 21.999a6.001 6.001 0 1 1 0 12.002 6.001 6.001 0 0 1 0-12.002z"/>
    <path fill-rule="evenodd" fill="#DE1231" d="M45.45 22.354c-.016-.018-.028-.038-.045-.055-.017-.017-.036-.029-.054-.044a7.827 7.827 0 0 0-5.5-2.256c-4.331 0-7.854 3.523-7.854 7.854 0 2.14.862 4.08 2.255 5.498.016.018.028.039.045.056.017.017.038.03.056.045a7.824 7.824 0 0 0 5.498 2.256c4.331 0 7.855-3.524 7.855-7.855 0-2.14-.863-4.081-2.256-5.499zm-5.599.496c1.799 0 2.34-.386 3.271.257l-8.017 8.017c-.643-.931-.275-1.454-.275-3.271 0-3.18 1.841-5.003 5.021-5.003zm0 10.771a5.731 5.731 0 0 1-3.27-1.022l8.016-8.016a5.731 5.731 0 0 1 1.022 3.27c0 3.487-2.299 5.768-5.768 5.768z"/>
</svg>
