<svg xmlns="http://www.w3.org/2000/svg" width="80" height="56">
    <path fill-rule="evenodd" fill="#14A1A9" d="M59.483 39.69h-.135c-1.756 0-3.197-2.066-3.197-3.841v-14.01c0-1.129 1.439-3.218 3.197-3.218h.133c1.758 0 3.194 2.089 3.194 3.218v14.01c0 1.77-1.432 3.841-3.192 3.841zM24.996 17.796a10.086 10.086 0 0 1-.044-.874c0-4.799 3.03-8.982 7.524-11.202l-2.493-3.875a.537.537 0 0 1 .155-.738c.245-.161.579.023.737.157l2.577 4.009c1.941-.8 4.1-1.043 6.386-1.043 2.285 0 4.448.243 6.385 1.043l2.581-4.009c.158-.134.49-.318.732-.157a.536.536 0 0 1 .156.738L47.201 5.72c4.491 2.22 7.523 6.403 7.523 11.202 0 .295-.016.586-.041.874H24.996zm7.96-8.013c-.789 0-1.43.639-1.43 1.437 0 .95.641 1.438 1.43 1.438.789 0 1.429-.488 1.429-1.438 0-.798-.636-1.437-1.429-1.437zm13.763 0a1.43 1.43 0 0 0-1.429 1.437c0 .95.64 1.438 1.429 1.438.791 0 1.427-.488 1.427-1.438 0-.798-.636-1.437-1.427-1.437zM20.331 39.69h-.139c-1.759 0-3.192-2.066-3.192-3.841v-14.01c0-1.129 1.433-3.218 3.192-3.218h.137c2.521 0 3.192 2.089 3.194 3.218v14.01c0 1.77-.623 3.841-3.192 3.841zm34.291 1.567c0 1.627-1.32 2.952-2.932 2.952h-3.137v7.568c0 1.775-1.434 3.222-3.195 3.222h-.134c-1.754 0-2.954-1.445-2.954-3.222v-7.568h-4.624v7.568c0 1.775-1.436 3.222-3.197 3.222h-.137c-1.754 0-3.193-1.445-3.193-3.222v-7.568h-3.135c-1.614 0-2.474-1.325-2.474-2.952V19.135h29.112v22.122z"/>
    <path fill-rule="evenodd" fill="#FFF" d="m60.816 32.49-10.82 17.891 1.546 1.491h21.64s.386-2.48 0-2.982c-.386-.502-9.928-17.251-12.366-16.4z"/>
    <path fill-rule="evenodd" fill="#F98A08" d="M74.91 51.994c-.804 1.318-2.232 2.996-3.03 2.996H52.881c-1.59 0-3.018-1.678-3.281-2.995-1.344-1.317-1.359-2.035-.42-4.231l8.942-15.593c.794-1.36 2.238-2.173 3.862-2.173s3.546.812 3.863 2.173l9.104 15.593c.777 2.196.762 2.913-.041 4.23zm-2.921-2.635-9.103-15.593a1.025 1.025 0 0 0-.902-.506c-.182 0-.633.049-.144.506l-9.86 15.593a.944.944 0 0 0 .009.987c.811.148.358.491.892.491H71.88c-.257 0 .01-.344.1-.491.72-.147.271-.539.009-.987zm-9.729-.158c-.614 0-.939.519-.74-.387-.737-.258-.872-.57-.872-.936 0-.366.135-.679.872-.936-.199-.259.126-.388.74-.388.147 0 .472.129.84.388.17.257.305.57.305.936 0 .366-.135.678-.305.936-.368.906-.693.387-.84.387zm-.275-3.773c-.625 0-1.132-.487-1.132-1.087v-6.362c0-.6.507-1.087 1.132-1.087.625 0 1.132.487 1.132 1.087v6.362c0 .6-.507 1.087-1.132 1.087z"/>
</svg>
