<svg xmlns="http://www.w3.org/2000/svg" width="80" height="56">
    <path fill-rule="evenodd" fill="#14A1A9" d="M36.822 47.698V29.58l26.067.409v22.809l-26.067-5.1zm0-38.948 26.067-5.766v22.778l-26.067.453V8.75zM16.996 29.299l16.133.216v17.449l-16.133-3.17V29.299zm0-17.32 16.133-3.127v17.427l-16.133.216V11.979z"/>
    <path fill-rule="evenodd" fill="#FFF" d="m60.816 32.49-10.82 17.891 1.546 1.491h21.639s.387-2.48 0-2.982c-.385-.502-9.927-17.251-12.365-16.4z"/>
    <path fill-rule="evenodd" fill="#F98A08" d="M74.91 51.994c-.804 1.318-2.232 2.986-3.03 2.986H52.881c-1.59 0-3.018-1.668-3.281-2.985-1.344-1.317-1.359-2.035-.42-4.231l8.942-15.594c.794-1.359 2.239-2.172 3.862-2.172 1.624-.001 3.546.812 3.863 2.172l9.104 15.594c.777 2.186.762 2.913-.041 4.23zm-2.921-2.635-9.103-15.593a1.025 1.025 0 0 0-.902-.506c-.182 0-.633.049-.144.506l-9.86 15.593a.944.944 0 0 0 .009.987c.811.148.358.491.892.491H71.88c-.257 0 .01-.344.1-.491.72-.148.271-.539.009-.987zm-9.729-.158c-.614 0-.939.519-.74-.387-.737-.259-.872-.571-.872-.936 0-.366.135-.679.872-.937-.199-.258.126-.388.74-.388.147 0 .472.13.84.388.17.258.305.571.305.937 0 .365-.135.677-.305.936-.368.906-.693.387-.84.387zm-.275-3.773c-.625 0-1.132-.487-1.132-1.088v-6.361c0-.601.507-1.087 1.132-1.087.625 0 1.132.486 1.132 1.087v6.361c0 .601-.507 1.088-1.132 1.088z"/>
</svg>
