<svg xmlns="http://www.w3.org/2000/svg" width="80" height="56">
    <path fill="#949494" fill-rule="evenodd" d="M47.709 54.306H32.597c-10.267 0-17.997-8.327-17.997-18.598V20.591c0-10.272 7.73-18.598 17.997-18.598h15.112c10.267 0 18.591 8.326 18.591 18.598v15.117c0 10.271-8.324 18.598-18.591 18.598zM31.75 44.55c1.573 1.36 3.484 1.36 4.98-.007 2.847-1.036 4.771-3.043 5.051-6.569.37-3.574-2.289-7.539-6.098-8.278-.093-.119-1.807-.165-2.386-.093-3.815.502-6.663 3.77-6.663 7.659 0 3.281 2.081 6.238 5.116 7.288zm5.199-29.063h-.598l-1.101 4.271c-.953 2.357-1.584 4.364-1.623 4.469-.065.172-.182.533-1.267-3.664-.663-2.119-.57-4.132-1.385-3.623l-.189-1.453h-1.287l-.318 1.003c.319.96-.793 3.03-1.385 4.456-.585 1.895-1.085 3.427-1.105 3.4-.019-.026-.281-2.027-1.397-4.449l-1.359-4.41h-.598c-.423 0-.605.026-.605.079 0 .039.722 2.396 1.6 5.228.884 2.839 1.631 5.696 1.664 5.374l.544.218.171-.02.656-.019 1.365-4.41c.754-2.423 1.385-4.404 1.405-4.404.019 0 .656 1.981 1.404 4.404l1.371 4.41.65.019.65.02 1.671-5.4c.923-2.836 1.671-5.42 1.671-5.453 0-.027-.273-.046-.605-.046zm5.565-.181c-3.223 0-4.578 2.553-4.578 5.349 0 3.022 1.355 5.877 4.578 5.877 3.166 0 3.89-1.345 4.421-3.75h-1.238c-.393 1.603-1.376 2.66-3.183 2.66-2.378 0-3.321-2.546-3.34-4.042h7.8c.746-3.17-1.198-6.094-4.46-6.094zM47.7 29.61c-2.89.211-4.255 1.175-3.89 2.766-.84.462-.84 1.38 0 1.849-.482 1.083.35 1.928 1.819 2.581.676.297 1.371.535 3.055 1.017 2.08.607 2.763.917 3.237 1.459.566.653.728 1.696.416 2.621-.123.369-.637.97-1.033 1.201-.878.528-2.587.799-3.966.627-2.184-.264-3.386-1.399-3.581-3.367l-.046-.462h-1.17l.046.568c.143 1.769.981 3.116 2.385 3.816 1.138.568 2.484 1.364 4.508.647 1.798-.192 3.176-.713 3.806-2.218.312-.035.423-1.281.364-2.093-.091-1.387-.45-2.232-1.846-2.878.156-.383-1.508-.044-3.432-1.235-1.788-.528-2.158-.66-2.75-.957-.988-.122-1.456-1.182-1.456-2.073 0-.949 1.334-2.298 2.522-2.628.254-.046.878-.086 2.172-.086.747 0 1.709.795 2.366.964.526.535.728 1.024 1.614 2.113l-.717.317h1.163l-.039-.515c.273-2.45-1.527-3.75-4.134-4.041-.702-.072-1.32-.072-1.413.007zm9.654-10.79c-.572-2.244-1.892-3.386-4.037-3.505-.917-.073-2.437.31-3.211 1.102l-.397.403v-5.493h-1.17v9.639h1.151l.039-.614c.143-2.112 1.124-3.519 2.672-3.803 1.521-.283 2.808.35 3.471 1.704.403 1.397.5 1.346.5 2.713-.006 1.327-.084 1.743-.487 2.614-.455.964-1.157 2.41-2.21 1.724-.725.316-3.049-.542-3.005-2.113l-.753-.409h-1.223s.045 1.148.209.746c.494 1.802 1.561 3.302 2.939 2.898.585.145 1.846.145 2.431 0 1.057-.192 1.261-.482 1.839-1.07.8-.805 1.203-1.729 1.398-3.182.13-.951.052-2.528-.156-3.354zm-14.84-2.425c2.004 0 3.163 1.566 3.222 3.52h-6.562c.196-1.933 1.316-3.52 3.34-3.52zM31.711 31.28c1.248-.534 2.542-.667 3.797-.396 2.424.528 4.316 2.37 4.946 4.826.241.944.241 2.152 0 3.103-.669 2.641-2.827 4.568-5.493 4.918-2.801.37-5.674-1.393-6.701-4.113-.339-.884-.416-1.307-.416-2.356 0-1.05.077-1.473.416-2.357.591-1.565 1.937-2.978 3.451-3.625z"/>
    <path fill="#FFF" fill-rule="evenodd" d="M60.816 32.49l-10.82 17.891 1.546 1.49h21.639s.387-2.479 0-2.981c-.385-.502-9.927-17.251-12.365-16.4z"/>
    <path fill="#F98A08" fill-rule="evenodd" d="M74.91 51.994c-.804 1.318-2.232 2.996-3.03 2.996H52.881c-1.59 0-3.018-1.678-3.281-2.995-1.344-1.317-1.359-2.035-.42-4.231l8.942-15.594c.794-1.359 2.238-2.172 3.862-2.172s3.546.812 3.863 2.172l9.104 15.594c.777 2.186.762 2.913-.041 4.23zm-2.921-2.635l-9.104-15.593c-.267-.457-.719-.506-.901-.506-.182 0-.633.049-.144.506l-9.86 15.593c-.262.448-.08.839.009.987.811.148.358.491.892.491H71.88c-.257 0 .01-.344.1-.491.72-.148.271-.539.009-.987zm-9.729-.158c-.615 0-.939.519-.74-.387-.737-.258-.872-.57-.872-.936 0-.366.135-.679.872-.936-.199-.259.125-.388.74-.388.147 0 .472.129.84.388.17.257.305.57.305.936 0 .366-.135.678-.305.936-.368.906-.693.387-.84.387zm-.275-3.773c-.625 0-1.132-.487-1.132-1.087v-6.362c0-.6.507-1.087 1.132-1.087.625 0 1.132.487 1.132 1.087v6.362c0 .6-.507 1.087-1.132 1.087z"/>
</svg>
