<svg xmlns="http://www.w3.org/2000/svg" width="80" height="56">
    <path fill-rule="evenodd" fill="#14A1A9" d="M55.19 10.222a21.696 21.696 0 0 1 9.715 18.203 2.055 2.055 0 0 1-2.054 2.056H17.665a2.055 2.055 0 0 1-2.054-2.056 21.696 21.696 0 0 1 9.715-18.203L20.322 5.21a2.054 2.054 0 0 1 2.905-2.906L29.6 8.146c6.604-2.746 14.716-2.746 21.86 0l5.833-5.838.051-.051a2.054 2.054 0 0 1 2.904.051c1.112.817.882 2.118-.051 2.907l-5.007 5.007zm-25.202 6.75c-1.134 0-2.054.92-2.054 2.298 0 .892.92 2.56 2.054 2.56 1.135 0 2.432-1.668 2.432-2.56 0-1.378-1.297-2.298-2.432-2.298zm20.539 0c-1.134 0-2.054.92-2.054 2.298 0 .892.92 2.56 2.054 2.56 1.135 0 2.054-1.668 2.054-2.56 0-1.378-.919-2.298-2.054-2.298zM22.848 50.78h8.262v2.491H19.958V34.147h2.89V50.78zm12.579-17.437c.429 0 .803.125 1.124.375.322.251.779.67.779 1.259 0 .572-.457.987-.779 1.246a1.735 1.735 0 0 1-1.124.388c-.446 0-.829-.129-1.151-.388-.321-.259-.481-.674-.481-1.246 0-.589.16-1.008.481-1.259a1.82 1.82 0 0 1 1.151-.375zm1.392 19.928h-2.837V38.834h2.837v14.437zm5.807-17.678h1.74v3.241h4.122V41.4h-4.122v7.532c0 .786.192 1.366.575 1.741.384.807.888.562 1.513.562.803 0 1.525-.116 2.168-.348V53.3c-.304-.127-.714-.007-1.232.091a8.323 8.323 0 0 1-1.552.148c-.308 0-1.503-.134-2.154-.402-.364-.268-1.174-.732-1.566-1.393-.393.096-.589-1.58-.589-2.759V41.4h-2.007v-1.682l2.114-1.071.99-3.054zm11.147 3.871c.973-.599 2.11-.898 3.413-.898 2.584 0 3.381.585 4.469 1.755 1.088 1.169 1.633 3.519 1.633 4.781v1.553H53.6c.035 1.483.63 2.616 1.164 3.915.74.273 1.78.665 3.118.665.927 0 1.753-.084 2.475-.254 1.443-.17 1.468-.424 2.235-.764v2.357c-.732.34-1.463.585-2.195.737-.731.152-1.605.228-2.622.228-1.392 0-2.623-.277-2.965-.831-1.7-.553-2.634-1.374-3.231-2.464-.598-1.089-.897-2.446-.897-4.071 0-1.625.272-3 .816-3.693.922-1.557 1.303-1.86 2.275-3.016zm6.678 5.102c-.018-1.125-.29-2.04-.816-2.746-.527-.705-1.343-1.058-2.449-1.058-1.017 0-1.834 1.168-2.449.991-.616.661-.977 1.599-1.084 2.813h6.798z"/>
    <path fill-rule="evenodd" fill="#FFF" d="m60.816 32.49-10.82 17.891 1.546 1.49h21.639s.387-2.479 0-2.981c-.385-.502-9.927-17.251-12.365-16.4z"/>
    <path fill-rule="evenodd" fill="#F98A08" d="M74.91 51.994c-.804 1.318-2.232 2.996-3.03 2.996H52.881c-1.59 0-3.018-1.678-3.281-2.995-1.344-1.317-1.359-2.035-.42-4.231l8.942-15.594c.794-1.359 2.238-2.172 3.862-2.172s3.536.812 3.863 2.172l9.104 15.594c.777 2.186.762 2.913-.041 4.23zm-2.921-2.635-9.104-15.593a1.024 1.024 0 0 0-.901-.506c-.182 0-.633.049-.144.506l-9.86 15.593a.944.944 0 0 0 .009.987c.811.148.357.491.892.491H71.88c-.257 0 .01-.344.1-.491.72-.148.271-.539.009-.987zm-9.729-.158c-.615 0-.939.519-.74-.387-.737-.258-.872-.57-.872-.936 0-.366.135-.679.872-.936-.199-.259.125-.388.74-.388.147 0 .472.129.84.388.17.257.304.57.304.936 0 .366-.134.678-.304.936-.368.906-.693.387-.84.387zm-.275-3.773c-.625 0-1.132-.487-1.132-1.087v-6.362c0-.6.507-1.087 1.132-1.087.625 0 1.132.487 1.132 1.087v6.362c0 .6-.507 1.087-1.132 1.087z"/>
</svg>
