<svg xmlns="http://www.w3.org/2000/svg" width="80" height="56">
    <path fill="#949494" fill-rule="evenodd" d="M47.709 54.306H32.597c-10.267 0-17.997-8.327-17.997-18.598V20.591c0-10.272 7.73-18.598 17.997-18.598h15.112c10.267 0 18.591 8.326 18.591 18.598v15.117c0 10.271-8.324 18.598-18.591 18.598zM31.75 44.55c1.573 1.36 3.484 1.36 4.98-.007 2.847-1.036 4.771-3.043 5.051-6.569.37-3.574-2.289-7.539-6.098-8.278-.093-.119-1.807-.165-2.385-.093-3.816.502-6.664 3.77-6.664 7.659 0 3.281 2.081 6.238 5.116 7.288zm5.199-29.063h-.598l-1.101 4.271c-.953 2.357-1.584 4.364-1.623 4.469-.065.172-.182.533-1.267-3.664-.663-2.119-.57-4.132-1.385-3.623l-.189-1.453h-1.287l-.318 1.003c.319.96-.793 3.03-1.385 4.456-.585 1.895-1.085 3.427-1.105 3.4-.019-.026-.281-2.027-1.397-4.449l-1.359-4.41h-.598c-.423 0-.605.026-.605.079 0 .039.722 2.396 1.6 5.228.884 2.839 1.631 5.696 1.664 5.374l.544.218.171-.02.656-.019 1.365-4.41c.754-2.423 1.385-4.404 1.405-4.404.019 0 .656 1.981 1.404 4.404l1.371 4.41.65.019.65.02 1.671-5.4c.923-2.836 1.67-5.42 1.67-5.453 0-.027-.273-.046-.604-.046zm5.565-.181c-3.223 0-4.578 2.553-4.578 5.349 0 3.022 1.355 5.877 4.578 5.877 3.166 0 3.89-1.345 4.421-3.75h-1.238c-.393 1.603-1.376 2.66-3.183 2.66-2.378 0-3.321-2.546-3.34-4.042h7.8c.746-3.17-1.198-6.094-4.46-6.094zM47.7 29.61c-2.89.211-4.255 1.175-3.9 2.766-.83.462-.83 1.38 0 1.849-.472 1.083.36 1.928 1.829 2.581.676.297 1.371.535 3.055 1.017 2.08.607 2.763.917 3.237 1.459.566.653.728 1.696.416 2.621-.123.369-.637.97-1.033 1.201-.878.528-2.587.799-3.966.627-2.184-.264-3.386-1.399-3.581-3.367l-.046-.462h-1.17l.046.568c.143 1.769.981 3.116 2.385 3.816 1.138.568 2.483 1.364 4.508.647 1.798-.192 3.176-.713 3.806-2.218.312-.035.423-1.281.364-2.093-.091-1.387-.45-2.232-1.846-2.878.156-.383-1.508-.044-3.432-1.235-1.788-.528-2.158-.66-2.75-.957-.988-.122-1.456-1.182-1.456-2.073 0-.949 1.334-2.298 2.522-2.628.254-.046.878-.086 2.172-.086.747 0 1.709.795 2.366.964.526.535.728 1.024 1.614 2.113l-.717.317h1.163l-.039-.515c.273-2.45-1.527-3.75-4.134-4.041-.702-.072-1.32-.072-1.413.007zm9.654-10.79c-.572-2.244-1.892-3.386-4.037-3.505-.917-.073-2.438.31-3.211 1.102l-.397.403v-5.493h-1.17v9.639h1.151l.039-.614c.143-2.112 1.124-3.519 2.672-3.803 1.521-.283 2.808.35 3.471 1.704.403 1.397.5 1.346.5 2.713-.006 1.327-.084 1.743-.487 2.614-.455.964-1.157 2.41-2.21 1.724-.725.316-3.049-.542-3.005-2.113l-.753-.409h-1.223s.045 1.148.209.746c.494 1.802 1.561 3.302 2.939 2.898.585.145 1.846.145 2.431 0 1.057-.192 1.261-.482 1.839-1.07.8-.805 1.203-1.729 1.398-3.182.13-.951.052-2.528-.156-3.354zm-14.84-2.425c2.004 0 3.163 1.566 3.222 3.52h-6.562c.196-1.933 1.316-3.52 3.34-3.52zM31.711 31.28c1.248-.534 2.542-.667 3.797-.396 2.424.528 4.316 2.37 4.946 4.826.241.944.241 2.152 0 3.103-.669 2.641-2.827 4.568-5.493 4.918-2.801.37-5.674-1.393-6.702-4.113-.338-.884-.416-1.307-.416-2.356 0-1.05.078-1.473.416-2.357.592-1.565 1.938-2.978 3.452-3.625z"/>
    <path fill="#FFF" fill-rule="evenodd" d="M61.676 33.169c5.251 0 9.508 4.256 9.508 9.507 0 5.251-4.257 9.508-9.508 9.508-5.25 0-9.507-4.257-9.507-9.508 0-5.251 4.257-9.507 9.507-9.507z"/>
    <path fill="#DE1231" fill-rule="evenodd" d="M70.313 33.73c-.025-.028-.044-.06-.07-.087-.027-.026-.059-.045-.087-.07-2.247-2.207-5.323-3.575-8.715-3.575-6.862 0-12.446 5.583-12.446 12.446 0 3.391 1.367 6.466 3.573 8.713.025.029.045.06.073.088.027.028.059.047.087.072 2.247 2.207 5.772 3.573 8.713 3.573 6.863 0 12.446-5.583 12.446-12.446 0-2.924-1.367-6.467-3.574-8.714zm-8.872-.426c1.924 0 3.709.601 5.183 1.62L53.921 47.627c-1.019-1.475-1.62-3.259-1.62-5.183 0-5.039 4.101-9.14 9.14-9.14zm0 18.28c-1.923 0-3.708-.6-5.182-1.619l12.703-12.703c1.019 1.474 1.62 3.258 1.62 5.182 0 5.04-4.101 9.14-9.141 9.14z"/>
</svg>
