<svg xmlns="http://www.w3.org/2000/svg" width="52" height="36">
    <path fill-rule="evenodd" fill="#14A1A9" d="M38.44 25.12h-.084c-1.093 0-1.989-1.014-1.989-2.127V14.21c0-1.109.895-2.017 1.989-2.017h.083c1.094 0 1.988.908 1.988 2.017v8.783c0 1.11-.891 2.127-1.987 2.127zM16.976 11.675a6.592 6.592 0 0 1-.027-.548c0-3.008 1.886-5.631 4.682-7.023L20.8 1.675c-.819-.153-.55-.363-.623-.463a.326.326 0 0 1 .458.099l1.604 2.513c1.208-.502 2.552-.414 3.975-.414 1.422 0 2.768-.088 3.973.414l1.607-2.513c.098-.158 1.196-.2.456-.099.152.1.196.31.096.463l-1.549 2.429c2.795 1.392 4.682 4.015 4.682 7.023 0 .185-.01.368-.026.548H16.976zm4.954-5.023c-.491 0-.52.868-.52.9 0 .968.029.902.52.902s.89.066.89-.902c0-.032-.396-.9-.89-.9zm8.566 0c.004 0-.889.868-.889.9 0 .968.893.902.889.902.493 0 .888.066.888-.902 0-.032-.395-.9-.888-.9zM14.73 25.12h-.744c-1.094 0-1.986-1.014-1.986-2.127V14.21c0-1.109.892-2.017 1.986-2.017h.734c.445 0 1.86.908 1.88 2.017v8.783c0 1.11-1.433 2.127-1.87 2.127zm20.685 1.264c0 1.02-.822 1.851-1.825 1.851h-1.952v4.744c0 1.941-.893 2.021-1.988 2.021h-.085c-1.091 0-1.989-.07-1.989-2.021v-4.744h-2.727v4.744c0 1.941-.894 2.021-1.989 2.021h-.086c-1.091 0-1.987-.07-1.987-2.021v-4.744h-1.951c-1.004 0-1.736-.831-1.736-1.851V12.515h18.315v13.869z"/>
    <path fill-rule="evenodd" fill="#FFF" d="M40 21.999a6 6 0 1 1-.002 12.002A6 6 0 0 1 40 21.999z"/>
    <path fill-rule="evenodd" fill="#DE1231" d="M45.45 22.354c-.016-.018-.028-.038-.045-.055-.017-.016-.036-.029-.054-.044a7.827 7.827 0 0 0-5.5-2.256c-4.331 0-7.854 3.523-7.854 7.854 0 2.14.862 4.08 2.255 5.498.016.018.028.039.045.056.017.017.038.03.056.045a7.824 7.824 0 0 0 5.498 2.256c4.331 0 7.855-3.524 7.855-7.855 0-2.14-.863-4.081-2.256-5.499zm-5.599.496c1.799 0 2.34-.386 3.271.257l-8.017 8.017c-.643-.931-.275-1.454-.275-3.271 0-3.18 1.841-5.003 5.021-5.003zm0 10.771a5.731 5.731 0 0 1-3.27-1.022l8.016-8.016a5.731 5.731 0 0 1 1.022 3.27c0 3.487-2.299 5.768-5.768 5.768z"/>
</svg>
