<svg xmlns="http://www.w3.org/2000/svg" width="26" height="18">
    <path fill="#949494" fill-rule="evenodd" d="M20.836 14.692h-6.583v1.434H17.4c-.19 0-.053.145-.053.323v.238c0 .178-.137 1.213.053 1.213H8.96c-.17 0-.307-1.035-.307-1.213v-.238c0-.178.137-.323.307-.323h2.787v-1.434H5.164c-.648 0-1.175-.553-1.175-1.233V3.22c0-.679.527-1.232 1.175-1.232h15.672c.647 0 1.264.553 1.264 1.232v10.239c0 .68-.617 1.233-1.264 1.233zm.361-11.472c0-.11.153-.379-.361-.379H5.164c-.199 0-.362.269-.362.379v10.239c0 .209.163.379.362.379h15.672c.514 0 .361-.17.361-.379V3.22zm-15.465.632h14.536v8.975H5.732V3.852z"/>
</svg>
