<svg xmlns="http://www.w3.org/2000/svg" width="53" height="37">
    <path fill-rule="evenodd" fill="#14A1A9" d="M42.479 28.422h-13.08v2.759h5.537c.338 0 .611.277.611.62v.457c0 .342-.273.62-.611.62H18.882a.615.615 0 0 1-.611-.62v-.457c0-.343.273-.62.611-.62h5.537v-2.759h-13.08c-.819 0-1.839-1.063-1.839-1.902V6.368c0-.758 1.02-2.371 1.839-2.371h31.14c1.287 0 2.334 1.613 2.334 2.371V26.52c0 .839-1.047 1.902-2.334 1.902zm.719-22.054a.725.725 0 0 0-.719-.73h-31.14a.725.725 0 0 0-.719.73V26.52c0-.066.323.262.719.262h31.14c.396 0 .719-.328.719-.262V6.368zM12.467 7.582h28.884v17.255H12.467V7.582z"/>
    <path fill-rule="evenodd" fill="#FFF" d="m39.999 20.999-6.999 12 1 1h14s.249-1.663 0-1.999c-.25-.337-6.424-11.572-8.001-11.001z"/>
    <path fill-rule="evenodd" fill="#F98A08" d="M49.117 34.752a2.838 2.838 0 0 1-2.472 1.412H34.866a2.842 2.842 0 0 1-2.473-1.411 2.814 2.814 0 0 1-.026-2.838l5.89-10.459a2.831 2.831 0 0 1 2.498-1.458c1.051 0 1.985.545 2.499 1.458l5.89 10.459a2.814 2.814 0 0 1-.027 2.837zm-1.889-1.767-5.89-10.459a.655.655 0 0 0-.583-.34.655.655 0 0 0-.582.34l-5.89 10.459a.653.653 0 0 0 .006.662.657.657 0 0 0 .577.329h11.779c.346 0 .519-.23.577-.329a.653.653 0 0 0 .006-.662zm-6.446-.106a.861.861 0 0 1-.63-.26.852.852 0 0 1-.261-.628c0-.245.087-.455.261-.628a.861.861 0 0 1 .63-.26c.508 0 .457.087.631.26a.854.854 0 0 1 .261.628.852.852 0 0 1-.261.628c-.174.173-.123.26-.631.26zm-.026-2.531c-.405 0-.526-.138-.526-.729v-4.267c0-.403.121-.73.526-.73.404 0 .732.327.732.73v4.267c0 .591-.328.729-.732.729z"/>
</svg>
