<svg xmlns="http://www.w3.org/2000/svg" width="52" height="36">
    <path fill="#949494" fill-rule="evenodd" d="M42.564 11.5H11.437c-2.473 0-4.479 1.92-4.479 4.055v3.588c0 2.513 2.006 4.55 4.479 4.55h1.117v1.089c0 2.068 1.049 2.369 2.333 2.369 1.282 0 2.332-.301 2.332-2.369v-1.089h19.564v1.089c0 2.068 1.049 2.369 2.332 2.369s2.332-.301 2.332-2.369v-1.089h1.117c2.816 0 4.866-2.037 4.866-4.55v-3.588c0-2.135-2.05-4.055-4.866-4.055zm-6.668 7.882c-1.101 0-2.002-.915-2.002-2.033 0-1.118.901-2.033 2.002-2.033 1.1 0 2.001.915 2.001 2.033 0 1.118-.901 2.033-2.001 2.033zm6.876 0c-1.101 0-2.001-.915-2.001-2.033 0-1.118.9-2.033 2.001-2.033s2.001.915 2.001 2.033c0 1.118-.9 2.033-2.001 2.033z"/>
    <path fill="#FFF" fill-rule="evenodd" d="M42 14.999l-7 12 1 1h13.999s.25-1.663 0-1.999c-.249-.337-6.422-11.572-7.999-11.001z"/>
    <path fill="#F98A08" fill-rule="evenodd" d="M51.117 28.753c-.519.883-1.443 1.411-2.472 1.411H36.866c-1.029 0-1.953-.528-2.472-1.411-.52-.884-.53-1.944-.027-2.838l5.89-10.459c.514-.912 1.448-1.458 2.498-1.458 1.051 0 1.985.545 2.499 1.458l5.89 10.459c.503.893.493 1.954-.027 2.838zm-1.889-1.768l-5.89-10.459c-.172-.307-.465-.34-.583-.34-.117 0-.41.033-.582.34l-5.89 10.459c-.17.3-.052.563.006.662.058.099.231.329.577.329h11.779c.346 0 .519-.23.577-.329.058-.099.175-.362.006-.662zm-6.446-.106c-.246 0-.456-.087-.63-.26-.174-.173-.261-.382-.261-.628 0-.245.087-.455.261-.628.174-.173.384-.26.63-.26.508 0 .457.087.631.26.174.173.261.383.261.628 0 .246-.087.455-.261.628-.174.173-.123.26-.631.26zm-.026-2.531c-.405 0-.526-.128-.526-.729v-4.267c0-.403.121-.73.526-.73.404 0 .732.327.732.73v4.267c0 .601-.328.729-.732.729z"/>
</svg>
