<svg xmlns="http://www.w3.org/2000/svg" width="52" height="36">
    <path fill="#949494" fill-rule="evenodd" d="M42.564 11.5H11.437c-2.474 0-4.479 1.92-4.479 4.055v3.588c0 2.513 2.005 4.55 4.479 4.55h1.117v1.089c0 2.068 1.049 2.369 2.332 2.369s2.333-.301 2.333-2.369v-1.089h19.563v1.089c0 2.068 1.05 2.369 2.333 2.369 1.283 0 2.333-.301 2.333-2.369v-1.089h1.116c2.816 0 4.866-2.037 4.866-4.55v-3.588c0-2.135-2.05-4.055-4.866-4.055zm-6.668 7.882c-1.101 0-2.002-.915-2.002-2.033 0-1.118.901-2.033 2.002-2.033 1.1 0 2.001.915 2.001 2.033 0 1.118-.901 2.033-2.001 2.033zm6.876 0c-1.101 0-2.001-.915-2.001-2.033 0-1.118.9-2.033 2.001-2.033s2.001.915 2.001 2.033c0 1.118-.9 2.033-2.001 2.033z"/>
    <path fill="#FFF" fill-rule="evenodd" d="M44 15.999c3.313 0 6 2.687 6 6 0 3.314-2.687 6-6 6-3.314 0-6-2.686-6-6 0-3.313 2.686-6 6-6z"/>
    <path fill="#DE1231" fill-rule="evenodd" d="M49.45 16.354c-.016-.018-.028-.038-.045-.055-.016-.017-.036-.029-.054-.044-1.418-1.393-3.359-2.256-5.5-2.256-4.331 0-7.854 3.523-7.854 7.854 0 2.14.862 4.08 2.255 5.498.015.018.028.039.045.056.017.017.038.03.056.045 1.418 1.393 3.358 2.255 5.498 2.255 4.331 0 7.855-3.523 7.855-7.854 0-2.14-.863-4.081-2.256-5.499zm-5.599.496c1.799 0 2.34-.386 3.271.257l-8.017 8.016c-.643-.93-.275-1.453-.275-3.27 0-3.18 1.841-5.003 5.021-5.003zm0 10.771c-1.214 0-2.34-.379-3.27-1.022l8.016-8.016c.643.93 1.022 2.056 1.022 3.27 0 3.487-2.299 5.768-5.768 5.768z"/>
</svg>
