<svg xmlns="http://www.w3.org/2000/svg" width="53" height="37">
    <path fill-rule="evenodd" fill="#14A1A9" d="M36.93 7.272c2.878 2.493 5.39 6.718 5.97 11.236 0 .7-1.451 1.268-2.142 1.268H13.243a1.26 1.26 0 0 1-1.25-1.268c-.023-4.518 2.201-8.743 5.915-11.236l-3.046-3.094a1.281 1.281 0 0 1 0-1.762 1.237 1.237 0 0 1 1.768-.031l3.552 3.605c4.35-1.26 9.29-1.26 13.64 0l3.552-3.603.031-.031a1.237 1.237 0 0 1 1.768.031c.48.504.466 1.307-.031 1.794L36.93 7.272zm-16.182 4.166c-.178 0-1.251 1.162-1.251 1.269 0 .701 1.073 1.269 1.251 1.269.69 0 1.25-.568 1.25-1.269 0-.107-.56-1.269-1.25-1.269zm12.506 0c-.691 0-.854 1.162-.854 1.269 0 .701.163 1.269.854 1.269a1.26 1.26 0 0 0 1.251-1.269c0-.107-.56-1.269-1.251-1.269zM16.4 32.306h4.971v1.538H14.64V22.39h1.76v9.916zm8.2-10.763c-.28 0-.052.078.144.232.196.154.626.413.626.777 0 .353-.43.609-.626.769-.196.16-.424.239-.144.239-.812 0-1.046-.079-1.241-.239-.196-.16.291-.416.291-.769 0-.364-.487-.623-.291-.777.195-.154.429-.232 1.241-.232zm.307 12.301h-1.728v-8.912h1.728v8.912zm3.536-10.912h1.059v2h2.618v1.34h-2.618v4.893c0 .485.117 1.635.351 1.075 1.007.231.54.347.921.347.489 0 .929-.072 2.166-.215v1.323c-1.031.088-1.281.162-1.596.223-.054.06-.63.982-.945.982-.478 0-.916-.974-.529-1.139-1.18-.166-1.498-.452-1.736-.86-.24-.407-.359-.975-.359-1.703v-4.926h-1.222v-.794l1.287-.661.603-1.885zm6.788 2.389c.592-.369 1.285-.554 2.078-.554 1.151 0 2.058.361 2.991 1.083.393.722.94 1.706.94 2.951v.959h-6.115c.022.915.258 1.615.709 2.1.451.485 1.084.727 1.898.727a6.53 6.53 0 0 0 1.508-.157c.44-.105.893-.262 1.361-.471v1.455a6.068 6.068 0 0 1-1.337.454c-.445.094-.977 1.032-1.597 1.032-.847 0-.967-1.062-2.249-1.404a3.606 3.606 0 0 1-1.524-1.521c-.364-.672-.546-1.51-.546-2.513 0-1.002.166-1.851.498-2.545.331-.695.792-1.227 1.385-1.596zm4.066 3.15c-.011-.695-.177-1.26-.497-1.695-.321-.435-.818-.653-1.491-.653-.62 0-1.117.204-1.491.612-.375.407-.595.986-.66 1.736h4.139z"/>
    <path fill-rule="evenodd" fill="#FFF" d="m39.999 20.999-7 12 1.001 1h13.999s.25-1.663 0-1.999c-.249-.337-6.423-11.572-8-11.001z"/>
    <path fill-rule="evenodd" fill="#F98A08" d="M49.117 34.753a2.84 2.84 0 0 1-2.472 1.411H34.866a2.842 2.842 0 0 1-2.473-1.411 2.819 2.819 0 0 1-.026-2.838l5.89-10.459a2.832 2.832 0 0 1 2.498-1.458c1.051 0 1.985.545 2.499 1.458l5.89 10.459a2.816 2.816 0 0 1-.027 2.838zm-1.889-1.768-5.89-10.459a.655.655 0 0 0-.583-.34.655.655 0 0 0-.582.34l-5.89 10.459a.653.653 0 0 0 .006.662.657.657 0 0 0 .577.329h11.779c.346 0 .519-.23.577-.329a.653.653 0 0 0 .006-.662zm-6.446-.106a.861.861 0 0 1-.63-.26.852.852 0 0 1-.261-.628c0-.245.087-.455.261-.628a.861.861 0 0 1 .63-.26c.508 0 .457.087.631.26a.854.854 0 0 1 .261.628.852.852 0 0 1-.261.628c-.174.173-.123.26-.631.26zm-.027-2.531c-.404 0-.525-.138-.525-.729v-4.267c0-.403.121-.73.525-.73.405 0 .733.327.733.73v4.267c0 .591-.328.729-.733.729z"/>
</svg>
