<svg xmlns="http://www.w3.org/2000/svg" width="52" height="36">
    <path fill-rule="evenodd" fill="#14A1A9" d="M42.564 11.4H11.437c-2.474 0-4.479 2.02-4.479 4.154v3.589c0 2.513 2.005 4.55 4.479 4.55h1.117v1.089c0 2.068 1.049 2.369 2.332 2.369s2.333-.301 2.333-2.369v-1.089h19.563v1.089c0 2.068 1.05 2.369 2.333 2.369 1.283 0 2.332-.301 2.332-2.369v-1.089h1.117c2.816 0 4.866-2.037 4.866-4.55v-3.589c0-2.134-2.05-4.154-4.866-4.154zm-6.668 7.982c-1.101 0-2.002-.915-2.002-2.033 0-1.119.901-2.033 2.002-2.033 1.1 0 2.001.914 2.001 2.033 0 1.118-.901 2.033-2.001 2.033zm6.876 0c-1.101 0-2.001-.915-2.001-2.033 0-1.119.9-2.033 2.001-2.033s2.001.914 2.001 2.033c0 1.118-.9 2.033-2.001 2.033z"/>
    <path fill-rule="evenodd" fill="#FFF" d="M44 15.999a6 6 0 1 1-.002 12.002A6 6 0 0 1 44 15.999z"/>
    <path fill-rule="evenodd" fill="#DE1231" d="M49.45 16.354c-.016-.018-.028-.038-.045-.055-.016-.017-.036-.029-.054-.044a7.823 7.823 0 0 0-5.5-2.256c-4.331 0-7.854 3.523-7.854 7.854 0 2.139.862 4.08 2.255 5.498.016.018.028.038.045.056.017.017.038.03.056.045a7.823 7.823 0 0 0 5.498 2.255c4.331 0 7.855-3.523 7.855-7.854 0-2.14-.863-4.081-2.256-5.499zm-5.599.496c1.799 0 2.34-.386 3.271.257l-8.017 8.016c-.643-.93-.275-1.453-.275-3.27 0-3.18 1.841-5.003 5.021-5.003zm0 10.771a5.731 5.731 0 0 1-3.27-1.022l8.016-8.016a5.731 5.731 0 0 1 1.022 3.27c0 3.487-2.299 5.768-5.768 5.768z"/>
</svg>
