<svg xmlns="http://www.w3.org/2000/svg" width="52" height="36">
    <path fill-rule="evenodd" fill="#14A1A9" d="M42.564 11.4H11.437c-2.473 0-4.479 2.02-4.479 4.154v3.589c0 2.513 2.006 4.55 4.479 4.55h1.117v1.089c0 2.068 1.049 2.369 2.333 2.369 1.282 0 2.332-.301 2.332-2.369v-1.089h19.563v1.089c0 2.068 1.05 2.369 2.333 2.369 1.283 0 2.332-.301 2.332-2.369v-1.089h1.117c2.816 0 4.866-2.037 4.866-4.55v-3.589c0-2.134-2.05-4.154-4.866-4.154zm-6.668 7.982c-1.101 0-2.002-.915-2.002-2.033 0-1.119.901-2.033 2.002-2.033 1.1 0 2.001.914 2.001 2.033 0 1.118-.901 2.033-2.001 2.033zm6.876 0c-1.101 0-2.001-.915-2.001-2.033 0-1.119.9-2.033 2.001-2.033s2.001.914 2.001 2.033c0 1.118-.9 2.033-2.001 2.033z"/>
    <path fill-rule="evenodd" fill="#FFF" d="m42 14.999-7 12 1 1h14s.249-1.663 0-2c-.25-.336-6.423-11.571-8-11z"/>
    <path fill-rule="evenodd" fill="#F98A08" d="M51.117 28.752a2.838 2.838 0 0 1-2.472 1.412H36.866a2.84 2.84 0 0 1-2.472-1.411 2.816 2.816 0 0 1-.027-2.838l5.89-10.459a2.832 2.832 0 0 1 2.498-1.458c1.051 0 1.985.545 2.499 1.458l5.89 10.459a2.814 2.814 0 0 1-.027 2.837zm-1.889-1.767-5.89-10.459a.655.655 0 0 0-.583-.34.655.655 0 0 0-.582.34l-5.89 10.459a.65.65 0 0 0 .006.662.657.657 0 0 0 .577.329h11.779c.346 0 .519-.23.577-.329a.653.653 0 0 0 .006-.662zm-6.446-.106a.861.861 0 0 1-.63-.26.852.852 0 0 1-.261-.628c0-.245.087-.455.261-.628a.861.861 0 0 1 .63-.26c.508 0 .457.087.631.26a.854.854 0 0 1 .261.628.852.852 0 0 1-.261.628c-.174.173-.123.26-.631.26zm-.027-2.531c-.404 0-.525-.138-.525-.729v-4.267c0-.403.121-.73.525-.73.405 0 .733.327.733.73v4.267c0 .591-.328.729-.733.729z"/>
</svg>
