<svg xmlns="http://www.w3.org/2000/svg" width="52" height="36">
    <path fill-rule="evenodd" fill="#14A1A9" d="M42.564 11.4H11.437c-2.474 0-4.479 2.02-4.479 4.154v3.589c0 2.513 2.005 4.55 4.479 4.55h1.117v1.089c0 2.068 1.049 2.369 2.333 2.369 1.282 0 2.332-.301 2.332-2.369v-1.089h19.563v1.089c0 2.068 1.05 2.369 2.333 2.369 1.283 0 2.333-.301 2.333-2.369v-1.089h1.116c2.816 0 4.866-2.037 4.866-4.55v-3.589c0-2.134-2.05-4.154-4.866-4.154zm-6.668 7.982h-.001c-1.1 0-2.001-.915-2.001-2.033 0-1.119.901-2.033 2.001-2.033h.001c1.1 0 2.001.914 2.001 2.033 0 1.118-.901 2.033-2.001 2.033zm6.876 0c-1.101 0-2.001-.915-2.001-2.033 0-1.119.9-2.033 2.001-2.033s2.001.914 2.001 2.033c0 1.118-.9 2.033-2.001 2.033z"/>
</svg>
