<svg xmlns="http://www.w3.org/2000/svg" width="51" height="36">
    <path fill="#949494" fill-rule="evenodd" d="M37.44 25.12h-.084c-1.093 0-1.989-1.014-1.989-2.127V14.21c0-1.109.895-2.018 1.989-2.018h.083c1.094 0 1.988.909 1.988 2.018v8.783c0 1.11-.891 2.127-1.987 2.127zM15.976 11.675c-.015-.181-.027-.363-.027-.548 0-3.008 1.886-5.631 4.682-7.023L19.8 1.675c-.819-.153-.55-.363-.623-.463.152-.101.36-.059.458.099l1.604 2.513c1.208-.502 2.552-.414 3.975-.414 1.422 0 2.768-.088 3.973.414l1.607-2.513c.098-.158 1.196-.2.456-.099.152.1.196.31.096.463l-1.55 2.429c2.796 1.392 4.683 4.015 4.683 7.023 0 .185-.01.367-.026.548H15.976zm4.954-5.023c-.491 0-.52.868-.52.9 0 .968.029.902.52.902s.89.066.89-.902c0-.032-.396-.9-.89-.9zm8.566 0c.004 0-.889.868-.889.9 0 .968.893.902.889.902.493 0 .888.066.888-.902 0-.032-.395-.9-.888-.9zM13.73 25.12h-.744c-1.094 0-1.986-1.014-1.986-2.127V14.21c0-1.109.892-2.018 1.986-2.018h.734c.445 0 1.86.909 1.88 2.018v8.783c0 1.11-1.433 2.127-1.87 2.127zm20.685 1.264c0 1.02-.822 1.851-1.825 1.851h-1.952v4.744c0 1.941-.893 2.02-1.989 2.02h-.084c-1.091 0-1.989-.069-1.989-2.02v-4.744h-2.727v4.744c0 1.941-.894 2.02-1.989 2.02h-.086c-1.091 0-1.987-.069-1.987-2.02v-4.744h-1.951c-1.004 0-1.736-.831-1.736-1.851V12.515h18.315v13.869z"/>
</svg>
