<svg xmlns="http://www.w3.org/2000/svg" width="52" height="36">
    <path fill-rule="evenodd" fill="#8A8A8A" d="M42.479 28.423h-13.08v2.758h5.537c.337 0 .611.277.611.62v.457c0 .342-.274.62-.611.62H18.882a.615.615 0 0 1-.611-.62v-.457c0-.343.273-.62.611-.62h5.537v-2.758h-13.08c-.819 0-1.839-1.064-1.839-1.903V6.368c0-.758 1.02-2.371 1.839-2.371h31.14c1.287 0 2.334 1.613 2.334 2.371V26.52c0 .839-1.047 1.903-2.334 1.903zm.719-22.055a.725.725 0 0 0-.719-.73h-31.14a.725.725 0 0 0-.718.73V26.52c0-.065.322.262.718.262h31.14c.396 0 .719-.327.719-.262V6.368zM12.467 7.583h28.884v17.254H12.467V7.583z"/>
</svg>
