<svg xmlns="http://www.w3.org/2000/svg" width="52" height="36">
    <path fill="#949494" fill-rule="evenodd" d="M42.564 11.5H11.437c-2.474 0-4.479 1.92-4.479 4.055v3.588c0 2.513 2.005 4.55 4.479 4.55h1.117v1.089c0 2.068 1.049 2.369 2.332 2.369s2.333-.301 2.333-2.369v-1.089h19.563v1.089c0 2.068 1.05 2.369 2.333 2.369 1.283 0 2.333-.301 2.333-2.369v-1.089h1.116c2.816 0 4.866-2.037 4.866-4.55v-3.588c0-2.135-2.05-4.055-4.866-4.055zm-6.668 7.882c-1.101 0-2.002-.915-2.002-2.033 0-1.118.901-2.033 2.002-2.033 1.1 0 2.001.915 2.001 2.033 0 1.118-.901 2.033-2.001 2.033zm6.876 0c-1.101 0-2.001-.915-2.001-2.033 0-1.118.9-2.033 2.001-2.033s2.001.915 2.001 2.033c0 1.118-.9 2.033-2.001 2.033z"/>
</svg>
