<svg xmlns="http://www.w3.org/2000/svg" width="80" height="56">
    <path fill-rule="evenodd" fill="#14A1A9" d="M59.483 39.69h-.135c-1.756 0-3.197-2.066-3.197-3.841v-14.01c0-1.129 1.439-3.218 3.197-3.218h.133c1.758 0 3.194 2.089 3.194 3.218v14.01c0 1.77-1.432 3.841-3.192 3.841zM24.996 17.796a10.086 10.086 0 0 1-.044-.874c0-4.799 3.03-8.982 7.523-11.202l-2.492-3.875a.536.536 0 0 1 .156-.738c.244-.161.578.023.736.157l2.577 4.009c1.941-.8 4.1-1.043 6.386-1.043 2.285 0 4.448.243 6.385 1.043l2.581-4.009c.158-.134.49-.318.732-.157a.536.536 0 0 1 .156.738L47.201 5.72c4.491 2.22 7.523 6.403 7.523 11.202 0 .295-.016.586-.041.874H24.996zm7.96-8.013c-.789 0-1.43.639-1.43 1.437 0 .95.641 1.438 1.43 1.438.788 0 1.429-.488 1.429-1.438 0-.798-.636-1.437-1.429-1.437zm13.763 0a1.43 1.43 0 0 0-1.429 1.437c0 .95.64 1.438 1.429 1.438.791 0 1.427-.488 1.427-1.438 0-.798-.636-1.437-1.427-1.437zM20.331 39.69h-.139c-1.759 0-3.192-2.066-3.192-3.841v-14.01c0-1.129 1.433-3.218 3.192-3.218h.137c2.521 0 3.192 2.089 3.194 3.218v14.01c0 1.77-.623 3.841-3.192 3.841zm34.291 1.567c0 1.627-1.32 2.952-2.932 2.952h-3.137v7.568c0 1.775-1.434 3.222-3.195 3.222h-.134c-1.754 0-2.954-1.445-2.954-3.222v-7.568h-4.624v7.568c0 1.775-1.436 3.222-3.197 3.222h-.137c-1.754 0-3.193-1.445-3.193-3.222v-7.568h-3.134c-1.615 0-2.475-1.325-2.475-2.952V19.135h29.112v22.122z"/>
</svg>
