<svg xmlns="http://www.w3.org/2000/svg" width="80" height="56">
    <path fill="#949494" fill-rule="evenodd" d="M36.821 47.698V29.58l26.068.409v22.809l-26.068-5.1zm0-38.948l26.068-5.766v22.778l-26.068.453V8.75zM16.996 29.299l16.133.216v17.449l-16.133-3.17V29.299zm0-17.32l16.133-3.127V26.28l-16.133.215V11.979z"/>
    <path fill="#FFF" fill-rule="evenodd" d="M61.676 33.169c5.251 0 9.508 4.256 9.508 9.507 0 5.251-4.257 9.508-9.508 9.508-5.25 0-9.507-4.257-9.507-9.508 0-5.251 4.257-9.507 9.507-9.507z"/>
    <path fill="#DE1231" fill-rule="evenodd" d="M70.313 33.73c-.025-.028-.044-.06-.07-.087-.027-.026-.059-.045-.087-.07-2.247-2.207-5.323-3.575-8.715-3.575-6.862 0-12.446 5.583-12.446 12.446 0 3.391 1.367 6.466 3.573 8.713.025.029.045.06.073.088.027.028.059.047.087.072 2.247 2.207 5.772 3.573 8.713 3.573 6.863 0 12.446-5.583 12.446-12.446 0-2.924-1.367-6.467-3.574-8.714zm-8.872-.426c1.924 0 3.709.601 5.183 1.62L53.921 47.627c-1.019-1.475-1.62-3.259-1.62-5.183 0-5.039 4.101-9.14 9.14-9.14zm0 18.28c-1.923 0-3.708-.6-5.182-1.619l12.703-12.703c1.019 1.474 1.62 3.258 1.62 5.182 0 5.04-4.101 9.14-9.141 9.14z"/>
</svg>
