<svg xmlns="http://www.w3.org/2000/svg" width="53" height="37">
    <path fill="#949494" fill-rule="evenodd" d="M24.536 29.937V19.19l16.664.076V33.1l-16.664-3.163zm0-23.337L41.2 2.992v13.726l-16.664.273V6.6zM12.14 18.85l10.064.13v10.515l-10.064-1.91V18.85zm0-10.438l10.064-1.884V17.3l-10.064-.14V8.412z"/>
    <path fill="#FFF" fill-rule="evenodd" d="M39.999 21l-7 11.999 1.001 1h13.999s.25-1.663 0-1.999c-.249-.337-6.422-11.572-8-11z"/>
    <path fill="#F98A08" fill-rule="evenodd" d="M49.117 34.753c-.519.883-1.443 1.411-2.472 1.411H34.866c-1.029 0-1.953-.528-2.473-1.411-.519-.884-.529-1.944-.027-2.838l5.89-10.459c.514-.912 1.448-1.458 2.499-1.458 1.051 0 1.985.545 2.499 1.458l5.89 10.459c.503.893.493 1.954-.027 2.838zm-1.889-1.768l-5.89-10.459c-.173-.307-.465-.34-.583-.34-.117 0-.41.033-.582.34l-5.89 10.459c-.169.3-.052.563.006.662.058.099.231.329.577.329h11.779c.346 0 .519-.23.577-.329.058-.099.175-.362.006-.662zm-6.446-.106c-.246 0-.456-.087-.63-.26-.174-.173-.261-.382-.261-.628 0-.245.087-.455.261-.628.174-.173.384-.26.63-.26.498 0 .457.087.631.26.174.173.261.383.261.628 0 .246-.087.455-.261.628-.174.173-.133.26-.631.26zm-.027-2.531c-.404 0-.525-.128-.525-.729v-4.267c0-.403.121-.73.525-.73.405 0 .733.327.733.73v4.267c0 .601-.328.729-.733.729z"/>
</svg>
