<svg xmlns="http://www.w3.org/2000/svg" width="52" height="36">
    <path fill-rule="evenodd" fill="#14A1A9" d="M24.536 29.937V19.19l16.664.076V33.1l-16.664-3.163zm0-23.337L41.2 2.992v13.726l-16.664.273V6.6zM12.14 18.85l10.064.13v10.515L12.14 27.584V18.85zm0-10.438 10.064-1.884V17.3l-10.064-.14V8.412z"/>
    <path fill-rule="evenodd" fill="#FFF" d="M39.999 21.999a6.001 6.001 0 1 1 0 12.002 6.001 6.001 0 0 1 0-12.002z"/>
    <path fill-rule="evenodd" fill="#DE1231" d="M45.45 22.354c-.016-.018-.028-.038-.045-.055-.017-.017-.036-.029-.054-.044a7.827 7.827 0 0 0-5.5-2.256c-4.331 0-7.854 3.523-7.854 7.854 0 2.14.862 4.08 2.255 5.498.016.018.028.039.045.056.017.017.038.029.056.045a7.823 7.823 0 0 0 5.498 2.255c4.331 0 7.855-3.523 7.855-7.854 0-2.14-.863-4.081-2.256-5.499zm-5.599.496c1.799 0 2.34-.386 3.271.257l-8.017 8.016c-.643-.93-.275-1.453-.275-3.27 0-3.18 1.841-5.003 5.021-5.003zm0 10.771a5.731 5.731 0 0 1-3.27-1.022l8.016-8.016a5.731 5.731 0 0 1 1.022 3.27c0 3.487-2.299 5.768-5.768 5.768z"/>
</svg>
