<svg xmlns="http://www.w3.org/2000/svg" width="80" height="56">
    <path fill-rule="evenodd" fill="#14A1A9" d="M64.567 15.7H15.74c-4.599 0-7.788 2.547-7.788 6.542v5.705c0 3.996 3.189 7.235 7.788 7.235h1.109v1.732c0 2.072 1.669 3.767 3.709 3.767s3.709-1.695 3.709-3.767v-1.732h31.107v1.732c0 2.072 2.056 3.767 4.446 3.767 1.302 0 2.971-1.695 2.971-3.767v-1.732h1.776c3.933 0 7.122-3.239 7.122-7.235v-5.705c0-3.995-3.189-6.542-7.122-6.542zM53.964 28.327h-.001c-1.75 0-3.182-1.454-3.182-2.377 0-2.633 1.432-4.088 3.182-4.088h.001c1.749 0 3.182 1.455 3.182 4.088 0 .923-1.433 2.377-3.182 2.377zm10.933 0c-1.75 0-3.182-1.454-3.182-2.377 0-2.633 1.432-4.088 3.182-4.088s3.893 1.455 3.893 4.088c0 .923-2.143 2.377-3.893 2.377z"/>
    <path fill-rule="evenodd" fill="#FFF" d="m64.816 21.49-10.82 17.891 1.546 1.49h21.639s.386-2.479 0-2.981c-.385-.502-9.927-17.251-12.365-16.4z"/>
    <path fill-rule="evenodd" fill="#F98A08" d="M78.91 40.994c-.804 1.318-2.232 2.986-3.03 2.986H56.881c-1.59 0-3.018-1.668-3.281-2.985-1.344-1.317-1.359-2.035-.42-4.231l8.942-15.594c.794-1.36 2.238-2.172 3.862-2.172s3.546.812 3.863 2.172l9.104 15.594c.777 2.186.762 2.913-.041 4.23zm-2.921-2.635-9.104-15.593a1.023 1.023 0 0 0-.901-.506c-.182 0-.633.049-.144.506l-9.86 15.593a.944.944 0 0 0 .009.987c.811.148.358.49.892.49H75.88c-.257 0 .01-.343.1-.49.72-.148.271-.539.009-.987zm-9.729-.158c-.615 0-.939.519-.74-.387-.737-.259-.872-.571-.872-.936 0-.366.135-.679.872-.937-.199-.258.125-.388.74-.388.147 0 .472.13.84.388.17.258.304.571.304.937 0 .365-.134.677-.304.936-.368.906-.693.387-.84.387zm-.275-3.773c-.626 0-1.132-.487-1.132-1.087v-6.362c0-.6.506-1.087 1.132-1.087.625 0 1.131.487 1.131 1.087v6.362c0 .6-.506 1.087-1.131 1.087z"/>
</svg>
