<svg xmlns="http://www.w3.org/2000/svg" width="53" height="37">
    <path fill="#949494" fill-rule="evenodd" d="M38.44 25.12h-.084c-1.093 0-1.989-1.014-1.989-2.127V14.21c0-1.109.895-2.018 1.989-2.018h.083c1.094 0 1.988.909 1.988 2.018v8.783c0 1.11-.891 2.127-1.987 2.127zM16.976 11.675c-.015-.181-.027-.363-.027-.548 0-3.008 1.886-5.631 4.682-7.023L20.8 1.675c-.819-.153-.55-.363-.623-.463.152-.101.36-.059.458.099l1.604 2.513c1.208-.502 2.552-.414 3.975-.414 1.422 0 2.768-.088 3.973.414l1.607-2.513c.098-.158 1.196-.2.456-.099.152.1.196.31.096.463l-1.55 2.429c2.796 1.392 4.683 4.015 4.683 7.023 0 .185-.01.367-.026.548H16.976zm4.954-5.023c-.491 0-.52.868-.52.9 0 .968.029.902.52.902s.89.066.89-.902c0-.032-.396-.9-.89-.9zm8.566 0c.004 0-.889.868-.889.9 0 .968.893.902.889.902.493 0 .888.066.888-.902 0-.032-.395-.9-.888-.9zM14.73 25.12h-.744c-1.094 0-1.986-1.014-1.986-2.127V14.21c0-1.109.892-2.018 1.986-2.018h.734c.445 0 1.86.909 1.88 2.018v8.783c0 1.11-1.433 2.127-1.87 2.127zm20.685 1.264c0 1.02-.822 1.851-1.825 1.851h-1.952v4.744c0 1.941-.893 2.02-1.989 2.02h-.084c-1.091 0-1.989-.069-1.989-2.02v-4.744h-2.727v4.744c0 1.941-.894 2.02-1.989 2.02h-.086c-1.091 0-1.987-.069-1.987-2.02v-4.744h-1.951c-1.004 0-1.736-.831-1.736-1.851V12.515h18.315v13.869z"/>
    <path fill="#FFF" fill-rule="evenodd" d="M39.999 20.999l-7 12 1.001 1h13.999s.25-1.663 0-1.999c-.249-.337-6.423-11.572-8-11.001z"/>
    <path fill="#F98A08" fill-rule="evenodd" d="M49.117 34.753c-.519.883-1.443 1.411-2.472 1.411h-11.78c-1.028 0-1.952-.528-2.472-1.411-.519-.884-.529-1.944-.027-2.838l5.89-10.459c.514-.912 1.449-1.458 2.499-1.458 1.051 0 1.985.545 2.499 1.458l5.89 10.459c.503.893.493 1.954-.027 2.838zm-1.889-1.768l-5.89-10.459c-.172-.307-.465-.34-.583-.34-.117 0-.41.033-.582.34l-5.89 10.459c-.169.3-.052.563.006.662.058.099.231.329.576.329h11.78c.346 0 .519-.23.577-.329.058-.099.175-.362.006-.662zm-6.446-.106c-.246 0-.456-.087-.63-.26-.174-.173-.261-.382-.261-.628 0-.245.087-.455.261-.628.174-.173.384-.26.63-.26.508 0 .457.087.631.26.174.173.261.383.261.628 0 .246-.087.455-.261.628-.174.173-.123.26-.631.26zm-.027-2.531c-.404 0-.525-.128-.525-.729v-4.267c0-.403.121-.73.525-.73.405 0 .733.327.733.73v4.267c0 .601-.328.729-.733.729z"/>
</svg>
