<svg xmlns="http://www.w3.org/2000/svg" width="80" height="56">
    <path fill="#949494" fill-rule="evenodd" d="M59.483 39.69h-.135c-1.756 0-3.197-2.066-3.197-3.841v-14.01c0-1.129 1.438-3.218 3.197-3.218h.132c1.759 0 3.195 2.089 3.195 3.218v14.01c0 1.77-1.432 3.841-3.192 3.841zM24.996 17.796c-.025-.288-.044-.579-.044-.874 0-4.799 3.03-8.983 7.523-11.202l-2.492-3.875c-.16-.244-.089-.579.156-.738.244-.161.578.023.736.157l2.577 4.009c1.941-.8 4.1-1.043 6.386-1.043 2.285 0 4.448.243 6.385 1.043l2.581-4.009c.158-.134.49-.318.732-.157.245.159.316.494.155.738l-2.49 3.875c4.491 2.219 7.523 6.403 7.523 11.202 0 .295-.016.586-.041.874H24.996zm7.96-8.013c-.789 0-1.43.639-1.43 1.437 0 .95.641 1.438 1.43 1.438.789 0 1.429-.488 1.429-1.438 0-.798-.636-1.437-1.429-1.437zm13.763 0c-.789 0-1.429.639-1.429 1.437 0 .95.64 1.438 1.429 1.438.791 0 1.427-.488 1.427-1.438 0-.798-.636-1.437-1.427-1.437zM20.331 39.69h-.139c-1.759 0-3.192-2.066-3.192-3.841v-14.01c0-1.129 1.433-3.218 3.192-3.218h.137c2.521 0 3.192 2.089 3.194 3.218v14.01c0 1.77-.623 3.841-3.192 3.841zm34.291 1.567c0 1.627-1.32 2.952-2.932 2.952h-3.137v7.568c0 1.775-1.434 3.222-3.195 3.222h-.135c-1.753 0-2.953-1.445-2.953-3.222v-7.568h-4.624v7.568c0 1.775-1.436 3.222-3.197 3.222h-.137c-1.754 0-3.193-1.445-3.193-3.222v-7.568h-3.135c-1.614 0-2.474-1.325-2.474-2.952V19.135h29.112v22.122z"/>
    <path fill="#FFF" fill-rule="evenodd" d="M61.676 33.169c5.251 0 9.508 4.256 9.508 9.507 0 5.251-4.257 9.508-9.508 9.508-5.251 0-9.507-4.257-9.507-9.508 0-5.251 4.256-9.507 9.507-9.507z"/>
    <path fill="#DE1231" fill-rule="evenodd" d="M70.313 33.73c-.025-.028-.044-.059-.07-.087-.027-.026-.058-.045-.087-.069-2.247-2.208-5.323-3.576-8.715-3.576-6.862 0-12.446 5.583-12.446 12.446 0 3.391 1.367 6.466 3.573 8.713.025.029.045.06.073.088.027.027.059.047.087.072 2.247 2.207 5.772 3.573 8.713 3.573 6.863 0 12.446-5.583 12.446-12.446 0-2.914-1.367-6.467-3.574-8.714zm-8.872-.426c1.924 0 3.709.601 5.183 1.62L53.921 47.627c-1.019-1.475-1.62-3.259-1.62-5.183 0-5.039 4.101-9.14 9.14-9.14zm0 18.28c-1.923 0-3.708-.6-5.182-1.619l12.703-12.703c1.019 1.474 1.62 3.258 1.62 5.182 0 5.04-4.101 9.14-9.141 9.14z"/>
</svg>
