<svg xmlns="http://www.w3.org/2000/svg" width="53" height="37">
    <path fill-rule="evenodd" fill="#14A1A9" d="M24.536 29.937V19.19l16.664.076V33.1l-16.664-3.163zm0-23.337L41.2 2.992v13.726l-16.664.273V6.6zM12.14 18.85l10.064.13v10.515L12.14 27.584V18.85zm0-10.438 10.064-1.884V17.3l-10.064-.14V8.412z"/>
    <path fill-rule="evenodd" fill="#FFF" d="m39.999 20.999-7 12 1.001 1h13.999s.25-1.663 0-1.999c-.249-.337-6.423-11.572-8-11.001z"/>
    <path fill-rule="evenodd" fill="#F98A08" d="M49.117 34.753a2.84 2.84 0 0 1-2.472 1.411H34.866a2.842 2.842 0 0 1-2.473-1.411 2.819 2.819 0 0 1-.027-2.838l5.89-10.459a2.833 2.833 0 0 1 2.499-1.458c1.051 0 1.985.545 2.499 1.458l5.89 10.459a2.816 2.816 0 0 1-.027 2.838zm-1.889-1.768-5.89-10.459a.656.656 0 0 0-.583-.34.654.654 0 0 0-.582.34l-5.89 10.459a.653.653 0 0 0 .006.662.657.657 0 0 0 .577.329h11.779c.346 0 .519-.23.577-.329a.653.653 0 0 0 .006-.662zm-6.446-.106a.861.861 0 0 1-.63-.26.852.852 0 0 1-.261-.628c0-.245.087-.455.261-.628a.861.861 0 0 1 .63-.26c.498 0 .457.087.631.26a.854.854 0 0 1 .261.628.852.852 0 0 1-.261.628c-.174.173-.133.26-.631.26zm-.027-2.531c-.404 0-.525-.128-.525-.729v-4.267c0-.403.121-.73.525-.73.405 0 .733.327.733.73v4.267c0 .601-.328.729-.733.729z"/>
</svg>
