<svg xmlns="http://www.w3.org/2000/svg" width="24" height="24">
    <defs>
        <filter id="dg9j78djea">
            <feFlood flood-color="#757575" flood-opacity="1" result="floodOut"/>
            <feComposite in="floodOut" in2="SourceGraphic" operator="atop" result="compOut"/>
            <feBlend in="compOut" in2="SourceGraphic"/>
        </filter>
    </defs>
    <g fill-rule="evenodd" filter="url(#dg9j78djea)">
        <path fill="#949494" d="M17.749 22H6.25C5.166 22 3 20.57 3 18.692V5.307c0-1.522 2.147-3.308 3.25-3.308h6.45c.552 0 1 .448 1 1 0 .553-.448 1-1 1H6.332c-.415.16-.892.975-1.333 1.319L5 18.692c0 .546.948 1.236 1.316 1.708l11.433-.4c.69 0 1.25-.587 1.25-1.308v-6.308c0-.552.448-1 1-1 .553 0 1 .448 1 1v6.308c0 1.824-1.458 3.308-3.25 3.308zM6.37 3.986z"/>
        <path fill="#949494" d="M23 7h-3v3h-2.001V7h-3V4.999h3v-3H20v3h3V7zM6.999 6.999H11V9H6.999V6.999zM6.999 10.999H15V13H6.999v-2.001zM6.999 14.999H15V17H6.999v-2.001z"/>
    </g>
</svg>
