<svg width="24" height="24" viewBox="0 0 24 24" fill="none" xmlns="http://www.w3.org/2000/svg">
<g id="arrow/ic_external">
<g id="icon">
<path d="M9.457 15.2201L10.496 16.2581L13.695 13.0601C14.28 12.4741 14.28 11.5241 13.695 10.9391L10.496 7.74009L9.457 8.77909L11.928 11.2501H2V12.7501H11.927L9.457 15.2201Z" fill="#333333"/>
<path d="M19 3.99609H5C3.343 3.99609 2 5.33909 2 6.99609V9.75009H3.5V6.99709C3.5 6.16909 4.171 5.49709 5 5.49709H19C19.828 5.49709 20.5 6.16809 20.5 6.99709V16.9951C20.5 17.8231 19.828 18.4951 19 18.4951H5C4.171 18.4951 3.5 17.8231 3.5 16.9951V14.2501H2V16.9951C2 18.6521 3.343 19.9951 5 19.9951L19 19.9941C20.657 19.9941 22 18.6511 22 16.9941V6.99609C22 5.33909 20.656 3.99609 19 3.99609Z" fill="#333333"/>
</g>
</g>
</svg>
