<svg xmlns="http://www.w3.org/2000/svg" width="24" height="24">
    <defs>
        <filter id="v1vtcdrmza">
            <feFlood flood-color="#A50034" flood-opacity="1" result="floodOut"/>
            <feComposite in="floodOut" in2="SourceGraphic" operator="atop" result="compOut"/>
            <feBlend in="compOut" in2="SourceGraphic"/>
        </filter>
        <filter id="i0zxoinf8b">
            <feFlood flood-color="#A50034" flood-opacity="1" result="floodOut"/>
            <feComposite in="floodOut" in2="SourceGraphic" operator="atop" result="compOut"/>
            <feBlend in="compOut" in2="SourceGraphic"/>
        </filter>
    </defs>
    <g fill-rule="evenodd" filter="url(#v1vtcdrmza)">
        <path fill="#949494" d="M12.999 5.999h-9v-2h7v-2h2v2h7v2h-7zm-2 3v8h-2v-8h2zm4 0v8h-2v-8h2zm-8 9c0 .554.458 1 1 1h8c.542 0 1-.446 1-1v-10h2v10c0 1.108-1.169 3-3 3h-8c-1.083 0-3-1.892-3-3v-10h2v10z"/>
        <g filter="url(#i0zxoinf8b)">
            <path fill="#949494" d="M12.999 5.999h-9v-2h7v-2h2v2h7v2h-7zm-2 3v8h-2v-8h2zm4 0v8h-2v-8h2zm-8 9c0 .554.458 1 1 1h8c.542 0 1-.446 1-1v-10h2v10c0 1.108-1.169 3-3 3h-8c-1.083 0-3-1.892-3-3v-10h2v10z"/>
        </g>
    </g>
</svg>
