<svg width="244" height="28" viewBox="0 0 244 28" fill="none" xmlns="http://www.w3.org/2000/svg">
<g id="logo_businesscloud">
<path id="logo" fill-rule="evenodd" clip-rule="evenodd" d="M44 22.1568V2.3501H54.0286C56.9069 2.3501 59.2599 4.49641 59.2599 7.85585C59.2599 9.41893 58.6431 10.982 57.2953 11.9852C58.8258 12.965 59.5112 14.6447 59.5112 16.4411C59.5112 19.7772 57.2724 22.1568 54.12 22.1568H44ZM53.5032 10.6087C54.9652 10.6087 55.8104 9.34894 55.8104 7.9725C55.8104 6.40943 54.9652 5.33627 53.4803 5.33627H47.3124V10.5854H53.5032V10.6087ZM47.3352 19.194H53.6631C55.0337 19.194 56.0617 18.2375 56.0617 16.3478C56.0617 14.5981 55.1023 13.5016 53.6402 13.5016H47.3352V19.194ZM64.9029 7.66919V17.1876C64.9029 18.5407 65.4512 19.2406 66.7305 19.2406H70.911V7.66919H74.132V22.1568H66.0908C63.1896 22.1568 61.6362 20.6404 61.6362 17.3509V7.66919H64.9029ZM77.3983 19.4272L76.0276 22.1568H83.452C86.1476 22.1568 87.701 20.5004 87.701 18.0041C87.701 16.0445 86.5131 14.6447 84.8683 14.1781L80.3223 12.9183C79.637 12.7317 79.2715 12.2884 79.2715 11.6352C79.2715 10.7487 79.7741 10.3288 80.6421 10.3288H85.5536L86.8786 7.66919H80.1853C77.6496 7.66919 76.119 9.39557 76.119 11.7985C76.119 13.6882 77.1927 15.1113 79.203 15.6712L83.5205 16.861C84.2287 17.0243 84.5942 17.4909 84.5942 18.0741C84.5942 18.9607 84.0688 19.4272 83.1093 19.4272H77.3983ZM89.7798 5.24295V2.3501H93.0008V5.24295H89.7798ZM89.7798 22.1568V7.66922H93.0008V22.1568H89.7798ZM105.086 12.5684V22.1568H108.353V12.4751C108.353 9.18561 106.799 7.66919 103.898 7.66919H95.8569V22.1568H99.078V10.5154H103.258C104.538 10.5154 105.086 11.2153 105.086 12.5684ZM117.032 22.1568C112.715 22.1568 110.362 18.8674 110.362 14.7381C110.362 10.6087 112.852 7.29596 117.306 7.29596C121.761 7.29596 124.251 10.3521 124.251 14.878V16.3711H113.72C113.948 18.2375 115.388 19.404 117.124 19.404H123.337L121.967 22.1802H117.032V22.1568ZM120.916 13.5949C120.733 11.332 119.545 10.0722 117.306 10.0722C115.182 10.0722 113.72 11.5886 113.651 13.5949H120.916ZM126.65 19.4272L125.28 22.1568H132.704C135.4 22.1568 136.953 20.5004 136.953 18.0041C136.953 16.0445 135.765 14.6447 134.12 14.1781L129.574 12.9183C128.889 12.7317 128.523 12.2884 128.523 11.6352C128.523 10.7487 129.026 10.3288 129.894 10.3288H134.806L136.131 7.66919H129.437C126.902 7.66919 125.371 9.39557 125.371 11.7985C125.371 13.6882 126.445 15.1113 128.455 15.6712L132.772 16.861C133.481 17.0243 133.846 17.4909 133.846 18.0741C133.846 18.9607 133.321 19.4272 132.361 19.4272H126.65ZM138.049 22.1568L139.42 19.4272H145.131C146.09 19.4272 146.616 18.9607 146.616 18.0741C146.616 17.4909 146.25 17.0243 145.542 16.861L141.224 15.6712C139.214 15.1113 138.14 13.6882 138.14 11.7985C138.14 9.39557 139.671 7.66919 142.207 7.66919H148.9L147.575 10.3288H142.664C141.796 10.3288 141.293 10.7487 141.293 11.6352C141.293 12.2884 141.658 12.7317 142.344 12.9183L146.89 14.1781C148.535 14.6447 149.722 16.0445 149.722 18.0041C149.722 20.5004 148.169 22.1568 145.473 22.1568H138.049ZM170.877 2.3501H164.595L164.617 2.39676C159.592 2.44342 155.548 5.96617 155.548 12.2885C155.548 18.6107 159.592 22.1102 164.617 22.1802H169.392L170.877 19.1473H165.257C161.122 19.1473 158.975 16.6511 158.975 12.2651C158.975 7.87918 161.122 5.38293 165.257 5.38293H169.392L170.877 2.3501ZM176.039 22.1568C174.029 22.1568 172.75 20.897 172.75 18.6341V2.3501H175.971V18.2608C175.971 18.9607 176.29 19.334 176.953 19.334H178.803L177.433 22.1335H176.016L176.039 22.1568ZM193.995 14.9013C193.995 10.3987 191.345 7.27258 186.64 7.27258C181.956 7.27258 179.284 10.3987 179.284 14.9013C179.284 19.4039 181.956 22.5301 186.64 22.5301C191.323 22.5301 193.995 19.4039 193.995 14.9013ZM190.774 14.9013C190.774 17.8408 189.358 19.6372 186.64 19.6372C183.921 19.6372 182.505 17.8408 182.505 14.9013C182.505 11.9618 183.921 10.1888 186.64 10.1888C189.358 10.1888 190.774 11.9618 190.774 14.9013ZM199.249 7.66919V17.1876C199.249 18.5407 199.797 19.2406 201.076 19.2406H205.257V7.66919H208.478V22.1568H200.437C197.535 22.1568 195.982 20.6404 195.982 17.3509V7.66919H199.249ZM210.534 14.9247C210.534 19.5673 213.526 22.1568 217.41 22.1568L217.387 22.1335H223.372V2.3501H220.151V7.69255H217.41C213.526 7.69255 210.534 10.2821 210.534 14.9247ZM217.798 10.4921H220.151V19.3573H217.798C215.194 19.3573 213.823 17.6076 213.823 14.9247C213.823 12.2418 215.125 10.4921 217.798 10.4921Z" fill="black"/>
<g id="LG">
<path d="M24.2049 14.5727H27.9431V18.0482C27.2656 18.3048 25.9105 18.5847 24.6255 18.5847C20.4901 18.5847 19.1116 16.4854 19.1116 12.2401C19.1116 7.99483 20.42 5.77889 24.5554 5.77889C26.845 5.77889 28.1768 6.50198 29.2515 7.8782L32.1019 5.26572C30.3729 2.76986 27.3357 2.02344 24.4619 2.02344C18.0369 2.02344 14.6491 5.5223 14.6491 12.2168C14.6491 18.9113 17.6864 22.4568 24.4152 22.4568C27.4992 22.4568 30.5131 21.6637 32.1486 20.5208V10.8872H24.1815V14.596L24.2049 14.5727Z" fill="black"/>
<path d="M4.60267 2.30335H0V22.1302H14.1117V18.2815H4.60267V2.30335Z" fill="black"/>
</g>
</g>
</svg>
