<svg xmlns="http://www.w3.org/2000/svg" width="24" height="24">
    <path fill="#069FB7" fill-rule="evenodd" d="M11.981 21.96c-5.505 0-9.983-4.479-9.983-9.983 0-5.505 4.478-9.983 9.983-9.983 5.505 0 9.983 4.478 9.983 9.983 0 5.504-4.478 9.983-9.983 9.983zm0-18.008c-4.424 0-8.024 3.6-8.024 8.025 0 4.424 3.6 8.123 8.024 8.123 4.425 0 8.519-3.699 8.519-8.123 0-4.425-4.094-8.025-8.519-8.025zm-.158 11.908c-.193-.558-.461-.448.107-.448-1.066 0-1.296-.081-1.482-.244l-2.626-2.304c-.407-.357-.447-.976-.09-1.382 1.158.278.975-.132 1.382-.09l1.996 2.168 3.655-4.692c.361-.403.98-.437 1.383-.076s.437.98.076 1.383l-4.401 5.685z"/>
</svg>
