<svg xmlns="http://www.w3.org/2000/svg" width="24" height="24">
    <path fill="#E47301" fill-rule="evenodd" d="M22.534 20.371c-.598 1.019-1.662 1.627-2.847 1.627H4.581c-1.184 0-2.248-.608-2.847-1.627-.598-1.018-.609-2.241-.03-3.271L9.256 3.674c.593-1.052 1.668-1.679 2.879-1.679 1.209 0 2.285.627 2.985 1.679L22.565 17.1c.579 1.029.568 2.252-.031 3.271zm-1.773-2.262L13.208 4.683c-.318-.566-.857-.123-1.073-.123-.217 0-.756-.443-.535.123L3.508 18.109c-.312.553-.096 1.038.011 1.22.107.183.425.608 1.062.608h15.106c.638 0 .956-.425 1.063-.608.107-.182.98-.667.011-1.22zm-8.592.046c-.316 0-.585.275-.808-.334-.224-.222-.101-.491-.101-.671 0-.45-.123-.719.101-.941.223-.223.492-.334.808-.334.316 0 .586.111.808.334.224.222.335.491.335.941 0 .18-.111.449-.335.671-.222.609-.492.334-.808.334zM12.134 15c-.571 0-1.034-.461-1.034-1.03V8.492c0-.569.463-1.03 1.034-1.03s1.034.461 1.034 1.03v5.478c0 .569-.463 1.03-1.034 1.03z"/>
</svg>
