<svg xmlns="http://www.w3.org/2000/svg" width="24" height="24">
    <path fill="#E2314C" fill-rule="evenodd" d="M19.107 5.7c.773-.714.623-.738.423-.759-.21-.02.37-.035-.543-.053-1.815-1.786-4.301-2.891-7.042-2.891-5.542 0-10.051 4.509-10.051 10.483 0 2.307 1.103 4.79 2.885 7.37.02-.742.037-.716.059-.694.022.022.048.038.071.058 1.815 1.782 4.298 2.886 7.036 2.886 5.543 0 10.052-4.509 10.052-9.62 0-3.172-1.105-5.658-2.89-6.78zm-7.162-1.535c1.784 0 3.425.602 4.747 1.604L5.666 16.795C4.664 15.473 4.62 13.831 4.62 12.48c0-4.779 2.978-8.315 7.325-8.315zm0 15.767c-1.783 0-3.424-.602-4.746-1.604L18.225 7.302c1.002 1.322 1.604 2.963 1.604 5.178 0 3.915-3.537 7.452-7.884 7.452z"/>
</svg>
