<svg width="182" height="182" viewBox="0 0 182 182" fill="none" xmlns="http://www.w3.org/2000/svg">
<mask id="path-1-outside-1_111_47" maskUnits="userSpaceOnUse" x="0" y="0" width="182" height="182" fill="black">
<rect fill="white" width="182" height="182"/>
<path d="M181 91C181 140.706 140.706 181 91 181C41.2944 181 1 140.706 1 91C1 41.2944 41.2944 1 91 1C140.706 1 181 41.2944 181 91ZM28 91C28 125.794 56.2061 154 91 154C125.794 154 154 125.794 154 91C154 56.2061 125.794 28 91 28C56.2061 28 28 56.2061 28 91Z"/>
</mask>
<path d="M181 91C181 140.706 140.706 181 91 181C41.2944 181 1 140.706 1 91C1 41.2944 41.2944 1 91 1C140.706 1 181 41.2944 181 91ZM28 91C28 125.794 56.2061 154 91 154C125.794 154 154 125.794 154 91C154 56.2061 125.794 28 91 28C56.2061 28 28 56.2061 28 91Z" fill="#D6D1F4"/>
<path d="M181 91C181 140.706 140.706 181 91 181C41.2944 181 1 140.706 1 91C1 41.2944 41.2944 1 91 1C140.706 1 181 41.2944 181 91ZM28 91C28 125.794 56.2061 154 91 154C125.794 154 154 125.794 154 91C154 56.2061 125.794 28 91 28C56.2061 28 28 56.2061 28 91Z" stroke="#F5F6FA" stroke-width="2" stroke-linejoin="round" mask="url(#path-1-outside-1_111_47)"/>
<mask id="path-2-outside-2_111_47" maskUnits="userSpaceOnUse" x="-1" y="0" width="184" height="182" fill="black">
<rect fill="white" x="-1" width="184" height="182"/>
<path d="M91 1C112.156 1 132.636 8.45286 148.844 22.05C165.052 35.6472 175.951 54.5195 179.629 75.3533C183.307 96.1872 179.529 117.651 168.956 135.976C158.384 154.301 141.694 168.316 121.817 175.56C101.94 182.804 80.1458 182.814 60.2619 175.588C40.378 168.363 23.675 154.363 13.0856 136.048C2.49626 117.733 -1.30261 96.2731 2.35602 75.4358C6.01465 54.5985 16.8969 35.7161 33.0921 22.1039L50.4645 42.7727C39.1278 52.3013 31.5103 65.519 28.9492 80.1051C26.3882 94.6912 29.0474 109.713 36.4599 122.534C43.8725 135.354 55.5646 145.154 69.4833 150.212C83.4021 155.27 98.6577 155.263 112.572 150.192C126.486 145.121 138.169 135.311 145.569 122.483C152.97 109.656 155.615 94.631 153.041 80.0473C150.466 65.4636 142.836 52.253 131.491 42.735C120.145 33.217 105.809 28 91 28L91 1Z"/>
</mask>
<path d="M91 1C112.156 1 132.636 8.45286 148.844 22.05C165.052 35.6472 175.951 54.5195 179.629 75.3533C183.307 96.1872 179.529 117.651 168.956 135.976C158.384 154.301 141.694 168.316 121.817 175.56C101.94 182.804 80.1458 182.814 60.2619 175.588C40.378 168.363 23.675 154.363 13.0856 136.048C2.49626 117.733 -1.30261 96.2731 2.35602 75.4358C6.01465 54.5985 16.8969 35.7161 33.0921 22.1039L50.4645 42.7727C39.1278 52.3013 31.5103 65.519 28.9492 80.1051C26.3882 94.6912 29.0474 109.713 36.4599 122.534C43.8725 135.354 55.5646 145.154 69.4833 150.212C83.4021 155.27 98.6577 155.263 112.572 150.192C126.486 145.121 138.169 135.311 145.569 122.483C152.97 109.656 155.615 94.631 153.041 80.0473C150.466 65.4636 142.836 52.253 131.491 42.735C120.145 33.217 105.809 28 91 28L91 1Z" fill="#BDB5EE"/>
<path d="M91 1C112.156 1 132.636 8.45286 148.844 22.05C165.052 35.6472 175.951 54.5195 179.629 75.3533C183.307 96.1872 179.529 117.651 168.956 135.976C158.384 154.301 141.694 168.316 121.817 175.56C101.94 182.804 80.1458 182.814 60.2619 175.588C40.378 168.363 23.675 154.363 13.0856 136.048C2.49626 117.733 -1.30261 96.2731 2.35602 75.4358C6.01465 54.5985 16.8969 35.7161 33.0921 22.1039L50.4645 42.7727C39.1278 52.3013 31.5103 65.519 28.9492 80.1051C26.3882 94.6912 29.0474 109.713 36.4599 122.534C43.8725 135.354 55.5646 145.154 69.4833 150.212C83.4021 155.27 98.6577 155.263 112.572 150.192C126.486 145.121 138.169 135.311 145.569 122.483C152.97 109.656 155.615 94.631 153.041 80.0473C150.466 65.4636 142.836 52.253 131.491 42.735C120.145 33.217 105.809 28 91 28L91 1Z" stroke="#F5F6FA" stroke-width="2" stroke-linejoin="round" mask="url(#path-2-outside-2_111_47)"/>
<mask id="path-3-outside-3_111_47" maskUnits="userSpaceOnUse" x="0" y="0" width="182" height="182" fill="black">
<rect fill="white" width="182" height="182"/>
<path d="M91 1C108.254 1 125.145 5.95988 139.66 15.2888C154.175 24.6177 165.703 37.9225 172.869 53.6181C180.036 69.3138 182.54 86.7387 180.083 103.817C177.625 120.896 170.311 136.908 159.01 149.947C147.709 162.985 132.898 172.5 116.341 177.359C99.7851 182.217 82.1812 182.214 65.6267 177.349C49.0722 172.485 34.2649 162.964 22.9687 149.921C11.6725 136.879 4.36362 120.864 1.91264 103.784L28.6388 99.9491C30.3545 111.905 35.4708 123.115 43.3781 132.245C51.2854 141.375 61.6505 148.039 73.2387 151.444C84.8268 154.85 97.1496 154.852 108.739 151.451C120.328 148.05 130.696 141.39 138.607 132.263C146.517 123.136 151.638 111.927 153.358 99.9721C155.078 88.0171 153.325 75.8197 148.309 64.8327C143.292 53.8457 135.223 44.5324 125.062 38.0022C114.902 31.4719 103.078 28 91 28L91 1Z"/>
</mask>
<path d="M91 1C108.254 1 125.145 5.95988 139.66 15.2888C154.175 24.6177 165.703 37.9225 172.869 53.6181C180.036 69.3138 182.54 86.7387 180.083 103.817C177.625 120.896 170.311 136.908 159.01 149.947C147.709 162.985 132.898 172.5 116.341 177.359C99.7851 182.217 82.1812 182.214 65.6267 177.349C49.0722 172.485 34.2649 162.964 22.9687 149.921C11.6725 136.879 4.36362 120.864 1.91264 103.784L28.6388 99.9491C30.3545 111.905 35.4708 123.115 43.3781 132.245C51.2854 141.375 61.6505 148.039 73.2387 151.444C84.8268 154.85 97.1496 154.852 108.739 151.451C120.328 148.05 130.696 141.39 138.607 132.263C146.517 123.136 151.638 111.927 153.358 99.9721C155.078 88.0171 153.325 75.8197 148.309 64.8327C143.292 53.8457 135.223 44.5324 125.062 38.0022C114.902 31.4719 103.078 28 91 28L91 1Z" fill="#9487E3"/>
<path d="M91 1C108.254 1 125.145 5.95988 139.66 15.2888C154.175 24.6177 165.703 37.9225 172.869 53.6181C180.036 69.3138 182.54 86.7387 180.083 103.817C177.625 120.896 170.311 136.908 159.01 149.947C147.709 162.985 132.898 172.5 116.341 177.359C99.7851 182.217 82.1812 182.214 65.6267 177.349C49.0722 172.485 34.2649 162.964 22.9687 149.921C11.6725 136.879 4.36362 120.864 1.91264 103.784L28.6388 99.9491C30.3545 111.905 35.4708 123.115 43.3781 132.245C51.2854 141.375 61.6505 148.039 73.2387 151.444C84.8268 154.85 97.1496 154.852 108.739 151.451C120.328 148.05 130.696 141.39 138.607 132.263C146.517 123.136 151.638 111.927 153.358 99.9721C155.078 88.0171 153.325 75.8197 148.309 64.8327C143.292 53.8457 135.223 44.5324 125.062 38.0022C114.902 31.4719 103.078 28 91 28L91 1Z" stroke="#F5F6FA" stroke-width="2" stroke-linejoin="round" mask="url(#path-3-outside-3_111_47)"/>
<mask id="path-4-outside-4_111_47" maskUnits="userSpaceOnUse" x="90" y="0" width="93" height="179" fill="black">
<rect fill="white" x="90" width="93" height="179"/>
<path d="M91 1C112.643 1 133.561 8.79914 149.921 22.9682C166.281 37.1373 176.987 56.7273 180.078 78.1484C183.168 99.5695 178.436 121.387 166.748 139.603C155.06 157.818 137.2 171.212 116.44 177.33L108.808 151.431C123.34 147.148 135.842 137.773 144.024 125.022C152.205 112.271 155.518 96.9986 153.354 82.0039C151.191 67.0091 143.697 53.2961 132.245 43.3778C120.793 33.4594 106.15 28 91 28L91 1Z"/>
</mask>
<path d="M91 1C112.643 1 133.561 8.79914 149.921 22.9682C166.281 37.1373 176.987 56.7273 180.078 78.1484C183.168 99.5695 178.436 121.387 166.748 139.603C155.06 157.818 137.2 171.212 116.44 177.33L108.808 151.431C123.34 147.148 135.842 137.773 144.024 125.022C152.205 112.271 155.518 96.9986 153.354 82.0039C151.191 67.0091 143.697 53.2961 132.245 43.3778C120.793 33.4594 106.15 28 91 28L91 1Z" fill="#5B47D4"/>
<path d="M91 1C112.643 1 133.561 8.79914 149.921 22.9682C166.281 37.1373 176.987 56.7273 180.078 78.1484C183.168 99.5695 178.436 121.387 166.748 139.603C155.06 157.818 137.2 171.212 116.44 177.33L108.808 151.431C123.34 147.148 135.842 137.773 144.024 125.022C152.205 112.271 155.518 96.9986 153.354 82.0039C151.191 67.0091 143.697 53.2961 132.245 43.3778C120.793 33.4594 106.15 28 91 28L91 1Z" stroke="#F5F6FA" stroke-width="2" stroke-linejoin="round" mask="url(#path-4-outside-4_111_47)"/>
<path d="M76.3794 77H74.7594V65.57H70.7454V64.148H80.3754V65.57H76.3794V77ZM89.2198 72.158C89.2198 73.754 88.8118 74.99 87.9958 75.866C87.1918 76.742 86.0998 77.18 84.7198 77.18C83.8678 77.18 83.1058 76.988 82.4338 76.604C81.7738 76.208 81.2518 75.638 80.8678 74.894C80.4838 74.138 80.2918 73.226 80.2918 72.158C80.2918 70.562 80.6878 69.332 81.4798 68.468C82.2838 67.604 83.3818 67.172 84.7738 67.172C85.6378 67.172 86.4058 67.37 87.0778 67.766C87.7498 68.15 88.2718 68.714 88.6438 69.458C89.0278 70.19 89.2198 71.09 89.2198 72.158ZM81.9298 72.158C81.9298 73.298 82.1518 74.204 82.5958 74.876C83.0518 75.536 83.7718 75.866 84.7558 75.866C85.7278 75.866 86.4418 75.536 86.8978 74.876C87.3538 74.204 87.5818 73.298 87.5818 72.158C87.5818 71.018 87.3538 70.124 86.8978 69.476C86.4418 68.828 85.7218 68.504 84.7378 68.504C83.7538 68.504 83.0398 68.828 82.5958 69.476C82.1518 70.124 81.9298 71.018 81.9298 72.158ZM94.9522 75.884C95.1922 75.884 95.4382 75.866 95.6902 75.83C95.9422 75.794 96.1462 75.746 96.3022 75.686V76.892C96.1342 76.976 95.8942 77.042 95.5822 77.09C95.2702 77.15 94.9702 77.18 94.6822 77.18C94.1782 77.18 93.7102 77.096 93.2782 76.928C92.8582 76.748 92.5162 76.442 92.2522 76.01C91.9882 75.578 91.8562 74.972 91.8562 74.192V68.576H90.4882V67.82L91.8742 67.19L92.5042 65.138H93.4402V67.352H96.2302V68.576H93.4402V74.156C93.4402 74.744 93.5782 75.182 93.8542 75.47C94.1422 75.746 94.5082 75.884 94.9522 75.884ZM101.888 67.19C103.064 67.19 103.934 67.448 104.498 67.964C105.062 68.48 105.344 69.302 105.344 70.43V77H104.192L103.886 75.632H103.814C103.394 76.16 102.95 76.55 102.482 76.802C102.014 77.054 101.378 77.18 100.574 77.18C99.6981 77.18 98.9721 76.952 98.3961 76.496C97.8201 76.028 97.5321 75.302 97.5321 74.318C97.5321 73.358 97.9101 72.62 98.6661 72.104C99.4221 71.576 100.586 71.288 102.158 71.24L103.796 71.186V70.61C103.796 69.806 103.622 69.248 103.274 68.936C102.926 68.624 102.434 68.468 101.798 68.468C101.294 68.468 100.814 68.546 100.358 68.702C99.9021 68.846 99.4761 69.014 99.0801 69.206L98.5941 68.018C99.0141 67.79 99.5121 67.598 100.088 67.442C100.664 67.274 101.264 67.19 101.888 67.19ZM103.778 72.284L102.356 72.338C101.156 72.386 100.322 72.578 99.8541 72.914C99.3981 73.25 99.1701 73.724 99.1701 74.336C99.1701 74.876 99.3321 75.272 99.6561 75.524C99.9921 75.776 100.418 75.902 100.934 75.902C101.738 75.902 102.41 75.68 102.95 75.236C103.502 74.78 103.778 74.084 103.778 73.148V72.284ZM109.908 77H108.324V63.32H109.908V77Z" fill="#555555"/>
<path d="M90.4475 111.264H87.6955V116H82.9915V111.264H73.2315V107.904L83.2475 93.152H87.6955V107.52H90.4475V111.264ZM82.9915 107.52V103.648C82.9915 103.157 83.0022 102.56 83.0235 101.856C83.0448 101.152 83.0662 100.501 83.0875 99.904C83.1302 99.2853 83.1622 98.88 83.1835 98.688H83.0555C82.8635 99.1147 82.6502 99.5307 82.4155 99.936C82.2022 100.341 81.9568 100.757 81.6795 101.184L77.4875 107.52H82.9915ZM92.12 106.304C92.12 105.003 92.216 103.712 92.408 102.432C92.6 101.131 92.9307 99.9147 93.4 98.784C93.8907 97.632 94.5627 96.6187 95.416 95.744C96.2907 94.848 97.3893 94.1547 98.712 93.664C100.056 93.152 101.677 92.896 103.576 92.896C104.024 92.896 104.547 92.9173 105.144 92.96C105.741 92.9813 106.243 93.0347 106.648 93.12V96.992C106.243 96.9067 105.795 96.832 105.304 96.768C104.835 96.704 104.365 96.672 103.896 96.672C101.997 96.672 100.525 96.9707 99.48 97.568C98.456 98.1653 97.7307 99.008 97.304 100.096C96.8773 101.163 96.632 102.4 96.568 103.808H96.76C97.1867 103.061 97.7947 102.432 98.584 101.92C99.3947 101.408 100.44 101.152 101.72 101.152C103.725 101.152 105.315 101.781 106.488 103.04C107.661 104.299 108.248 106.08 108.248 108.384C108.248 110.859 107.544 112.8 106.136 114.208C104.749 115.616 102.861 116.32 100.472 116.32C98.9147 116.32 97.5067 115.968 96.248 115.264C94.9893 114.539 93.9867 113.44 93.24 111.968C92.4933 110.475 92.12 108.587 92.12 106.304ZM100.376 112.448C101.315 112.448 102.083 112.128 102.68 111.488C103.277 110.827 103.576 109.813 103.576 108.448C103.576 107.339 103.32 106.464 102.808 105.824C102.296 105.184 101.517 104.864 100.472 104.864C99.7467 104.864 99.1173 105.024 98.584 105.344C98.072 105.664 97.6667 106.069 97.368 106.56C97.0693 107.029 96.92 107.52 96.92 108.032C96.92 108.736 97.048 109.429 97.304 110.112C97.56 110.795 97.944 111.36 98.456 111.808C98.9893 112.235 99.6293 112.448 100.376 112.448Z" fill="#111111"/>
</svg>
