<svg width="18" height="18" viewBox="0 0 18 18" fill="none" xmlns="http://www.w3.org/2000/svg">
<g id="common/ic_delete">
<g id="icon">
<path d="M11.3565 5.95805H10.2315V13.4813H11.3565V5.95805Z" fill="#333333"/>
<path d="M15 3.74705H11.8568V2.6498C11.8568 2.0078 11.337 1.4873 10.695 1.4873H7.29153C6.64953 1.4873 6.12903 2.0078 6.12903 2.6498V3.74705H2.99853V4.87205H15V3.74705ZM7.25328 2.6498C7.25328 2.62955 7.26978 2.6123 7.29078 2.6123H10.6943C10.7145 2.6123 10.731 2.6288 10.731 2.6498V3.74705H7.25328V2.6498Z" fill="#333333"/>
<path d="M7.76928 5.95805H6.64428V13.4813H7.76928V5.95805Z" fill="#333333"/>
<path d="M13.9043 5.95805V14.0641C13.9043 14.7893 13.317 15.3766 12.5918 15.3766H5.43228C4.70703 15.3766 4.11978 14.7893 4.11978 14.0641V5.95805H2.99478V14.0641C2.99478 15.4103 4.08603 16.5016 5.43228 16.5016H12.5918C13.938 16.5016 15.0293 15.4103 15.0293 14.0641V5.95805H13.9043Z" fill="#333333"/>
</g>
</g>
</svg>
