<svg xmlns="http://www.w3.org/2000/svg" width="14.25" height="14.25">
    <path fill="#949494" fill-rule="evenodd" stroke="#949494" stroke-width=".5" d="M11.295 3.979H7.687c-.147 0-.29-.059-.389-.159L6.172 2.652c-.27-.266-.64-.405-1.015-.403H2.704c-.775 0-1.405.621-1.405 1.384v6.733c0 .763.63 1.383 1.405 1.383h8.597c1.449-.003 1.402-.626 1.398-1.387v-5c0-.762-.009-1.383-1.404-1.383zm.545 6.385c.001.296-.242.538-.541.539H2.704c-.301 0-.546-.241-.546-.537V3.633c0-.297.245.317.546.317H5.182c.143 0 .282-.799.376-.707l1.12 1.162c.263.267.63.42 1.009.42h3.608c.3 0 .545.835.545.537v5.002h0z"/>
</svg>
