<svg xmlns="http://www.w3.org/2000/svg" width="25" height="25">
    <path fill="#757575" fill-rule="evenodd" d="M6.499 5.5C6.44 6.587 6 7.2 6 8.499 6 9.997 6.292 10.48 7.499 12c1.208 1.519 2.479 1.752 3 2 .711.247 1.412-.346 2.001-.5 1.38-.155 1.499-.501 1.499-.501S11.15 12.362 11 12c-.016-.363.332-.44 1.5-1.001 1.167-.056 2.427-.384 3-1 1.22-.615 1.026-1.547 1-2.499-.027-.953.212-1.386.499-1.5.288-.115-.53-1.129-1-1.5-.469-.372 2.964.895 3.5 1.999.861 1.105 1.321 7.472 1 8.5-.32 1.281-.499 0-.499 0s-1.184-1.049-2.501-2c-1.316-.095-2.999 0-2.999 0s.143.608.499 1.001c.357.392-.749.953-1 1.5-.25.96-.054 1.796 0 1.999.541.204.496.192 1 .5.505.309.653 1.101 1 1.001.348-.011 1.5 0 1.5 0s-.806 1.658-2.999 1.999c-2.194.342-5.365.422-6.5-.499-1.136-.922-4.17-3.567-4.5-4.501-.331-.339-1.179-3.432-1-4.5.178-1.067.78-3.123 1.499-4.499.972-1.377 2.5-2.001 2.5-2.001V5.5"/>
    <path fill="none" fill-rule="evenodd" stroke="#757575" stroke-width="2" d="M11.995 1.995c5.523 0 10 4.477 10 10s-4.477 10-10 10-10-4.477-10-10 4.477-10 10-10z"/>
</svg>
