<svg xmlns="http://www.w3.org/2000/svg" width="24" height="24">
    <defs>
        <filter id="qesgqs2eka">
            <feFlood flood-color="#757575" flood-opacity="1" result="floodOut"/>
            <feComposite in="floodOut" in2="SourceGraphic" operator="atop" result="compOut"/>
            <feBlend in="compOut" in2="SourceGraphic"/>
        </filter>
    </defs>
    <g filter="url(#qesgqs2eka)">
        <path fill="#094" fill-rule="evenodd" d="M0 22.152l.91-.952c-.496-4.229 3.36-6.007 4.982-6.384.575-.117 1.358.924 1.248.834.115.576-.255 1.136-.827 1.253-.146.031-2.984.66-3.866 3.317h15.256c-.324-1.106-.953-1.865-1.879-2.461-1-.644-1.975-.853-1.985-.855-.574-.116-.945-.677.061-1.254-.775.09-.217-.95.357-.834 1.865.377 5.478 2.155 6.323 6.384l-.43.952H0zm10.74-6.864c-3.363 0-6.002-3.776-6.002-6.595 0-1.493.48-3.111 1.472-4.328C7.27 2.84 8.467 2 10.74 2c.942 0 2.382.84 3.388 2.365.803 1.217 1.283 2.835 1.283 4.328 0 2.819-2.639 6.595-4.671 6.595zm0-11.159c-2.44 0-3.882 2.699-3.882 4.564 0 .918.459 2.083 1.692 3.039.266.986 1.068 1.427 2.19 1.427.557 0 2.551-2.495 2.551-4.466 0-1.865-1.145-4.564-2.551-4.564z"/>
    </g>
</svg>
