<svg xmlns="http://www.w3.org/2000/svg" width="180" height="20">
    <path fill="#757574" fill-rule="evenodd" d="M175.288 6.327v-3.11h-.048l-.845 3.11h-.764l-.865-3.11h-.045v3.11h-.568V2.771h1.022l1.625 3.115h-.26l.324-3.115h.986v3.556h-.562zm-4.614 0h-.564V3.226h-.91v-.455h2.566v.455h-1.092v3.101zm-1.249 6.5h-7.773c.177 1.339 1.237 2.273 2.518 2.273h4.593l-1.016 1.899h-3.644c-3.179 0-4.924-2.371-4.924-5.336 0-2.898 1.941-5.357 5.123-5.357 3.29 0 5.123 2.195 5.123 5.445v1.076zm-5.123-4.501c-1.568 0-2.65 1.098-2.694 2.525h5.366c-.133-1.625-1.016-2.525-2.672-2.525zm-7.394.329c-.971 0-1.568.615-1.568 1.581v6.763h-2.384V10.17c0-2.019 1.325-3.579 3.665-3.579h2.915l-1.038 2.064h-1.59zm-15.431 5.204c0-1.049 1.17-3.14 3.334-3.14h3.864v-.329c0-.44-.463-1.801-1.457-1.801h-4.947l.994-1.998h3.953c2.495 0 3.942 1.23 3.942 3.799v6.609h-6.349c-2.164 0-3.334-1.406-3.334-3.14zm7.198 1.371v-2.6H145.1c-.863 0-1.216.57-1.216 1.207 0 .659.375 1.393 1.104 1.393h3.687zm-12.476-.405h4.151l-1.104 2.174h-3.533c-3.313-.044-6.483-2.569-6.483-7.114s3.17-7.07 6.483-7.114h4.637l-1.104 2.174h-3.047c-3.047 0-4.637 1.8-4.637 4.94 0 3.365 1.59 4.94 4.637 4.94zm-18.498-3.03c0-3.337 2.208-5.204 5.078-5.204h2.032v-3.82h2.384v14.228h-4.416c-2.87 0-5.078-1.866-5.078-5.204zm7.11 3.183V8.611h-1.141c-2.569 0-3.54 1.252-3.54 3.184 0 1.91 1.015 3.183 3.54 3.183h1.141zm-13.585.122h4.593l-1.016 1.899h-3.644c-3.179 0-4.924-2.371-4.924-5.336 0-2.898 2.445-5.357 5.123-5.357 3.29 0 5.123 2.195 5.123 5.445v1.076h-7.773c.177 1.339 1.237 2.273 2.518 2.273zm3.074-4.249c-.403-1.625-1.16-2.525-2.942-2.525-1.568 0-2.65 1.098-2.694 2.525h5.636zm-11.383 4.127h2.871l-1.038 2.021h-2.032c-2.34 0-3.51-1.164-3.51-3.447V3.429h2.384v3.162h4.107l-1.015 2.064h-3.092v4.897c0 .943 1.198 1.426 1.325 1.426zm-8.389-.043h3.378l-1.038 2.064h-2.583c-2.937 0-5.145-1.823-5.145-5.182 0-3.359 2.23-5.226 5.145-5.226h3.577l-1.038 2.064h-2.296c-1.899 0-2.915 1.296-2.915 3.162 0 1.867 1.016 3.118 2.915 3.118zm-11.967.165h4.593l-1.016 1.899h-3.644c-3.179 0-4.924-2.371-4.924-5.336 0-2.898 1.833-5.357 5.123-5.357s5.123 2.195 5.123 5.445v1.076H80.43c-.21 1.339.85 2.273 2.131 2.273zm2.803-4.249c-.132-1.625-1.015-2.525-2.671-2.525-1.568 0-2.263 1.098-2.694 2.525h5.365zm-11.588-.746c0-.967-.397-1.472-1.347-1.472h-3.091v8.366h-2.385V6.591h5.94c2.457 0 3.29 1.098 3.29 3.799v6.609h-2.407v-6.894zm-10.9 0c0-.967-.398-1.472-1.348-1.472h-3.091v8.366H56.52V6.591h5.472c2.142 0 3.29 1.098 3.29 3.799v6.609h-2.406v-6.894zm-13.642 7.179c-3.467 0-5.432-1.834-5.432-5.489 0-3.25 1.965-5.489 5.432-5.489 3.466 0 5.432 2.239 5.432 5.489 0 3.655-1.966 5.489-5.432 5.489zm0-8.87c-2.01 0-3.048 1.273-3.048 3.381 0 2.108 1.038 3.404 3.048 3.404 2.009 0 3.047-1.296 3.047-3.404 0-2.108-1.038-3.381-3.047-3.381zm-10.371 6.411h4.277l-1.23 2.174h-3.533c-3.709-.044-6.691-2.569-6.691-7.114s2.982-7.07 6.691-7.114h4.763l-1.23 2.174h-3.047c-3.048 0-4.637 1.8-4.637 4.94 0 3.355 1.589 4.94 4.637 4.94zM17.589 17.19c-4.839 0-7.037-2.583-7.037-7.349 0-4.311 2.431-7.301 7.061-7.301 2.053 0 4.25 1.27 5.5 2.324L21.58 6.739c-1.299-.985-2.245-1.499-3.896-1.499-2.978 0-3.92 1.715-3.92 4.626 0 3.051.992 4.553 3.966 4.553.923 0 1.891-.187 2.384.021v-2.881h-2.692V8.901h5.739v6.904c-1.179.821-3.355 1.385-5.572 1.385zM0 2.752h3.305V14.21h6.848v2.769H0V2.752z"/>
</svg>
