<svg width="24" height="24" viewBox="0 0 24 24" fill="none" xmlns="http://www.w3.org/2000/svg">
<path d="M13.6732 15.7776H15.1732V6.4404C15.1732 5.6674 14.5462 5.0404 13.7742 5.0404H7.80423V3.4964H17.2382V15.7776H18.7382L18.7382 3.3964C18.7382 2.6234 18.1112 1.9964 17.3382 1.9964H7.70423C6.93123 1.9964 6.30423 2.6234 6.30423 3.3964V5.0404H4.14023C3.36723 5.0404 2.74023 5.6674 2.74023 6.4404V19.9645C2.74023 20.7375 3.36723 21.3645 4.14023 21.3645H4.24023V6.5404H13.6742L13.6732 15.7776Z" fill="#333333"/>
<path d="M21.0305 19.0007C20.8785 18.7047 20.6615 18.4747 20.3805 18.3107C20.0995 18.1447 19.7675 18.0617 19.3805 18.0617C18.9935 18.0617 18.6605 18.1447 18.3785 18.3107C18.0995 18.4747 17.8825 18.7057 17.7305 19.0007C17.5785 19.2957 17.5015 19.6417 17.5015 20.0357C17.5015 20.4267 17.5775 20.7697 17.7305 21.0667C17.8825 21.3617 18.0995 21.5917 18.3785 21.7577C18.6605 21.9217 18.9935 22.0037 19.3805 22.0037C19.7675 22.0037 20.0995 21.9217 20.3805 21.7577C20.6615 21.5917 20.8785 21.3617 21.0305 21.0667C21.1825 20.7697 21.2595 20.4257 21.2595 20.0357C21.2585 19.6417 21.1825 19.2957 21.0305 19.0007ZM20.0905 20.6217C20.0305 20.7957 19.9425 20.9337 19.8245 21.0337C19.7065 21.1337 19.5595 21.1837 19.3845 21.1837C19.2075 21.1837 19.0585 21.1327 18.9375 21.0337C18.8185 20.9327 18.7275 20.7957 18.6665 20.6217C18.6055 20.4477 18.5765 20.2497 18.5765 20.0277C18.5765 19.8047 18.6055 19.6077 18.6665 19.4337C18.7275 19.2597 18.8175 19.1207 18.9375 19.0207C19.0585 18.9197 19.2085 18.8697 19.3845 18.8697C19.5605 18.8697 19.7065 18.9207 19.8245 19.0207C19.9415 19.1217 20.0305 19.2597 20.0905 19.4337C20.1525 19.6077 20.1825 19.8047 20.1825 20.0277C20.1825 20.2497 20.1525 20.4477 20.0905 20.6217Z" fill="#333333"/>
<path d="M17.1455 21.1157C17.0945 21.1247 17.0455 21.1297 16.9955 21.1297C16.9255 21.1297 16.8615 21.1177 16.8075 21.0967C16.7545 21.0757 16.7125 21.0377 16.6835 20.9857C16.6545 20.9307 16.6385 20.8547 16.6385 20.7567V18.9067H17.3575V18.1107H16.6385V17.1967H15.5795V18.1117H15.0575V18.9077H15.5795V20.8957C15.5775 21.1457 15.6305 21.3527 15.7355 21.5167C15.8405 21.6807 15.9895 21.8017 16.1805 21.8797C16.3715 21.9577 16.5965 21.9907 16.8515 21.9817C16.9895 21.9777 17.1065 21.9627 17.2025 21.9397C17.2985 21.9187 17.3725 21.8997 17.4265 21.8817L17.2595 21.0947C17.2325 21.0997 17.1945 21.1067 17.1455 21.1157Z" fill="#333333"/>
<path d="M13.7685 20.3037C13.7705 20.4747 13.7375 20.6177 13.6665 20.7337C13.5985 20.8507 13.5095 20.9387 13.3985 20.9977C13.2875 21.0567 13.1685 21.0857 13.0405 21.0857C12.8405 21.0857 12.6805 21.0197 12.5615 20.8887C12.4425 20.7577 12.3815 20.5797 12.3795 20.3547V18.1127H11.3205V20.5437C11.3215 20.8427 11.3765 21.0987 11.4845 21.3127C11.5935 21.5267 11.7455 21.6917 11.9395 21.8077C12.1335 21.9227 12.3585 21.9817 12.6135 21.9817C12.8995 21.9817 13.1425 21.9137 13.3425 21.7777C13.5425 21.6417 13.6865 21.4627 13.7725 21.2387H13.8125V21.9317H14.8295V18.1137H13.7685V20.3037Z" fill="#333333"/>
<path d="M7.93548 16.8387L6.17848 21.9297H7.33149L7.70949 20.7687H9.54749L9.92449 21.9297H11.0775L9.32248 16.8387H7.93548ZM7.98248 19.9287L8.60948 18.0027H8.64948L9.27448 19.9287H7.98248Z" fill="#333333"/>
</svg>
