<svg width="24" height="24" viewBox="0 0 24 24" fill="none" xmlns="http://www.w3.org/2000/svg">
<path d="M12 3.49857C15.096 3.49857 17.786 5.16357 19.271 7.63457H16.445V9.13457H20.467C21.267 9.13457 21.916 8.48457 21.916 7.68457V3.66457H20.417L20.457 6.69857C18.699 3.90057 15.608 2.02757 12.067 2.00357H12.268C12.179 1.99957 12.09 1.99857 12 1.99857C11.91 1.99857 11.821 1.99957 11.732 2.00257H11.913C6.433 2.05057 2.002 6.50457 2 11.9976H3.5C3.502 7.30357 7.307 3.49857 12 3.49857Z" fill="#333333"/>
<path d="M22 12.0046H20.5C20.498 16.6966 16.693 20.5016 12 20.5016C8.906 20.5016 6.213 18.8366 4.727 16.3646H7.555V14.8646H3.532C2.732 14.8646 2.082 15.5136 2.082 16.3146V20.3346H3.582L3.544 17.3036C5.306 20.1086 8.404 21.9836 11.956 21.9986H11.732C11.821 22.0006 11.91 22.0016 12 22.0016C12.09 22.0016 12.179 22.0006 12.268 21.9986H12.058C17.553 21.9676 21.998 17.5056 22 12.0046Z" fill="#333333"/>
<path d="M8.498 15.6566H10.146L10.685 13.9986H13.31L13.849 15.6566H15.496L12.99 8.38457H11.008L8.498 15.6566ZM12.027 10.0456L12.921 12.7976H11.075L11.971 10.0456H12.027Z" fill="#333333"/>
</svg>
