<svg width="18" height="18" viewBox="0 0 18 18" fill="none" xmlns="http://www.w3.org/2000/svg">
<path fill-rule="evenodd" clip-rule="evenodd" d="M6.1875 3.375H4.5C3.87868 3.375 3.375 3.87868 3.375 4.5V6.1875C3.375 6.80882 3.87868 7.3125 4.5 7.3125H6.1875C6.80882 7.3125 7.3125 6.80882 7.3125 6.1875V4.5C7.3125 3.87868 6.80882 3.375 6.1875 3.375ZM4.5 2.25C3.25736 2.25 2.25 3.25736 2.25 4.5V6.1875C2.25 7.43014 3.25736 8.4375 4.5 8.4375H6.1875C7.43014 8.4375 8.4375 7.43014 8.4375 6.1875V4.5C8.4375 3.25736 7.43014 2.25 6.1875 2.25H4.5Z" fill="white"/>
<path fill-rule="evenodd" clip-rule="evenodd" d="M6.1875 10.686H4.5C3.87868 10.686 3.375 11.1897 3.375 11.811V13.4985C3.375 14.1199 3.87868 14.6235 4.5 14.6235H6.1875C6.80882 14.6235 7.3125 14.1199 7.3125 13.4985V11.811C7.3125 11.1897 6.80882 10.686 6.1875 10.686ZM4.5 9.56104C3.25736 9.56104 2.25 10.5684 2.25 11.811V13.4985C2.25 14.7412 3.25736 15.7485 4.5 15.7485H6.1875C7.43014 15.7485 8.4375 14.7412 8.4375 13.4985V11.811C8.4375 10.5684 7.43014 9.56104 6.1875 9.56104H4.5Z" fill="white"/>
<path fill-rule="evenodd" clip-rule="evenodd" d="M13.4985 3.375H11.811C11.1897 3.375 10.686 3.87868 10.686 4.5V6.1875C10.686 6.80882 11.1897 7.3125 11.811 7.3125H13.4985C14.1199 7.3125 14.6235 6.80882 14.6235 6.1875V4.5C14.6235 3.87868 14.1199 3.375 13.4985 3.375ZM11.811 2.25C10.5684 2.25 9.56104 3.25736 9.56104 4.5V6.1875C9.56104 7.43014 10.5684 8.4375 11.811 8.4375H13.4985C14.7412 8.4375 15.7485 7.43014 15.7485 6.1875V4.5C15.7485 3.25736 14.7412 2.25 13.4985 2.25H11.811Z" fill="white"/>
<path fill-rule="evenodd" clip-rule="evenodd" d="M13.4985 10.686H11.811C11.1897 10.686 10.686 11.1897 10.686 11.811V13.4985C10.686 14.1199 11.1897 14.6235 11.811 14.6235H13.4985C14.1199 14.6235 14.6235 14.1199 14.6235 13.4985V11.811C14.6235 11.1897 14.1199 10.686 13.4985 10.686ZM11.811 9.56104C10.5684 9.56104 9.56104 10.5684 9.56104 11.811V13.4985C9.56104 14.7412 10.5684 15.7485 11.811 15.7485H13.4985C14.7412 15.7485 15.7485 14.7412 15.7485 13.4985V11.811C15.7485 10.5684 14.7412 9.56104 13.4985 9.56104H11.811Z" fill="white"/>
</svg>
