<svg width="20" height="20" viewBox="0 0 20 20" fill="none" xmlns="http://www.w3.org/2000/svg">
<path fill-rule="evenodd" clip-rule="evenodd" d="M13.7842 3.3339L10.628 3.33404V4.58404L13.7842 4.5839V3.3339ZM13.7842 15.4157L10.628 15.4159V16.6659L13.7842 16.6657V15.4157ZM15.0191 16.6657V15.4157L15.8338 15.4157C16.5241 15.4156 17.0837 14.856 17.0837 14.1657L17.0837 12.9286H18.3337V14.1657C18.3337 15.5463 17.2145 16.6656 15.8339 16.6657L15.0191 16.6657ZM15.0191 4.58384V3.33384L15.8336 3.3338C17.2144 3.33374 18.3338 4.45305 18.3338 5.83381L18.3338 7.12606H17.0838L17.0838 5.8338C17.0838 5.14342 16.5241 4.58377 15.8337 4.5838L15.0191 4.58384ZM6.25643 3.33424L9.39303 3.3341V4.5841L6.25643 4.58424V3.33424ZM18.3338 8.36101L18.3338 11.6937H17.0838L17.0838 8.36101H18.3338ZM2.917 7.12606L2.91701 5.83434C2.91701 5.14401 3.47662 4.58437 4.16695 4.58434L5.02148 4.5843V3.3343L4.16689 3.33434C2.78623 3.33441 1.66701 4.45367 1.66701 5.83434L1.667 7.12606H2.917ZM1.667 8.36101L1.667 11.6937H2.917L2.917 8.36101H1.667ZM1.66699 14.1662L1.66699 12.9286H2.91699L2.91699 14.1662C2.91699 14.8566 3.47667 15.4162 4.16705 15.4162L5.02148 15.4162V16.6662L4.16711 16.6662C2.78635 16.6663 1.66699 15.5469 1.66699 14.1662ZM6.25643 15.4161L9.39303 15.4159V16.6659L6.25643 16.6661V15.4161Z" fill="#333333"/>
</svg>
