<svg width="24" height="24" viewBox="0 0 24 24" fill="none" xmlns="http://www.w3.org/2000/svg">
<g id="ic_blocked">
<path id="icon" fill-rule="evenodd" clip-rule="evenodd" d="M20 12C20 16.4183 16.4183 20 12 20C7.58172 20 4 16.4183 4 12C4 7.58172 7.58172 4 12 4C16.4183 4 20 7.58172 20 12ZM18.5 12C18.5 15.5899 15.5899 18.5 12 18.5C10.4756 18.5 9.07377 17.9752 7.96529 17.0965L17.0965 7.96529C17.9752 9.07377 18.5 10.4756 18.5 12ZM6.9045 16.036L16.036 6.9045C14.9273 6.02516 13.525 5.5 12 5.5C8.41015 5.5 5.5 8.41015 5.5 12C5.5 13.525 6.02516 14.9273 6.9045 16.036Z" fill="black"/>
</g>
</svg>
