<svg width="18" height="18" viewBox="0 0 18 18" fill="none" xmlns="http://www.w3.org/2000/svg">
<path fill-rule="evenodd" clip-rule="evenodd" d="M15 5.06244L7.5 5.06244V3.93744L15 3.93744V5.06244Z" fill="white"/>
<path fill-rule="evenodd" clip-rule="evenodd" d="M15 9.56317L7.5 9.56317V8.43817L15 8.43817V9.56317Z" fill="white"/>
<path fill-rule="evenodd" clip-rule="evenodd" d="M15 14.0632L7.5 14.0632V12.9382L15 12.9382V14.0632Z" fill="white"/>
<path fill-rule="evenodd" clip-rule="evenodd" d="M4.6875 5.06244C4.99816 5.06244 5.25 4.8106 5.25 4.49994C5.25 4.18928 4.99816 3.93744 4.6875 3.93744C4.37684 3.93744 4.125 4.18928 4.125 4.49994C4.125 4.8106 4.37684 5.06244 4.6875 5.06244ZM4.6875 6.18744C5.61948 6.18744 6.375 5.43192 6.375 4.49994C6.375 3.56796 5.61948 2.81244 4.6875 2.81244C3.75552 2.81244 3 3.56796 3 4.49994C3 5.43192 3.75552 6.18744 4.6875 6.18744Z" fill="white"/>
<path fill-rule="evenodd" clip-rule="evenodd" d="M4.6875 9.56244C4.99816 9.56244 5.25 9.3106 5.25 8.99994C5.25 8.68928 4.99816 8.43744 4.6875 8.43744C4.37684 8.43744 4.125 8.68928 4.125 8.99994C4.125 9.3106 4.37684 9.56244 4.6875 9.56244ZM4.6875 10.6874C5.61948 10.6874 6.375 9.93192 6.375 8.99994C6.375 8.06796 5.61948 7.31244 4.6875 7.31244C3.75552 7.31244 3 8.06796 3 8.99994C3 9.93192 3.75552 10.6874 4.6875 10.6874Z" fill="white"/>
<path fill-rule="evenodd" clip-rule="evenodd" d="M4.6875 14.0624C4.99816 14.0624 5.25 13.8106 5.25 13.4999C5.25 13.1893 4.99816 12.9374 4.6875 12.9374C4.37684 12.9374 4.125 13.1893 4.125 13.4999C4.125 13.8106 4.37684 14.0624 4.6875 14.0624ZM4.6875 15.1874C5.61948 15.1874 6.375 14.4319 6.375 13.4999C6.375 12.568 5.61948 11.8124 4.6875 11.8124C3.75552 11.8124 3 12.568 3 13.4999C3 14.4319 3.75552 15.1874 4.6875 15.1874Z" fill="white"/>
</svg>
