<svg width="19" height="18" viewBox="0 0 19 18" fill="none" xmlns="http://www.w3.org/2000/svg">
<g id="ic_copy">
<rect width="18" height="18" transform="translate(0.667969)" fill="white"/>
<g id="icon">
<path fill-rule="evenodd" clip-rule="evenodd" d="M5.19287 3.375L14.168 3.375C14.7893 3.375 15.293 3.87868 15.293 4.5L15.293 13.5197L16.418 13.5197L16.418 4.5C16.418 3.25736 15.4106 2.25 14.168 2.25L5.19287 2.25L5.19287 3.375Z" fill="#333333"/>
<path fill-rule="evenodd" clip-rule="evenodd" d="M4.04297 14.625L4.04297 5.625L13.043 5.625L13.043 14.625L4.04297 14.625ZM2.91797 5.625C2.91797 5.00368 3.42165 4.5 4.04297 4.5L13.043 4.5C13.6643 4.5 14.168 5.00368 14.168 5.625L14.168 14.625C14.168 15.2463 13.6643 15.75 13.043 15.75L4.04297 15.75C3.42165 15.75 2.91797 15.2463 2.91797 14.625L2.91797 5.625Z" fill="#333333"/>
</g>
</g>
</svg>
