<svg width="18" height="18" viewBox="0 0 18 18" fill="none" xmlns="http://www.w3.org/2000/svg">
<g id="common/ic_disconected">
<path id="icon" d="M12.0499 9.663L12.8457 10.4587L14.3037 9C15.7677 7.53525 15.7677 5.16075 14.3037 3.69675C12.8397 2.23275 10.4652 2.232 9.00045 3.69675L6.7467 5.9505L4.6257 3.82875L3.82995 4.6245L10.4584 11.2537L8.2047 13.5075C7.17945 14.5327 5.51745 14.5327 4.4922 13.5075C3.46695 12.483 3.46695 10.821 4.4922 9.79575L5.95245 8.3355L5.1567 7.53975L3.6972 9C2.23245 10.4647 2.23245 12.8385 3.6972 14.3025C5.16195 15.7672 7.53645 15.7672 9.00045 14.3025L11.2542 12.0487L13.3759 14.1705L14.1717 13.3747L12.0507 11.253L11.2549 10.4572L7.54245 6.74475L9.7962 4.491C10.8214 3.46575 12.4834 3.46575 13.5079 4.491C14.5332 5.51625 14.5332 7.17825 13.5079 8.2035L12.0499 9.663Z" fill="#333333"/>
</g>
</svg>
