<svg width="24" height="24" viewBox="0 0 24 24" fill="none" xmlns="http://www.w3.org/2000/svg">
<g id="common/ic_delete">
<g id="icon">
<path d="M15.1422 7.94391H13.6422V17.9749H15.1422V7.94391Z" fill="#333333"/>
<path d="M20.0002 4.99591H15.8092V3.53291C15.8092 2.67691 15.1162 1.98291 14.2602 1.98291H9.72216C8.86616 1.98291 8.17216 2.67691 8.17216 3.53291V4.99591H3.99816V6.49591H20.0002V4.99591ZM9.67116 3.53291C9.67116 3.50591 9.69316 3.48291 9.72116 3.48291H14.2592C14.2862 3.48291 14.3082 3.50491 14.3082 3.53291V4.99591H9.67116V3.53291Z" fill="#333333"/>
<path d="M10.3592 7.94391H8.85916V17.9749H10.3592V7.94391Z" fill="#333333"/>
<path d="M18.5392 7.94391V18.7519C18.5392 19.7189 17.7562 20.5019 16.7892 20.5019H7.24316C6.27616 20.5019 5.49316 19.7189 5.49316 18.7519V7.94391H3.99316V18.7519C3.99316 20.5469 5.44816 22.0019 7.24316 22.0019H16.7892C18.5842 22.0019 20.0392 20.5469 20.0392 18.7519V7.94391H18.5392Z" fill="#333333"/>
</g>
</g>
</svg>
