<svg width="24" height="24" viewBox="0 0 24 24" fill="none" xmlns="http://www.w3.org/2000/svg">
<g id="arrow/ic_external">
<g id="icon">
<path d="M9.457 15.22L10.496 16.258L13.695 13.06C14.28 12.474 14.28 11.524 13.695 10.939L10.496 7.74L9.457 8.779L11.928 11.25H2V12.75H11.927L9.457 15.22Z" fill="#333333"/>
<path d="M19 3.996H5C3.343 3.996 2 5.339 2 6.996V9.75H3.5V6.997C3.5 6.169 4.171 5.497 5 5.497H19C19.828 5.497 20.5 6.168 20.5 6.997V16.995C20.5 17.823 19.828 18.495 19 18.495H5C4.171 18.495 3.5 17.823 3.5 16.995V14.25H2V16.995C2 18.652 3.343 19.995 5 19.995L19 19.994C20.657 19.994 22 18.651 22 16.994V6.996C22 5.339 20.656 3.996 19 3.996Z" fill="#333333"/>
</g>
</g>
</svg>
