<svg width="24" height="24" viewBox="0 0 24 24" fill="none" xmlns="http://www.w3.org/2000/svg">
<path d="M15.9971 18.2477L16.2516 18.0439L16.2627 18.1191L16.9743 17.3207C17.7753 16.4218 18.377 15.3403 18.7088 14.146L19.1992 14.2497C18.8526 15.5161 18.2201 16.6649 17.3749 17.6225L16.7032 18.3835L16.6407 18.3645L16.4335 18.5369C14.9602 19.763 13.0668 20.5 11 20.5C8.36083 20.5 6.00255 19.2977 4.44283 17.4091L4.84752 17.1137C6.31431 18.8765 8.52598 20 11 20C12.89 20 14.6281 19.344 15.9971 18.2477ZM16.2303 17.9L16.1556 17.6899C15.7722 16.6115 15.8572 14.7402 17.3893 12.4891L17.3975 12.4773L17.3976 12.4773C18.8537 10.4444 20.3976 9.43833 20.968 9.08294L20.7036 8.65856L20.968 9.08294C21.0893 9.00738 21.2392 8.93637 21.3793 8.89897C21.4214 8.88774 21.4574 8.88088 21.4877 8.87698L21.0209 9.16781C20.8057 9.30191 20.4429 9.53417 19.9962 9.8848C19.2858 10.4424 18.366 11.297 17.4789 12.5355L17.4787 12.5354L17.472 12.5453C16.2 14.4143 15.9475 15.9864 16.1064 17.0611L16.2303 17.9ZM21.775 9.49123L21.6538 8.90316C21.6865 8.92972 21.7269 8.98204 21.7699 9.09115C21.8222 9.2239 21.8523 9.36926 21.8885 9.544C21.8964 9.58194 21.9046 9.62127 21.9133 9.66215L22.4023 9.55778L21.9133 9.66215C22.1376 10.713 22.5916 12.8472 21.5287 15.4848C20.4235 18.2272 18.2954 18.8107 16.9877 18.4679L17.7592 18.4533C18.997 18.4299 20.5443 17.6599 21.4359 15.4474C22.2159 13.5119 22.1718 11.8567 22.002 10.688C21.9439 10.2874 21.8709 9.94401 21.814 9.67628L21.8132 9.67275C21.7993 9.60722 21.7865 9.54724 21.775 9.49123ZM3.00955 11.618L2.50869 11.6247C2.51369 11.5136 2.52085 11.4021 2.53023 11.2903C2.5396 11.1785 2.5511 11.0674 2.56467 10.957L3.05742 11.047C3.04615 11.1415 3.0365 11.2365 3.02848 11.3321C3.02046 11.4277 3.01416 11.523 3.00955 11.618ZM11.6689 4.02848C11.5733 4.02046 11.478 4.01416 11.383 4.00955L11.3763 3.50869C11.4874 3.51369 11.5989 3.52085 11.7107 3.53023C11.8225 3.5396 11.9336 3.5511 12.044 3.56467L11.954 4.05742C11.8596 4.04615 11.7645 4.0365 11.6689 4.02848ZM9.16779 9.58473L9.16782 9.58475L9.17145 9.57991C9.5409 9.08707 10.0282 8.78016 10.663 8.6713C10.1842 8.77295 9.77857 9.02816 9.46381 9.43441C9.05881 9.95372 8.87695 10.5859 8.87695 11.2946V11.7946H8.91417L8.87869 12.2192C8.81287 13.0069 8.93581 13.7103 9.28164 14.3011C9.65739 14.9449 10.23 15.3095 10.9452 15.369C10.0948 15.3272 9.50455 15.0148 9.09734 14.4679L9.09735 14.4679L9.09521 14.4651C8.69277 13.9325 8.46182 13.1495 8.46182 12.0601C8.46182 10.9902 8.71049 10.1796 9.16779 9.58473ZM12.9628 9.44706C12.5885 8.94687 12.0555 8.6875 11.425 8.63224C12.2558 8.67477 12.8366 8.9528 13.2443 9.42755C13.654 9.91363 13.8901 10.6109 13.8901 11.5759V11.7608H13.4581L13.4733 11.3114C13.4978 10.5854 13.3456 9.9466 12.9628 9.44706ZM12.9997 14.8372C12.6132 15.1319 12.1161 15.3144 11.4843 15.3616C11.9374 15.3154 12.3451 15.1673 12.6737 14.8849C12.976 14.6251 13.1754 14.2826 13.2916 13.8855H13.6795C13.5403 14.2912 13.3117 14.601 13.0012 14.8361L12.9997 14.8372ZM16.9219 6.62117L17.2711 6.26206C17.4217 6.42667 17.5658 6.59712 17.703 6.77299L17.2908 7.05753C17.173 6.90777 17.05 6.76221 16.9219 6.62117ZM14.4146 4.7629L14.5994 4.29729C14.8018 4.39189 14.9997 4.49416 15.1927 4.60372L14.9201 5.02399C14.7553 4.93123 14.5867 4.8441 14.4146 4.7629ZM8.09857 4.00891C8.30712 3.93302 8.51927 3.86512 8.73461 3.80555L8.83929 4.29543C8.65609 4.34685 8.47535 4.40468 8.29736 4.4687L8.09857 4.00891ZM5.26206 5.72986C5.42667 5.5793 5.59712 5.43522 5.77299 5.29798L6.05753 5.71023C5.90777 5.82798 5.76221 5.95101 5.62117 6.07908L5.26206 5.72986ZM3.7629 8.58641L3.29729 8.40161C3.39189 8.19919 3.49416 8.00132 3.60372 7.80831L4.02399 8.08089C3.93123 8.24574 3.8441 8.41432 3.7629 8.58641ZM3.00891 14.9024C2.93302 14.6939 2.86512 14.4817 2.80555 14.2664L3.29543 14.1617C3.34685 14.3449 3.40468 14.5257 3.4687 14.7037L3.00891 14.9024Z" fill="#333333" stroke="black"/>
</svg>
