<svg width="18" height="18" viewBox="0 0 18 18" fill="none" xmlns="http://www.w3.org/2000/svg">
<g id="common/ic_edit">
<g id="icon">
<path d="M15.163 3.0975L14.878 2.8125C13.9998 1.93425 12.5748 1.93425 11.6958 2.8125L5.36726 9.141C5.22626 9.282 5.14826 9.47175 5.14826 9.67125V12.0772C5.14826 12.492 5.48426 12.8272 5.89826 12.8272H8.30501C8.50376 12.8272 8.69501 12.7485 8.83526 12.6075L15.1638 6.279C16.042 5.40075 16.042 3.9765 15.163 3.0975ZM8.14901 11.7022H6.27251V9.8265L11.1888 4.9095L13.0653 6.78525L8.14901 11.7022ZM14.3673 5.484L13.8603 5.99025L11.9838 4.11375L12.4908 3.6075C12.9303 3.16875 13.6428 3.16875 14.0823 3.6075L14.3673 3.89325C14.8068 4.332 14.8068 5.0445 14.3673 5.484Z" fill="#333333"/>
<path d="M13.7553 13.596C13.7553 14.217 13.2513 14.721 12.6303 14.721H4.42676C3.80501 14.721 3.30176 14.217 3.30176 13.596V5.34075C3.30176 4.719 3.80501 4.21575 4.42676 4.21575H8.97401L10.099 3.09075H4.42676C3.18401 3.09075 2.17676 4.098 2.17676 5.34075V13.596C2.17676 14.8387 3.18401 15.846 4.42676 15.846H12.6303C13.8723 15.846 14.8803 14.8387 14.8803 13.596V7.869L13.7553 8.994V13.596Z" fill="#333333"/>
</g>
</g>
</svg>
