<svg width="24" height="24" viewBox="0 0 24 24" fill="none" xmlns="http://www.w3.org/2000/svg">
<path fill-rule="evenodd" clip-rule="evenodd" d="M17.694 6.75001C17.3842 7.62276 16.5499 8.25 15.5727 8.25C14.5955 8.25 13.7611 7.62276 13.4514 6.75001H3.99805V5.25001H13.4514C13.7611 4.37725 14.5955 3.75 15.5727 3.75C16.5499 3.75 17.3842 4.37725 17.694 5.25001H20.0027V6.75001H17.694ZM16.3227 6C16.3227 6.41 15.9827 6.75 15.5727 6.75C15.1627 6.75 14.8227 6.41 14.8227 6C14.8227 5.59 15.1627 5.25 15.5727 5.25C15.9827 5.25 16.3227 5.59 16.3227 6Z" fill="#333333"/>
<path fill-rule="evenodd" clip-rule="evenodd" d="M3.99805 11.25H5.95136C6.26113 10.3773 7.09548 9.75 8.07268 9.75C9.04987 9.75 9.88423 10.3772 10.194 11.25H20.0027V12.75H10.194C9.88423 13.6228 9.04987 14.25 8.07268 14.25C7.09549 14.25 6.26114 13.6228 5.95136 12.75H3.99805V11.25ZM8.07268 12.75C8.48268 12.75 8.82268 12.41 8.82268 12C8.82268 11.59 8.48268 11.25 8.07268 11.25C7.66268 11.25 7.32268 11.59 7.32268 12C7.32268 12.41 7.66268 12.75 8.07268 12.75Z" fill="#333333"/>
<path fill-rule="evenodd" clip-rule="evenodd" d="M10.9514 17.25H3.99805V18.75H10.9514C11.2611 19.6228 12.0955 20.25 13.0727 20.25C14.0499 20.25 14.8842 19.6228 15.194 18.75H20.0027V17.25H15.194C14.8842 16.3772 14.0499 15.75 13.0727 15.75C12.0955 15.75 11.2611 16.3773 10.9514 17.25ZM13.8227 18C13.8227 18.41 13.4827 18.75 13.0727 18.75C12.6627 18.75 12.3227 18.41 12.3227 18C12.3227 17.59 12.6627 17.25 13.0727 17.25C13.4827 17.25 13.8227 17.59 13.8227 18Z" fill="#333333"/>
</svg>
