<svg width="16" height="16" viewBox="0 0 16 16" fill="none" xmlns="http://www.w3.org/2000/svg">
<path d="M6.66699 10.6667C6.4829 10.6667 6.33366 10.8159 6.33366 11V11.6667C6.33366 11.8508 6.4829 12 6.66699 12L9.33366 12C9.51775 12 9.66699 11.8508 9.66699 11.6667V11C9.66699 10.8159 9.51775 10.6667 9.33366 10.6667L6.66699 10.6667Z" fill="#333333"/>
<path d="M3.66699 7.66667C3.66699 7.48257 3.81623 7.33333 4.00033 7.33333L12.0003 7.33333C12.1844 7.33334 12.3337 7.48257 12.3337 7.66667V8.33333C12.3337 8.51743 12.1844 8.66667 12.0003 8.66667L4.00032 8.66667C3.81623 8.66667 3.66699 8.51743 3.66699 8.33333L3.66699 7.66667Z" fill="#333333"/>
<path d="M1.66699 4.33333C1.66699 4.14924 1.81623 4 2.00033 4L14.0003 4C14.1844 4 14.3337 4.14924 14.3337 4.33334V5C14.3337 5.1841 14.1844 5.33334 14.0003 5.33334L2.00033 5.33333C1.81623 5.33333 1.66699 5.18409 1.66699 5L1.66699 4.33333Z" fill="#333333"/>
</svg>
