<svg width="24" height="24" viewBox="0 0 24 24" fill="none" xmlns="http://www.w3.org/2000/svg">
<g id="image/ic_fullscreen">
<path id="icon" d="M14.9342 18.9986H14.4342V19.4986V20.999V21.499H14.9342H19.5017C20.6064 21.499 21.5017 20.6033 21.5017 19.4986V14.9325V14.4325H21.0017H19.5017H19.0017V14.9325V17.2319L15.3007 13.5317L14.9472 13.1782L14.5937 13.5317L13.5327 14.5924L13.179 14.946L13.5327 15.2995L17.2326 18.9986H14.9342ZM9.56551 19.4986V18.9986H9.06551L6.77151 18.9986L10.467 15.3039L10.8206 14.9503L10.467 14.5968L9.40602 13.5361L9.05251 13.1826L8.699 13.5361L4.99805 17.2362V14.9325V14.4325H4.49805H2.99805H2.49805V14.9325V19.4986C2.49805 20.6033 3.39334 21.499 4.49805 21.499H9.06551H9.56551V20.999V19.4986ZM4.99805 9.06552V6.76613L8.69912 10.4664L9.05263 10.8198L9.40615 10.4664L10.4671 9.40569L10.8208 9.05209L10.4671 8.6985L6.76724 4.99947L9.06551 4.99947L9.56551 4.99947V4.49947V2.99902V2.49902H9.06551H4.49805C3.39334 2.49902 2.49805 3.39479 2.49805 4.49947V9.06552V9.56552H2.99805H4.49805H4.99805V9.06552ZM17.2329 4.99947L13.5326 8.69899L13.1789 9.05258L13.5326 9.40618L14.5935 10.4669L14.947 10.8203L15.3006 10.4669L19.0017 6.76656V9.06552V9.56552H19.5017H21.0017H21.5017V9.06552V4.49947C21.5017 3.39479 20.6064 2.49902 19.5017 2.49902H14.9342H14.4342V2.99902V4.49947V4.99947L14.9342 4.99947L17.2329 4.99947Z" fill="#172033" stroke="white"/>
</g>
</svg>
