<svg width="36" height="36" viewBox="0 0 36 36" fill="none" xmlns="http://www.w3.org/2000/svg">
<path d="M19.0015 18.0088C19.0015 18.5638 18.5516 19.0137 17.9966 19.0137C17.4416 19.0137 16.9917 18.5638 16.9917 18.0088C16.9917 17.4538 17.4416 17.0039 17.9966 17.0039C18.5516 17.0039 19.0015 17.4538 19.0015 18.0088Z" fill="#333333"/>
<path d="M14.0117 18.0088C14.0117 18.5638 13.5618 19.0137 13.0068 19.0137C12.4519 19.0137 12.002 18.5638 12.002 18.0088C12.002 17.4538 12.4519 17.0039 13.0068 17.0039C13.5618 17.0039 14.0117 17.4538 14.0117 18.0088Z" fill="#333333"/>
<path d="M24.005 18.0088C24.005 18.5638 23.5551 19.0137 23.0001 19.0137C22.4451 19.0137 21.9952 18.5638 21.9952 18.0088C21.9952 17.4538 22.4451 17.0039 23.0001 17.0039C23.5551 17.0039 24.005 17.4538 24.005 18.0088Z" fill="#333333"/>
</svg>
