<svg width="16" height="16" viewBox="0 0 16 16" fill="none" xmlns="http://www.w3.org/2000/svg">
<path fill-rule="evenodd" clip-rule="evenodd" d="M8.00004 13.6668C11.1297 13.6668 13.6667 11.1298 13.6667 8.00016C13.6667 4.87055 11.1297 2.3335 8.00004 2.3335C4.87043 2.3335 2.33337 4.87055 2.33337 8.00016C2.33337 11.1298 4.87043 13.6668 8.00004 13.6668ZM8.00004 14.6668C11.6819 14.6668 14.6667 11.6821 14.6667 8.00016C14.6667 4.31826 11.6819 1.3335 8.00004 1.3335C4.31814 1.3335 1.33337 4.31826 1.33337 8.00016C1.33337 11.6821 4.31814 14.6668 8.00004 14.6668Z" fill="#4B5468"/>
<path fill-rule="evenodd" clip-rule="evenodd" d="M8.00008 5.35205C7.45802 5.35205 7.0186 5.79147 7.0186 6.33353H6.0186C6.0186 5.23919 6.90574 4.35205 8.00008 4.35205C9.09442 4.35205 9.98156 5.23919 9.98156 6.33353C9.98156 6.59712 9.9349 6.88216 9.77722 7.19291C9.62397 7.49492 9.37837 7.79658 9.01759 8.1191C8.51532 8.5681 8.50008 9.12734 8.50008 9.23502V9.2965H7.50008V9.23502C7.50008 9.0297 7.5287 8.10876 8.35112 7.37356C8.65269 7.10398 8.80569 6.8976 8.88546 6.7404C8.96079 6.59195 8.98156 6.46665 8.98156 6.33353C8.98156 5.79147 8.54213 5.35205 8.00008 5.35205Z" fill="#4B5468"/>
<path fill-rule="evenodd" clip-rule="evenodd" d="M7.50004 11.1484V10.0373H8.50004V11.1484H7.50004Z" fill="#4B5468"/>
</svg>
