<svg width="18" height="18" viewBox="0 0 18 18" fill="none" xmlns="http://www.w3.org/2000/svg">
<g id="user/ic_licensemanagement">
<g id="icon">
<path fill-rule="evenodd" clip-rule="evenodd" d="M7.23755 8.56512C8.94755 8.56512 10.3351 7.17762 10.3351 5.46762C10.3351 3.75762 8.94755 2.37762 7.23755 2.37762C5.52755 2.37762 4.14755 3.76512 4.14755 5.47512C4.14755 7.18512 5.53505 8.57262 7.24505 8.57262L7.23755 8.56512ZM7.23755 3.50262C8.32505 3.50262 9.21005 4.38762 9.21005 5.47512C9.21005 6.56262 8.32505 7.44762 7.23755 7.44762C6.15005 7.44762 5.26505 6.56262 5.26505 5.47512C5.26505 4.38762 6.15005 3.50262 7.23755 3.50262ZM12.3 8.13007C10.23 8.13007 8.55005 9.81007 8.55005 11.8801C8.55005 13.9501 10.23 15.6226 12.3 15.6226C14.37 15.6226 16.0425 13.9426 16.0425 11.8801C16.0425 9.81757 14.3625 8.13007 12.3 8.13007ZM12.48 13.6501C12.03 14.1301 11.265 14.1226 10.8225 13.6351L9.51755 12.1876L10.3575 11.4376L11.6625 12.8851L14.355 10.0126L15.1725 10.7851L12.48 13.6576V13.6501ZM1.95752 15.0152V13.7177C1.95752 11.3327 3.88502 9.40521 6.27002 9.40521H8.00252L7.47002 10.5302H6.27002C4.50752 10.5302 3.08252 11.9552 3.08252 13.7177V15.0152H1.95752Z" fill="black"/>
</g>
</g>
</svg>
