<svg width="28" height="28" viewBox="0 0 28 28" fill="none" xmlns="http://www.w3.org/2000/svg">
<rect width="28" height="28" rx="14" fill="#F5F6FA"/>
<path d="M17.0499 14.6632L17.8457 15.4589L19.3037 14.0002C20.7677 12.5354 20.7677 10.1609 19.3037 8.69691C17.8397 7.23291 15.4652 7.23216 14.0004 8.69691L11.7467 10.9507L9.6257 8.82891L8.82995 9.62466L15.4584 16.2539L13.2047 18.5077C12.1794 19.5329 10.5174 19.5329 9.4922 18.5077C8.46695 17.4832 8.46695 15.8212 9.4922 14.7959L10.9524 13.3357L10.1567 12.5399L8.6972 14.0002C7.23245 15.4649 7.23245 17.8387 8.6972 19.3027C10.1619 20.7674 12.5364 20.7674 14.0004 19.3027L16.2542 17.0489L18.3759 19.1707L19.1717 18.3749L17.0507 16.2532L16.2549 15.4574L12.5424 11.7449L14.7962 9.49116C15.8214 8.46591 17.4834 8.46591 18.5079 9.49116C19.5332 10.5164 19.5332 12.1784 18.5079 13.2037L17.0499 14.6632Z" fill="#DC6803"/>
</svg>
