<svg width="17" height="17" viewBox="0 0 17 17" fill="none" xmlns="http://www.w3.org/2000/svg">
<g id="ic_lock">
<path id="Rectangle 7551 (Stroke)" fill-rule="evenodd" clip-rule="evenodd" d="M8.76579 9.16663C8.3976 9.16663 8.09912 9.4651 8.09912 9.83329V11.1666C8.09912 11.5348 8.3976 11.8333 8.76579 11.8333C9.13398 11.8333 9.43245 11.5348 9.43245 11.1666V9.83329C9.43245 9.4651 9.13398 9.16663 8.76579 9.16663Z" fill="black"/>
<path id="Union" fill-rule="evenodd" clip-rule="evenodd" d="M12.099 6.5V5.83333C12.099 3.99238 10.6066 2.5 8.76562 2.5C6.92468 2.5 5.43229 3.99238 5.43229 5.83333V6.5H4.76562C3.66106 6.5 2.76562 7.39543 2.76562 8.5V12.5C2.76562 13.6046 3.66106 14.5 4.76563 14.5H12.7656C13.8702 14.5 14.7656 13.6046 14.7656 12.5V8.5C14.7656 7.39543 13.8702 6.5 12.7656 6.5H12.099ZM11.099 6.5V5.83333C11.099 4.54467 10.0543 3.5 8.76562 3.5C7.47696 3.5 6.43229 4.54467 6.43229 5.83333V6.5H11.099ZM3.76562 8.5C3.76562 7.94772 4.21334 7.5 4.76562 7.5H12.7656C13.3179 7.5 13.7656 7.94772 13.7656 8.5V12.5C13.7656 13.0523 13.3179 13.5 12.7656 13.5H4.76563C4.21334 13.5 3.76562 13.0523 3.76562 12.5V8.5Z" fill="black"/>
</g>
</svg>
