<svg width="30" height="32" viewBox="0 0 30 32" fill="none" xmlns="http://www.w3.org/2000/svg">
<path d="M11.2723 17.0287C10.8472 16.3176 11.0891 15.4142 11.8127 15.0108L18.5957 11.229C19.3193 10.8256 20.2505 11.075 20.6756 11.786L29.1744 26.001C29.5018 26.5486 29.0282 27.2093 28.3912 27.0937L22.9709 26.1103L21.1427 31.135C20.9278 31.7255 20.0985 31.7912 19.7711 31.2436L11.2723 17.0287Z" fill="#FEE7AB"/>
<path d="M13.1905 14.2412L17.2262 11.9912L25.9986 26.6637L22.979 26.1133L21.9629 28.9137L13.1905 14.2412Z" fill="#FEE7AB"/>
<path d="M18.0846 17.0416C18.4988 16.3242 18.253 15.4068 17.5355 14.9926L11.0531 11.25C10.3357 10.8358 9.41831 11.0816 9.0041 11.799L0.820182 25.974C0.499677 26.5291 0.978208 27.2045 1.60819 27.0861L6.79433 26.1117L8.54353 31.0902C8.75602 31.695 9.58014 31.7717 9.90065 31.2166L18.0846 17.0416Z" fill="#FEE7AB"/>
<path d="M16.2389 14.2426L12.3417 11.9926L3.87056 26.6651L6.78644 26.1147L7.76767 28.9151L16.2389 14.2426Z" fill="#FEE7AB"/>
<path d="M3.00253 12C3.00253 5.37258 8.37512 0 15.0025 0C21.6299 0 27.0025 5.37258 27.0025 12C27.0025 18.6274 21.6299 24 15.0025 24C8.37512 24 3.00253 18.6274 3.00253 12Z" fill="#F7B210"/>
<path d="M15.0025 4.5L17.6476 8.35942L22.1355 9.68237L19.2823 13.3906L19.4109 18.0676L15.0025 16.5L10.5941 18.0676L10.7228 13.3906L7.86961 9.68237L12.3575 8.35942L15.0025 4.5Z" fill="#FEE7AB"/>
</svg>
