<svg width="24" height="24" viewBox="0 0 24 24" fill="none" xmlns="http://www.w3.org/2000/svg">
<path d="M3.5 13.5V5H18.5V8.563H20V4.9C20 4.13 19.37 3.5 18.6 3.5H3.4C2.63 3.5 2 4.13 2 4.9V13.5C2 15.16 3.34 16.5 5 16.5H7.8L7.57 17.72H5V19.22H9.998V17.72H9.1L9.33 16.5H9.998V15H5C4.17 15 3.5 14.33 3.5 13.5Z" fill="#333333"/>
<path d="M20.861 15.492C20.874 15.37 20.881 15.254 20.881 15.14C20.881 15.025 20.874 14.909 20.862 14.786L21.834 14.084C22.001 13.963 22.049 13.735 21.945 13.558L20.67 11.36C20.566 11.182 20.345 11.11 20.156 11.194L19.058 11.68C18.865 11.546 18.659 11.428 18.445 11.327L18.317 10.139C18.296 9.934 18.122 9.78 17.916 9.78H15.363C15.157 9.78 14.984 9.935 14.962 10.139L14.836 11.327C14.622 11.427 14.417 11.546 14.223 11.681L13.125 11.195C12.937 11.111 12.715 11.183 12.611 11.361L11.334 13.559C11.23 13.737 11.279 13.964 11.446 14.085L12.419 14.788C12.407 14.909 12.402 15.025 12.402 15.142C12.402 15.256 12.407 15.371 12.419 15.493L11.446 16.195C11.279 16.316 11.23 16.544 11.334 16.722L12.611 18.919C12.715 19.097 12.936 19.169 13.125 19.085L14.222 18.6C14.416 18.734 14.621 18.853 14.836 18.954L14.962 20.141C14.984 20.345 15.157 20.5 15.364 20.5L17.915 20.498C18.121 20.498 18.295 20.343 18.316 20.139L18.442 18.953C18.658 18.851 18.863 18.734 19.057 18.599L20.155 19.083C20.343 19.167 20.566 19.095 20.67 18.917L21.945 16.72C22.049 16.542 22.001 16.315 21.834 16.194L20.861 15.492ZM16.641 16.762C15.745 16.762 15.018 16.035 15.018 15.141C15.018 14.245 15.745 13.518 16.641 13.518C17.536 13.518 18.262 14.245 18.262 15.141C18.262 16.035 17.535 16.762 16.641 16.762Z" fill="#333333"/>
</svg>
