<svg width="20" height="20" viewBox="0 0 20 20" fill="none" xmlns="http://www.w3.org/2000/svg">
<g id="file/ic_group">
<path id="icon" fill-rule="evenodd" clip-rule="evenodd" d="M1.667 14.5813C1.66699 15.9621 2.78635 17.0814 4.1671 17.0814L15.8339 17.0808C17.2145 17.0808 18.3338 15.9615 18.3338 14.5808L18.3338 7.08548C18.3338 5.70472 17.2144 4.5854 15.8337 4.58546L10.0005 4.58571L9.51249 3.60966C9.30075 3.18618 8.86792 2.91867 8.39445 2.91867H2.91699C2.22664 2.91867 1.66699 3.47832 1.66699 4.16868L1.667 14.5813ZM2.917 14.5813C2.917 15.2717 3.47667 15.8314 4.16705 15.8313L15.8338 15.8308C16.5241 15.8308 17.0838 15.2712 17.0838 14.5808L17.0838 7.08548C17.0838 6.3951 16.5241 5.83544 15.8337 5.83547L9.22798 5.83576L8.39445 4.16868L2.91699 4.16868L2.917 14.5813Z" fill="#d6d6d6"/>
</g>
</svg>
