<svg width="20" height="20" viewBox="0 0 20 20" fill="none" xmlns="http://www.w3.org/2000/svg">
<g id="arrow/ic_open">
<g id="icon">
<path d="M15 16.2501C15.6917 16.2501 16.25 15.6918 16.25 15.0001V8.75005H17.5V15.0001C17.5 16.3835 16.3833 17.5001 15 17.5001H5C3.61667 17.5001 2.5 16.3835 2.5 15.0001V5.00002C2.5 3.61668 3.61667 2.5 5 2.5H11.25V3.75001H5C4.30833 3.75001 3.75 4.30835 3.75 5.00002V15.0001C3.75 15.6918 4.30833 16.2501 5 16.2501H15Z" fill="black"/>
<path d="M12.5 2.5H16.25C16.9417 2.5 17.5 3.05834 17.5 3.75001V7.50004H16.25V4.63335L10.8667 10.0167L9.98332 9.13339L15.3667 3.75001H12.5V2.5Z" fill="black"/>
</g>
</g>
</svg>
