<svg width="32" height="33" viewBox="0 0 32 33" fill="none" xmlns="http://www.w3.org/2000/svg">
<g id="ic_monitor_on">
<g id="icon">
<path fill-rule="evenodd" clip-rule="evenodd" d="M4.53341 4.54395H13.7683V6.54395H4.66675V19.1786C4.66675 20.2826 5.56141 21.1786 6.66675 21.1786H25.3441C26.4481 21.1786 27.3441 20.2839 27.3441 19.1786V13.3109H29.3427V19.1786C29.3427 21.3879 27.5507 23.1786 25.3427 23.1786H20.1867L20.6507 26.4999H24.0121V28.4999H7.95608V26.4999H11.3467L11.8041 23.1786H6.66675C4.45741 23.1786 2.66675 21.3879 2.66675 19.1786V6.41061C2.66675 5.37861 3.50275 4.54395 4.53341 4.54395ZM13.8227 23.1786L13.3654 26.4999H18.6307L18.1681 23.1786H13.8227Z" fill="black"/>
<path d="M29.3428 11.3106H27.5508L24.6481 6.27065H24.6107C24.6232 6.58798 24.6356 6.90531 24.6481 7.22265C24.6667 7.53998 24.6823 7.85731 24.6948 8.17465V11.3106H23.4347V4.64665H25.2174L28.1107 9.63998H28.1387C28.1263 9.33509 28.1139 9.0302 28.1014 8.72531C28.089 8.42043 28.0796 8.11243 28.0734 7.80131V4.64665H29.3428V11.3106Z" fill="#333333"/>
<path d="M22.0544 7.96928C22.0544 8.65995 21.9393 9.2635 21.709 9.77995C21.485 10.2902 21.1366 10.6884 20.6637 10.9746C20.197 11.2608 19.6028 11.4039 18.881 11.4039C18.1593 11.4039 17.5619 11.2608 17.089 10.9746C16.6224 10.6884 16.2739 10.2871 16.0437 9.77061C15.8197 9.25417 15.7077 8.65061 15.7077 7.95995C15.7077 7.26928 15.8197 6.66883 16.0437 6.15861C16.2739 5.64839 16.6224 5.25328 17.089 4.97328C17.5619 4.68706 18.1624 4.54395 18.8904 4.54395C19.6121 4.54395 20.2064 4.68706 20.673 4.97328C21.1397 5.25328 21.485 5.6515 21.709 6.16795C21.9393 6.67817 22.0544 7.27861 22.0544 7.96928ZM17.1917 7.96928C17.1917 8.66617 17.3255 9.21683 17.593 9.62128C17.8606 10.0195 18.2899 10.2186 18.881 10.2186C19.4846 10.2186 19.917 10.0195 20.1784 9.62128C20.4397 9.21683 20.5704 8.66617 20.5704 7.96928C20.5704 7.27239 20.4397 6.72483 20.1784 6.32661C19.917 5.92217 19.4877 5.71995 18.8904 5.71995C18.293 5.71995 17.8606 5.92217 17.593 6.32661C17.3255 6.72483 17.1917 7.27239 17.1917 7.96928Z" fill="#333333"/>
</g>
</g>
</svg>
