<svg width="32" height="33" viewBox="0 0 32 33" fill="none" xmlns="http://www.w3.org/2000/svg">
<g id="ic_monitor_off">
<g id="icon">
<path fill-rule="evenodd" clip-rule="evenodd" d="M4.53341 4.54395H10.7084V6.54395H4.66675V19.1786C4.66675 20.2826 5.56141 21.1786 6.66675 21.1786H25.3441C26.4481 21.1786 27.3441 20.2839 27.3441 19.1786V13.2679H29.3427V19.1786C29.3427 21.3879 27.5507 23.1786 25.3427 23.1786H20.1867L20.6507 26.4999H24.0121V28.4999H7.95608V26.4999H11.3467L11.8041 23.1786H6.66675C4.45741 23.1786 2.66675 21.3879 2.66675 19.1786V6.41061C2.66675 5.37861 3.50275 4.54395 4.53341 4.54395ZM13.8227 23.1786L13.3654 26.4999H18.6307L18.1681 23.1786H13.8227Z" fill="black"/>
<path d="M26.9173 11.3106H25.5266V4.64665H29.3439V5.80398H26.9173V7.52131H29.1759V8.67865H26.9173V11.3106Z" fill="#333333"/>
<path d="M21.7949 11.3106H20.4042V4.64665H24.2215V5.80398H21.7949V7.52131H24.0535V8.67865H21.7949V11.3106Z" fill="#333333"/>
<path d="M19.0238 7.96928C19.0238 8.65995 18.9087 9.2635 18.6785 9.77995C18.4545 10.2902 18.1061 10.6884 17.6332 10.9746C17.1665 11.2608 16.5723 11.4039 15.8505 11.4039C15.1287 11.4039 14.5314 11.2608 14.0585 10.9746C13.5918 10.6884 13.2434 10.2871 13.0132 9.77061C12.7892 9.25417 12.6772 8.65061 12.6772 7.95995C12.6772 7.26928 12.7892 6.66883 13.0132 6.15861C13.2434 5.64839 13.5918 5.25328 14.0585 4.97328C14.5314 4.68706 15.1318 4.54395 15.8598 4.54395C16.5816 4.54395 17.1758 4.68706 17.6425 4.97328C18.1092 5.25328 18.4545 5.6515 18.6785 6.16795C18.9087 6.67817 19.0238 7.27861 19.0238 7.96928ZM14.1612 7.96928C14.1612 8.66617 14.2949 9.21683 14.5625 9.62128C14.8301 10.0195 15.2594 10.2186 15.8505 10.2186C16.4541 10.2186 16.8865 10.0195 17.1478 9.62128C17.4092 9.21683 17.5398 8.66617 17.5398 7.96928C17.5398 7.27239 17.4092 6.72483 17.1478 6.32661C16.8865 5.92217 16.4572 5.71995 15.8598 5.71995C15.2625 5.71995 14.8301 5.92217 14.5625 6.32661C14.2949 6.72483 14.1612 7.27239 14.1612 7.96928Z" fill="#333333"/>
</g>
</g>
</svg>
