<svg width="32" height="33" viewBox="0 0 32 33" fill="none" xmlns="http://www.w3.org/2000/svg">
<g id="common/ic_on">
<g id="icon">
<path fill-rule="evenodd" clip-rule="evenodd" d="M14.9997 13.724V2.48633H16.9997V13.724H14.9997Z" fill="#333333"/>
<path fill-rule="evenodd" clip-rule="evenodd" d="M13.1827 4.17609C7.55477 5.45645 3.35425 10.491 3.35425 16.5066C3.35425 23.4905 9.0158 29.1521 15.9997 29.1521C22.9836 29.1521 28.6451 23.4905 28.6451 16.5066C28.6451 10.4965 24.4523 5.46572 18.8322 4.17963V6.10387C23.411 7.34767 26.7784 11.5339 26.7784 16.5066C26.7784 22.4596 21.9526 27.2854 15.9997 27.2854C10.0467 27.2854 5.22091 22.4596 5.22091 16.5066C5.22091 11.5283 8.59593 7.33821 13.1827 6.09967V4.17609Z" fill="#333333"/>
</g>
</g>
</svg>
