<svg width="25" height="24" viewBox="0 0 25 24" fill="none" xmlns="http://www.w3.org/2000/svg">
<g id="audio &#38; video/ic_pause">
<g id="icon">
<path fill-rule="evenodd" clip-rule="evenodd" d="M9.99965 17.0004L9.99907 6.99945C9.99903 6.17132 9.32768 5.5 8.49954 5.5C7.67134 5.5 6.99995 6.17142 7 6.99963L7.00058 17.0005C7.00063 17.8287 7.67197 18.5 8.50011 18.5C9.32832 18.5 9.9997 17.8286 9.99965 17.0004ZM11.4991 6.99936C11.499 5.34284 10.1561 4.00001 8.49955 4C6.84288 3.99999 5.4999 5.34304 5.5 6.99971L5.50058 17.0006C5.50067 18.6571 6.84358 20 8.5001 20C10.1568 20 11.4997 18.6569 11.4997 17.0003L11.4991 6.99936Z" fill="#333333"/>
<path fill-rule="evenodd" clip-rule="evenodd" d="M17.9994 17.0004L17.9988 6.99945C17.9988 6.17132 17.3274 5.5 16.4993 5.5C15.6711 5.5 14.9997 6.17142 14.9998 6.99962L15.0003 17.0005C15.0004 17.8287 15.6717 18.5 16.4999 18.5C17.3281 18.5 17.9995 17.8286 17.9994 17.0004ZM19.4988 6.99936C19.4987 5.34284 18.1558 4.00001 16.4993 4C14.8426 3.99999 13.4997 5.34304 13.4998 6.99971L13.5003 17.0006C13.5004 18.6571 14.8433 20 16.4999 20C18.1565 20 19.4995 18.6569 19.4994 17.0003L19.4988 6.99936Z" fill="#333333"/>
</g>
</g>
</svg>
