<svg width="21" height="20" viewBox="0 0 21 20" fill="none" xmlns="http://www.w3.org/2000/svg">
<g id="common/ic_qr_fill">
<g id="icon">
<path fill-rule="evenodd" clip-rule="evenodd" d="M6.75 4.99967C6.05964 4.99967 5.5 5.55932 5.5 6.24967V8.12467C5.5 8.81503 6.05964 9.37467 6.75 9.37467H8.625C9.31536 9.37467 9.875 8.81503 9.875 8.12467V6.24967C9.875 5.55932 9.31536 4.99967 8.625 4.99967H6.75Z" fill="#333333"/>
<path fill-rule="evenodd" clip-rule="evenodd" d="M6.75 10.6247C6.05964 10.6247 5.5 11.1843 5.5 11.8747V13.7497C5.5 14.44 6.05964 14.9997 6.75 14.9997H8.625C9.31536 14.9997 9.875 14.44 9.875 13.7497V11.8747C9.875 11.1843 9.31536 10.6247 8.625 10.6247H6.75Z" fill="#333333"/>
<path fill-rule="evenodd" clip-rule="evenodd" d="M12.375 4.99967C11.6846 4.99967 11.125 5.55932 11.125 6.24967V8.12467C11.125 8.81503 11.6846 9.37467 12.375 9.37467H14.25C14.9404 9.37467 15.5 8.81503 15.5 8.12467V6.24967C15.5 5.55932 14.9404 4.99967 14.25 4.99967H12.375Z" fill="#333333"/>
<path fill-rule="evenodd" clip-rule="evenodd" d="M5.5 3.74805H6.75V3.74967H8V2.49805H5.5C4.11929 2.49805 3 3.61734 3 4.99805V7.49805H4.25V4.99805C4.25 4.30769 4.80964 3.74805 5.5 3.74805Z" fill="#333333"/>
<path fill-rule="evenodd" clip-rule="evenodd" d="M5.5 16.2497H6.75V16.248H8V17.4997H5.5C4.11929 17.4997 3 16.3804 3 14.9997V12.4997H4.25V14.9997C4.25 15.69 4.80964 16.2497 5.5 16.2497Z" fill="#333333"/>
<path fill-rule="evenodd" clip-rule="evenodd" d="M15.5 3.74805H14.25V3.74967H13V2.49805H15.5C16.8807 2.49805 18 3.61734 18 4.99805V7.49805H16.75V4.99805C16.75 4.30769 16.1904 3.74805 15.5 3.74805Z" fill="#333333"/>
<path fill-rule="evenodd" clip-rule="evenodd" d="M15.5 16.2497H14.25V16.248H13V17.4997H15.5C16.8807 17.4997 18 16.3804 18 14.9997V12.4997H16.75V14.9997C16.75 15.69 16.1904 16.2497 15.5 16.2497Z" fill="#333333"/>
<path fill-rule="evenodd" clip-rule="evenodd" d="M13.4167 10.6247H12.375C11.6846 10.6247 11.125 11.1843 11.125 11.8747V12.9163H12.375V11.8747H13.4167V10.6247Z" fill="#333333"/>
<path fill-rule="evenodd" clip-rule="evenodd" d="M13.2083 14.9997H14.25C14.9404 14.9997 15.5 14.44 15.5 13.7497V12.708H14.25V13.7497H13.2083L13.2083 14.9997Z" fill="#333333"/>
<path d="M14.25 10.6247H15.5V11.8747H14.25V10.6247Z" fill="#333333"/>
<path d="M11.125 13.7497H12.375V14.9997H11.125V13.7497Z" fill="#333333"/>
</g>
</g>
</svg>
