<svg width="24" height="24" viewBox="0 0 24 24" fill="none" xmlns="http://www.w3.org/2000/svg">
<path d="M5.698 10.9465C5.698 10.6705 5.922 10.4465 6.198 10.4465H7.724C8 10.4465 8.224 10.6705 8.224 10.9465V12.0635C8.224 12.3395 8 12.5635 7.724 12.5635H6.198C5.922 12.5635 5.698 12.3395 5.698 12.0635V10.9465Z" fill="black"/>
<path d="M5.698 14.6325C5.698 14.3555 5.922 14.1325 6.198 14.1325H7.724C8 14.1325 8.224 14.3555 8.224 14.6325V15.7485C8.224 16.0245 8 16.2485 7.724 16.2485H6.198C5.922 16.2485 5.698 16.0245 5.698 15.7485V14.6325Z" fill="black"/>
<path d="M18.3889 3.97248H15.4509V2.46448H13.9509V3.97248H8.04794V2.46448H6.54794V3.97248H3.61094C2.83894 3.97248 2.21094 4.60048 2.21094 5.37248V16.6975C2.21094 18.3515 3.55694 19.6975 5.21094 19.6975H9.75294V18.1975H5.20994C4.38294 18.1975 3.70994 17.5245 3.70994 16.6975V8.47148H18.2879V9.97248H19.7879V5.37248C19.7879 4.60048 19.1599 3.97248 18.3889 3.97248ZM18.2879 6.97148H3.70994V5.47248H18.2879V6.97148Z" fill="black"/>
<path d="M20.39 11.9995V13.4235C19.46 12.1215 17.937 11.2725 16.214 11.2725C13.381 11.2725 11.085 13.5705 11.085 16.4045C11.085 19.2385 13.381 21.5355 16.214 21.5355C18.356 21.5355 20.191 20.2225 20.958 18.3555L19.581 17.7615C19.043 19.0945 17.737 20.0345 16.214 20.0345C14.21 20.0345 12.585 18.4095 12.585 16.4035C12.585 14.3965 14.21 12.7715 16.214 12.7715C17.562 12.7715 18.738 13.5065 19.364 14.5985H17.617V15.9995H20.489C21.208 15.9995 21.79 15.4175 21.79 14.6995V11.9995H20.39Z" fill="black"/>
</svg>
