<svg width="24" height="24" viewBox="0 0 24 24" fill="none" xmlns="http://www.w3.org/2000/svg">
<g id="common/ic_remote">
<path id="icon" d="M17.4814 9.71007L19.7739 12.0026L17.4814 14.2951L17.1278 14.6486L17.4814 15.0022L18.542 16.0629L18.8956 16.4164L19.2491 16.0629L21.8952 13.4168C22.6762 12.6357 22.6762 11.3694 21.8952 10.5884L19.2491 7.9423L18.8956 7.58875L18.542 7.9423L17.4814 9.00296L17.1278 9.35651L17.4814 9.71007ZM4.21199 12.0026L6.5045 9.71007L6.85805 9.35651L6.5045 9.00296L5.44384 7.9423L5.09029 7.58875L4.73673 7.9423L2.09067 10.5884C1.30962 11.3694 1.30962 12.6357 2.09067 13.4168L4.73673 16.0629L5.09028 16.4164L5.44384 16.0629L6.5045 15.0022L6.85805 14.6486L6.5045 14.2951L4.21199 12.0026ZM11.9928 19.7836L9.7003 17.4911L9.34674 17.1376L8.99319 17.4911L7.93253 18.5518L7.57898 18.9053L7.93253 19.2589L10.5786 21.905C11.3596 22.686 12.626 22.686 13.407 21.905L16.0531 19.2589L16.4066 18.9053L16.0531 18.5518L14.9924 17.4911L14.6389 17.1376L14.2853 17.4911L11.9928 19.7836ZM11.9928 4.22127L14.2853 6.51378L14.6389 6.86733L14.9924 6.51378L16.0531 5.45312L16.4066 5.09956L16.0531 4.74601L13.407 2.09995C12.626 1.3189 11.3596 1.3189 10.5786 2.09995L7.93253 4.74601L7.57898 5.09956L7.93253 5.45312L8.99319 6.51378L9.34674 6.86733L9.7003 6.51378L11.9928 4.22127ZM12.0203 13.5685C12.8833 13.5685 13.5829 12.8689 13.5829 12.0059C13.5829 11.143 12.8833 10.4434 12.0203 10.4434C11.1574 10.4434 10.4578 11.143 10.4578 12.0059C10.4578 12.8689 11.1574 13.5685 12.0203 13.5685Z" fill="#172033" stroke="white"/>
</g>
</svg>
