<svg width="25" height="24" viewBox="0 0 25 24" fill="none" xmlns="http://www.w3.org/2000/svg">
<g id="file/ic_report">
<g id="icon">
<path d="M20.1021 6.62819L15.8891 2.38421C15.626 2.11921 15.269 1.97021 14.895 1.97021H5.9049C5.13189 1.97021 4.50488 2.59721 4.50488 3.37021V18.9731C4.50488 20.6301 5.8479 21.9731 7.50493 21.9731H17.5071C19.1631 21.9731 20.5071 20.6301 20.5071 18.9731V7.61418C20.5081 7.24518 20.3611 6.89119 20.1021 6.62819ZM14.977 3.59421L18.9121 7.55818H15.026C14.999 7.55818 14.977 7.53718 14.977 7.50818V3.59421ZM19.0081 18.9731C19.0081 19.8021 18.3361 20.4731 17.5081 20.4731H7.50493C6.67592 20.4731 6.0049 19.8011 6.0049 18.9731V3.47021H13.476V7.50918C13.476 8.36418 14.167 9.05917 15.025 9.05917H19.0071L19.0081 18.9731Z" fill="#333333"/>
<path d="M16.5071 16.5051H8.46794V18.0051H16.5071V16.5051Z" fill="#333333"/>
<path d="M16.5071 13.4851H8.46794V14.9851H16.5071V13.4851Z" fill="#333333"/>
</g>
</g>
</svg>
