<svg width="24" height="24" viewBox="0 0 24 24" fill="none" xmlns="http://www.w3.org/2000/svg">
<g id="common/ic_settings">
<g id="icon">
<path fill-rule="evenodd" clip-rule="evenodd" d="M8.88598 2.67146C8.92617 2.28976 9.24805 2 9.63186 2H14.3663C14.7498 2 15.0715 2.28926 15.1121 2.67057L15.3481 4.88705C15.7464 5.07509 16.127 5.29567 16.4873 5.54625L18.5225 4.63956C18.8732 4.48333 19.2853 4.61716 19.4772 4.94964L21.8444 9.04957C22.0364 9.38198 21.9463 9.80565 21.6358 10.0313L19.8334 11.3411C19.8558 11.5691 19.8675 11.7862 19.8675 12.0008C19.8675 12.2132 19.8557 12.4292 19.8332 12.6572L21.6358 13.9672C21.9464 14.1929 22.0364 14.6167 21.8443 14.9491L19.4756 19.049C19.2838 19.3811 18.8723 19.5149 18.5219 19.3593L16.4851 18.4551C16.126 18.7049 15.7444 18.9252 15.344 19.1135L15.1106 21.3256C15.0704 21.7071 14.7488 21.9967 14.3653 21.997L9.63234 22C9.2484 22.0002 8.92627 21.7105 8.886 21.3287L8.65259 19.1157C8.25328 18.9273 7.87242 18.7067 7.51252 18.4566L5.4785 19.362C5.12791 19.5181 4.71607 19.3843 4.52409 19.0521L2.15535 14.9521C1.96329 14.6197 2.05328 14.1959 2.36385 13.9702L4.16799 12.6592C4.14703 12.4331 4.13675 12.2181 4.13675 12.0038C4.13675 11.7883 4.14697 11.5723 4.16789 11.3464L2.36329 10.0324C2.05314 9.80659 1.96342 9.38311 2.15535 9.05091L4.52409 4.95098C4.71611 4.61863 5.12808 4.48489 5.4787 4.64109L7.51356 5.5476C7.87458 5.29599 8.25518 5.07524 8.6526 4.88801L8.88598 2.67146ZM10.307 3.5L10.0512 5.92929L9.63128 6.09728C9.07391 6.32022 8.55022 6.62401 8.07119 7.00039L7.71565 7.27974L5.4851 6.28606L3.79174 9.217L5.77129 10.6583L5.70687 11.1056C5.65779 11.4464 5.63675 11.7306 5.63675 12.0038C5.63675 12.2736 5.65772 12.5564 5.707 12.9014L5.77088 13.3486L3.79206 14.7866L5.4852 17.7172L7.71371 16.7252L8.06899 17.0037C8.54326 17.3754 9.06773 17.68 9.63331 17.9081L10.0513 18.0767L10.3069 20.4996L13.6897 20.4974L13.9454 18.0728L14.3645 17.9046C14.9332 17.6763 15.4581 17.372 15.9262 17.0033L16.2814 16.7234L18.5141 17.7147L20.2076 14.7835L18.2283 13.3452L18.2928 12.8975C18.3444 12.5395 18.3675 12.2566 18.3675 12.0008C18.3675 11.7399 18.3443 11.4555 18.2929 11.1018L18.2279 10.6536L20.2078 9.21482L18.5159 6.28461L16.2859 7.27806L15.9305 6.99921C15.4546 6.62589 14.9302 6.32151 14.3682 6.09505L13.9504 5.92672L13.6919 3.5H10.307Z" fill="black"/>
<path fill-rule="evenodd" clip-rule="evenodd" d="M11.9998 10.0093C10.9004 10.0093 10.009 10.9006 10.009 12.0001C10.009 13.0996 10.9004 13.9909 11.9998 13.9909C13.0993 13.9909 13.9906 13.0996 13.9906 12.0001C13.9906 10.9006 13.0993 10.0093 11.9998 10.0093ZM8.50905 12.0001C8.50905 10.0722 10.0719 8.50928 11.9998 8.50928C13.9278 8.50928 15.4906 10.0722 15.4906 12.0001C15.4906 13.928 13.9278 15.4909 11.9998 15.4909C10.0719 15.4909 8.50905 13.928 8.50905 12.0001Z" fill="black"/>
</g>
</g>
</svg>
