<svg width="20" height="20" viewBox="0 0 20 20" fill="none" xmlns="http://www.w3.org/2000/svg">
<g id="ic_search">
<path id="icon" fill-rule="evenodd" clip-rule="evenodd" d="M5.00065 8.88926C5.00065 6.73672 6.74563 4.99174 8.89818 4.99174C11.0507 4.99174 12.7957 6.73672 12.7957 8.88926C12.7957 11.0418 11.0507 12.7868 8.89818 12.7868C6.74563 12.7868 5.00065 11.0418 5.00065 8.88926ZM8.89818 3.32507C5.82516 3.32507 3.33398 5.81625 3.33398 8.88926C3.33398 11.9623 5.82516 14.4535 8.89818 14.4535C10.4125 14.4535 11.7855 13.8485 12.7888 12.8671L16.3429 16.4212C16.6683 16.7466 17.1959 16.7466 17.5214 16.4212C17.8468 16.0958 17.8468 15.5681 17.5214 15.2427L13.8011 11.5224C14.223 10.7385 14.4624 9.84186 14.4624 8.88926C14.4624 5.81625 11.9712 3.32507 8.89818 3.32507Z" fill="#697387"/>
</g>
</svg>
