<svg 
 xmlns="http://www.w3.org/2000/svg"
 xmlns:xlink="http://www.w3.org/1999/xlink"
 width="24px" height="24px">
<path fill-rule="evenodd"  opacity="0" fill="rgb(0, 255, 255)"
 d="M-0.000,-0.000 L24.000,-0.000 L24.000,24.000 L-0.000,24.000 L-0.000,-0.000 Z"/>
<path fill-rule="evenodd"  fill="rgb(234, 0, 32)"
 d="M24.000,12.000 C24.000,5.373 18.627,-0.000 12.000,-0.000 C10.788,-0.000 9.619,0.180 8.516,0.514 L8.516,23.486 C9.619,23.820 10.788,24.000 12.000,24.000 C18.627,24.000 24.000,18.627 24.000,12.000 Z"/>
<path fill-rule="evenodd"  fill="rgb(42, 104, 11)"
 d="M8.516,0.619 C3.588,2.112 0.000,6.689 0.000,12.105 C0.000,17.521 3.588,22.098 8.516,23.591 L8.516,0.619 Z"/>
<path fill-rule="evenodd"  fill="rgb(0, 0, 0)"
 d="M13.144,15.909 C13.120,15.909 13.093,15.907 13.059,15.904 C12.368,15.827 10.289,14.807 7.885,13.367 C4.674,11.443 3.059,10.284 2.949,9.826 C2.938,9.777 2.943,9.735 2.964,9.698 L3.032,9.578 C3.032,9.590 3.032,9.604 3.032,9.616 L2.996,9.717 C2.978,9.745 2.973,9.777 2.982,9.820 C3.091,10.268 4.700,11.421 7.903,13.340 C10.302,14.778 12.377,15.794 13.064,15.868 C13.164,15.879 13.217,15.876 13.242,15.832 L13.287,15.752 C13.266,15.763 13.235,15.768 13.197,15.768 C12.627,15.768 10.508,14.822 7.953,13.235 C7.924,13.220 7.859,13.180 7.760,13.123 C4.630,11.279 3.042,10.109 3.036,9.644 C3.102,9.949 3.834,10.769 7.776,13.093 C7.877,13.152 7.944,13.190 7.970,13.208 C10.521,14.788 12.632,15.733 13.197,15.733 C13.258,15.733 13.302,15.720 13.319,15.701 L13.317,15.703 C13.319,15.717 13.314,15.730 13.306,15.739 L13.271,15.850 C13.242,15.902 13.190,15.909 13.144,15.909 L13.144,15.909 ZM13.710,15.104 C13.291,15.104 10.998,14.082 8.364,12.478 C5.346,10.641 3.225,9.308 3.386,8.872 L3.467,8.727 C3.470,8.729 3.472,8.734 3.472,8.736 L3.425,8.867 C3.255,9.327 5.977,10.986 8.379,12.449 C11.011,14.051 13.294,15.070 13.710,15.070 C13.744,15.070 13.757,15.064 13.762,15.059 C13.776,15.030 13.793,15.000 13.809,14.975 C13.769,14.993 13.694,14.993 13.606,14.968 C12.774,14.727 10.727,13.754 8.423,12.356 C6.191,11.003 3.862,9.533 3.510,8.915 C3.488,8.872 3.470,8.796 3.472,8.736 C3.507,8.796 3.521,8.862 3.542,8.898 C3.892,9.513 6.344,11.054 8.440,12.326 C10.743,13.724 12.786,14.697 13.615,14.933 C13.726,14.968 13.809,14.958 13.838,14.912 C13.874,14.922 13.874,14.925 13.805,15.047 C13.769,15.098 13.745,15.104 13.710,15.104 L13.710,15.104 Z"/>
<path fill-rule="evenodd"  fill="rgb(252, 255, 44)"
 d="M8.488,6.174 C11.758,6.174 14.425,8.842 14.425,12.114 C14.425,15.387 11.758,18.056 8.488,18.056 C5.220,18.056 2.551,15.387 2.551,12.114 C2.551,8.842 5.220,6.174 8.488,6.174 L8.488,6.174 ZM8.488,6.304 C11.673,6.304 14.296,8.919 14.296,12.114 C14.296,15.312 11.670,17.925 8.488,17.925 C5.305,17.925 2.682,15.312 2.682,12.114 C2.682,8.919 5.305,6.304 8.488,6.304 L8.488,6.304 Z"/>
<path fill-rule="evenodd"  fill="rgb(0, 0, 0)"
 d="M8.517,18.059 C5.234,18.059 2.563,15.387 2.563,12.101 C2.563,8.814 5.234,6.141 8.517,6.141 C11.801,6.141 14.471,8.814 14.471,12.101 C14.471,15.387 11.801,18.059 8.517,18.059 ZM8.517,6.176 C5.252,6.176 2.597,8.833 2.597,12.101 C2.597,15.368 5.252,18.024 8.517,18.024 C11.781,18.024 14.437,15.368 14.437,12.101 C14.437,8.833 11.781,6.176 8.517,6.176 ZM8.517,17.927 C5.305,17.927 2.693,15.314 2.693,12.101 C2.693,8.886 5.305,6.272 8.517,6.272 C11.728,6.272 14.340,8.886 14.340,12.101 C14.340,15.314 11.728,17.927 8.517,17.927 ZM8.517,6.307 C5.325,6.307 2.729,8.905 2.729,12.101 C2.729,15.294 5.325,17.893 8.517,17.893 C11.708,17.893 14.304,15.294 14.304,12.101 C14.304,8.905 11.708,6.307 8.517,6.307 ZM8.524,17.555 C5.516,17.555 3.067,15.105 3.067,12.096 C3.067,9.084 5.516,6.636 8.524,6.636 C11.532,6.636 13.977,9.084 13.977,12.096 C13.977,15.105 11.532,17.555 8.524,17.555 ZM8.524,6.669 C5.535,6.669 3.102,9.103 3.102,12.096 C3.102,15.088 5.535,17.520 8.524,17.520 C11.511,17.520 13.943,15.088 13.943,12.096 C13.943,9.103 11.511,6.669 8.524,6.669 ZM8.524,17.423 C5.588,17.423 3.198,15.033 3.198,12.096 C3.198,9.157 5.588,6.766 8.524,6.766 C11.460,6.766 13.846,9.157 13.846,12.096 C13.846,15.033 11.460,17.423 8.524,17.423 ZM8.524,6.799 C5.607,6.799 3.230,9.176 3.230,12.096 C3.230,15.013 5.607,17.390 8.524,17.390 C11.439,17.390 13.813,15.013 13.813,12.096 C13.813,9.176 11.439,6.799 8.524,6.799 Z"/>
<path fill-rule="evenodd"  fill="rgb(252, 255, 44)"
 d="M8.493,11.252 C5.307,11.246 2.997,11.853 2.560,12.357 L2.560,11.847 C3.306,11.161 6.051,10.715 8.488,10.727 C10.926,10.739 13.811,11.240 14.440,11.834 L14.444,12.344 C13.918,11.850 11.678,11.259 8.493,11.252 ZM8.494,8.611 C6.466,8.624 4.296,8.835 3.208,9.414 L3.592,8.772 C4.486,8.309 6.591,8.073 8.493,8.072 C10.701,8.060 12.627,8.383 13.509,8.833 L13.831,9.390 C13.064,8.976 10.987,8.547 8.494,8.611 ZM11.724,14.120 L11.470,14.572 C10.379,14.364 9.283,14.336 8.519,14.345 C4.838,14.387 3.648,15.102 3.502,15.317 L3.227,14.869 C4.165,14.189 6.169,13.808 8.539,13.846 C9.769,13.866 10.831,13.949 11.724,14.120 Z"/>
<path fill-rule="evenodd"  fill="rgb(0, 0, 0)"
 d="M12.334,11.161 C11.206,10.943 9.864,10.821 8.552,10.821 C7.152,10.823 5.774,10.948 4.635,11.168 C3.698,11.348 2.640,11.694 2.525,11.989 C2.520,11.996 2.514,12.000 2.507,12.000 C2.505,12.000 2.505,12.000 2.505,12.000 C2.496,11.999 2.489,11.993 2.489,11.983 L2.489,11.823 C2.575,11.568 3.485,11.218 4.603,10.999 C5.734,10.778 7.124,10.657 8.522,10.653 C9.881,10.653 11.231,10.775 12.366,10.996 C13.527,11.228 14.282,11.513 14.541,11.818 L14.544,11.982 C14.171,11.582 13.003,11.296 12.334,11.161 ZM14.539,11.970 L14.509,11.828 C14.256,11.542 13.513,11.263 12.358,11.030 C11.228,10.809 9.878,10.687 8.565,10.687 C7.126,10.690 5.738,10.812 4.611,11.033 C3.393,11.271 2.593,11.625 2.525,11.828 L2.525,11.920 C2.765,11.592 3.890,11.276 4.629,11.134 C5.769,10.913 7.152,10.790 8.522,10.789 C9.866,10.789 11.212,10.907 12.340,11.129 C13.014,11.264 14.193,11.552 14.539,11.970 ZM13.946,9.515 C13.946,9.515 13.940,9.513 13.938,9.511 C13.645,9.322 12.919,9.105 11.945,8.921 C11.111,8.764 9.997,8.683 8.631,8.683 L8.519,8.684 L8.390,8.683 C7.027,8.683 5.963,8.758 5.045,8.920 C4.046,9.105 3.356,9.372 3.182,9.499 L3.251,9.299 C3.708,9.063 4.285,8.887 5.015,8.756 C5.902,8.594 6.919,8.522 8.522,8.514 L8.596,8.514 C9.920,8.514 11.087,8.596 11.971,8.757 C12.889,8.928 13.739,9.178 13.864,9.318 L13.963,9.488 C13.967,9.497 13.964,9.505 13.961,9.511 C13.956,9.513 13.951,9.515 13.946,9.515 ZM13.838,9.336 C13.721,9.209 12.863,8.956 11.964,8.792 C11.083,8.632 9.918,8.547 8.596,8.547 L8.522,8.547 C6.922,8.558 5.910,8.628 5.021,8.788 C4.295,8.921 3.721,9.094 3.273,9.323 L3.190,9.494 C3.337,9.341 4.035,9.074 5.038,8.886 C5.960,8.727 7.024,8.650 8.390,8.650 L8.519,8.650 L8.631,8.650 C9.997,8.650 11.114,8.729 11.952,8.886 C12.871,9.062 13.574,9.264 13.900,9.449 L13.838,9.336 ZM13.707,9.056 C13.700,9.056 13.698,9.053 13.694,9.050 C13.448,8.777 12.512,8.532 11.784,8.403 C10.947,8.256 9.878,8.182 8.519,8.169 C7.203,8.174 6.050,8.259 5.180,8.416 C4.412,8.563 3.793,8.753 3.526,8.927 L3.625,8.717 C3.957,8.539 4.481,8.383 5.153,8.250 C6.016,8.094 7.182,8.007 8.519,8.005 L8.618,8.005 C9.889,8.005 11.007,8.085 11.848,8.236 C12.634,8.388 13.326,8.616 13.577,8.802 L13.721,9.029 C13.726,9.036 13.724,9.047 13.716,9.051 C13.713,9.054 13.710,9.056 13.707,9.056 ZM13.551,8.826 C13.308,8.648 12.622,8.420 11.842,8.270 C11.005,8.120 9.889,8.040 8.618,8.040 L8.519,8.040 C7.182,8.043 6.021,8.127 5.159,8.284 C4.493,8.414 3.968,8.572 3.648,8.740 L3.531,8.922 C3.777,8.723 4.401,8.532 5.173,8.383 C6.045,8.222 7.200,8.138 8.519,8.136 C9.881,8.146 10.951,8.222 11.791,8.369 C12.453,8.485 13.289,8.702 13.628,8.948 L13.551,8.826 ZM4.602,11.510 C5.738,11.289 7.128,11.163 8.519,11.162 C9.871,11.162 11.225,11.285 12.365,11.506 C13.527,11.739 14.282,12.023 14.539,12.326 L14.544,12.493 C14.170,12.092 13.000,11.806 12.331,11.672 C11.208,11.452 9.871,11.332 8.565,11.332 C7.144,11.336 5.762,11.458 4.629,11.678 C3.706,11.862 2.652,12.198 2.523,12.500 C2.520,12.506 2.514,12.511 2.505,12.511 C2.505,12.511 2.505,12.511 2.504,12.509 C2.496,12.509 2.489,12.500 2.489,12.493 L2.489,12.333 C2.573,12.080 3.461,11.738 4.602,11.510 ZM2.525,12.431 C2.774,12.092 3.940,11.780 4.621,11.643 C5.759,11.423 7.141,11.300 8.519,11.297 C9.871,11.297 11.212,11.417 12.340,11.637 C13.011,11.771 14.189,12.061 14.539,12.481 L14.509,12.339 C14.256,12.050 13.513,11.770 12.358,11.539 C11.220,11.319 9.869,11.197 8.549,11.197 C7.131,11.199 5.741,11.324 4.608,11.545 C3.343,11.798 2.591,12.141 2.525,12.339 L2.525,12.431 ZM4.392,14.236 C5.522,13.907 6.842,13.754 8.542,13.748 C9.586,13.769 10.698,13.820 11.770,14.032 L11.708,14.183 C10.668,13.989 9.695,13.935 8.552,13.917 C6.861,13.920 5.553,14.071 4.432,14.398 C3.883,14.561 3.284,14.811 3.261,14.987 C3.261,14.994 3.255,15.000 3.248,15.003 L3.246,15.003 C3.237,15.003 3.233,14.998 3.230,14.994 L3.161,14.872 C3.179,14.609 4.108,14.319 4.392,14.236 ZM3.192,14.863 L3.240,14.945 C3.358,14.685 4.309,14.399 4.420,14.368 C5.546,14.040 6.857,13.888 8.552,13.884 C9.697,13.904 10.673,13.956 11.697,14.160 L11.752,14.040 C10.693,13.850 9.586,13.803 8.542,13.782 C6.845,13.786 5.529,13.941 4.401,14.269 C3.679,14.478 3.205,14.714 3.192,14.863 ZM4.536,14.733 C5.845,14.357 7.067,14.275 8.497,14.264 C9.469,14.279 10.506,14.318 11.500,14.503 L11.442,14.652 C10.607,14.509 9.695,14.436 8.633,14.436 L8.501,14.437 L8.346,14.436 C6.906,14.436 5.638,14.590 4.575,14.896 C4.172,15.009 3.581,15.249 3.521,15.434 C3.518,15.440 3.513,15.444 3.507,15.444 L3.504,15.444 C3.500,15.444 3.494,15.442 3.491,15.438 L3.421,15.320 C3.441,15.177 3.841,14.930 4.536,14.733 ZM3.452,15.315 L3.502,15.394 C3.625,15.169 4.304,14.937 4.567,14.863 C5.632,14.560 6.902,14.403 8.346,14.403 L8.501,14.404 L8.633,14.403 C9.695,14.403 10.611,14.478 11.430,14.629 L11.482,14.512 C10.502,14.351 9.466,14.314 8.497,14.300 C7.070,14.308 5.852,14.391 4.545,14.766 C3.830,14.968 3.470,15.212 3.452,15.315 Z"/>
<path fill-rule="evenodd"  opacity="0.302" fill="rgb(252, 255, 44)"
 d="M3.541,8.765 C5.365,8.740 13.787,13.916 13.813,14.869 L13.291,15.671 C13.054,14.563 4.508,9.528 3.097,9.622 L3.541,8.765 L3.541,8.765 Z"/>
<path fill-rule="evenodd"  fill="rgb(0, 0, 0)"
 d="M13.232,15.885 L13.215,15.862 C13.210,15.862 13.208,15.861 13.210,15.859 C13.210,15.859 13.247,15.821 13.202,15.704 C13.088,15.331 11.228,13.877 8.418,12.178 C6.011,10.744 3.790,9.701 3.133,9.701 C3.057,9.701 3.006,9.717 2.984,9.745 L2.986,9.737 C2.988,9.729 2.988,9.721 2.993,9.713 L3.029,9.583 C3.070,9.555 3.119,9.545 3.185,9.545 C3.847,9.545 6.176,10.634 8.481,12.028 C10.820,13.445 13.245,15.144 13.355,15.643 C13.363,15.681 13.360,15.715 13.343,15.739 L13.269,15.856 C13.265,15.859 13.256,15.862 13.247,15.867 C13.240,15.878 13.234,15.885 13.234,15.885 L13.232,15.885 ZM3.133,9.668 C3.795,9.668 6.024,10.711 8.436,12.151 C11.291,13.876 13.115,15.304 13.234,15.693 C13.253,15.744 13.258,15.782 13.258,15.810 L13.313,15.720 C13.326,15.703 13.328,15.681 13.321,15.651 C13.215,15.165 10.740,13.435 8.467,12.056 C6.165,10.669 3.843,9.578 3.185,9.578 C3.124,9.578 3.083,9.587 3.054,9.604 L3.011,9.693 C3.034,9.674 3.078,9.668 3.133,9.668 L3.133,9.668 ZM13.777,15.074 C13.777,15.074 13.774,15.074 13.769,15.071 L13.769,15.070 L13.763,15.049 C13.766,15.049 13.766,15.047 13.766,15.047 L13.755,15.064 L13.766,15.047 C13.769,15.037 13.769,15.025 13.769,14.994 C13.782,14.300 9.955,11.853 8.871,11.221 C6.222,9.701 4.323,8.825 3.661,8.816 C3.594,8.817 3.496,8.817 3.436,8.869 C3.434,8.869 3.431,8.869 3.431,8.869 C3.497,8.784 3.594,8.784 3.650,8.781 C4.330,8.792 6.233,9.669 8.888,11.191 C9.656,11.637 13.821,14.235 13.803,14.975 C13.803,14.980 13.803,14.985 13.803,14.987 L13.848,14.918 C14.047,14.530 11.873,12.845 8.901,11.085 C5.756,9.304 3.844,8.478 3.500,8.738 L3.428,8.872 C3.413,8.875 3.383,8.887 3.383,8.881 L3.474,8.717 C3.526,8.674 3.598,8.658 3.696,8.658 C4.516,8.658 6.989,9.960 8.919,11.055 C11.503,12.586 14.116,14.464 13.879,14.933 L13.793,15.066 C13.789,15.071 13.785,15.074 13.777,15.074 L13.777,15.074 Z"/>
<path fill-rule="evenodd"  fill="rgb(252, 255, 44)"
 d="M8.269,18.084 L8.788,18.084 L8.788,6.130 L8.269,6.130 L8.269,18.084 Z"/>
<path fill-rule="evenodd"  fill="rgb(0, 0, 0)"
 d="M8.833,18.159 L8.705,18.159 L8.687,6.066 L8.833,6.050 L8.851,18.143 C8.851,18.145 8.849,18.149 8.844,18.154 C8.841,18.157 8.838,18.159 8.833,18.159 L8.833,18.159 ZM8.815,6.066 L8.705,6.084 L8.722,18.143 L8.815,18.127 L8.815,6.066 L8.815,6.066 ZM8.330,18.159 L8.196,18.159 L8.182,6.066 L8.328,6.050 L8.348,18.143 C8.348,18.145 8.343,18.149 8.341,18.154 C8.336,18.157 8.334,18.159 8.330,18.159 L8.330,18.159 ZM8.311,6.066 L8.196,6.084 L8.214,18.143 L8.311,18.127 L8.311,6.066 L8.311,6.066 Z"/>
<path fill-rule="evenodd"  fill="rgb(255, 255, 255)"
 d="M4.948,12.600 C4.948,13.574 5.348,14.458 5.997,15.102 C6.643,15.751 7.525,16.158 8.503,16.158 C9.484,16.158 10.376,15.759 11.023,15.114 C11.668,14.472 12.068,13.581 12.068,12.602 L12.068,12.602 L12.068,7.849 L4.948,7.842 L4.948,12.600 L4.948,12.600 Z"/>
<path fill-rule="evenodd"  fill="rgb(234, 0, 32)"
 d="M5.085,12.606 L5.085,12.609 C5.085,13.542 5.469,14.392 6.088,15.010 C6.708,15.626 7.565,16.012 8.500,16.012 C9.439,16.012 10.292,15.630 10.909,15.013 C11.528,14.399 11.912,13.549 11.912,12.612 L11.912,12.612 L11.912,8.001 L5.086,8.001 L5.085,12.606 L5.085,12.606 ZM10.539,9.382 L10.539,12.315 L10.537,12.624 L10.537,12.624 C10.537,12.705 10.533,12.799 10.522,12.877 C10.468,13.342 10.254,13.748 9.938,14.060 C9.569,14.429 9.059,14.657 8.499,14.657 C7.939,14.657 7.440,14.422 7.068,14.051 C6.689,13.672 6.467,13.152 6.467,12.614 L6.467,9.372 L10.539,9.382 L10.539,9.382 Z"/>
<path fill-rule="evenodd"  fill="rgb(252, 255, 44)"
 d="M10.772,9.269 C10.752,9.269 10.733,9.247 10.733,9.223 C10.733,9.197 10.752,9.175 10.772,9.175 L11.789,9.175 C11.810,9.175 11.828,9.197 11.828,9.223 C11.828,9.247 11.810,9.269 11.789,9.269 L10.772,9.269 ZM11.748,8.718 C11.768,8.718 11.784,8.738 11.784,8.762 C11.784,8.785 11.768,8.804 11.748,8.804 L11.735,8.804 L11.777,9.174 L11.424,9.174 C11.422,8.979 11.280,8.923 11.280,8.923 C11.280,8.920 11.148,8.979 11.145,9.174 L10.791,9.174 L10.831,8.804 L10.815,8.804 C10.796,8.804 10.780,8.785 10.780,8.762 C10.780,8.738 10.796,8.718 10.815,8.718 L10.796,8.718 C10.776,8.718 10.758,8.700 10.758,8.675 C10.758,8.653 10.776,8.634 10.796,8.634 L10.834,8.634 L10.841,8.426 L10.829,8.426 C10.812,8.426 10.796,8.414 10.796,8.395 L10.796,8.275 L10.867,8.275 L10.867,8.326 L10.923,8.326 L10.923,8.271 L10.996,8.271 L10.996,8.326 L11.052,8.326 L11.052,8.271 L11.126,8.271 L11.126,8.395 C11.126,8.414 11.111,8.426 11.092,8.426 L11.077,8.426 L11.087,8.634 L11.154,8.634 L11.169,8.237 L11.149,8.237 C11.131,8.237 11.117,8.220 11.117,8.203 L11.117,8.083 L11.189,8.083 L11.189,8.137 L11.241,8.137 L11.241,8.083 L11.318,8.083 L11.318,8.137 L11.371,8.137 L11.371,8.083 L11.447,8.083 L11.447,8.204 C11.447,8.221 11.431,8.237 11.414,8.237 L11.394,8.237 L11.410,8.634 L11.474,8.634 L11.480,8.427 L11.471,8.427 C11.452,8.427 11.436,8.412 11.436,8.396 L11.436,8.275 L11.511,8.275 L11.511,8.326 L11.561,8.326 L11.561,8.271 L11.637,8.271 L11.637,8.326 L11.693,8.326 L11.693,8.271 L11.767,8.271 L11.767,8.396 C11.767,8.415 11.751,8.427 11.736,8.427 L11.720,8.427 L11.727,8.634 L11.771,8.634 C11.790,8.634 11.806,8.653 11.806,8.675 C11.806,8.700 11.790,8.718 11.771,8.718 L11.748,8.718 ZM10.599,14.043 L10.592,14.036 L10.450,14.187 L10.495,14.232 L10.787,13.962 L10.774,13.948 C10.762,13.937 10.761,13.914 10.773,13.902 L10.858,13.816 L10.913,13.871 L10.874,13.909 L10.912,13.946 L10.950,13.908 L11.004,13.962 L10.966,14.000 L11.003,14.037 L11.041,13.999 L11.092,14.050 L11.007,14.135 C10.995,14.147 10.973,14.148 10.961,14.136 L10.947,14.122 L10.676,14.413 L10.724,14.461 L10.878,14.320 L10.868,14.310 C10.854,14.296 10.852,14.277 10.865,14.264 L10.953,14.177 L11.005,14.229 L10.967,14.268 L11.006,14.307 L11.045,14.269 L11.096,14.320 L11.058,14.359 L11.097,14.399 L11.133,14.362 L11.183,14.412 L11.098,14.497 C11.085,14.510 11.065,14.508 11.053,14.496 L11.045,14.487 L10.902,14.639 L10.929,14.666 C10.944,14.681 10.943,14.707 10.928,14.722 C10.910,14.740 10.885,14.740 10.870,14.726 L10.857,14.712 C10.870,14.726 10.867,14.751 10.850,14.768 C10.834,14.784 10.809,14.787 10.796,14.773 L10.785,14.762 L10.551,15.052 L10.301,14.802 C10.437,14.661 10.385,14.527 10.383,14.528 C10.383,14.528 10.243,14.468 10.103,14.604 L9.854,14.355 L10.145,14.123 L10.136,14.114 C10.122,14.099 10.124,14.075 10.140,14.058 C10.157,14.042 10.183,14.038 10.197,14.053 L10.181,14.037 C10.168,14.023 10.168,13.998 10.186,13.981 C10.201,13.965 10.227,13.964 10.240,13.977 L10.271,14.008 L10.422,13.866 L10.411,13.855 C10.401,13.845 10.398,13.825 10.411,13.812 L10.500,13.723 L10.551,13.775 L10.512,13.814 L10.552,13.854 L10.591,13.815 L10.645,13.869 L10.606,13.908 L10.641,13.943 L10.678,13.907 L10.731,13.960 L10.645,14.045 C10.634,14.057 10.612,14.056 10.599,14.043 ZM10.558,15.127 C10.541,15.144 10.512,15.146 10.497,15.132 L9.779,14.413 C9.763,14.398 9.766,14.370 9.783,14.353 C9.802,14.334 9.830,14.332 9.845,14.347 L10.563,15.066 C10.578,15.080 10.576,15.109 10.558,15.127 ZM8.012,9.269 C7.991,9.269 7.972,9.247 7.972,9.223 C7.972,9.197 7.991,9.175 8.012,9.175 L9.028,9.175 C9.050,9.175 9.068,9.197 9.068,9.223 C9.068,9.247 9.050,9.269 9.028,9.269 L8.012,9.269 ZM8.987,8.718 C9.007,8.718 9.023,8.738 9.023,8.762 C9.023,8.785 9.007,8.804 8.987,8.804 L8.974,8.804 L9.016,9.174 L8.664,9.174 C8.661,8.979 8.519,8.923 8.519,8.923 C8.519,8.920 8.387,8.979 8.384,9.174 L8.031,9.174 L8.070,8.804 L8.054,8.804 C8.035,8.804 8.020,8.785 8.020,8.762 C8.020,8.738 8.035,8.718 8.054,8.718 L8.035,8.718 C8.015,8.718 7.997,8.700 7.997,8.675 C7.997,8.653 8.015,8.634 8.035,8.634 L8.073,8.634 L8.081,8.426 L8.068,8.426 C8.051,8.426 8.036,8.414 8.036,8.395 L8.036,8.275 L8.106,8.275 L8.106,8.326 L8.162,8.326 L8.162,8.271 L8.235,8.271 L8.235,8.326 L8.291,8.326 L8.291,8.271 L8.365,8.271 L8.365,8.395 C8.365,8.414 8.350,8.426 8.331,8.426 L8.316,8.426 L8.326,8.634 L8.393,8.634 L8.408,8.237 L8.388,8.237 C8.371,8.237 8.356,8.220 8.356,8.203 L8.356,8.083 L8.428,8.083 L8.428,8.137 L8.481,8.137 L8.481,8.083 L8.557,8.083 L8.557,8.137 L8.610,8.137 L8.610,8.083 L8.687,8.083 L8.687,8.204 C8.687,8.221 8.670,8.237 8.653,8.237 L8.634,8.237 L8.649,8.634 L8.714,8.634 L8.720,8.427 L8.710,8.427 C8.691,8.427 8.676,8.412 8.676,8.396 L8.676,8.275 L8.750,8.275 L8.750,8.326 L8.800,8.326 L8.800,8.271 L8.876,8.271 L8.876,8.326 L8.933,8.326 L8.933,8.271 L9.006,8.271 L9.006,8.396 C9.006,8.415 8.990,8.427 8.975,8.427 L8.960,8.427 L8.967,8.634 L9.010,8.634 C9.029,8.634 9.046,8.653 9.046,8.675 C9.046,8.700 9.029,8.718 9.010,8.718 L8.987,8.718 ZM6.414,15.127 C6.396,15.109 6.394,15.080 6.408,15.066 L7.127,14.347 C7.142,14.332 7.170,14.334 7.189,14.353 C7.206,14.370 7.208,14.398 7.193,14.413 L6.474,15.132 C6.460,15.146 6.431,15.144 6.414,15.127 ZM6.869,14.604 C6.728,14.468 6.589,14.528 6.589,14.528 C6.587,14.527 6.535,14.661 6.671,14.802 L6.421,15.052 L6.187,14.762 L6.176,14.773 C6.163,14.787 6.138,14.784 6.122,14.768 C6.105,14.751 6.102,14.726 6.115,14.712 L6.102,14.726 C6.087,14.740 6.062,14.740 6.044,14.722 C6.029,14.707 6.028,14.681 6.042,14.666 L6.069,14.639 L5.927,14.487 L5.919,14.496 C5.907,14.508 5.887,14.510 5.874,14.497 L5.789,14.412 L5.839,14.362 L5.875,14.399 L5.914,14.359 L5.875,14.320 L5.927,14.269 L5.966,14.307 L6.005,14.268 L5.967,14.229 L6.019,14.177 L6.107,14.264 C6.120,14.277 6.118,14.296 6.104,14.310 L6.094,14.320 L6.248,14.461 L6.296,14.413 L6.025,14.122 L6.011,14.136 C5.998,14.148 5.976,14.147 5.965,14.135 L5.880,14.050 L5.931,13.999 L5.969,14.037 L6.006,14.000 L5.968,13.962 L6.022,13.908 L6.060,13.946 L6.098,13.909 L6.059,13.871 L6.114,13.816 L6.199,13.902 C6.211,13.914 6.210,13.937 6.198,13.948 L6.184,13.962 L6.477,14.232 L6.522,14.187 L6.380,14.036 L6.373,14.043 C6.360,14.056 6.338,14.057 6.327,14.045 L6.241,13.960 L6.294,13.907 L6.330,13.943 L6.366,13.908 L6.327,13.869 L6.381,13.815 L6.420,13.854 L6.459,13.814 L6.420,13.775 L6.472,13.723 L6.561,13.812 C6.574,13.825 6.571,13.845 6.561,13.855 L6.549,13.866 L6.701,14.008 L6.732,13.977 C6.745,13.964 6.771,13.965 6.786,13.981 C6.803,13.998 6.804,14.023 6.791,14.037 L6.775,14.053 C6.789,14.038 6.815,14.042 6.831,14.058 C6.848,14.075 6.850,14.099 6.836,14.114 L6.827,14.123 L7.118,14.355 L6.869,14.604 ZM5.279,12.055 C5.259,12.055 5.240,12.033 5.240,12.010 C5.240,11.983 5.259,11.962 5.279,11.962 L6.296,11.962 C6.317,11.962 6.335,11.983 6.335,12.010 C6.335,12.033 6.317,12.055 6.296,12.055 L5.279,12.055 ZM5.264,11.461 C5.264,11.440 5.282,11.420 5.303,11.420 L5.341,11.420 L5.348,11.212 L5.336,11.212 C5.319,11.212 5.303,11.200 5.303,11.182 L5.303,11.061 L5.373,11.061 L5.373,11.113 L5.429,11.113 L5.429,11.058 L5.502,11.058 L5.502,11.113 L5.558,11.113 L5.558,11.058 L5.632,11.058 L5.632,11.182 C5.632,11.200 5.618,11.212 5.598,11.212 L5.584,11.212 L5.593,11.420 L5.661,11.420 L5.675,11.023 L5.656,11.023 C5.638,11.023 5.624,11.006 5.624,10.990 L5.624,10.870 L5.695,10.870 L5.695,10.924 L5.748,10.924 L5.748,10.870 L5.825,10.870 L5.825,10.924 L5.877,10.924 L5.877,10.870 L5.954,10.870 L5.954,10.991 C5.954,11.007 5.937,11.023 5.921,11.023 L5.901,11.023 L5.917,11.420 L5.981,11.420 L5.987,11.213 L5.977,11.213 C5.959,11.213 5.943,11.198 5.943,11.183 L5.943,11.062 L6.018,11.062 L6.018,11.113 L6.068,11.113 L6.068,11.058 L6.144,11.058 L6.144,11.113 L6.200,11.113 L6.200,11.058 L6.273,11.058 L6.273,11.183 C6.273,11.201 6.258,11.213 6.243,11.213 L6.227,11.213 L6.234,11.420 L6.277,11.420 C6.296,11.420 6.313,11.440 6.313,11.461 C6.313,11.486 6.296,11.504 6.277,11.504 L6.255,11.504 C6.275,11.504 6.290,11.525 6.290,11.549 C6.290,11.571 6.275,11.591 6.255,11.591 L6.242,11.591 L6.283,11.961 L5.931,11.961 C5.928,11.765 5.786,11.709 5.786,11.709 C5.786,11.707 5.654,11.765 5.651,11.961 L5.298,11.961 L5.337,11.591 L5.322,11.591 C5.303,11.591 5.287,11.571 5.287,11.549 C5.287,11.525 5.303,11.504 5.322,11.504 L5.303,11.504 C5.282,11.504 5.264,11.486 5.264,11.461 ZM5.279,9.269 C5.259,9.269 5.240,9.247 5.240,9.223 C5.240,9.197 5.259,9.175 5.279,9.175 L6.296,9.175 C6.317,9.175 6.335,9.197 6.335,9.223 C6.335,9.247 6.317,9.269 6.296,9.269 L5.279,9.269 ZM6.255,8.718 C6.275,8.718 6.290,8.738 6.290,8.762 C6.290,8.785 6.275,8.804 6.255,8.804 L6.242,8.804 L6.283,9.174 L5.931,9.174 C5.928,8.979 5.786,8.923 5.786,8.923 C5.786,8.920 5.654,8.979 5.651,9.174 L5.298,9.174 L5.337,8.804 L5.322,8.804 C5.303,8.804 5.287,8.785 5.287,8.762 C5.287,8.738 5.303,8.718 5.322,8.718 L5.303,8.718 C5.282,8.718 5.264,8.700 5.264,8.675 C5.264,8.653 5.282,8.634 5.303,8.634 L5.341,8.634 L5.348,8.426 L5.336,8.426 C5.319,8.426 5.303,8.414 5.303,8.395 L5.303,8.275 L5.373,8.275 L5.373,8.326 L5.429,8.326 L5.429,8.271 L5.502,8.271 L5.502,8.326 L5.558,8.326 L5.558,8.271 L5.632,8.271 L5.632,8.395 C5.632,8.414 5.618,8.426 5.598,8.426 L5.584,8.426 L5.593,8.634 L5.661,8.634 L5.675,8.237 L5.656,8.237 C5.638,8.237 5.624,8.220 5.624,8.203 L5.624,8.083 L5.695,8.083 L5.695,8.137 L5.748,8.137 L5.748,8.083 L5.825,8.083 L5.825,8.137 L5.877,8.137 L5.877,8.083 L5.954,8.083 L5.954,8.204 C5.954,8.221 5.937,8.237 5.921,8.237 L5.901,8.237 L5.917,8.634 L5.981,8.634 L5.987,8.427 L5.977,8.427 C5.959,8.427 5.943,8.412 5.943,8.396 L5.943,8.275 L6.018,8.275 L6.018,8.326 L6.068,8.326 L6.068,8.271 L6.144,8.271 L6.144,8.326 L6.200,8.326 L6.200,8.271 L6.273,8.271 L6.273,8.396 C6.273,8.415 6.258,8.427 6.243,8.427 L6.227,8.427 L6.234,8.634 L6.277,8.634 C6.296,8.634 6.313,8.653 6.313,8.675 C6.313,8.700 6.296,8.718 6.277,8.718 L6.255,8.718 ZM11.771,11.420 C11.790,11.420 11.806,11.440 11.806,11.461 C11.806,11.486 11.790,11.504 11.771,11.504 L11.748,11.504 C11.768,11.504 11.784,11.525 11.784,11.549 C11.784,11.571 11.768,11.591 11.748,11.591 L11.735,11.591 L11.777,11.961 L11.424,11.961 C11.422,11.765 11.280,11.709 11.280,11.709 C11.280,11.707 11.148,11.765 11.145,11.961 L10.791,11.961 L10.831,11.591 L10.815,11.591 C10.796,11.591 10.780,11.571 10.780,11.549 C10.780,11.525 10.796,11.504 10.815,11.504 L10.796,11.504 C10.776,11.504 10.758,11.486 10.758,11.461 C10.758,11.440 10.776,11.420 10.796,11.420 L10.834,11.420 L10.841,11.212 L10.829,11.212 C10.812,11.212 10.796,11.200 10.796,11.182 L10.796,11.061 L10.867,11.061 L10.867,11.113 L10.923,11.113 L10.923,11.058 L10.996,11.058 L10.996,11.113 L11.052,11.113 L11.052,11.058 L11.126,11.058 L11.126,11.182 C11.126,11.200 11.111,11.212 11.092,11.212 L11.077,11.212 L11.087,11.420 L11.154,11.420 L11.169,11.023 L11.149,11.023 C11.131,11.023 11.117,11.006 11.117,10.990 L11.117,10.870 L11.189,10.870 L11.189,10.924 L11.241,10.924 L11.241,10.870 L11.318,10.870 L11.318,10.924 L11.371,10.924 L11.371,10.870 L11.447,10.870 L11.447,10.991 C11.447,11.007 11.431,11.023 11.414,11.023 L11.394,11.023 L11.410,11.420 L11.474,11.420 L11.480,11.213 L11.471,11.213 C11.452,11.213 11.436,11.198 11.436,11.183 L11.436,11.062 L11.511,11.062 L11.511,11.113 L11.561,11.113 L11.561,11.058 L11.637,11.058 L11.637,11.113 L11.693,11.113 L11.693,11.058 L11.767,11.058 L11.767,11.183 C11.767,11.201 11.751,11.213 11.736,11.213 L11.720,11.213 L11.727,11.420 L11.771,11.420 ZM10.733,12.010 C10.733,11.983 10.752,11.962 10.772,11.962 L11.789,11.962 C11.810,11.962 11.828,11.983 11.828,12.010 C11.828,12.033 11.810,12.055 11.789,12.055 L10.772,12.055 C10.752,12.055 10.733,12.033 10.733,12.010 Z"/>
<path fill-rule="evenodd"  fill="rgb(26, 0, 149)"
 d="M10.167,12.351 C10.085,12.440 9.974,12.493 9.848,12.493 C9.725,12.493 9.611,12.440 9.532,12.351 C9.448,12.264 9.399,12.141 9.399,12.009 L9.399,11.362 L10.297,11.365 L10.297,12.010 C10.297,12.144 10.249,12.264 10.167,12.351 ZM9.615,11.520 C9.566,11.520 9.525,11.561 9.525,11.608 C9.525,11.659 9.566,11.699 9.615,11.699 C9.663,11.699 9.706,11.659 9.706,11.608 C9.706,11.561 9.663,11.520 9.615,11.520 ZM9.615,12.010 C9.568,12.010 9.527,12.051 9.527,12.100 C9.527,12.148 9.568,12.190 9.615,12.190 C9.665,12.190 9.706,12.148 9.706,12.100 C9.706,12.051 9.665,12.010 9.615,12.010 ZM9.853,11.761 C9.803,11.761 9.765,11.799 9.765,11.850 C9.765,11.898 9.803,11.937 9.853,11.937 C9.902,11.937 9.940,11.898 9.940,11.850 C9.940,11.799 9.902,11.761 9.853,11.761 ZM10.103,12.187 C10.151,12.187 10.191,12.148 10.191,12.100 C10.191,12.050 10.151,12.010 10.103,12.010 C10.055,12.010 10.013,12.050 10.013,12.100 C10.013,12.148 10.055,12.187 10.103,12.187 ZM10.103,11.522 C10.055,11.522 10.016,11.561 10.016,11.609 C10.016,11.659 10.055,11.699 10.103,11.699 C10.151,11.699 10.193,11.659 10.193,11.609 C10.193,11.561 10.151,11.522 10.103,11.522 ZM8.515,14.173 C8.391,14.173 8.278,14.120 8.199,14.031 C8.115,13.944 8.066,13.821 8.066,13.689 L8.066,13.042 L8.963,13.045 L8.963,13.690 C8.963,13.824 8.916,13.944 8.833,14.031 C8.752,14.120 8.640,14.173 8.515,14.173 ZM8.281,13.200 C8.232,13.200 8.191,13.241 8.191,13.288 C8.191,13.339 8.232,13.379 8.281,13.379 C8.329,13.379 8.372,13.339 8.372,13.288 C8.372,13.241 8.329,13.200 8.281,13.200 ZM8.281,13.690 C8.234,13.690 8.194,13.731 8.194,13.780 C8.194,13.828 8.234,13.870 8.281,13.870 C8.331,13.870 8.372,13.828 8.372,13.780 C8.372,13.731 8.331,13.690 8.281,13.690 ZM8.519,13.441 C8.469,13.441 8.431,13.479 8.431,13.530 C8.431,13.578 8.469,13.617 8.519,13.617 C8.569,13.617 8.607,13.578 8.607,13.530 C8.607,13.479 8.569,13.441 8.519,13.441 ZM8.770,13.202 C8.722,13.202 8.682,13.241 8.682,13.289 C8.682,13.339 8.722,13.379 8.770,13.379 C8.818,13.379 8.859,13.339 8.859,13.289 C8.859,13.241 8.818,13.202 8.770,13.202 ZM8.770,13.690 C8.722,13.690 8.680,13.730 8.680,13.780 C8.680,13.828 8.722,13.867 8.770,13.867 C8.818,13.867 8.857,13.828 8.857,13.780 C8.857,13.730 8.818,13.690 8.770,13.690 ZM8.515,12.493 C8.391,12.493 8.278,12.440 8.199,12.351 C8.115,12.264 8.066,12.141 8.066,12.009 L8.066,11.362 L8.963,11.365 L8.963,12.010 C8.963,12.144 8.916,12.264 8.833,12.351 C8.752,12.440 8.640,12.493 8.515,12.493 ZM8.281,11.520 C8.232,11.520 8.191,11.561 8.191,11.608 C8.191,11.659 8.232,11.699 8.281,11.699 C8.329,11.699 8.372,11.659 8.372,11.608 C8.372,11.561 8.329,11.520 8.281,11.520 ZM8.281,12.010 C8.234,12.010 8.194,12.051 8.194,12.100 C8.194,12.148 8.234,12.190 8.281,12.190 C8.331,12.190 8.372,12.148 8.372,12.100 C8.372,12.051 8.331,12.010 8.281,12.010 ZM8.519,11.761 C8.469,11.761 8.431,11.799 8.431,11.850 C8.431,11.898 8.469,11.937 8.519,11.937 C8.569,11.937 8.607,11.898 8.607,11.850 C8.607,11.799 8.569,11.761 8.519,11.761 ZM8.770,11.522 C8.722,11.522 8.682,11.561 8.682,11.609 C8.682,11.659 8.722,11.699 8.770,11.699 C8.818,11.699 8.859,11.659 8.859,11.609 C8.859,11.561 8.818,11.522 8.770,11.522 ZM8.770,12.010 C8.722,12.010 8.680,12.050 8.680,12.100 C8.680,12.148 8.722,12.187 8.770,12.187 C8.818,12.187 8.857,12.148 8.857,12.100 C8.857,12.050 8.818,12.010 8.770,12.010 ZM8.515,10.881 C8.391,10.881 8.278,10.828 8.199,10.739 C8.115,10.652 8.066,10.529 8.066,10.397 L8.066,9.750 L8.963,9.753 L8.963,10.398 C8.963,10.532 8.916,10.652 8.833,10.739 C8.752,10.828 8.640,10.881 8.515,10.881 ZM8.281,9.908 C8.232,9.908 8.191,9.949 8.191,9.996 C8.191,10.047 8.232,10.087 8.281,10.087 C8.329,10.087 8.372,10.047 8.372,9.996 C8.372,9.949 8.329,9.908 8.281,9.908 ZM8.281,10.398 C8.234,10.398 8.194,10.439 8.194,10.488 C8.194,10.536 8.234,10.578 8.281,10.578 C8.331,10.578 8.372,10.536 8.372,10.488 C8.372,10.439 8.331,10.398 8.281,10.398 ZM8.519,10.149 C8.469,10.149 8.431,10.187 8.431,10.238 C8.431,10.286 8.469,10.325 8.519,10.325 C8.569,10.325 8.607,10.286 8.607,10.238 C8.607,10.187 8.569,10.149 8.519,10.149 ZM8.770,9.910 C8.722,9.910 8.682,9.949 8.682,9.997 C8.682,10.047 8.722,10.087 8.770,10.087 C8.818,10.087 8.859,10.047 8.859,9.997 C8.859,9.949 8.818,9.910 8.770,9.910 ZM8.770,10.398 C8.722,10.398 8.680,10.438 8.680,10.488 C8.680,10.536 8.722,10.575 8.770,10.575 C8.818,10.575 8.857,10.536 8.857,10.488 C8.857,10.438 8.818,10.398 8.770,10.398 ZM7.200,12.493 C7.077,12.493 6.963,12.440 6.884,12.351 C6.801,12.264 6.751,12.141 6.751,12.009 L6.751,11.362 L7.649,11.365 L7.649,12.010 C7.649,12.144 7.602,12.264 7.519,12.351 C7.437,12.440 7.326,12.493 7.200,12.493 ZM6.967,11.520 C6.918,11.520 6.877,11.561 6.877,11.608 C6.877,11.659 6.918,11.699 6.967,11.699 C7.015,11.699 7.058,11.659 7.058,11.608 C7.058,11.561 7.015,11.520 6.967,11.520 ZM6.967,12.010 C6.920,12.010 6.880,12.051 6.880,12.100 C6.880,12.148 6.920,12.190 6.967,12.190 C7.017,12.190 7.058,12.148 7.058,12.100 C7.058,12.051 7.017,12.010 6.967,12.010 ZM7.205,11.761 C7.155,11.761 7.117,11.799 7.117,11.850 C7.117,11.898 7.155,11.937 7.205,11.937 C7.254,11.937 7.293,11.898 7.293,11.850 C7.293,11.799 7.254,11.761 7.205,11.761 ZM7.455,11.522 C7.408,11.522 7.368,11.561 7.368,11.609 C7.368,11.659 7.408,11.699 7.455,11.699 C7.503,11.699 7.545,11.659 7.545,11.609 C7.545,11.561 7.503,11.522 7.455,11.522 ZM7.455,12.010 C7.408,12.010 7.366,12.050 7.366,12.100 C7.366,12.148 7.408,12.187 7.455,12.187 C7.503,12.187 7.543,12.148 7.543,12.100 C7.543,12.050 7.503,12.010 7.455,12.010 Z"/>
</svg>