<svg width="18" height="18" viewBox="0 0 18 18" fill="none" xmlns="http://www.w3.org/2000/svg">
<path fill-rule="evenodd" clip-rule="evenodd" d="M9.00033 16.0835C12.9123 16.0835 16.0837 12.9122 16.0837 9.0002C16.0837 5.08819 12.9123 1.91687 9.00033 1.91687C5.08831 1.91687 1.91699 5.08819 1.91699 9.0002C1.91699 12.9122 5.08831 16.0835 9.00033 16.0835ZM9.00033 17.3335C13.6027 17.3335 17.3337 13.6026 17.3337 9.0002C17.3337 4.39783 13.6027 0.66687 9.00033 0.66687C4.39795 0.66687 0.666992 4.39783 0.666992 9.0002C0.666992 13.6026 4.39795 17.3335 9.00033 17.3335Z" fill="#333333"/>
<path fill-rule="evenodd" clip-rule="evenodd" d="M9.00037 5.69006C8.3228 5.69006 7.77352 6.23934 7.77352 6.91691H6.52352C6.52352 5.54899 7.63244 4.44006 9.00037 4.44006C10.3683 4.44006 11.4772 5.54899 11.4772 6.91691C11.4772 7.2464 11.4189 7.6027 11.2218 7.99114C11.0302 8.36865 10.7232 8.74573 10.2723 9.14887C9.64442 9.71012 9.62537 10.4092 9.62537 10.5438V10.6206H8.37537V10.5438C8.37537 10.2871 8.41115 9.13594 9.43918 8.21695C9.81613 7.87998 10.0074 7.622 10.1071 7.4255C10.2013 7.23994 10.2272 7.08331 10.2272 6.91691C10.2272 6.23934 9.67794 5.69006 9.00037 5.69006Z" fill="#333333"/>
<path fill-rule="evenodd" clip-rule="evenodd" d="M8.37533 12.9355V11.5466H9.62533V12.9355H8.37533Z" fill="#333333"/>
</svg>
