<svg xmlns="http://www.w3.org/2000/svg" width="21" height="21">
    <path fill="#3C9242" fill-rule="evenodd" d="M20.335 10.167c0 5.616-4.552 10.168-10.168 10.168C4.552 20.335 0 15.783 0 10.167 0 4.552 4.552 0 10.167 0c5.616 0 10.168 4.552 10.168 10.167z"/>
    <path fill="#EDC226" fill-rule="evenodd" d="M20.5 12.506c-.273-.751-.179-1.534-.179-2.339 0-.805-.094-1.588.179-2.339l-10.336-6.31L.285 7.827C.108 8.578.14 9.362.14 10.167c0 .806-.032 1.589.145 2.34l9.879 6.309 10.336-6.31z"/>
    <path fill="#2D146E" fill-rule="evenodd" d="M15.862 10.219c0 3.172-2.549 5.744-5.696 5.744-2.946 0-5.693-2.572-5.693-5.744 0-2.719 2.747-5.745 5.693-5.745 3.147 0 5.696 3.026 5.696 5.745"/>
    <path fill="#FFF" fill-rule="evenodd" d="M15.618 11.874c-2.309-2.075-5.367-3.337-8.713-3.337-.775 0-1.532.068-2.268.194.08-.3.18-.592.303-.872.64-.089 1.295-.14 1.965-.14 3.396 0 6.505 1.223 8.916 3.252-.041.307-.109.611-.203.903zM12.83 8.596l-.893-.105-.143.105.056-.171-.145-.105h.178l.054-.169.056.169h.177l.09.105.57.171zM5.276 12.6l.033-.708.037.708h.118l-.095.17.036-.582-.095-.07-.094.07.034.572-.094-.16h.12zm.139-3.428l-.145.508h.178l.055-.782.057.782h.175l-.143-.507.055.167-.144-.105-.144.105.056-.168zm.54 2.296l.155-.169.53.169h-.401l-.139.104.055.17-.045-.106-.247.106.055-.17-.139-.104h.176zm.586-.309l.029.611.025-.611h.084l-.068.05.027.08-.068-.051-.069.051.025-.081-.07-.049h.085zm.44 1.457l.299-.142.45.142h-.508l-.119.085.043.142.124-.087-.361.087.045-.141-.118-.086h.145zm.218-.429l.621.086-.695-.137.375.354h-.346l.047-.584.043.584h.146l-.117-.356.047.139-.121-.086zm.62.938l.054-.171.056.171h.181l-.146.103.206.169-.296-.105-.144.105.058-.169-.149-.103h.18zm.126-2.787l.047-.14.378.14h-.184l.484.088-.56.14-.12-.086-.121.086.048-.139-.121-.089h.149zm1.608 1.209l.037-.112.039.112h.118l-.095.069.036.114-.095-.07-.095.07.037-.112-.096-.071h.114zm.302.411l.026-.08.025.08h.085l-.07.152.024.79-.067-.5-.067.5.028-.1-.072-.842h.088zm.265-.738l.046-.337.045.337h.149l-.118-.113.045.143-.12-.087.313.087.45-.143-.955.113h.145zm-.01 1.436l.056-.168.055.168h.178l-.142.106.053.169-.143-.105.063.105.55-.171-.846-.104h.176zm.038 1.956l.018-.058.019.058h.061l-.049.034.015.056-.047-.034-.047.034.02-.056.752-.034h-.742zm.635-3.076l.047-.141.046.141h.334l-.308.085.046.142-.12-.089-.122.089.047-.142-.117-.085h.147zm.607 1.782l.037-.111.036.111h.116l-.093.07.036.114-.097-.07-.096.07.036-.113-.096-.071h.121zm.176-3.487h.119l.033-.115.041.115h.119l-.099.07.04.239-.098-.198-.096.198.036-.24-.095-.069zm.266 4.119l.046-.14.046.14h.766l-.74.43.046-.2-.119.75-.12-.75.045.2-.118-.43h.148zm.497-.489l.037-.114.036.114h.119l-.096.068.036.112-.094-.07-.095.07.036-.11-.1-.07h.121zm.637-.195l.033-.114.391.114h-.229l.479.069-.538.114.198-.072-.392.072.036-.113-.095-.07h.117zm.304.405l.45.142h-.5l-.119.085.042.502.107-.447-.342.447.045-.502-.118-.085h.144l.291-.142zm-.288.73l.198-.113.37.113h-.377l.587.067-.647.112.057-.067-.246.067.037-.11-.096-.069h.117zm.575-1.028l.039-.113.033.113h.12l-.097.072.038.11-.096-.068-.096.068.038-.11-.097-.072h.118zm1.143.367l-.18-.807.47.807h-.746l-.116-.579.043.138.359-.085-.598.085.047-.138-.12.579h.841zm-.588-.76l.054-1.051.056 1.051h.179l-.141-.779.057.17-.147-.105.08.105.55-.169-.866.778h.178zm.098-.364h.148l.043-.142.045.142h.149l-.117.088.044.139-.12-.089-.119.089.044-.142-.117-.085zm.714-.438l.04.472.136-.472h.014l.106.068.33.113-.589-.07-.095.07.036-.111-.095-.07h.117z"/>
</svg>
