<svg xmlns="http://www.w3.org/2000/svg" width="21" height="21">
    <path fill="#CB1D23" fill-rule="evenodd" d="M20.461 10.23c0 5.65-4.581 10.231-10.231 10.231C4.58 20.461 0 15.88 0 10.23 0 4.58 4.58 0 10.23 0s10.231 4.58 10.231 10.23z"/>
    <path fill="#F7DE29" fill-rule="evenodd" d="M15.215 7.597l-.458 1.025-.134-1.146-.956-.212.87-.504-.132-1.152 1.395.831.15-.504-.454 1.026.673.836-.954-.2zm-.288 3.363l.301.24h.97l-.781.686.294 1.104-.784-.68-.782.68.295-1.104-.781-.686h.969l.299-.24zm-2.222-6.535l-.12 1.152-.472-1.012-.95.212.659-.849-.468-1.013.878.491.662-.849-.115 1.152.875.498-.949.218zm-4.507 7.564L6.45 10.115l-2.564 1.874.817-3.033L2.557 7.7l2.66-.06L6.47 4.37l.404 3.27 2.661.12-2.15 1.196.813 3.033zm3.107 1.637l.9 1.004.624-1.458-.067 1.158.899.437-.941.753-.069.678-.515-.976-.939.273.619-.886-.511-.983z"/>
</svg>
