<svg xmlns="http://www.w3.org/2000/svg" width="19" height="19">
    <path fill="#F0F" fill-opacity="0" fill-rule="evenodd" d="M0 0h19v19H0V0z"/>
    <path fill="#FFF" fill-rule="evenodd" d="M14.188 7.862l-4.639 4.802.001.002-1.628 1.682-1.646-1.653.013-.014-2.057-2.1.016-.017c-.188-.21-.311-.48-.311-.784 0-.656.532-1.188 1.188-1.188.419 0 .77.23.981.558l1.81 1.847 4.639-4.802c.034-.039.067-.075.106-.109l.043-.045.009.01c.203-.162.448-.273.727-.273.655 0 1.185.531 1.185 1.185 0 .367-.176.682-.437.899z"/>
</svg>
