<svg xmlns="http://www.w3.org/2000/svg" width="14" height="14">
    <path fill="#383838" fill-rule="evenodd" d="M11.75 3.613h-1.402V2.254c0-.691-.56-1.254-1.249-1.254h-6.85C1.56 1 1 1.563 1 2.254v6.878c0 .692.56 1.254 1.249 1.254h1.402v1.359c0 .692.561 1.255 1.25 1.255h6.849c.689 0 1.25-.563 1.25-1.255V4.867c0-.692-.561-1.254-1.25-1.254zM2.171 9.132V2.254c0-.043.035-.079.078-.079h6.85c.043 0 .078.036.078.079v6.878c0 .044-.035.079-.078.079h-6.85c-.043 0-.078-.035-.078-.079zm9.658 2.613c0 .043-.035.079-.079.079H4.901c-.043 0-.079-.036-.079-.079v-1.359h4.277c.689 0 1.249-.562 1.249-1.254V4.788h1.402c.044 0 .079.036.079.079v6.878z"/>
</svg>
