<svg 
 xmlns="http://www.w3.org/2000/svg"
 xmlns:xlink="http://www.w3.org/1999/xlink"
 width="24px" height="24px">
<path fill-rule="evenodd"  opacity="0" fill="rgb(0, 255, 255)"
 d="M-0.000,-0.000 L24.000,-0.000 L24.000,24.000 L-0.000,24.000 L-0.000,-0.000 Z"/>
<path fill-rule="evenodd"  fill="rgb(42, 53, 96)"
 d="M-0.013,12.000 C-0.013,12.311 -0.001,12.620 0.022,12.925 L12.017,12.925 L12.017,-0.013 C12.011,-0.013 12.006,-0.013 12.000,-0.013 C5.365,-0.013 -0.013,5.365 -0.013,12.000 Z"/>
<path fill-rule="evenodd"  fill="rgb(203, 0, 28)"
 d="M23.978,12.925 L12.017,12.925 L12.017,11.075 L23.978,11.075 C24.001,11.380 24.013,11.689 24.013,12.000 C24.013,12.311 24.001,12.620 23.978,12.925 ZM12.017,7.381 L23.093,7.381 C23.340,7.975 23.541,8.592 23.691,9.229 L12.017,9.229 L12.017,7.381 ZM12.017,3.683 L20.668,3.683 C21.212,4.249 21.700,4.869 22.126,5.533 L12.017,5.533 L12.017,3.683 ZM12.017,-0.013 C14.366,-0.010 16.557,0.668 18.407,1.837 L12.017,1.837 L12.017,-0.013 ZM23.092,16.621 L0.908,16.621 C0.661,16.028 0.460,15.410 0.309,14.773 L23.691,14.773 C23.540,15.410 23.339,16.028 23.092,16.621 ZM20.668,20.317 L3.332,20.317 C2.789,19.752 2.301,19.134 1.877,18.472 L22.123,18.472 C21.698,19.134 21.211,19.752 20.668,20.317 ZM12.000,24.013 C9.646,24.013 7.450,23.335 5.596,22.165 L18.404,22.165 C16.550,23.335 14.354,24.013 12.000,24.013 Z"/>
<path fill-rule="evenodd"  fill="rgb(255, 255, 255)"
 d="M12.017,9.229 L23.691,9.229 C23.833,9.828 23.930,10.444 23.978,11.075 L12.017,11.075 L12.017,9.229 ZM12.017,5.533 L22.126,5.533 C22.499,6.117 22.823,6.735 23.093,7.381 L12.017,7.381 L12.017,5.533 ZM12.017,1.837 L18.407,1.837 C19.234,2.360 19.993,2.980 20.668,3.683 L12.017,3.683 L12.017,1.837 ZM10.459,11.331 L10.040,11.029 L9.627,11.331 L9.783,10.842 L9.369,10.542 L9.882,10.542 L10.040,10.051 L10.203,10.542 L10.714,10.542 L10.299,10.842 L10.459,11.331 ZM10.459,9.171 L10.040,8.870 L9.627,9.171 L9.783,8.683 L9.369,8.381 L9.882,8.381 L10.040,7.892 L10.203,8.381 L10.714,8.381 L10.299,8.683 L10.459,9.171 ZM10.459,7.014 L10.040,6.710 L9.627,7.014 L9.783,6.523 L9.369,6.221 L9.882,6.221 L10.040,5.734 L10.203,6.221 L10.714,6.221 L10.299,6.523 L10.459,7.014 ZM10.459,4.852 L10.040,4.550 L9.627,4.852 L9.783,4.363 L9.369,4.061 L9.882,4.061 L10.040,3.572 L10.203,4.061 L10.714,4.061 L10.299,4.363 L10.459,4.852 ZM10.459,2.695 L10.040,2.393 L9.627,2.695 L9.783,2.206 L9.369,1.904 L9.882,1.904 L10.040,1.412 L10.203,1.904 L10.714,1.904 L10.299,2.206 L10.459,2.695 ZM8.933,10.308 L8.520,10.006 L8.101,10.308 L8.261,9.821 L7.849,9.520 L8.359,9.520 L8.520,9.033 L8.676,9.520 L9.191,9.520 L8.779,9.821 L8.933,10.308 ZM8.933,8.150 L8.520,7.848 L8.101,8.150 L8.261,7.661 L7.849,7.359 L8.359,7.359 L8.520,6.871 L8.676,7.359 L9.191,7.359 L8.779,7.661 L8.933,8.150 ZM8.933,5.988 L8.520,5.691 L8.101,5.988 L8.261,5.502 L7.849,5.198 L8.359,5.198 L8.520,4.711 L8.676,5.198 L9.191,5.198 L8.779,5.502 L8.933,5.988 ZM8.933,3.831 L8.520,3.530 L8.101,3.831 L8.261,3.343 L7.849,3.040 L8.359,3.040 L8.520,2.551 L8.676,3.040 L9.191,3.040 L8.779,3.343 L8.933,3.831 ZM7.430,11.331 L7.015,11.029 L6.603,11.331 L6.758,10.842 L6.343,10.542 L6.856,10.542 L7.015,10.051 L7.175,10.542 L7.689,10.542 L7.274,10.842 L7.430,11.331 ZM7.430,9.171 L7.015,8.870 L6.603,9.171 L6.758,8.683 L6.343,8.381 L6.856,8.381 L7.015,7.892 L7.175,8.381 L7.689,8.381 L7.274,8.683 L7.430,9.171 ZM7.430,7.014 L7.015,6.710 L6.603,7.014 L6.758,6.523 L6.343,6.221 L6.856,6.221 L7.015,5.734 L7.175,6.221 L7.689,6.221 L7.274,6.523 L7.430,7.014 ZM7.430,4.852 L7.015,4.550 L6.603,4.852 L6.758,4.363 L6.343,4.061 L6.856,4.061 L7.015,3.572 L7.175,4.061 L7.689,4.061 L7.274,4.363 L7.430,4.852 ZM7.430,2.695 L7.015,2.393 L6.603,2.695 L6.758,2.206 L6.343,1.904 L6.856,1.904 L7.015,1.412 L7.175,1.904 L7.689,1.904 L7.274,2.206 L7.430,2.695 ZM5.908,10.308 L5.490,10.006 L5.076,10.308 L5.237,9.821 L4.820,9.520 L5.335,9.520 L5.490,9.033 L5.649,9.520 L6.166,9.520 L5.749,9.821 L5.908,10.308 ZM5.908,8.150 L5.490,7.848 L5.076,8.150 L5.237,7.661 L4.820,7.359 L5.335,7.359 L5.490,6.871 L5.649,7.359 L6.166,7.359 L5.749,7.661 L5.908,8.150 ZM5.908,5.988 L5.490,5.691 L5.076,5.988 L5.237,5.502 L4.820,5.198 L5.335,5.198 L5.490,4.711 L5.649,5.198 L6.166,5.198 L5.749,5.502 L5.908,5.988 ZM5.908,3.831 L5.490,3.530 L5.076,3.831 L5.237,3.343 L4.820,3.040 L5.335,3.040 L5.490,2.551 L5.649,3.040 L6.166,3.040 L5.749,3.343 L5.908,3.831 ZM4.405,11.331 L3.985,11.029 L3.573,11.331 L3.729,10.842 L3.314,10.542 L3.827,10.542 L3.985,10.051 L4.146,10.542 L4.659,10.542 L4.244,10.842 L4.405,11.331 ZM4.405,9.171 L3.985,8.870 L3.573,9.171 L3.729,8.683 L3.314,8.381 L3.827,8.381 L3.985,7.892 L4.146,8.381 L4.659,8.381 L4.244,8.683 L4.405,9.171 ZM4.405,7.014 L3.985,6.710 L3.573,7.014 L3.729,6.523 L3.314,6.221 L3.827,6.221 L3.985,5.734 L4.146,6.221 L4.659,6.221 L4.244,6.523 L4.405,7.014 ZM4.405,4.852 L3.985,4.550 L3.573,4.852 L3.729,4.363 L3.314,4.061 L3.827,4.061 L3.985,3.572 L4.146,4.061 L4.659,4.061 L4.244,4.363 L4.405,4.852 ZM2.878,10.308 L2.465,10.006 L2.051,10.308 L2.206,9.821 L1.792,9.520 L2.305,9.520 L2.465,9.033 L2.624,9.520 L3.137,9.520 L2.722,9.821 L2.878,10.308 ZM2.878,8.150 L2.465,7.848 L2.051,8.150 L2.206,7.661 L1.792,7.359 L2.305,7.359 L2.465,6.871 L2.624,7.359 L3.137,7.359 L2.722,7.661 L2.878,8.150 ZM2.878,5.988 L2.466,5.691 L2.051,5.988 L2.206,5.502 L1.996,5.348 C2.030,5.297 2.064,5.247 2.098,5.198 L2.305,5.198 L2.466,4.711 L2.624,5.198 L3.137,5.198 L2.722,5.502 L2.878,5.988 ZM1.380,11.331 L0.961,11.029 L0.543,11.331 L0.701,10.842 L0.289,10.542 L0.802,10.542 L0.961,10.051 L1.121,10.542 L1.631,10.542 L1.214,10.842 L1.380,11.331 ZM1.380,9.171 L0.961,8.870 L0.543,9.171 L0.701,8.683 L0.496,8.532 C0.511,8.481 0.526,8.431 0.542,8.381 L0.802,8.381 L0.961,7.892 L1.121,8.381 L1.631,8.381 L1.214,8.683 L1.380,9.171 ZM1.466,6.221 L1.631,6.221 L1.361,6.417 C1.396,6.351 1.431,6.286 1.466,6.221 ZM1.147,6.845 C1.181,6.773 1.216,6.702 1.251,6.632 L1.380,7.014 L1.147,6.845 ZM23.691,14.773 L0.309,14.773 C0.167,14.173 0.070,13.556 0.022,12.925 L23.978,12.925 C23.930,13.556 23.833,14.173 23.691,14.773 ZM22.123,18.472 L1.877,18.472 C1.503,17.887 1.178,17.269 0.908,16.621 L23.092,16.621 C22.821,17.269 22.497,17.887 22.123,18.472 ZM18.404,22.165 L5.596,22.165 C4.768,21.642 4.007,21.021 3.332,20.317 L20.668,20.317 C19.993,21.021 19.232,21.642 18.404,22.165 Z"/>
</svg>