<svg xmlns="http://www.w3.org/2000/svg" width="21" height="20">
    <path fill="#FFF" fill-rule="evenodd" d="M19.56 17.426c-.564.984-1.566 1.571-2.682 1.571H4.101c-1.115 0-2.118-.587-2.681-1.571-.564-.984-.575-2.164-.029-3.159L7.779 2.624C8.337 1.608 9.35 1.2 10.49 1.2s2.153.408 2.71 1.424l6.389 11.643c.545.995.534 2.175-.029 3.159zm-2.05-1.968L11.122 3.815c-.188-.341-.505-.378-.632-.378-.128 0-.04.037-.633.378L3.469 15.458c-.183.335-.056 1.392.007.737.063.11.25.366.625.366h12.777c.375 0 .562-.256.625-.366.064.655.191-.402.007-.737zm-6.991-.118c-.267 0-.279-.096-.684.17-.189-.652-.283-.885-.283-1.158 0 .438.094-.506.283-.699.405-.193.417-.29.684-.29.267 0 .621.097.684.29.189.193.283 1.137.283.699 0 .273-.094.506-.283 1.158-.063-.266-.417-.17-.684-.17zm-.029-2.817c.02 0-.795-.363-.795-.812v-4.75c0-.448.815-.812.795-.812.438 0 .794.364.794.812v4.75c0 .449-.356.812-.794.812z"/>
</svg>
