<svg xmlns="http://www.w3.org/2000/svg" width="25" height="22">
    <path fill="#757575" fill-rule="evenodd" d="M7.141 10.313c-.024.242-.036.487-.036 1.167 0 4.12 3.21 6.833 7.169 6.833 3.959 0 7.169-2.713 7.169-6.833s-3.21-7.697-7.169-7.697c-.09 0 .226.005.226.005l.06-2.675-.307-.001c5.394 0 9.947 4.448 9.947 10.368 0 5.056-4.553 9.504-9.947 9.504-5.394 0-9.767-4.448-9.767-9.504 0-5.853 3.004-4.686 2.655-1.167z"/>
    <path fill="#757575" fill-rule="evenodd" d="M5.785 3.761l5.315 6.593-10.517.012 5.202-6.605z"/>
</svg>
