<svg 
 xmlns="http://www.w3.org/2000/svg"
 xmlns:xlink="http://www.w3.org/1999/xlink"
 width="24px" height="24px">
<defs>
<filter id="Filter_0">
    <feFlood flood-color="rgb(242, 242, 242)" flood-opacity="1" result="floodOut" />
    <feComposite operator="atop" in="floodOut" in2="SourceGraphic" result="compOut" />
    <feBlend mode="normal" in="compOut" in2="SourceGraphic" />
</filter>

</defs>
<path fill-rule="evenodd"  opacity="0" fill="rgb(0, 255, 255)"
 d="M-0.000,-0.000 L24.000,-0.000 L24.000,24.000 L-0.000,24.000 L-0.000,-0.000 Z"/>
<g filter="url(#Filter_0)">
<path fill-rule="evenodd"  fill="rgb(255, 255, 255)"
 d="M24.000,12.000 C24.000,18.627 18.627,24.000 12.000,24.000 C5.373,24.000 -0.000,18.627 -0.000,12.000 C-0.000,5.373 5.373,-0.000 12.000,-0.000 C18.627,-0.000 24.000,5.373 24.000,12.000 Z"/>
</g>
<path fill-rule="evenodd"  fill="rgb(30, 52, 118)"
 d="M16.961,11.644 C16.961,14.395 14.731,16.624 11.980,16.624 C9.230,16.624 7.000,14.395 7.000,11.644 C7.000,8.894 9.230,6.664 11.980,6.664 C14.731,6.664 16.961,8.894 16.961,11.644 Z"/>
<path fill-rule="evenodd"  fill="rgb(181, 0, 55)"
 d="M14.781,7.458 C12.490,5.937 9.396,6.559 7.869,8.837 C7.104,9.974 7.415,11.518 8.560,12.279 C9.705,13.039 11.251,12.730 12.015,11.590 C12.778,10.449 14.325,10.144 15.470,10.900 C16.616,11.661 16.924,13.206 16.160,14.342 C17.687,12.061 17.070,8.979 14.781,7.458 "/>
<path fill-rule="evenodd"  fill="rgb(0, 0, 0)"
 d="M20.067,6.388 L20.729,5.945 L21.944,7.769 L21.282,8.212 L20.067,6.388 ZM18.630,4.228 L19.294,3.786 L20.510,5.614 L19.846,6.052 L18.630,4.228 ZM20.289,8.872 L17.636,4.892 L18.301,4.450 L20.953,8.429 L20.289,8.872 ZM17.857,7.380 L16.642,5.556 L17.305,5.114 L18.518,6.937 L17.857,7.380 ZM4.045,14.910 L4.708,14.468 L7.360,18.444 L6.697,18.886 L4.045,14.910 ZM4.045,9.093 L6.697,5.114 L7.360,5.556 L4.708,9.532 L4.045,9.093 ZM3.051,8.429 L5.703,4.450 L6.365,4.892 L3.714,8.872 L3.051,8.429 ZM2.056,7.769 L4.708,3.786 L5.370,4.228 L2.720,8.212 L2.056,7.769 ZM5.370,19.771 L4.708,20.214 L2.056,16.238 L2.720,15.796 L5.370,19.771 ZM3.051,15.574 L3.714,15.132 L4.927,16.952 L4.266,17.394 L3.051,15.574 ZM5.151,17.288 L6.365,19.111 L5.703,19.554 L4.488,17.730 L5.151,17.288 ZM18.518,17.066 L17.305,18.886 L16.642,18.444 L17.857,16.624 L18.518,17.066 ZM19.515,17.730 L18.301,19.554 L17.636,19.111 L18.851,17.288 L19.515,17.730 ZM20.510,18.390 L19.294,20.214 L18.630,19.771 L19.846,17.951 L20.510,18.390 ZM20.953,15.574 L19.736,17.394 L19.073,16.952 L20.289,15.132 L20.953,15.574 ZM18.078,7.712 L18.740,7.269 L19.958,9.093 L19.294,9.532 L18.078,7.712 ZM18.740,16.734 L18.078,16.295 L19.294,14.468 L19.958,14.910 L18.740,16.734 ZM21.282,15.796 L21.944,16.238 L20.729,18.058 L20.067,17.619 L21.282,15.796 Z"/>
</svg>