<svg width="18" height="19" viewBox="0 0 18 19" fill="none" xmlns="http://www.w3.org/2000/svg">
<rect y="0.75" width="18" height="18" rx="9" fill="#F79009"/>
<path d="M14.4259 5.682L12.1459 14.25H11.0539L9.38588 8.634C9.31388 8.41 9.24588 8.182 9.18188 7.95C9.12588 7.71 9.07388 7.502 9.02588 7.326C8.98588 7.142 8.96188 7.014 8.95388 6.942C8.94588 7.046 8.90188 7.27 8.82188 7.614C8.74188 7.95 8.64988 8.302 8.54588 8.67L6.92588 14.25H5.83388L3.56588 5.682H4.69388L6.02588 10.914C6.12188 11.282 6.20188 11.638 6.26588 11.982C6.33788 12.326 6.39388 12.65 6.43388 12.954C6.47388 12.642 6.53388 12.302 6.61388 11.934C6.69388 11.566 6.78588 11.206 6.88988 10.854L8.40188 5.682H9.51788L11.0899 10.89C11.2019 11.258 11.2979 11.626 11.3779 11.994C11.4579 12.362 11.5179 12.682 11.5579 12.954C11.5899 12.658 11.6419 12.338 11.7139 11.994C11.7939 11.642 11.8819 11.278 11.9779 10.902L13.2979 5.682H14.4259Z" fill="white"/>
</svg>
