<svg width="49" height="48" viewBox="0 0 49 48" fill="none" xmlns="http://www.w3.org/2000/svg">
<g id="element/img_loading">
<path id="img_loding (Stroke)" d="M12.1677 44.6055C16.7351 47.333 22.0793 48.4657 27.3605 47.8256C32.6417 47.1855 37.5605 44.8089 41.3441 41.0691C45.1276 37.3294 47.5614 32.4386 48.263 27.1652C48.9646 21.8918 47.8943 16.5348 45.2201 11.9359C42.546 7.33702 38.4197 3.75694 33.4896 1.75825C28.5595 -0.240439 23.105 -0.544455 17.9833 0.893975C12.8616 2.33241 8.363 5.43175 5.19437 9.70498C2.02573 13.9782 0.366672 19.1831 0.477903 24.5018L4.76708 24.4121C4.67573 20.0442 6.03822 15.7697 8.64045 12.2603C11.2427 8.75091 14.9371 6.20559 19.1433 5.02429C23.3495 3.84298 27.8289 4.09265 31.8778 5.73407C35.9266 7.37548 39.3153 10.3156 41.5114 14.0924C43.7075 17.8692 44.5866 22.2687 44.0104 26.5994C43.4342 30.9302 41.4354 34.9467 38.3282 38.018C35.221 41.0892 31.1814 43.041 26.8443 43.5667C22.5071 44.0924 18.1182 43.1621 14.3672 40.9222L12.1677 44.6055Z" fill="#1D828F"/>
</g>
</svg>
