<svg xmlns="http://www.w3.org/2000/svg" width="40" height="40">
    <defs>
        <filter id="y89tf7nexa">
            <feFlood flood-color="silver" flood-opacity="1" result="floodOut"/>
            <feComposite in="floodOut" in2="SourceGraphic" operator="atop" result="compOut"/>
            <feBlend in="compOut" in2="SourceGraphic"/>
        </filter>
    </defs>
    <g filter="url(#y89tf7nexa)">
        <path fill="#FFF" fill-rule="evenodd" d="M20.148 4.902C11.773 4.902 4.96 11.715 4.96 20.9c0 7.565 6.813 14.379 15.188 14.379S35.336 28.465 35.336 20.9c0-9.185-6.813-15.998-15.188-15.998zm10.049 23.612c-.037-1.161-.458-1.322-1.368-2.102-1.058-.908-3.401-.958-4.927-1.723-1.527-.764-1.17-2.169-1.17-2.169.927-1.223 1.056-2.663 1.056-2.663-.115-.65.425-.557.425-.557 1.173-1.398.505-2.773.505-2.773.702-1.392-.07-3.18-.07-3.18-.797-3.428-4.393-2.747-4.5-2.697.262-.05-3.703-.731-4.5 2.697 0 0-.394 1.788-.07 3.18 0 0-.669 1.375 1.242 2.773 0 0-.197-.093-.312.557 0 0 .128 1.44 1.056 2.663 0 0 .357 1.405-1.17 2.169-1.526.765-3.869.815-4.927 1.723-.91.78-1.331.941-.477 2.102-2.807-2.281-3.74-5.219-3.74-7.614 0-8.046 5.662-13.933 12.898-13.933S33.271 12.854 33.271 20.9c0 2.395-1.158 5.332-3.074 7.614z"/>
    </g>
</svg>
