<svg xmlns="http://www.w3.org/2000/svg" width="40" height="40">
    <defs>
        <filter id="5ae3t05j0a">
            <feFlood flood-color="silver" flood-opacity="1" result="floodOut"/>
            <feComposite in="floodOut" in2="SourceGraphic" operator="atop" result="compOut"/>
            <feBlend in="compOut" in2="SourceGraphic"/>
        </filter>
    </defs>
    <g filter="url(#5ae3t05j0a)">
        <path fill="#FFF" fill-rule="evenodd" d="M38.791 26.279l-.331 1.111c-.683-.076-1.12-.076-.75 0l-2.133-1.876v3.672c0 1.555-1.236 3.014-2.759 3.014H8.162c-1.524 0-2.759-1.459-2.759-3.014v-5.214h2.433v5.214c0 .183.146.332.326.332h24.656c.179 0 .325-.149.325-.332v-3.665l-1.342 1.37c-.269.275.149.275-.976 0l-.015-.761c-.999-.275-.999-.72 0-.995l2.693-3.493c.475-.485 1.245-.485 1.72 0l3.568 3.641c.809.275.809 1.117 0 .996zm-15.95-5.733c-1.072 1.74-3.001 2.649-4.218 1.717l-.304-.31c-.913-1.242-.023-3.212 1.781-4.306 1.491-1.019 5.458-2.772 5.458-2.772s-1.718 4.049-2.717 5.671zm10.302-9.735c0-.183-.146-.332-.325-.332H8.162c-.18 0-.326.149-.326.332v3.665l1.342-1.37c.27-.275.707-.275.976 0l.745.761c.269.274.269.72 0 .995l-3.422 3.493c-.377.485-1.246.485-1.721 0l-3.568-3.641c-.269-.275-.269-.721 0-.996l.745-.76c.27-.275.707-.275.976 0l1.494 1.524v-3.671c0-1.555 1.235-2.816 2.759-2.816h24.656c1.523 0 2.759 1.261 2.759 2.816v5.439h-2.434v-5.439z"/>
    </g>
</svg>
