<svg xmlns="http://www.w3.org/2000/svg" width="40" height="40">
    <defs>
        <filter id="noyyqmh5oa">
            <feFlood flood-color="silver" flood-opacity="1" result="floodOut"/>
            <feComposite in="floodOut" in2="SourceGraphic" operator="atop" result="compOut"/>
            <feBlend in="compOut" in2="SourceGraphic"/>
        </filter>
    </defs>
    <g filter="url(#noyyqmh5oa)">
        <path fill="#FFF" fill-rule="evenodd" d="M34.676 32.999h-9.337V25.2H36.9V31.699c0 .718-1.488 1.3-2.224 1.3zM29.341 22.6H25.339v-7.799h9.337c.736 0 2.224.582 2.224 1.3V22.6h-7.559zm-10.67 10.399h-5.335c-.737 0-1.136-.582-1.136-1.3V25.2h10.472v7.799H18.671zM21.338 22.6H5.333c-.737 0-1.334-.42-1.334-1.3V8.302c0-.718.597-1.102 1.334-1.102h16.005c1.412 0 1.334.384 1.334 1.102V21.3c0 .88.078 1.3-1.334 1.3zM20.4 9.601H6.667V20H20.4V9.601z"/>
    </g>
</svg>
