<svg xmlns="http://www.w3.org/2000/svg" width="40" height="40">
    <path fill-rule="evenodd" fill="#FFF" d="m34.665 31.986-2.359 2.33-5.993-5.93c-5.191 3.973-12.682 4.014-17.448-1.088a12.954 12.954 0 0 1 0-18.482c5.465-5.103 13.548-5.103 18.716 0 4.77 4.71 5.127 12.116 1.093 17.764l5.991 5.406zm-9.074-21.228c-4.067-4.024-10.662-4.024-14.729 0a10.226 10.226 0 0 0 0 14.571c4.067 4.024 10.662 4.024 14.729 0a10.224 10.224 0 0 0 0-14.571zm-8.278 11.027h2.338v3.165h-2.338v-3.165zm0-9.241h2.338v6.93h-2.338v-6.93z"/>
</svg>
