<svg id="레이어_1" data-name="레이어 1" xmlns="http://www.w3.org/2000/svg" viewBox="0 0 40 40"><defs><style>.cls-1,.cls-3{fill:none;}.cls-1{stroke:#fff;stroke-miterlimit:10;stroke-width:2px;}.cls-2{fill:#fff;}</style></defs><title>menu_icon_administration_s</title><path class="cls-1" d="M33.71,20A13.71,13.71,0,1,1,20,6.29,13.71,13.71,0,0,1,33.71,20Z"/><path class="cls-2" d="M28.41,26.12c-1-.88-3.3-.93-4.77-1.67A2.43,2.43,0,0,1,22.5,21.9a3.48,3.48,0,0,0,1-2.13.69.69,0,0,1,.41-.82,2.12,2.12,0,0,0,.49-2.4,8.38,8.38,0,0,0-.07-3.08c-.77-3.32-4.26-3.18-4.36-3.18s-3.59-.14-4.36,3.18a8.38,8.38,0,0,0-.07,3.08,2.12,2.12,0,0,0,.49,2.4.69.69,0,0,1,.41.82,3.48,3.48,0,0,0,1,2.13,2.43,2.43,0,0,1-1.14,2.55c-1.47.74-3.74.79-4.77,1.67s-1.41.94-1.31,2.67v.92h.92l1.42,1.85,3.93,1.71,7.26.44L28.19,31l.65-1.29h.88v-.92c.1-1.73-.29-1.79-1.31-2.67"/><rect class="cls-3" x="5.29" y="5.29" width="29.42" height="29.42"/></svg>