<svg xmlns="http://www.w3.org/2000/svg" width="40" height="40">
    <path fill="silver" fill-rule="evenodd" d="M35.405 16.283l-2.764 2.24c.072 1.157.119 1.098.119 1.663 0 .582-.054 1.15-.13 1.711l2.766 2.241-.686 1.193.023.014-2.841 4.938-.023-.013-.684 1.19-3.302-1.279c-.891.704-.983 1.295-2.938 1.737l-.541 3.462H23.32v.026h-5.969v-.026h-1.368l-.533-3.408c-1.103-.442-2.121-1.046-3.046-1.764l-3.193 1.236-.686-1.193-.024.013-2.84-4.939.023-.013L5 24.122l2.627-2.129c-.085-.59-.137-1.192-.137-1.807 0-.611.054-1.209.138-1.797L5.9 16.267l-.204-.537-.023-.13 2.84-5.479.023.014.684-1.19 3.173 1.228c.931-.73 1.965-1.336 3.082-1.781L16.1 5.25h1.274v-.252h6.166v.252h.883l.536 3.21c1.391.448 2.311 1.052 2.969 1.765l3.266-1.264.687 1.193.023-.013 2.84 5.659-.023.13.684.353zm-4.865-4.336l-3.15 1.18-.177-.308c-1.241-1.196-2.784-2.072-4.499-2.521l-.302-2.788H18.7l-.991 2.758c-1.329.418-3.181 1.243-4.415 2.373l-.074.474-2.862-1.18-2.202 3.83 2.349 1.726-.353.614c-.042.679-.217 1.382-.217 2.104 0 .728.275 1.434.232 2.117l.331.575-2.349 1.727 2.202 3.829 2.799-1.179.16.512c1.079.981 2.352 1.751 4.53 2.199h-.161l.314 2.906h4.405l.314-2.906h.498c1.514-.477 3.61-1.301 3.988-2.377l.185-.322 3.087 1.179 1.779-3.829-2.349-1.726.3-.209c.021-.802.159-.965.159-2.496 0-.843-.109-1.659.221-2.443l-.673-.262 2.349-1.727-1.716-3.83zM20.113 27.854c-4.187 0-7.58-3.409-7.58-7.613 0-3.881 3.393-7.613 7.58-7.613 4.186 0 7.58 3.732 7.58 7.613 0 4.204-3.394 7.613-7.58 7.613zm.827-12.624c-3.678 0-5.974 2.101-5.974 4.947 0 3.053 2.296 5.153 5.974 5.153 1.987 0 4.283-2.1 4.283-5.153 0-2.846-2.296-4.947-4.283-4.947z"/>
</svg>
