<svg xmlns="http://www.w3.org/2000/svg" width="40" height="40">
    <path fill-rule="evenodd" fill="#FFF" d="m35.405 16.283-2.764 2.24c.072 1.157.119 1.098.119 1.664 0 .581-.054 1.149-.13 1.71l2.766 2.241-.686 1.193.023.014-2.841 4.939-.023-.014-.684 1.19-3.302-1.279c-.891.704-.983 1.295-2.938 1.737l-.541 3.462H23.32v.026h-5.969v-.026h-1.368l-.533-3.408a12.65 12.65 0 0 1-3.046-1.764l-3.193 1.236-.686-1.193-.023.013-2.841-4.939.023-.013L5 24.122l2.627-2.129a12.646 12.646 0 0 1-.138-1.806c0-.612.055-1.21.139-1.798L5.9 16.267l-.205-.537-.023-.13 2.841-5.479.023.014.684-1.19 3.173 1.228a12.492 12.492 0 0 1 3.082-1.781L16.1 5.25h1.274v-.252h6.166v.252h.883l.536 3.21c1.391.448 2.311 1.052 2.969 1.765l3.266-1.264.687 1.193.023-.013 2.84 5.659-.023.13.684.353zm-4.865-4.336-3.15 1.18-.177-.308a10.201 10.201 0 0 0-4.499-2.521l-.302-2.788H18.7l-.991 2.758c-1.329.418-3.181 1.243-4.415 2.374l-.074.473-2.862-1.18-2.202 3.83 2.349 1.726-.353.614c-.042.679-.217 1.383-.217 2.104 0 .728.275 1.434.232 2.117l.331.575-2.349 1.727 2.202 3.829 2.799-1.179.16.512c1.079.981 2.352 1.751 4.53 2.199h-.161l.314 2.906h4.405l.315-2.906h.497c1.514-.477 3.61-1.301 3.988-2.377l.185-.322 3.087 1.18 1.779-3.83-2.349-1.726.3-.209c.021-.803.159-.965.159-2.496 0-.843-.109-1.659.221-2.443l-.673-.262 2.349-1.727-1.716-3.83zM20.113 27.854c-4.187 0-7.58-3.409-7.58-7.613 0-3.881 3.393-7.613 7.58-7.613 4.186 0 7.58 3.732 7.58 7.613 0 4.204-3.394 7.613-7.58 7.613zm.827-12.624c-3.678 0-5.974 2.101-5.974 4.947 0 3.053 2.296 5.153 5.974 5.153 1.987 0 4.283-2.1 4.283-5.153 0-2.846-2.296-4.947-4.283-4.947z"/>
</svg>
