<svg width="72" height="73" viewBox="0 0 72 73" fill="none" xmlns="http://www.w3.org/2000/svg">
<g id="img">
<path id="icon" fill-rule="evenodd" clip-rule="evenodd" d="M34.1018 16.4328C32.7567 14.1029 29.3939 14.1029 28.0487 16.4328L8.88065 49.6329C7.53552 51.9627 9.21693 54.875 11.9072 54.875H50.2434C52.9337 54.875 54.6151 51.9627 53.2699 49.6329L34.1018 16.4328ZM29.3279 27.285V42.4289H32.8227V27.285H29.3279ZM29.3279 48.2535V44.7588H32.8227V48.2535H29.3279Z" fill="#4B5468"/>
<path id="icon_2" d="M44.3848 54.9831H47.3315L47.3294 54.9978H45.5591H44.0591V56.4978V58.3137V59.8137H45.5591H60.1349H61.6349V58.3137V56.4978V54.9978H60.1349H58.3888L58.3867 54.9831H61.3456C64.1836 54.9831 66.4774 52.6893 66.4774 49.8512V38.2535C66.4774 36.4929 65.0432 35.0586 63.2826 35.0586H42.4478C40.6872 35.0586 39.2529 36.4929 39.2529 38.2535V49.8512C39.2529 52.6893 41.5467 54.9831 44.3848 54.9831Z" fill="#4B5468" stroke="#DDECFF" stroke-width="3"/>
</g>
</svg>
