<svg xmlns="http://www.w3.org/2000/svg" width="13" height="13">
    <path fill="#767676" fill-rule="evenodd" d="M12.292 5.28c0 .161-.335.497-.749.497-.413 0-.748-.336-.748-.497V2.574L6.393 6.976c-.146.146.157.219-.529.219-.192 0-.383-.073-.529-.219.085-.292.085-.766 0-1.059l4.42-4.42H7.263c-.413 0-.748-.336-.748-.749S6.85 0 7.263 0h3.56c.407 0 .775.167 1.042.436l.006.004c.073.073.128.158.479.249-.166.229-.058.487-.058.78V5.28zM4.519 2.715H1.496v8.08h8.08V7.772c0-.413.335-.542.749-.542.413 0 1.405.129 1.405.542v3.051c0 .81-1.316 1.469-2.126 1.469H1.469C.658 12.292 0 11.633 0 10.823V2.687c0-.81.658-1.469 1.469-1.469h3.05c.414 0 .749.335.749.748 0 .414-.335.749-.749.749z"/>
</svg>
