<svg xmlns="http://www.w3.org/2000/svg" width="184" height="184">
    <path fill="#CFD9D9" fill-rule="evenodd" d="M93.928 162.955c-29.969 0-54.263 2.025-54.263 4.523 0 2.497 24.294 4.522 54.263 4.522 29.969 0 54.264-2.025 54.264-4.522 0-2.498-24.295-4.523-54.264-4.523"/>
    <path fill="#9FB3B4" fill-rule="evenodd" d="M88.963 82.994L88.7 61.9l58.294 5.39-58.031 15.704z"/>
    <path fill="#C4D6DA" fill-rule="evenodd" d="M89.6 60.989l.392 20.189L40.994 71.15 89.6 60.989z"/>
    <path fill="#9FB3B4" fill-rule="evenodd" d="M40.837 140.32l54.578 12.677.793-70.647-55.768-9.904.397 67.874z"/>
    <path fill="#DDE6E9" fill-rule="evenodd" d="M146.5 136.467l-51.514 17.528.813-72.134L146.5 67.974v68.493z"/>
    <path fill="#EFF3FA" fill-rule="evenodd" d="M38.997 70.989l57.533 9.987-14.132 21.439L24.125 91.23l14.872-20.241z"/>
    <path fill="#EFF3FA" fill-rule="evenodd" d="M94.995 82.19l51.849-14.57 19.146 19.097-52.407 18.248L94.995 82.19z"/>
    <path fill="#A3B6B7" fill-rule="evenodd" d="M158.374 60.273l-.011-.853-3.077.27-.027-3.699-.979.209.27 3.59-3.573-.684.011 1.231 3.662-.027.27 3.078.403-.011-.027-3.078 3.078-.026z"/>
    <path fill="#9FB3B4" fill-rule="evenodd" d="M160.784 114.841c-1.05 0-2.04-.405-2.79-1.144-.759-.746-1.182-1.745-1.191-2.811-.009-1.065.397-2.07 1.142-2.336.746-1.254 1.742-1.678 2.806-1.688 1.049-.001 2.067.397 2.826 1.738.759.153 1.182 1.152 1.191 2.217.01 1.066-.396 2.071-1.142 2.831-.745.76-1.742 1.184-2.806 1.193h-.036zm.003-6.641c-.009 0-.017 0-.026.1-.661.6-1.472.011-2.004.555-.533.542-.823 1.26-.816 2.021.007.762.309 1.475.851 2.009.536.527 1.548.817 1.992.817l.026-.001c.76-.006 1.472-.309 2.005-.852.532-.542.822-1.26.815-2.022-.006-.167-.308-1.474-.851-2.008-.535-.527-1.242-.619-1.992-.619zM36.654 56.441c1.013-.008 1.841.805 1.85 1.818.009 1.013-.805 1.841-1.818 1.85-1.012.009-1.841-.805-1.85-1.818-.008-1.013.806-1.841 1.818-1.85zM19.764 106.987h-5.142c-.271 0-.52-.144-.667-.385-.155-.258-.167-.412-.032-.853l2.57-5.109c.138-.273.406-.444.7-.444.294 0 .561.17.7.444l2.57 5.109c.136.431.124.595-.032.852-.146.241-.071.386-.667.386zm-4.792-1.038h4.442l-2.221-4.413-2.221 4.413z"/>
    <path fill="#B4C3C4" fill-rule="evenodd" d="M36.771 121.763h-2.229v-2.3h-.891v2.3h-2.229v.92h2.229v2.3h.891v-2.3h2.229v-.92z"/>
    <path fill="#DDE6E9" fill-rule="evenodd" d="M116.645 14.213H93.843V71.94l5.947-10.316h16.855c3.826 0 6.956-3.135 6.956-6.967V21.18c0-3.832-3.13-6.967-6.956-6.967z"/>
    <path fill="#EFF3FA" fill-rule="evenodd" d="M93.853 14.212H71.51c-4.285 0-6.56 3.135-6.56 6.966v33.477c0 3.832 2.275 6.967 6.56 6.967h16.396l5.947 10.316V14.212zM113.571 16.994s-4.312 5.217-4.312 9.906c0 1.683 2.718 3.652 5.304 3.059 2.117-.345 2.886-1.522 3.219-2.99.071-.315.102-.638.102-.069 0-4.689-4.313-9.906-4.313-9.906z"/>
    <path fill="#9FB3B4" fill-rule="evenodd" d="M102.658 36.918c-.928 0-2.869-1.275-2.869-2.228 0-2.194 1.941-3.469 2.869-3.469 1.585 0 2.87 1.275 2.87 3.469 0 .953-1.285 2.228-2.87 2.228zM98.5 45.711h-9.021c-.501 0-.908-.404-.908-.901 0-.498.407-.901.908-.901H98.5c.051 0 .458.403.458.901 0 .497-.407.901-.458.901zm-13.63-8.793c-1.585 0-2.77-1.275-2.77-2.228 0-2.194 1.185-3.469 2.77-3.469s2.87 1.275 2.87 3.469c0 .953-1.285 2.228-2.87 2.228z"/>
</svg>
