<svg xmlns="http://www.w3.org/2000/svg" width="17" height="16">
    <defs>
        <filter id="7mjqoz0e4a">
            <feFlood flood-color="#FFF" flood-opacity="1" result="floodOut"/>
            <feComposite in="floodOut" in2="SourceGraphic" operator="atop" result="compOut"/>
            <feBlend in="compOut" in2="SourceGraphic"/>
        </filter>
        <filter id="rba7u8t86b">
            <feFlood flood-color="#FFF" flood-opacity="1" result="floodOut"/>
            <feComposite in="floodOut" in2="SourceGraphic" operator="atop" result="compOut"/>
            <feBlend in="compOut" in2="SourceGraphic"/>
        </filter>
    </defs>
    <g filter="url(#7mjqoz0e4a)">
        <path fill="#B5B5B5" fill-rule="evenodd" d="M9.84 8.92l-5.036 5.072c-.493.608-1.58.678-2.154.156.11-.521-.704-1.533-.212-1.448l3.031-4.06-2.961-4.442c-.268-.614-.309-1.688.272-2.201.581-.512 1.572-.429 2.055.187L9.84 8.92z"/>
    </g>
    <g filter="url(#rba7u8t86b)">
        <path fill="#B5B5B5" fill-rule="evenodd" d="M16.84 8.92l-5.036 5.072c-.493.608-1.581.678-2.154.156.11-.521-.704-1.533-.212-1.448l3.031-4.06-2.962-4.442c-.267-.614-.308-1.688.273-2.201.581-.512 1.572-.429 2.056.187L16.84 8.92z"/>
    </g>
</svg>
