<svg xmlns="http://www.w3.org/2000/svg" width="16" height="16">
    <defs>
        <filter id="o46qj4p9ka">
            <feFlood flood-color="#FFF" flood-opacity="1" result="floodOut"/>
            <feComposite in="floodOut" in2="SourceGraphic" operator="atop" result="compOut"/>
            <feBlend in="compOut" in2="SourceGraphic"/>
        </filter>
        <filter id="axyuzw7tfb">
            <feFlood flood-color="#FFF" flood-opacity="1" result="floodOut"/>
            <feComposite in="floodOut" in2="SourceGraphic" operator="atop" result="compOut"/>
            <feBlend in="compOut" in2="SourceGraphic"/>
        </filter>
    </defs>
    <g filter="url(#o46qj4p9ka)">
        <path fill="#B5B5B5" fill-rule="evenodd" d="M6.988 8.281l4.281-5.9c.492-.608 1.58-.678 2.153-.156.574.521.704 1.533.212 2.141l-3.031 3.943 2.962 3.865c.915.615.308 1.689-.273 2.202-.581.512-1.572.429-2.056-.187L6.988 8.281z"/>
    </g>
    <g filter="url(#axyuzw7tfb)">
        <path fill="#B5B5B5" fill-rule="evenodd" d="M.11 8.281l4.159-5.9c.492-.608 1.58-.678 2.153-.156.574.521.704 1.533.212 2.141L3.603 8.309l2.961 3.865c.916.615.309 1.689-.272 2.202-.581.512-1.572.429-2.055-.187L.11 8.281z"/>
    </g>
</svg>
