<svg 
 xmlns="http://www.w3.org/2000/svg"
 xmlns:xlink="http://www.w3.org/1999/xlink"
 width="14px" height="14px">
<path fill-rule="evenodd"  opacity="0" fill="rgb(255, 0, 255)"
 d="M-0.000,-0.010 L14.000,-0.010 L14.000,13.998 L-0.000,13.998 L-0.000,-0.010 Z"/>
<path fill-rule="evenodd"  fill="rgb(255, 255, 255)"
 d="M11.751,3.613 L10.348,3.613 L10.348,2.254 C10.348,1.563 9.788,1.000 9.099,1.000 L2.249,1.000 C1.560,1.000 1.000,1.563 1.000,2.254 L1.000,9.132 C1.000,9.824 1.560,10.387 2.249,10.387 L3.652,10.387 L3.652,11.745 C3.652,12.437 4.212,13.000 4.901,13.000 L11.751,13.000 C12.440,13.000 13.000,12.437 13.000,11.745 L13.000,4.868 C13.000,4.176 12.440,3.613 11.751,3.613 ZM2.171,9.132 L2.171,2.254 C2.171,2.211 2.206,2.176 2.249,2.176 L9.099,2.176 C9.142,2.176 9.177,2.211 9.177,2.254 L9.177,9.132 C9.177,9.176 9.142,9.211 9.099,9.211 L2.249,9.211 C2.206,9.211 2.171,9.176 2.171,9.132 ZM11.829,11.745 C11.829,11.789 11.794,11.824 11.751,11.824 L4.901,11.824 C4.858,11.824 4.823,11.789 4.823,11.745 L4.823,10.387 L9.099,10.387 C9.788,10.387 10.348,9.824 10.348,9.132 L10.348,4.789 L11.751,4.789 C11.794,4.789 11.829,4.824 11.829,4.868 L11.829,11.745 Z"/>
</svg>