<svg xmlns="http://www.w3.org/2000/svg" width="610" height="335">
    <path fill-rule="evenodd" fill="#8F8F8F" d="M0 0h610v335H0V0z"/>
    <path fill-rule="evenodd" fill="#FFF" d="M327.697 194.999h-45.454a5.268 5.268 0 0 1-5.262-5.273v-44.458a5.268 5.268 0 0 1 5.262-5.273h45.454a5.267 5.267 0 0 1 5.261 5.273v44.458a5.267 5.267 0 0 1-5.261 5.273zm-.1-44.049c0-3.656-2.265-5.71-5.059-5.71h-35.136c-2.795 0-5.06 2.054-5.06 5.71v21.302c0 3.278 2.265 5.071 5.06 5.071h35.136c2.794 0 5.059-1.793 5.059-5.07V150.95zm-6.32 22.366h-32.615c-1.499 0-2.715-.336-2.715-2.721v-19.207a2.718 2.718 0 0 1 2.715-2.721h32.615c1.5 0 2.715 1.218 2.715 2.721v19.207c0 2.385-1.215 2.721-2.715 2.721zm-.859-3.416-6.293-7.603c-.262-.127-.706-.127-.969 0l-3.568 3.806-8.274-9.563c.146-.31-.748-.31-1.017 0l-10.792 12.61c-.377.301-.068.981.635.981H319.934c.582 0 .883-.697.484-.231z"/>
</svg>
