<svg width="17" height="17" viewBox="0 0 17 17" fill="none" xmlns="http://www.w3.org/2000/svg">
<g id="element/img_loading">
<path id="img_loding (Stroke)" d="M4.37099 15.3685C5.89346 16.2777 7.67486 16.6552 9.43526 16.4419C11.1957 16.2285 12.8353 15.4363 14.0965 14.1897C15.3576 12.9431 16.1689 11.3129 16.4028 9.55507C16.6366 7.79728 16.2799 6.0116 15.3885 4.47864C14.4971 2.94567 13.1217 1.75231 11.4783 1.08608C9.83492 0.419854 8.01677 0.318515 6.30954 0.797992C4.60231 1.27747 3.10277 2.31058 2.04656 3.73499C0.990347 5.15941 0.437328 6.89437 0.474405 8.66727L1.90413 8.63737C1.87368 7.18139 2.32784 5.75655 3.19525 4.58676C4.06266 3.41697 5.29415 2.56853 6.69621 2.17476C8.09826 1.78099 9.59141 1.86422 10.941 2.41136C12.2906 2.9585 13.4202 3.93854 14.1522 5.19747C14.8843 6.45641 15.1773 7.92289 14.9852 9.36647C14.7932 10.8101 14.1269 12.1489 13.0912 13.1727C12.0554 14.1964 10.7089 14.847 9.26319 15.0222C7.81747 15.1975 6.35451 14.8874 5.10418 14.1407L4.37099 15.3685Z" fill="#1D828F"/>
</g>
</svg>
