<svg width="32" height="32" viewBox="0 0 32 32" fill="none" xmlns="http://www.w3.org/2000/svg">
<g id="common/ic_apps">
<g id="icon">
<path fill-rule="evenodd" clip-rule="evenodd" d="M11 6H8C6.89543 6 6 6.89543 6 8V11C6 12.1046 6.89543 13 8 13H11C12.1046 13 13 12.1046 13 11V8C13 6.89543 12.1046 6 11 6ZM8 4C5.79086 4 4 5.79086 4 8V11C4 13.2091 5.79086 15 8 15H11C13.2091 15 15 13.2091 15 11V8C15 5.79086 13.2091 4 11 4H8Z" fill="#333333"/>
<path fill-rule="evenodd" clip-rule="evenodd" d="M11 18.9974H8C6.89543 18.9974 6 19.8928 6 20.9974V23.9974C6 25.102 6.89543 25.9974 8 25.9974H11C12.1046 25.9974 13 25.102 13 23.9974V20.9974C13 19.8928 12.1046 18.9974 11 18.9974ZM8 16.9974C5.79086 16.9974 4 18.7883 4 20.9974V23.9974C4 26.2065 5.79086 27.9974 8 27.9974H11C13.2091 27.9974 15 26.2065 15 23.9974V20.9974C15 18.7883 13.2091 16.9974 11 16.9974H8Z" fill="#333333"/>
<path fill-rule="evenodd" clip-rule="evenodd" d="M23.9974 6H20.9974C19.8928 6 18.9974 6.89543 18.9974 8V11C18.9974 12.1046 19.8928 13 20.9974 13H23.9974C25.102 13 25.9974 12.1046 25.9974 11V8C25.9974 6.89543 25.102 6 23.9974 6ZM20.9974 4C18.7883 4 16.9974 5.79086 16.9974 8V11C16.9974 13.2091 18.7883 15 20.9974 15H23.9974C26.2065 15 27.9974 13.2091 27.9974 11V8C27.9974 5.79086 26.2065 4 23.9974 4H20.9974Z" fill="#333333"/>
<path fill-rule="evenodd" clip-rule="evenodd" d="M23.9974 18.9974H20.9974C19.8928 18.9974 18.9974 19.8928 18.9974 20.9974V23.9974C18.9974 25.102 19.8928 25.9974 20.9974 25.9974H23.9974C25.102 25.9974 25.9974 25.102 25.9974 23.9974V20.9974C25.9974 19.8928 25.102 18.9974 23.9974 18.9974ZM20.9974 16.9974C18.7883 16.9974 16.9974 18.7883 16.9974 20.9974V23.9974C16.9974 26.2065 18.7883 27.9974 20.9974 27.9974H23.9974C26.2065 27.9974 27.9974 26.2065 27.9974 23.9974V20.9974C27.9974 18.7883 26.2065 16.9974 23.9974 16.9974H20.9974Z" fill="#333333"/>
</g>
</g>
</svg>
