<svg width="32" height="32" viewBox="0 0 32 32" fill="none" xmlns="http://www.w3.org/2000/svg">
<g id="common/ic_calendar">
<g id="icon">
<path d="M26.8002 5.75463H22.3335V3.5813H20.3335V5.75463H11.6668V3.5813H9.66683V5.75463H5.20016C4.1695 5.75463 3.3335 6.59062 3.3335 7.62129V24.4172C3.3335 26.6266 5.12416 28.4172 7.3335 28.4172H24.6668C26.8748 28.4172 28.6668 26.6266 28.6668 24.4172V7.62129C28.6668 6.59062 27.8308 5.75463 26.8002 5.75463ZM26.6668 7.75462V10.1573H5.3335V7.75462H26.6668ZM24.6668 26.4172H7.3335C6.22816 26.4172 5.3335 25.5226 5.3335 24.4172V12.1586H26.6668V24.4186C26.6668 25.5239 25.7708 26.4172 24.6668 26.4172Z" fill="#333333"/>
<path d="M11.3322 15.0853H9.0255C8.6575 15.0853 8.35883 15.3839 8.35883 15.7519V17.4693C8.35883 17.8373 8.6575 18.1359 9.0255 18.1359H11.3322C11.7002 18.1359 11.9988 17.8373 11.9988 17.4693V15.7519C11.9988 15.3839 11.7002 15.0853 11.3322 15.0853Z" fill="#333333"/>
<path d="M17.2762 15.0853H14.9695C14.6015 15.0853 14.3028 15.3839 14.3028 15.7519V17.4693C14.3028 17.8373 14.6015 18.1359 14.9695 18.1359H17.2762C17.6428 18.1359 17.9428 17.8373 17.9428 17.4693V15.7519C17.9428 15.3839 17.6428 15.0853 17.2762 15.0853Z" fill="#333333"/>
<path d="M11.3322 20.3959H9.0255C8.6575 20.3959 8.35883 20.6959 8.35883 21.0626V22.7799C8.35883 23.1479 8.6575 23.4466 9.0255 23.4466H11.3322C11.7002 23.4466 11.9988 23.1479 11.9988 22.7799V21.0626C11.9988 20.6946 11.7002 20.3959 11.3322 20.3959Z" fill="#333333"/>
<path d="M17.2762 20.3959H14.9695C14.6015 20.3959 14.3028 20.6959 14.3028 21.0626V22.7799C14.3028 23.1479 14.6015 23.4466 14.9695 23.4466H17.2762C17.6428 23.4466 17.9428 23.1479 17.9428 22.7799V21.0626C17.9428 20.6946 17.6428 20.3959 17.2762 20.3959Z" fill="#333333"/>
<path d="M23.2188 15.0853H20.9122C20.5455 15.0853 20.2455 15.3839 20.2455 15.7519V17.4693C20.2455 17.8373 20.5455 18.1359 20.9122 18.1359H23.2188C23.5868 18.1359 23.8855 17.8373 23.8855 17.4693V15.7519C23.8855 15.3839 23.5868 15.0853 23.2188 15.0853Z" fill="#333333"/>
<path d="M23.2188 20.3959H20.9122C20.5455 20.3959 20.2455 20.6959 20.2455 21.0626V22.7799C20.2455 23.1479 20.5455 23.4466 20.9122 23.4466H23.2188C23.5868 23.4466 23.8855 23.1479 23.8855 22.7799V21.0626C23.8855 20.6946 23.5868 20.3959 23.2188 20.3959Z" fill="#333333"/>
</g>
</g>
</svg>
