<svg width="32" height="32" viewBox="0 0 32 32" fill="none" xmlns="http://www.w3.org/2000/svg">
<g id="common/ic_calendar">
<g id="icon">
<path d="M26.8 5.75469H22.3334V3.58136H20.3334V5.75469H11.6667V3.58136H9.66671V5.75469H5.20004C4.16937 5.75469 3.33337 6.59069 3.33337 7.62135V24.4173C3.33337 26.6266 5.12404 28.4173 7.33337 28.4173H24.6667C26.8747 28.4173 28.6667 26.6266 28.6667 24.4173V7.62135C28.6667 6.59069 27.8307 5.75469 26.8 5.75469ZM26.6667 7.75468V10.1573H5.33337V7.75468H26.6667ZM24.6667 26.4173H7.33337C6.22804 26.4173 5.33337 25.5226 5.33337 24.4173V12.1587H26.6667V24.4186C26.6667 25.524 25.7707 26.4173 24.6667 26.4173Z" fill="#555555"/>
<path d="M11.332 15.0853H9.02537C8.65737 15.0853 8.35871 15.384 8.35871 15.752V17.4693C8.35871 17.8373 8.65737 18.136 9.02537 18.136H11.332C11.7 18.136 11.9987 17.8373 11.9987 17.4693V15.752C11.9987 15.384 11.7 15.0853 11.332 15.0853Z" fill="#555555"/>
<path d="M17.276 15.0853H14.9694C14.6014 15.0853 14.3027 15.384 14.3027 15.752V17.4693C14.3027 17.8373 14.6014 18.136 14.9694 18.136H17.276C17.6427 18.136 17.9427 17.8373 17.9427 17.4693V15.752C17.9427 15.384 17.6427 15.0853 17.276 15.0853Z" fill="#555555"/>
<path d="M11.332 20.396H9.02537C8.65737 20.396 8.35871 20.696 8.35871 21.0627V22.78C8.35871 23.148 8.65737 23.4466 9.02537 23.4466H11.332C11.7 23.4466 11.9987 23.148 11.9987 22.78V21.0627C11.9987 20.6947 11.7 20.396 11.332 20.396Z" fill="#555555"/>
<path d="M17.276 20.396H14.9694C14.6014 20.396 14.3027 20.696 14.3027 21.0627V22.78C14.3027 23.148 14.6014 23.4466 14.9694 23.4466H17.276C17.6427 23.4466 17.9427 23.148 17.9427 22.78V21.0627C17.9427 20.6947 17.6427 20.396 17.276 20.396Z" fill="#555555"/>
<path d="M23.2187 15.0853H20.912C20.5454 15.0853 20.2454 15.384 20.2454 15.752V17.4693C20.2454 17.8373 20.5454 18.136 20.912 18.136H23.2187C23.5867 18.136 23.8854 17.8373 23.8854 17.4693V15.752C23.8854 15.384 23.5867 15.0853 23.2187 15.0853Z" fill="#555555"/>
<path d="M23.2187 20.396H20.912C20.5454 20.396 20.2454 20.696 20.2454 21.0627V22.78C20.2454 23.148 20.5454 23.4466 20.912 23.4466H23.2187C23.5867 23.4466 23.8854 23.148 23.8854 22.78V21.0627C23.8854 20.6947 23.5867 20.396 23.2187 20.396Z" fill="#555555"/>
</g>
</g>
</svg>
