<svg width="32" height="32" viewBox="0 0 32 32" fill="none" xmlns="http://www.w3.org/2000/svg">
<g id="common/ic_dashboard">
<g id="icon">
<path fill-rule="evenodd" clip-rule="evenodd" d="M24.0199 6.00103L7.97942 6.0016C6.87488 6.00164 5.97949 6.89708 5.97949 8.00165V11.0017C5.97949 12.1064 6.87497 13.0018 7.97956 13.0018L24.02 13.0012C25.1246 13.0012 26.02 12.1057 26.02 11.0012V8.00108C26.02 6.89646 25.1245 6.00099 24.0199 6.00103ZM7.97935 4.00155C5.77027 4.00162 3.97949 5.79251 3.97949 8.00165V11.0017C3.97949 13.211 5.77044 15.0019 7.97964 15.0018L24.0201 15.0013C26.2292 15.0012 28.02 13.2103 28.02 11.0012V8.00108C28.02 5.79183 26.229 4.0009 24.0198 4.00098L7.97935 4.00155Z" fill="#333333"/>
<path fill-rule="evenodd" clip-rule="evenodd" d="M12.3128 18.9989H7.97949C6.87492 18.9989 5.97949 19.8944 5.97949 20.9989V23.9989C5.97949 25.1035 6.87492 25.9989 7.97949 25.9989H12.3128C13.4174 25.9989 14.3128 25.1035 14.3128 23.9989V20.9989C14.3128 19.8944 13.4174 18.9989 12.3128 18.9989ZM7.97949 16.9989C5.77035 16.9989 3.97949 18.7898 3.97949 20.9989V23.9989C3.97949 26.2081 5.77035 27.9989 7.97949 27.9989H12.3128C14.522 27.9989 16.3128 26.2081 16.3128 23.9989V20.9989C16.3128 18.7898 14.522 16.9989 12.3128 16.9989H7.97949Z" fill="#333333"/>
<path fill-rule="evenodd" clip-rule="evenodd" d="M23.9769 18.9989H22.3102C21.2057 18.9989 20.3102 19.8944 20.3102 20.9989V23.9989C20.3102 25.1035 21.2057 25.9989 22.3102 25.9989H23.9769C25.0815 25.9989 25.9769 25.1035 25.9769 23.9989V20.9989C25.9769 19.8944 25.0815 18.9989 23.9769 18.9989ZM22.3102 16.9989C20.1011 16.9989 18.3102 18.7898 18.3102 20.9989V23.9989C18.3102 26.2081 20.1011 27.9989 22.3102 27.9989H23.9769C26.186 27.9989 27.9769 26.2081 27.9769 23.9989V20.9989C27.9769 18.7898 26.186 16.9989 23.9769 16.9989H22.3102Z" fill="#333333"/>
</g>
</g>
</svg>
