<svg width="32" height="32" viewBox="0 0 32 32" fill="none" xmlns="http://www.w3.org/2000/svg">
<g id="alert/ic_notification">
<path id="icon" fill-rule="evenodd" clip-rule="evenodd" d="M26.8363 21.0999L25.2097 18.4199V12.9399C25.2097 7.81988 21.0763 3.67322 15.983 3.67322C10.8897 3.67322 6.75632 7.80655 6.75632 12.9266V18.4066L5.15632 21.0999C4.35632 22.4332 5.31632 24.1266 6.87632 24.1266H11.0897C11.4763 26.4999 13.5163 28.3266 16.0097 28.3266C18.503 28.3266 20.543 26.5132 20.9297 24.1266H25.1297C26.6896 24.1266 27.6496 22.4199 26.8363 21.0866V21.0999ZM16.0097 26.3266C14.6363 26.3266 13.4897 25.3932 13.1297 24.1266H18.8897C18.5297 25.3932 17.383 26.3266 16.0097 26.3266ZM6.87632 22.1266L8.76965 18.9666V12.9266C8.76965 8.89988 12.0097 5.65988 15.9963 5.65988C19.983 5.65988 23.223 8.89988 23.223 12.9266V18.9666L25.1297 22.1266H6.86298H6.87632Z" fill="#333333"/>
</g>
</svg>
