<svg width="32" height="32" viewBox="0 0 32 32" fill="none" xmlns="http://www.w3.org/2000/svg">
<g id="user/ic_profile">
<g id="icon">
<path fill-rule="evenodd" clip-rule="evenodd" d="M5.3335 26.7335C5.3335 21.542 9.54204 17.3335 14.7335 17.3335L17.2669 17.3335C22.4583 17.3335 26.6668 21.542 26.6668 26.7335V28.6668H24.6668V26.7335C24.6668 22.6466 21.3538 19.3335 17.2669 19.3335L14.7335 19.3335C10.6466 19.3335 7.3335 22.6466 7.3335 26.7335V28.6668H5.3335V26.7335Z" fill="#333333"/>
<path fill-rule="evenodd" clip-rule="evenodd" d="M16.0002 5.33316C13.6069 5.33316 11.6668 7.27326 11.6668 9.66649C11.6668 12.0597 13.6069 13.9998 16.0002 13.9998C18.3934 13.9998 20.3335 12.0597 20.3335 9.66649C20.3335 7.27326 18.3934 5.33316 16.0002 5.33316ZM9.66683 9.66649C9.66683 6.16869 12.5024 3.33316 16.0002 3.33316C19.498 3.33316 22.3335 6.16869 22.3335 9.66649C22.3335 13.1643 19.498 15.9998 16.0002 15.9998C12.5024 15.9998 9.66683 13.1643 9.66683 9.66649Z" fill="#333333"/>
</g>
</g>
</svg>
