<svg width="32" height="32" viewBox="0 0 32 32" fill="none" xmlns="http://www.w3.org/2000/svg">
<g id="common/ic_settings">
<g id="icon">
<path fill-rule="evenodd" clip-rule="evenodd" d="M11.8481 3.56194C11.9017 3.05301 12.3309 2.66666 12.8426 2.66666H19.1552C19.6665 2.66666 20.0955 3.05234 20.1496 3.56075L20.4644 6.51606C20.9953 6.76677 21.5028 7.06088 21.9832 7.39499L24.6968 6.18607C25.1644 5.97777 25.7138 6.15621 25.9698 6.59951L29.1261 12.0661C29.382 12.5093 29.262 13.0742 28.8479 13.3751L26.4447 15.1215C26.4745 15.4255 26.4902 15.7149 26.4902 16.001C26.4902 16.2843 26.4744 16.5722 26.4445 16.8763L28.8479 18.6229C29.262 18.9238 29.382 19.4889 29.1259 19.9321L25.9676 25.3987C25.7118 25.8414 25.1633 26.0199 24.696 25.8124L21.9803 24.6068C21.5015 24.9398 20.9928 25.2337 20.4588 25.4847L20.1477 28.4342C20.094 28.9428 19.6653 29.3289 19.1538 29.3293L12.8433 29.3333C12.3314 29.3337 11.9019 28.9473 11.8482 28.4382L11.5369 25.4876C11.0045 25.2363 10.4967 24.9423 10.0169 24.6088L7.30483 25.8161C6.83737 26.0241 6.28826 25.8458 6.03228 25.4027L2.87396 19.9362C2.61788 19.4929 2.73786 18.9279 3.15197 18.627L5.55749 16.8789C5.52953 16.5775 5.51582 16.2907 5.51582 16.0051C5.51582 15.7177 5.52945 15.4298 5.55735 15.1285L3.15122 13.3765C2.73768 13.0754 2.61805 12.5108 2.87396 12.0679L6.03228 6.6013C6.28831 6.15816 6.8376 5.97984 7.30509 6.18811L10.0182 7.39679C10.4996 7.06132 11.0071 6.76697 11.537 6.51734L11.8481 3.56194ZM13.7429 4.66666L13.4018 7.90571L12.8419 8.12969C12.0987 8.42695 11.4005 8.83201 10.7618 9.33384L10.2877 9.70631L7.31363 8.3814L5.05582 12.2893L7.69522 14.2111L7.60933 14.8074C7.54388 15.2619 7.51582 15.6408 7.51582 16.0051C7.51582 16.3647 7.54379 16.7419 7.60949 17.2018L7.69468 17.7981L5.05624 19.7155L7.31377 23.6229L10.2851 22.3002L10.7588 22.6715C11.3912 23.1672 12.0905 23.5733 12.8446 23.8775L13.4019 24.1023L13.7427 27.3327L18.2531 27.3298L18.594 24.0971L19.1528 23.8728C19.9111 23.5684 20.611 23.1627 21.2351 22.671L21.7087 22.2979L24.6857 23.6196L26.9437 19.7114L24.3046 17.7936L24.3906 17.1966C24.4593 16.7194 24.4902 16.3421 24.4902 16.001C24.4902 15.6532 24.4592 15.274 24.3907 14.8024L24.304 14.2048L26.9439 12.2864L24.6881 8.37947L21.7147 9.70406L21.2408 9.33228C20.6063 8.83451 19.9072 8.42867 19.1577 8.12672L18.6007 7.90228L18.2561 4.66666H13.7429Z" fill="#555555"/>
<path fill-rule="evenodd" clip-rule="evenodd" d="M16 13.3457C14.534 13.3457 13.3456 14.5341 13.3456 16.0001C13.3456 17.4661 14.534 18.6545 16 18.6545C17.4659 18.6545 18.6544 17.4661 18.6544 16.0001C18.6544 14.5341 17.4659 13.3457 16 13.3457ZM11.3456 16.0001C11.3456 13.4295 13.4294 11.3457 16 11.3457C18.5705 11.3457 20.6544 13.4295 20.6544 16.0001C20.6544 18.5706 18.5705 20.6545 16 20.6545C13.4294 20.6545 11.3456 18.5706 11.3456 16.0001Z" fill="#555555"/>
</g>
</g>
</svg>
