<svg width="32" height="32" viewBox="0 0 32 32" fill="none" xmlns="http://www.w3.org/2000/svg">
<g id="common/ic_time">
<g id="icon">
<path fill-rule="evenodd" clip-rule="evenodd" d="M15.9998 27.3333C22.2591 27.3333 27.3332 22.2592 27.3332 16C27.3332 9.74073 22.2591 4.66663 15.9998 4.66663C9.74061 4.66663 4.6665 9.74073 4.6665 16C4.6665 22.2592 9.74061 27.3333 15.9998 27.3333ZM15.9998 29.3333C23.3636 29.3333 29.3332 23.3638 29.3332 16C29.3332 8.63616 23.3636 2.66663 15.9998 2.66663C8.63604 2.66663 2.6665 8.63616 2.6665 16C2.6665 23.3638 8.63604 29.3333 15.9998 29.3333Z" fill="#333333"/>
<path fill-rule="evenodd" clip-rule="evenodd" d="M16.7819 15.1473V7.18965H14.9153V15.1473C14.9153 16.1782 15.751 17.0139 16.7819 17.0139H23.8365V15.1473L16.7819 15.1473Z" fill="#333333"/>
</g>
</g>
</svg>
