<svg width="245" height="28" viewBox="0 0 245 28" fill="none" xmlns="http://www.w3.org/2000/svg">
<g id="logo_connectedcare" filter="url(#filter0_d_241_1058)">
<g id="logo">
<path d="M52.4105 2.613H58.839L57.3196 5.65196H53.0884C48.8572 5.65196 46.6598 8.15326 46.6598 12.5481C46.6598 16.9429 48.8572 19.4442 53.0884 19.4442H58.839L57.3196 22.4831H52.4338C47.291 22.413 43.1533 18.9065 43.1533 12.5714C43.1533 6.23638 47.2676 2.68313 52.4105 2.613Z" fill="white"/>
<path d="M66.9974 7.54586C71.813 7.54586 74.5247 10.6783 74.5247 15.19C74.5247 19.7017 71.813 22.8342 66.9974 22.8342C62.1818 22.8342 59.4701 19.7017 59.4701 15.19C59.4701 10.6783 62.2052 7.54586 66.9974 7.54586ZM66.9974 19.9355C69.7792 19.9355 71.2286 18.1355 71.2286 15.19C71.2286 12.2446 69.7792 10.4679 66.9974 10.4679C64.2156 10.4679 62.7662 12.2446 62.7662 15.19C62.7662 18.1355 64.2156 19.9355 66.9974 19.9355Z" fill="white"/>
<path d="M86.0257 12.8287C86.0257 11.4728 85.4647 10.7715 84.1556 10.7715H79.8777V22.4364H76.5816V7.94294H84.8102C87.779 7.94294 89.3686 9.46242 89.3686 12.7585V22.4598H86.0257V12.8287Z" fill="white"/>
<path d="M101.081 12.8287C101.081 11.4728 100.52 10.7715 99.2111 10.7715H94.9331V22.4364H91.637V7.94294H99.8656C102.834 7.94294 104.424 9.46242 104.424 12.7585V22.4598H101.081V12.8287Z" fill="white"/>
<path d="M113.306 22.4368C108.888 22.4368 106.48 19.1407 106.48 15.003C106.48 10.8653 109.028 7.54586 113.587 7.54586C118.145 7.54586 120.693 10.6082 120.693 15.1433V16.6394H109.916C110.174 18.5095 111.623 19.6783 113.4 19.6783H119.758L118.355 22.4601H113.306V22.4368ZM117.28 13.8576C117.093 11.59 115.877 10.3277 113.587 10.3277C111.413 10.3277 109.916 11.8472 109.846 13.8576H117.28Z" fill="white"/>
<path d="M129.483 22.4365C125.416 22.4365 122.353 19.8885 122.353 15.2132C122.353 10.5378 125.439 7.91966 129.483 7.91966H134.439L132.99 10.795H129.81C127.169 10.795 125.766 12.595 125.766 15.2132C125.766 17.8313 127.169 19.5612 129.81 19.5612H134.486L133.036 22.4365H129.46H129.483Z" fill="white"/>
<path d="M141.172 22.4363C137.923 22.4363 136.31 20.8233 136.31 17.6207V3.52461H139.606V7.94279H145.286L143.884 10.8181H139.606V17.6441C139.606 18.9532 140.284 19.6311 141.452 19.6311H145.426L143.977 22.4363H141.172Z" fill="white"/>
<path d="M152.72 22.4368C148.302 22.4368 145.894 19.1407 145.894 15.003C145.894 10.8653 148.442 7.54586 153 7.54586C157.559 7.54586 160.107 10.6082 160.107 15.1433V16.6394H149.33C149.564 18.5095 151.037 19.6783 152.813 19.6783H159.172L157.769 22.4601H152.72V22.4368ZM156.694 13.8576C156.507 11.59 155.291 10.3277 153 10.3277C150.826 10.3277 149.33 11.8472 149.26 13.8576H156.694Z" fill="white"/>
<path d="M168.663 22.4364C164.689 22.4364 161.626 19.8416 161.626 15.1896C161.626 10.5377 164.689 7.94287 168.663 7.94287H171.468V2.613H174.764V22.4364H168.639H168.663ZM171.468 10.7481H169.06C166.325 10.7481 164.992 12.5013 164.992 15.1896C164.992 17.8779 166.395 19.6312 169.06 19.6312H171.468V10.7481Z" fill="white"/>
<path d="M186.429 2.613H192.858L191.338 5.65196H187.107C182.876 5.65196 180.678 8.15326 180.678 12.5481C180.678 16.9429 182.876 19.4442 187.107 19.4442H192.858L191.338 22.4831H186.452C181.31 22.413 177.172 18.9065 177.172 12.5714C177.172 6.23638 181.31 2.70651 186.452 2.65976L186.429 2.613Z" fill="white"/>
<path d="M198.724 22.4364C195.732 22.4364 194.096 20.4728 194.096 18.065C194.096 15.6572 195.709 13.6936 198.724 13.6936H204.077V12.7351C204.077 11.4261 203.446 10.7248 202.067 10.7248H195.218L196.597 7.94294H202.067C205.527 7.94294 207.327 9.64943 207.327 12.7585V22.4598H198.724V22.4364ZM199.005 16.3351C197.929 16.3351 197.438 17.13 197.438 18.0183C197.438 18.9066 197.953 19.678 198.958 19.678H204.077V16.3351H199.005Z" fill="white"/>
<path d="M210.203 22.4364V12.9222C210.203 10.117 212.049 7.94294 215.275 7.94294H219.319L217.87 10.8183H215.673C214.317 10.8183 213.499 11.6832 213.499 13.0157V22.4364H210.203Z" fill="white"/>
<path d="M226.145 22.4368C221.75 22.4368 219.319 19.1407 219.319 15.003C219.319 10.8653 221.867 7.54586 226.426 7.54586C230.984 7.54586 233.532 10.6082 233.532 15.1433V16.6394H222.755C222.989 18.5095 224.462 19.6783 226.239 19.6783H232.597L231.194 22.4601H226.145V22.4368ZM230.119 13.8576C229.932 11.59 228.716 10.3277 226.426 10.3277C224.252 10.3277 222.755 11.8472 222.685 13.8576H230.119Z" fill="white"/>
<path d="M237.46 2.58972V3.38453H235.988V7.56894H234.982V3.38453H233.51V2.58972H237.46Z" fill="white"/>
<path d="M239.798 2.58972L240.733 6.79751H240.78L241.668 2.58972H243.375V7.56894H242.369V3.36115H242.299L241.341 7.56894H240.032L239.073 3.36115H239.003V7.56894H237.998V2.58972H239.798Z" fill="white"/>
</g>
<g id="LG">
<path d="M24.2184 14.8625H27.9586V18.3456C27.2807 18.6028 25.9249 18.8833 24.6391 18.8833C20.5015 18.8833 19.1223 16.7794 19.1223 12.5248C19.1223 8.2703 20.4314 6.04952 24.569 6.04952C26.8599 6.04952 28.1924 6.7742 29.2677 8.15342L32.1197 5.53524C30.3898 3.03394 27.3508 2.28589 24.4755 2.28589C18.0469 2.28589 14.6573 5.79238 14.6573 12.5015C14.6573 19.2106 17.6963 22.7638 24.4288 22.7638C27.5145 22.7638 30.5301 21.969 32.1664 20.8235V11.169H24.195V14.8859L24.2184 14.8625Z" fill="white"/>
<path d="M4.60519 2.56656H0V22.4367H14.1195V18.5795H4.60519V2.56656Z" fill="white"/>
</g>
</g>
<defs>
<filter id="filter0_d_241_1058" x="-1" y="0" width="246" height="31" filterUnits="userSpaceOnUse" color-interpolation-filters="sRGB">
<feFlood flood-opacity="0" result="BackgroundImageFix"/>
<feColorMatrix in="SourceAlpha" type="matrix" values="0 0 0 0 0 0 0 0 0 0 0 0 0 0 0 0 0 0 127 0" result="hardAlpha"/>
<feOffset dy="2"/>
<feGaussianBlur stdDeviation="0.5"/>
<feComposite in2="hardAlpha" operator="out"/>
<feColorMatrix type="matrix" values="0 0 0 0 0 0 0 0 0 0 0 0 0 0 0 0 0 0 0.15 0"/>
<feBlend mode="normal" in2="BackgroundImageFix" result="effect1_dropShadow_241_1058"/>
<feBlend mode="normal" in="SourceGraphic" in2="effect1_dropShadow_241_1058" result="shape"/>
</filter>
</defs>
</svg>
