<svg width="32" height="32" viewBox="0 0 32 32" fill="none" xmlns="http://www.w3.org/2000/svg">
<g id="common/ic_apps_fill">
<g id="icon">
<path fill-rule="evenodd" clip-rule="evenodd" d="M4 8C4 5.78646 5.78662 4 8 4H11C13.2134 4 15 5.78646 15 8V11C15 13.2135 13.2134 15 11 15H8C5.78662 15 4 13.2135 4 11V8ZM4 21C4 18.7865 5.78662 17 8 17H11C13.2134 17 15 18.7865 15 21V24C15 26.2135 13.2134 28 11 28H8C5.78662 28 4 26.2135 4 24V21ZM21 4C18.7866 4 17 5.78646 17 8V11C17 13.2135 18.7866 15 21 15H24C26.2134 15 28 13.2135 28 11V8C28 5.78646 26.2134 4 24 4H21ZM17 21C17 18.7865 18.7866 17 21 17H24C26.2134 17 28 18.7865 28 21V24C28 26.2135 26.2134 28 24 28H21C18.7866 28 17 26.2135 17 24V21Z" fill="white"/>
<path d="M8 3.25C5.37243 3.25 3.25 5.37222 3.25 8V11C3.25 13.6278 5.37243 15.75 8 15.75H11C13.6276 15.75 15.75 13.6278 15.75 11V8C15.75 5.37222 13.6276 3.25 11 3.25H8ZM8 16.25C5.37243 16.25 3.25 18.3722 3.25 21V24C3.25 26.6278 5.37243 28.75 8 28.75H11C13.6276 28.75 15.75 26.6278 15.75 24V21C15.75 18.3722 13.6276 16.25 11 16.25H8ZM21 3.25C18.3724 3.25 16.25 5.37222 16.25 8V11C16.25 13.6278 18.3724 15.75 21 15.75H24C26.6276 15.75 28.75 13.6278 28.75 11V8C28.75 5.37222 26.6276 3.25 24 3.25H21ZM21 16.25C18.3724 16.25 16.25 18.3722 16.25 21V24C16.25 26.6278 18.3724 28.75 21 28.75H24C26.6276 28.75 28.75 26.6278 28.75 24V21C28.75 18.3722 26.6276 16.25 24 16.25H21Z" stroke="black" stroke-opacity="0.3" stroke-width="1.5"/>
</g>
</g>
</svg>
