<svg width="32" height="32" viewBox="0 0 32 32" fill="none" xmlns="http://www.w3.org/2000/svg">
<g id="common/ic_menu">
<g id="icon">
<path fill-rule="evenodd" clip-rule="evenodd" d="M26.6667 8.99968L5.33594 8.99968L5.33594 6.99968L26.6667 6.99968V8.99968Z" fill="white"/>
<path fill-rule="evenodd" clip-rule="evenodd" d="M26.6667 17.0007L5.33594 17.0007L5.33594 15.0007L26.6667 15.0007V17.0007Z" fill="white"/>
<path fill-rule="evenodd" clip-rule="evenodd" d="M26.6667 25.001L5.33594 25.001L5.33594 23.001L26.6667 23.001V25.001Z" fill="white"/>
<path d="M26.6667 9.74968H27.4167V8.99968V6.99968V6.24968L26.6667 6.24968L5.33594 6.24968H4.58594L4.58594 6.99968L4.58594 8.99968L4.58594 9.74968H5.33594L26.6667 9.74968ZM26.6667 17.7507H27.4167V17.0007V15.0007V14.2507H26.6667L5.33594 14.2507H4.58594L4.58594 15.0007L4.58594 17.0007L4.58594 17.7507H5.33594L26.6667 17.7507ZM26.6667 25.751H27.4167V25.001V23.001V22.251H26.6667L5.33594 22.251H4.58594L4.58594 23.001L4.58594 25.001L4.58594 25.751H5.33594L26.6667 25.751Z" stroke="black" stroke-opacity="0.3" stroke-width="1.5"/>
</g>
</g>
</svg>
