<svg width="24" height="24" viewBox="0 0 24 24" fill="none" xmlns="http://www.w3.org/2000/svg">
<g id="common/ic_time_fill" clip-path="url(#clip0_241_1076)">
<g id="icon">
<path fill-rule="evenodd" clip-rule="evenodd" d="M22 12C22 17.5228 17.5228 22 12 22C6.47715 22 2 17.5228 2 12C2 6.47715 6.47715 2 12 2C17.5228 2 22 6.47715 22 12ZM12.5865 5.39233V11.3606L17.8774 11.3606V12.7605H12.5865C11.8133 12.7605 11.1865 12.1337 11.1865 11.3606V5.39233H12.5865Z" fill="white"/>
<path d="M12 22.75C17.9371 22.75 22.75 17.9371 22.75 12C22.75 6.06294 17.9371 1.25 12 1.25C6.06294 1.25 1.25 6.06294 1.25 12C1.25 17.9371 6.06294 22.75 12 22.75Z" stroke="black" stroke-opacity="0.3" stroke-width="1.5"/>
</g>
</g>
<defs>
<clipPath id="clip0_241_1076">
<rect width="24" height="24" fill="white"/>
</clipPath>
</defs>
</svg>
